<?xml version="1.0" standalone="no"?>
<!DOCTYPE svg PUBLIC "-//W3C//DTD SVG 1.1//EN" "http://www.w3.org/Graphics/SVG/1.1/DTD/svg11.dtd" >
<svg xmlns="http://www.w3.org/2000/svg">
<metadata></metadata>
<defs>
<font id="iABCItalic" horiz-adv-x="1228" >
<font-face units-per-em="2048" ascent="1495" descent="-553" />
<missing-glyph horiz-adv-x="655" />
<glyph horiz-adv-x="790" />
<glyph unicode=" "  horiz-adv-x="655" />
<glyph unicode="&#x09;" horiz-adv-x="655" />
<glyph unicode="&#xa0;" horiz-adv-x="655" />
<glyph unicode="!" horiz-adv-x="368" d="M141 217q44 0 76 -37.5t25 -81.5q-9 -46 -53.5 -82t-90.5 -36q-44 0 -75 36.5t-23 79.5q8 44 52.5 82.5t88.5 38.5zM150 469l86 825q5 47 38.5 83t83.5 36q48 0 68.5 -35t7.5 -82l-211 -825l-3 -9q-3 -10 -7.5 -20.5t-14 -19t-20.5 -8.5h-6q-20 0 -23.5 26t1.5 29z" />
<glyph unicode="&#x22;" horiz-adv-x="534" d="M633 1376l-94 -418q-8 -40 -45 -40q-14 0 -23 10t-6 30l53 414l2 2q4 27 8.5 42t20.5 28.5t43 13.5q38 0 45 -24q2 -8 2 -27q0 -9 -4 -29zM340 1376l-94 -418q-4 -20 -17.5 -30t-27.5 -10t-23 10t-6 30l51 414l2 2q5 28 10 42.5t21 28t43 13.5q38 0 45 -24q2 -8 2 -27 q-1 -4 -2 -14t-2 -15z" />
<glyph unicode="#" horiz-adv-x="1206" d="M860 866h-260l-215 -381h281zM328 371l-211 -371h-90l211 371h-187l55 114h187l194 381h-163l57 115h184l191 371h112l-211 -371h281l190 371h111l-211 -371h207l-55 -115h-207l-217 -381h207l-56 -114h-207l-211 -371h-92l211 371h-280z" />
<glyph unicode="$" horiz-adv-x="858" d="M303 27h16q114 0 192 79.5t95 176.5q6 31 8 52t-1 51.5t-15 53.5t-38 49t-66 48l-33 16zM451 758l133 446q-68 -1 -121.5 -26t-84 -65t-47 -77.5t-22.5 -74.5q-6 -40 3.5 -72.5t35 -57.5t47 -39.5t56.5 -33.5zM252 -143h-72l37 125q-70 12 -143 53q-16 8 -30 17t-26.5 18 t-17.5 12l43 258h55q2 -20 6 -70q5 -56 14.5 -95t38.5 -78t76 -58l166 547l-65 32q-82 41 -129 114.5t-27 180.5q30 167 134.5 247.5t285.5 86.5l35 125h72l-39 -133q113 -21 200 -51l-45 -227h-55q-1 25 0 51.5t-5.5 55t-17.5 53t-34 44.5t-56 31l-139 -473l72 -41 q21 -12 37.5 -22.5t36 -24.5t34 -27t30 -29.5t26 -33.5t19 -38t12.5 -43t4 -48.5t-5 -55.5q-28 -157 -169 -269.5t-324 -115.5z" />
<glyph unicode="%" horiz-adv-x="1763" d="M1403 616q-48 0 -88 -20.5t-65.5 -50.5t-45.5 -72.5t-30 -79t-17 -76.5q-10 -55 -9.5 -104t12.5 -95.5t46.5 -74t89.5 -27.5q66 0 117 45.5t78 109.5t41 144q11 58 10.5 109.5t-12.5 95.5t-44.5 70t-82.5 26zM1409 651q140 0 217.5 -96t52.5 -238q-25 -144 -137 -240.5 t-254 -96.5t-225 96t-57 239q24 143 142 239.5t261 96.5zM567 1380q-190 0 -241 -299q-10 -55 -10.5 -104t10.5 -95.5t45.5 -74t89.5 -27.5q50 0 91.5 25t70 68.5t47.5 95t30 110.5q12 55 9.5 109t-14.5 96.5t-45 69t-83 26.5zM575 1415q140 0 218.5 -96t52.5 -238 q-25 -145 -138 -241.5t-255 -96.5q-141 0 -223.5 96.5t-57.5 239.5q25 141 143 238.5t260 97.5zM1538 1434l-1182 -1475h-131l1223 1475h90z" />
<glyph unicode="&#x26;" horiz-adv-x="1374" d="M1282 588h53q0 -60 -61 -115q-106 -87 -279 -59q-63 -128 -145 -230q-163 -204 -404 -204q-133 0 -230 51.5t-141.5 149.5t-21.5 227q20 110 133 207.5t240 97.5q-91 69 -125.5 133t-21.5 139q10 58 45 102.5t85 70t104.5 38t111.5 12.5q40 0 87.5 -15.5t90.5 -42.5 t68 -70.5t16 -92.5q-5 -33 -28 -55.5t-64 -22.5q-33 0 -51 18t-11 58q0 1 2 13t4 18q1 4 11 24q13 23 59 23q5 31 -54.5 52.5t-103.5 21.5q-79 0 -145 -56.5t-78 -134.5q-21 -122 46.5 -187t195.5 -67l-15 -92q-51 0 -84 10q-6 1 -17 3t-17 3q-30 5 -41 5q-251 0 -295 -252 q-27 -143 44.5 -240.5t211.5 -97.5q165 0 301 168q99 118 147 233l-106 23q-124 24 -146 -103h-51q5 30 6 35l13 39q19 40 69 82q38 32 71 41t95 -2l180 -41q80 -17 156.5 3.5t89.5 78.5z" />
<glyph unicode="'" horiz-adv-x="247" d="M346 1376l-98 -418q-4 -20 -18 -30t-29 -10q-14 0 -23 10t-6 30l53 414l2 2q5 28 10 42.5t21.5 28t44.5 13.5q40 0 47 -24q2 -8 2 -27q0 -9 -4 -29z" />
<glyph unicode="(" horiz-adv-x="593" d="M688 1432l12 -13q-365 -310 -464 -866q-99 -555 157 -864l-18 -15q-172 130 -258.5 365t-36.5 514q50 278 220 513.5t388 365.5z" />
<glyph unicode=")" horiz-adv-x="593" d="M-57 -326l-13 13q366 311 465 866q96 560 -157 864l18 15q172 -130 258.5 -365t36.5 -514q-50 -278 -220 -513.5t-388 -365.5z" />
<glyph unicode="*" horiz-adv-x="819" d="M600 1434l-6 -273l293 125l10 -33l-285 -188l219 -188l-22 -33l-246 145l-94 -293h-33l10 295l-296 -147l-11 33l285 188l-219 188l22 33l250 -125l90 273h33z" />
<glyph unicode="+" horiz-adv-x="862" d="M410 0h-115l63 352h-313l16 94h312l55 312h115l-58 -312h314l-17 -94h-311z" />
<glyph unicode="," horiz-adv-x="409" d="M-49 -305l8 51q64 11 130.5 78.5t76.5 134.5q8 38 -19 47q-12 3 -28 0h-35q-34 0 -61.5 28.5t-20.5 69.5q6 38 46.5 79.5t94.5 41.5q72 0 109 -51.5t27 -110.5q-15 -79 -50 -145.5t-81.5 -110.5t-96 -72t-100.5 -40z" />
<glyph unicode="-" horiz-adv-x="634" d="M569 532v-98q-329 -35 -503 -65v98q26 3 133 15t195 23.5t175 26.5z" />
<glyph unicode="." horiz-adv-x="372" d="M2 102q0 44 39.5 83.5t83.5 39.5q45 0 84 -39t39 -84q0 -46 -38.5 -84t-84.5 -38q-45 0 -84 38.5t-39 83.5z" />
<glyph unicode="/" horiz-adv-x="559" d="M680 1493l-672 -1882h-92l629 1882h135z" />
<glyph unicode="0" horiz-adv-x="1157" d="M645 811q-82 0 -155.5 -32.5t-124.5 -85t-84.5 -115t-44.5 -127.5q-18 -94 10.5 -175.5t101 -131.5t174.5 -50q144 0 264.5 101t147.5 256q29 154 -57.5 257t-231.5 103zM102 451q23 131 107.5 240t205.5 170t251 61q129 0 226.5 -61.5t141.5 -169.5t21 -240t-105 -240 t-201.5 -169.5t-248.5 -61.5q-97 0 -179 36.5t-136 98.5t-77 150t-6 186z" />
<glyph unicode="1" horiz-adv-x="901" d="M561 782l-115 -661q-6 -29 15.5 -49.5t58 -28.5t66.5 -10.5t55 -1.5l-6 -31h-569l6 31q204 7 219 88l115 661q4 24 -6.5 41.5t-28 26.5t-46 14.5t-52 6.5t-54.5 1l6 31h570l-7 -31q-210 0 -227 -88z" />
<glyph unicode="2" horiz-adv-x="1105" d="M836 156l75 82h52l-142 -238h-286h-453l-47 55q77 45 134 80.5t144.5 98.5t146.5 118.5t108 126t61 135.5q9 50 -2 98t-46 81.5t-87 33.5q-77 0 -132 -23t-116 -79l-27 16q181 201 359 201q113 0 185 -77t52 -185q-9 -50 -35 -101.5t-69.5 -100.5t-85.5 -90t-103.5 -87.5 t-101.5 -75t-101 -69.5h517z" />
<glyph unicode="3" horiz-adv-x="966" d="M199 270l-4 62q137 14 232 93.5t130 184.5q18 66 12.5 122.5t-48.5 94t-115 37.5q-81 0 -148 -42.5t-80 -114.5q50 -3 64.5 -22.5t9.5 -49.5q-5 -36 -36.5 -55t-63.5 -19q-37 0 -54 28.5t-12 61.5q22 123 134 193.5t245 70.5q62 0 115 -16.5t92 -48t56.5 -82t6.5 -113.5 q-21 -115 -137.5 -213.5t-253.5 -128.5l2 -10q43 6 80 6q77 0 138 -20t98 -54.5t60 -80.5t23.5 -98t-12.5 -107q-18 -71 -62.5 -137t-110.5 -121.5t-161 -92.5t-204 -44q-156 -10 -245.5 40t-78.5 119q6 43 38 73t83 30q82 0 69 -88q-3 -24 -32 -49t-54 -27q3 -15 28 -33 t74.5 -30.5t121.5 3.5q100 22 181 87t125.5 148t51.5 169q5 65 -13.5 119.5t-60 95t-115 57t-169.5 2.5z" />
<glyph unicode="4" horiz-adv-x="1040" d="M113 137h432l100 533zM590 -471h-156l90 516h-528l-27 43l836 834h33l-140 -785h189l51 -92h-258z" />
<glyph unicode="5" horiz-adv-x="958" d="M348 760l-84 -193q91 1 166.5 -17.5t126.5 -53t88 -81.5t51.5 -103t17.5 -118t-14 -126q-18 -78 -56.5 -151.5t-98.5 -139t-134.5 -115t-170.5 -78t-201 -28.5q-127 0 -190 44t-50 111q8 41 42.5 68.5t86.5 27.5q36 0 56 -23.5t14 -57.5q-5 -33 -31 -52q-4 -3 -12 -8 t-12 -8q-20 -10 -29 -16q3 -17 37 -32.5t88 -15.5q115 0 218 68t168 170t89 215q14 55 11.5 107.5t-14.5 99.5t-43 84.5t-73.5 63t-107.5 35.5t-144 1l203 465h547l-59 -143h-486z" />
<glyph unicode="6" horiz-adv-x="1038" d="M379 522l6 49q41 52 116 85.5t150 33.5q146 0 221.5 -87.5t49.5 -235.5q-29 -160 -179.5 -273.5t-322.5 -113.5q-198 0 -291.5 129.5t-56.5 336.5q81 449 440 740q98 78 267 149t325 82l-10 -55q-156 -14 -300 -92t-250.5 -195.5t-180.5 -263.5t-101 -299 q-9 -52 -14 -99.5t-6 -105.5t10.5 -104.5t33.5 -86.5t64 -62.5t101 -22.5q64 0 119.5 28t93 74t62 100t34.5 111q16 98 -36 166t-177 68q-98 0 -168 -56z" />
<glyph unicode="7" horiz-adv-x="1118" d="M1069 922l47 -58q-125 -153 -191.5 -236t-175 -225t-181.5 -248.5t-161 -248.5t-163 -285q-17 -33 -37 -45t-53 -12q-42 0 -61 25t-11 67q8 43 391 512q116 143 286.5 350t186.5 227h-676l-92 -163h-49l160 340h780z" />
<glyph unicode="8" horiz-adv-x="1058" d="M471 633q-125 -74 -183 -153t-77 -173q-22 -111 41.5 -193.5t173.5 -82.5q123 0 196.5 67.5t88.5 167.5q5 39 5.5 76t-14 76t-40.5 74.5t-74.5 72t-116.5 68.5zM678 1300q-92 1 -163.5 -62t-90.5 -159q-16 -82 7 -133t89 -108q13 -11 45 -37t53 -43q118 61 162.5 117 t63.5 163q10 70 0.5 127.5t-53 95.5t-113.5 39zM991 1051q-21 -122 -110 -195q-39 -31 -97 -59q-30 -15 -125 -60q152 -101 204.5 -187t31.5 -206q-25 -160 -157 -262t-332 -102q-114 0 -196 47t-115.5 119.5t-18.5 152.5q20 109 129.5 212.5t247.5 152.5q-33 23 -51.5 36.5 t-45.5 35t-41.5 37.5t-32 38.5t-25.5 44t-14 48.5t-5 57t8 65q26 132 161 229t287 97q154 0 238.5 -83t58.5 -218z" />
<glyph unicode="9" horiz-adv-x="1155" d="M-55 -451l10 52q169 17 325 91.5t275 188t201.5 261.5t111.5 309q9 50 13.5 95.5t4 98t-13 94.5t-35.5 77.5t-65 55t-100 19.5q-75 0 -137.5 -46t-98.5 -111t-49 -136q-49 -274 205 -274q87 0 158 59l16 -25q-72 -62 -136.5 -95.5t-135.5 -33.5q-143 0 -227.5 91 t-59.5 239q19 107 91 193.5t173 135t211 54.5q212 12 316 -96.5t67 -325.5q-24 -137 -100 -279.5t-189 -266t-247 -220.5t-287 -152t-297 -53z" />
<glyph unicode=":" horiz-adv-x="610" d="M207 217q45 0 83 -38t38 -81q0 -44 -37.5 -81t-83.5 -37q-43 0 -82 37t-39 81q0 43 39 81t82 38zM328 664q-45 0 -83 36.5t-38 81.5q0 42 38.5 80.5t82.5 38.5t82.5 -38.5t38.5 -80.5q0 -45 -38 -81.5t-83 -36.5z" />
<glyph unicode=";" horiz-adv-x="419" d="M-41 -305l8 51q63 11 129 77t78 132q6 41 -20 47q-8 2 -29 2q-5 0 -16 -1t-19 -1q-33 0 -60.5 28.5t-19.5 69.5q6 36 48 77.5t96 41.5q70 0 106.5 -50.5t26.5 -109.5q-15 -79 -50 -144.5t-81.5 -109t-96 -71t-100.5 -39.5zM367 782q0 -45 -38 -81.5t-83 -36.5 q-44 0 -82.5 36.5t-38.5 81.5q0 41 39 80t82 39q44 0 82.5 -38.5t38.5 -80.5z" />
<glyph unicode="&#x3c;" horiz-adv-x="921" d="M47 371l19 98l860 367l-17 -91l-725 -315l617 -313l-21 -115z" />
<glyph unicode="=" horiz-adv-x="901" d="M803 246h-778l14 73h776zM872 635l-14 -74h-776l12 74h778z" />
<glyph unicode="&#x3e;" horiz-adv-x="921" d="M864 469l-18 -98l-860 -367l18 111l727 315l-616 313l16 95z" />
<glyph unicode="?" horiz-adv-x="698" d="M193 217q43 0 74 -37.5t24 -81.5q-9 -44 -54.5 -81t-89.5 -37t-74 36.5t-22 79.5t53 82t89 39zM188 506l50 282q42 4 88 13.5t109 34.5t113 60t88.5 96t45.5 136q3 42 -12 76t-42.5 53.5t-59.5 30t-65 7t-57 -18.5q-14 -8 -34 -23q-14 -7 -23 -10q-18 -6 -57 -6 q-25 0 -37 2q-28 5 -37 10q-39 23 -29 86q7 39 49.5 58.5t86.5 19.5q65 0 120 -8t106.5 -29.5t85.5 -55t51.5 -87t10.5 -123.5q-22 -258 -219 -377q-66 -38 -160 -55q-34 -5 -57 -12q-27 -7 -27 -19l-36 -176q0 -9 -19 -14q-28 -7 -34 22q-2 11 1 27z" />
<glyph unicode="@" horiz-adv-x="2007" d="M1077 860q-68 0 -128 -43.5t-101 -111t-71 -148.5t-44 -156.5t-14 -134.5q0 -51 13 -92.5t49 -71.5t91 -30q104 0 187 86.5t126.5 222.5t43.5 291q0 80 -38.5 134t-113.5 54zM1309 207h-2q-37 -174 57 -174q62 0 115 35t88.5 88t64.5 126t45.5 137.5t28.5 133.5 q26 144 8 257.5t-68.5 198t-130.5 140.5t-178.5 83.5t-212.5 27.5q-184 0 -353 -98t-286 -269t-153 -379q-14 -76 -18.5 -149.5t2.5 -156t28.5 -153.5t66 -137t108 -112.5t160 -74.5t218.5 -28q9 15 18 33q10 17 23 33q32 36 78 36q52 0 63 -22q4 -12 4 -23q-1 -5 -2 -15 t-2 -15q-6 -28 -47 -53t-82 -25q-121 0 -226.5 19.5t-186.5 54.5t-148 84t-112 108.5t-78 127.5t-45.5 141.5t-15 150.5t13.5 154q26 147 99.5 278.5t175.5 228.5t224.5 168.5t252.5 107.5t253 36q175 0 323.5 -55.5t247.5 -151.5t142.5 -234t15.5 -295q-20 -115 -73.5 -223 t-126.5 -189.5t-166 -131t-187 -49.5q-46 0 -80.5 10t-54 26t-31 38t-15 42.5t-2.5 43.5t4 37.5t7 27.5q-65 -104 -170 -164.5t-233 -60.5q-102 0 -148.5 63t-46.5 170q0 87 27.5 185t79 189.5t119 166t155 119.5t178.5 45q120 0 189 -58l35 56h86z" />
<glyph unicode="A" horiz-adv-x="1515" d="M825 1221l-346 -613h465zM391 31l-6 -31h-442l6 31q49 4 99.5 28.5t80.5 77.5l659 1155q16 22 10.5 45.5t-13.5 35.5t-19 22q104 39 164 78q264 -1147 307 -1354q38 -85 184 -88l-6 -31h-559l6 31q16 1 44 6.5t61.5 15.5t55.5 27.5t19 38.5l-79 418h-527l-211 -396 q-15 -29 -0.5 -51.5t47.5 -34t63.5 -17.5t55.5 -7z" />
<glyph unicode="B" horiz-adv-x="1249" d="M500 702l-86 -479q-7 -39 -8 -67t6 -47t18.5 -30.5t34 -17.5t47 -8t63.5 -2q173 0 259 87.5t118 269.5q13 76 -1.5 131t-45.5 86t-86 49t-108 23t-125 5h-86zM508 754h67q171 0 277 73t135 240q12 65 -2.5 113t-44.5 74.5t-80 42t-96 20t-107 4.5h-49zM260 1393h533 q86 0 154.5 -20t118 -60.5t69.5 -108t4 -155.5q-21 -120 -128 -202.5t-229 -82.5v-10q77 -1 148 -24t125.5 -65.5t81 -109.5t12.5 -147q-17 -95 -73.5 -174.5t-135.5 -129.5t-170.5 -77t-183.5 -27h-592l6 31q12 1 35.5 2t36.5 2q46 4 67 10q72 23 88 115l193 1087 q6 38 -7 63t-41 36t-56 14.5t-62 1.5z" />
<glyph unicode="C" horiz-adv-x="1382" d="M1163 258l39 -20q-153 -145 -275 -200.5t-298 -55.5q-107 0 -195.5 29t-149.5 81t-103 122t-60 153t-17 174.5t23 185.5q26 114 77.5 222t131 204t178 168t226 114t266.5 42q104 0 186 -30.5t131 -81.5t74 -113.5t26 -131.5q0 -142 -94 -249t-250 -107q-33 0 -65.5 7 t-64.5 23t-56.5 39t-39.5 59t-15 79q0 53 29 89t69 48q41 11 69.5 -4.5t28.5 -56.5q0 -28 -23 -49t-55 -21q-12 0 -30 6q-11 -27 -11 -49q0 -58 47 -97.5t99 -39.5q71 0 128 46.5t87.5 118t32.5 150.5q2 61 -15 116.5t-51.5 101.5t-94.5 73t-138 27q-114 0 -217 -37.5 t-181.5 -102t-141.5 -150.5t-102.5 -182t-58.5 -198q-17 -84 -15 -166t16 -156.5t49 -138.5t83 -111t119 -73.5t156 -26.5q121 0 221.5 37.5t224.5 132.5z" />
<glyph unicode="D" horiz-adv-x="1527" d="M633 1341l-201 -1138q-12 -78 36.5 -115t127.5 -37q118 0 218 32.5t175 91t133.5 142.5t95.5 183.5t58 216.5q58 322 -82 473t-473 151h-88zM649 0h-633l7 31q13 1 35.5 2t35.5 2q47 4 68 10q72 23 88 115l190 1087q7 37 -9.5 62t-51 35.5t-63 14t-62.5 3.5l6 31h533 q79 0 151 -8t143 -25t130.5 -44.5t112.5 -66.5t89 -90t60 -117t26.5 -146t-12.5 -177q-22 -127 -82 -241.5t-145 -200.5t-187 -149t-212.5 -95.5t-217.5 -32.5z" />
<glyph unicode="E" horiz-adv-x="1230" d="M1186 1073h-51q4 43 5 77.5t-10.5 61.5t-25 47t-38 34.5t-49 23.5t-57.5 14.5t-64.5 7.5t-70.5 2h-190l-100 -567h225q16 0 38.5 4.5t61 18.5t74 50.5t55.5 90.5h51q-6 -18 -43 -90q-33 -68 -41 -109q-2 -8 -2 -53q1 -7 3.5 -26.5t3.5 -30.5q10 -70 -3 -133h-51 q36 206 -153 206h-232l-96 -540q-9 -51 12 -81t99 -30q115 0 170 4q78 3 149 27q74 26 130 82t97 155h52l-117 -319h-1002l7 31q44 0 66 0.5t50.5 4.5t42.5 12t30 22t24 36t14 54l194 1093q3 17 3 31t-2.5 24.5t-9.5 19t-14.5 14t-21.5 9.5t-26.5 6t-33.5 3t-38.5 1.5 t-44.5 0.5l6 31h961z" />
<glyph unicode="F" horiz-adv-x="1189" d="M692 31l-6 -31h-670l7 31q32 0 54.5 1t54.5 7t52.5 17t38.5 32t23 51l198 1114q6 33 -16 56t-60.5 33.5t-63.5 14.5t-48 5l6 31h981l-16 -320h-51q4 116 -36 176t-120 82q-61 15 -174 15q-30 0 -100.5 -2.5t-110.5 -2.5l-100 -567q65 0 167 -4q93 0 142 12q68 14 110 55 t58 121h49q-54 -132 -67.5 -211t-10.5 -231h-51q24 148 -105 178q-54 11 -137 11q-24 0 -81 -1.5t-89 -1.5l-98 -563q-4 -25 1.5 -43.5t24 -30t39.5 -18.5t57.5 -10.5t67.5 -4.5t80 -1z" />
<glyph unicode="G" horiz-adv-x="1611" d="M1214 557h-227l10 51h588l-10 -49q-137 0 -184 -78q-23 -40 -31 -92q-8 -37 -23 -125l-14 -80q-298 -204 -547 -204q-234 0 -394 89t-226.5 256t-26.5 392q27 154 111 285.5t203.5 220.5t267 139.5t301.5 50.5q84 0 268 -41t266 -41l-67 -383h-72q14 88 -11.5 166.5 t-80 132t-131.5 84.5t-164 31q-145 0 -262 -45.5t-199 -129.5t-134.5 -196t-76.5 -252q-15 -83 -15.5 -163t12.5 -157.5t46 -142t83 -114t127 -77.5t173 -28q195 0 287 83.5t131 287.5z" />
<glyph unicode="H" horiz-adv-x="1742" d="M588 31l-6 -31h-566l7 31q13 1 35.5 2t35.5 2q38 3 68 12q70 20 84 92l198 1135q5 29 -10.5 48t-48.5 27t-62 10.5t-69 2.5l6 31h567l-6 -31q-25 0 -41 -2q-148 -11 -159 -84l-89 -502h793l88 500q10 56 -49 78q-32 8 -53 8q-16 2 -47 2l6 31h545l-7 -31q-40 0 -68.5 -2 t-65 -10t-59 -26.5t-28.5 -47.5l-198 -1137q-5 -30 5 -51t26.5 -32t47 -17t53 -7t56.5 -1l-6 -31h-567l6 31q90 0 140.5 22t61.5 86l101 563h-793l-100 -563q-13 -73 45 -96q18 -6 59 -10q20 -2 64 -2z" />
<glyph unicode="I" horiz-adv-x="780" d="M623 1253l-201 -1114q-10 -71 67 -96q33 -10 68 -10q20 -2 55 -2l-6 -31h-590l7 31q36 -1 68 3t67 14t58.5 33.5t29.5 57.5l200 1114q5 27 -10.5 47.5t-38.5 31t-55 18t-50.5 9.5t-35.5 3l6 31h590l-6 -31q-31 0 -53.5 -1t-54.5 -7.5t-53 -17t-39 -32t-23 -51.5z" />
<glyph unicode="J" horiz-adv-x="720" d="M608 1276l-168 -948q-71 -408 -238.5 -633.5t-404.5 -226.5q-69 0 -99 33.5t-22 80.5t50.5 84t89.5 37q35 0 63 -23.5t33 -54.5q1 -5 2 -16t2 -15q3 -13 10 -20q14 -17 60 -2q5 2 14 5.5t12 4.5q21 10 29 17q32 25 61 79q74 141 144 545l186 1051q9 51 -29.5 69.5 t-140.5 18.5l6 31h547l-6 -31q-80 0 -121 -8.5t-57.5 -25.5t-22.5 -52z" />
<glyph unicode="K" horiz-adv-x="1527" d="M1528 1393l-6 -31q-65 -2 -156 -46.5t-179 -109.5t-181.5 -147t-162.5 -151t-124 -130q12 -15 126 -175.5t197 -262.5q261 -322 392 -309l-7 -31h-364l-524 737l563 512q18 14 30.5 31.5t15.5 37t-24.5 32.5t-85.5 12l6 31h484zM786 1393l-6 -31q-74 0 -113 -24t-49 -85 l-92 -514l-106 -600q-10 -62 28.5 -83.5t139.5 -24.5l-6 -31h-566l7 31q38 0 61.5 1t55 7t50.5 17t35 32t21 51l196 1114q6 35 -13.5 59t-56 33.5t-64 13t-54.5 3.5l6 31h526z" />
<glyph unicode="L" horiz-adv-x="1177" d="M1128 299l-151 -299h-961l7 31q19 0 46.5 4t69 15.5t73 40t38.5 69.5l196 1114q13 69 -81 86q-25 4 -72 4q-8 0 -21 -1t-16 -1l6 31h567l-6 -31q-2 0 -12 1t-18 1q-41 0 -66 -4q-94 -17 -104 -84l-193 -1094q-7 -42 -2.5 -70.5t39.5 -43.5t111 -17q79 -4 141 -1t109 13 t88.5 38t79.5 75t83 123h49z" />
<glyph unicode="M" horiz-adv-x="1906" d="M1147 0l6 31q208 13 223 108l185 1037l-697 -1106l-344 1101l-182 -1032q-11 -62 44 -86t165 -22l-6 -31h-525l7 31q29 0 59 4t67.5 14t64 33t32.5 57l196 1114q5 30 -2.5 50.5t-29 31.5t-41.5 15.5t-54 9.5l7 33h342l319 -1018q565 914 635 1018h360l-6 -31 q-203 0 -227 -129l-193 -1094q-6 -36 11 -59.5t52.5 -33t63 -12.5t62.5 -3l-6 -31h-588z" />
<glyph unicode="N" horiz-adv-x="1779" d="M547 31l-6 -31h-525l7 31q206 0 229 135l168 973q13 79 -7.5 118.5t-97.5 100.5l7 35h251l775 -1166l180 963q16 85 -32.5 123.5t-149.5 48.5l6 31h499l-6 -31q-129 0 -184 -62q-22 -22 -33 -55q-3 -10 -7 -29.5t-5 -23.5l-193 -1073q35 -52 54 -67.5t51 -20.5l-6 -31 h-254l-754 1143l-170 -975q-3 -19 -3.5 -35t3 -28.5t9 -22.5t15.5 -17.5t20 -13t24.5 -9t28.5 -6t32.5 -3.5t35 -1.5t38.5 -0.5z" />
<glyph unicode="O" horiz-adv-x="1683" d="M838 1413l-43 -61q-111 -15 -204 -80.5t-154 -161t-96.5 -213t-40.5 -237.5t23.5 -233.5t86 -202t157.5 -142.5t228 -55q246 -1 424 203q149 172 203 428q53 249 -9 451q-63 204 -222 271q-43 18 -91 25q-105 14 -158.5 -22.5t-60.5 -100.5q-6 -57 24 -106.5t76 -49.5 q9 0 23 9q2 3 5 9t5 9q8 21 39 21q35 0 50 -24.5t7 -55.5q-10 -35 -43 -57.5t-86 -18.5q-107 6 -151 76t-19 161q24 91 109 151.5t210 49.5q100 -9 183.5 -45t141.5 -91t100.5 -128t60 -155.5t20.5 -173t-18 -181.5q-18 -93 -55 -181t-90.5 -169t-126.5 -148.5t-159 -117 t-193 -77.5t-224 -28q-138 0 -252 38.5t-191 104.5t-128.5 155t-72 189.5t-13.5 208.5q8 106 41.5 208.5t95.5 196t145.5 167t197.5 122.5t245 62z" />
<glyph unicode="P" d="M672 31l-6 -31h-650l7 31q117 9 165.5 33t57.5 75l198 1114q10 62 -35 85.5t-153 23.5l6 31h635q76 0 144.5 -30t116 -80.5t69.5 -123t8 -151.5q-12 -69 -47.5 -131.5t-85.5 -109t-111 -80.5t-126 -51.5t-128 -17.5h-116l8 52q78 4 130 12t106 29.5t88.5 57t62.5 94.5 t43 143q27 152 -52.5 243.5t-222.5 91.5h-149l-209 -1179q-6 -30 2 -53t28.5 -36.5t43.5 -22.5t57 -13t58 -5t57 -1z" />
<glyph unicode="Q" horiz-adv-x="1443" d="M1470 -360l17 -15q-58 -88 -145.5 -138t-192.5 -50q-66 0 -121.5 15.5t-93 38t-72.5 61.5t-56 72t-48 83q-10 18 -30 54.5t-30 54.5q-38 67 -67 100q-85 105 -215 141q-206 -104 -295 -104q-40 0 -75.5 20.5t-35.5 55.5v10q5 27 29 45.5t58 26.5t62 11t54 3 q105 0 211 -27q160 45 293.5 126.5t223.5 183t147.5 212t80.5 224.5q15 90 12.5 173t-31 154.5t-73.5 124.5t-116.5 83t-159.5 30q-115 0 -209 -32.5t-155 -88.5t-98.5 -123t-51.5 -143q-19 -95 1.5 -183.5t78.5 -146t141 -57.5q36 0 69 15t50 43.5t-2 70.5q-62 0 -62 61 q0 35 23.5 53.5t56.5 16.5q34 -3 57 -26.5t23 -63.5q0 -34 -12.5 -67t-39 -64.5t-76.5 -50.5t-116 -19q-121 0 -203 65t-110 166t-4 214q19 87 68 164.5t127 142.5t195.5 103t258.5 38q113 0 207.5 -22.5t162 -63.5t117.5 -97.5t74 -123.5t32 -143t-9 -156 q-19 -97 -65.5 -193.5t-124 -190t-178.5 -173t-236 -145.5t-289 -105q51 -21 95.5 -47t77.5 -50.5t64.5 -56t51.5 -56t42.5 -59t34.5 -56t31 -56.5q10 -19 28 -51t23 -41q26 -44 56 -74q69 -69 178 -69q79 0 156.5 48.5t129.5 123.5z" />
<glyph unicode="R" horiz-adv-x="1488" d="M635 1341l-113 -628q94 0 167 9t139 31.5t112.5 60t79.5 96t47 137.5q26 149 -54.5 221.5t-230.5 72.5h-147zM610 31l-6 -31h-588l7 31q203 0 223 108l198 1114q6 38 -29 64t-77 35t-84 10l6 31h678q157 0 244 -93t59 -251q-11 -63 -50 -120t-87.5 -95.5t-105 -69 t-100.5 -46t-75 -20.5q81 -37 150 -143q32 -46 129 -223q37 -66 66 -111t67 -91t78 -71t82 -28l-6 -31h-324l-221 471q-30 62 -59 101.5t-58.5 57.5t-54 23.5t-58.5 5.5h-102l-90 -520q-6 -30 10.5 -52.5t48 -33.5t63 -16t66.5 -6z" />
<glyph unicode="S" horiz-adv-x="972" d="M516 858l158 -86q73 -40 123.5 -97.5t73 -120.5t21.5 -131.5t-24.5 -132.5t-71 -122t-113 -101t-156.5 -68.5t-195 -25.5q-113 0 -215 52q-31 15 -70 41q-8 5 -21 14t-18 12l53 291h62q0 -6 2 -40t4 -56q7 -69 25 -119q57 -139 217 -139q65 0 121.5 19.5t96.5 52 t68.5 76.5t41.5 91.5t12 98t-16.5 95t-48.5 83.5t-79 63l-178 92q-87 45 -133.5 117.5t-49.5 151t31 158.5t97.5 143t162.5 103t214 40q49 0 143 -22.5t133 -42.5l-47 -261h-63q-1 24 0 50t-3.5 53t-11 52.5t-22.5 48t-37.5 39.5t-55.5 26.5t-77 9.5q-85 0 -151 -28 t-103 -72t-51 -100.5t-2.5 -112t51 -108t102.5 -87.5z" />
<glyph unicode="T" horiz-adv-x="1249" d="M852 31l-6 -31h-588l6 31q21 0 40.5 1.5t53.5 10t59.5 23t48.5 44.5t30 70l206 1161h-296q-35 0 -70.5 -7.5t-72 -32.5t-44.5 -64h-49q23 117 29 145q15 50 24 66q13 20 23 10q30 -30 61 -43.5t86 -17.5q28 -3 71 -4t81.5 -1t121.5 0.5t142 0.5q330 0 385 4q118 8 182 57 q9 7 12 6t5 -12q0 -22 -13 -72q-18 -75 -51 -159h-51l2 14q6 32 -9 55t-44.5 34t-59 16t-59.5 5h-231l-205 -1159q-7 -41 3.5 -71t29 -45t49 -23.5t51 -10t47.5 -1.5z" />
<glyph unicode="U" horiz-adv-x="1544" d="M330 608l80 500q16 91 15 145t-36.5 76.5t-124.5 22.5h-33l9 43h587l-8 -41h-45q-82 0 -125 -53t-67 -207l-97 -656q-11 -76 3.5 -146t53.5 -126t111 -89.5t168 -33.5q51 0 95 7.5t80 23t66 35t54.5 48t43.5 57t34.5 67.5t27 73.5t22 81t17.5 84t15 88.5l84 531 q9 45 5.5 84t-19 67.5t-56 45t-104.5 16.5h-25l8 43h467l-8 -43h-22q-98 0 -144 -121q-16 -43 -26 -107q-6 -33 -15 -96l-75 -514q-41 -285 -176.5 -415t-391.5 -130q-264 0 -380 168t-68 471z" />
<glyph unicode="V" horiz-adv-x="1579" d="M1722 1393l-6 -31q-53 -2 -111.5 -29.5t-88.5 -77.5l-762 -1275h-97l-266 1275q-13 39 -54 64t-79 33.5t-76 9.5l6 31h607l-7 -31q-79 0 -108 -2q-51 -4 -68 -12q-24 -10 -29.5 -33.5t3.5 -61.5l209 -1067l626 1065q41 67 9.5 89t-177.5 22l7 31h462z" />
<glyph unicode="W" horiz-adv-x="2091" d="M1167 948l29 -119q165 249 205 371q61 191 -115 191q-43 0 -74 -20.5t-45.5 -53t-22.5 -72t-7.5 -79.5t3 -72.5t6.5 -53.5l3 -20zM1835 1393h358l-6 -31q-50 -1 -79.5 -27.5t-59.5 -79.5l-739 -1275h-97l-127 548l-331 -548h-97l-329 1273q-23 89 -148 107l8 33h463 l-6 -31q-8 -1 -24.5 -2t-24.5 -2q-33 -4 -45 -12q-46 -24 -27 -95l271 -1063l268 433l-74 323q-28 132 -22 225t50 152t112.5 86t164.5 27q79 0 128.5 -17t69 -49t19 -71.5t-19.5 -92.5q-29 -85 -119 -223q-18 -29 -158 -238l136 -555l604 1063q18 29 12 49t-20.5 32.5 t-39 19.5t-43.5 9t-34 1z" />
<glyph unicode="X" horiz-adv-x="1638" d="M514 31l-6 -31h-565l6 31q194 3 438 243q77 76 206 225.5t173 196.5q-19 34 -90.5 180.5t-120.5 227.5q-159 253 -334 258l6 31h650l-7 -31h-247l270 -510q25 28 62.5 67t93.5 94.5t86 86.5q170 174 208 262h-215l7 31h544l-6 -31q-203 -40 -407 -227q-65 -61 -170 -177 q-124 -138 -164 -178l371 -602q46 -75 99.5 -109.5t141.5 -37.5l-6 -31h-608l6 31h190l-317 592q-147 -158 -272 -295q-201 -226 -230 -297h207z" />
<glyph unicode="Y" horiz-adv-x="1435" d="M963 0h-588l4 31q32 -5 69 -1.5t69 11.5t56.5 33.5t30.5 64.5l96 537l-290 579q-56 107 -228 107l6 31h545l-6 -31q-86 -9 -107.5 -35.5t7.5 -75.5l233 -460l393 458q33 31 43 52.5t-2.5 33.5t-37 18.5t-64.5 8.5l6 31h381l-6 -31q-90 -7 -133.5 -29.5t-89.5 -75.5 l-465 -538l-105 -580q-14 -72 60 -94q21 -8 67 -12q20 -2 60 -2z" />
<glyph unicode="Z" horiz-adv-x="1259" d="M1325 1282l-932 -1046q-2 -2 -2 -5q-3 -6 4 -6q2 0 6 2q1 1 17 9q36 16 78 16q43 0 87.5 -15.5t79.5 -37.5t78 -61t71.5 -69.5t70.5 -78.5q59 -67 86 -96q41 -50 84 -87q93 -83 172 -83q76 0 129.5 30t56.5 94h27q-2 -69 -48 -122.5t-115.5 -80t-146.5 -26.5 q-106 0 -196 80q-39 34 -78 82q-48 59 -72 94q-37 50 -59.5 78t-61.5 68t-72.5 61t-80.5 37t-98 16q-75 0 -101 -40.5t-26 -108.5q0 -40 -30.5 -68.5t-74.5 -28.5q-41 0 -68.5 31t-27.5 78q0 30 35 70q15 21 53 59l922 1014l-7 8q-16 -14 -36 -14q-62 0 -122.5 18t-96.5 37 t-93 55q-105 63 -137 76q-82 35 -162 35q-122 0 -155 -148q42 37 73 37q37 0 67 -30t30 -68q0 -39 -29.5 -68.5t-67.5 -29.5q-45 0 -81.5 34t-36.5 99q0 82 75.5 156.5t184.5 74.5q111 0 188 -20t148 -56l50 -25t62 -28q61 -22 129 -22q60 0 84 24q19 16 35 53 q10 24 19.5 37t34.5 25t63 12q22 0 38 -15t13 -46.5t-37 -69.5z" />
<glyph unicode="[" horiz-adv-x="493" d="M358 51l-12 -51q-20 1 -41.5 2t-40.5 1t-37 -0.5t-33 -1t-26 -0.5t-18 -1h-7h-123l-26 57l227 1276l49 60h326l-10 -52l-254 -20l-221 -1249z" />
<glyph unicode="\" horiz-adv-x="819" d="M578 -20l-345 1433h136l303 -1433h-94z" />
<glyph unicode="]" horiz-adv-x="493" d="M309 0h-123h-7q-7 1 -18 1t-25.5 0.5t-32.5 1t-37 0.5t-40.5 -1t-41.5 -2l10 51l254 21l221 1247l-248 22l12 52h326l27 -58l-228 -1276z" />
<glyph unicode="^" horiz-adv-x="634" d="M555 1358l121 -314h-33l-182 220l-260 -220h-29l229 312q10 15 15 20q1 1 7 8t11 11q22 18 58 18q31 0 43 -12q3 -3 10 -17q1 -3 10 -26z" />
<glyph unicode="_" horiz-adv-x="1169" d="M1006 -123l-17 -102h-1044l16 102h1045z" />
<glyph unicode="`" horiz-adv-x="444" d="M276 1024l-200 209q-34 41 -32 72t32 53q22 16 43.5 10.5t38 -20t24.5 -31.5l127 -293h-33z" />
<glyph unicode="a" horiz-adv-x="1046" d="M664 354l55 293q1 33 -4 65t-19.5 68.5t-48 59t-82.5 22.5q-69 0 -129.5 -43.5t-101.5 -111t-71 -148.5t-44 -157t-14 -136q0 -52 13 -94t49 -72t91 -30q101 0 180.5 77t125.5 207zM930 190l37 -18q-56 -97 -114.5 -144.5t-137.5 -47.5q-45 0 -75 37t-13 112l18 78 q-168 -227 -399 -227q-103 0 -150 63.5t-47 171.5q0 87 27.5 185t80 190t120 166.5t155.5 120t180 45.5q126 0 179 -95l45 93h86l-127 -719q-11 -54 -9.5 -82t8.5 -35.5t23 -7.5q26 0 57 31.5t56 82.5z" />
<glyph unicode="b" horiz-adv-x="1056" d="M352 621l-69 -402q-13 -76 41 -128t133 -52q53 0 100 22.5t83 61t64.5 90t47 108t28.5 117.5q14 102 7.5 191.5t-47 150t-105.5 60.5q-105 0 -170 -56.5t-113 -162.5zM522 1563l-149 -836q42 69 105 115t129.5 63.5t134.5 10.5t121 -37t86.5 -86.5t33.5 -130.5 q0 -100 -24 -198t-73 -185.5t-116 -154t-160 -105.5t-198 -39q-104 0 -165.5 24.5t-92.5 77.5q-32 54 -25 143q1 24 4.5 50t9 56t7.5 40l153 854l27 149q13 74 -117 107l8 20q163 14 289 64q6 6 12 3q2 -1 0 -5z" />
<glyph unicode="c" horiz-adv-x="876" d="M702 197l29 -29q-106 -106 -183.5 -147t-176.5 -41q-75 0 -132.5 26t-92.5 71t-53 105t-17 127.5t18 139.5q21 91 66 174.5t109 151t151.5 107.5t183.5 40q98 0 153.5 -39t69.5 -95q12 -50 -10 -89.5t-63 -39.5q-47 0 -68 30.5t-9.5 66.5t46.5 51q7 63 -129 63 q-76 0 -142.5 -48t-109.5 -123.5t-67.5 -164.5t-24.5 -174q-1 -69 15 -125.5t52 -94.5t87.5 -49.5t128.5 14.5t169 92z" />
<glyph unicode="d" horiz-adv-x="1126" d="M717 375l49 278q0 32 -7 63t-23.5 65.5t-53 55.5t-88.5 21q-79 0 -145 -39t-108.5 -100t-72.5 -136.5t-42.5 -145t-12.5 -130.5q0 -84 47 -160.5t127 -76.5q104 0 191.5 84t138.5 221zM780 1481l8 20q153 13 281 64q7 7 12 2q1 -1 0 -4l-237 -1362q-13 -85 -6.5 -106 t34.5 -21q22 0 52.5 32t54.5 82l37 -16q-56 -96 -115 -144t-137 -48q-45 0 -74.5 36.5t-13.5 110.5l29 137q-6 -12 -18 -31t-53.5 -68t-87.5 -86.5t-120 -68t-152 -30.5q-102 0 -159.5 82.5t-57.5 191.5q0 73 17.5 150.5t50.5 151.5t84 140t114 116t144.5 79t171.5 29 q75 0 164 -52l94 506q13 74 -117 107z" />
<glyph unicode="e" horiz-adv-x="876" d="M578 868q-54 -2 -103.5 -33t-84.5 -75.5t-65 -104t-48 -110t-31 -101.5q198 32 312 133t114 207q0 42 -25 64t-69 20zM702 203l33 -29q-70 -82 -165.5 -138t-211.5 -56q-135 0 -210.5 78t-75.5 210q0 137 50.5 262t130 209.5t176.5 134.5t189 50q93 0 144 -32t51 -95 q0 -58 -23 -108.5t-57 -86t-86 -66t-99.5 -49.5t-109 -36t-101.5 -25t-91 -16q-14 -60 -9.5 -119t23.5 -105t70 -75t129 -29q117 0 243 121z" />
<glyph unicode="f" horiz-adv-x="616" d="M397 805l-209 -1309h-155l227 1309h-143l59 92h98q18 106 47 204t79 198t113.5 173t156 119.5t200.5 46.5q55 0 82 -27.5t19 -68.5q-7 -40 -42 -69t-75 -29q-31 0 -54 18.5t-26 46.5q-1 4 -2 12t-2 11q-3 13 -8 18q-14 14 -51 2q-130 -46 -201 -237q-25 -62 -55 -193 q-15 -74 -41 -225h243l-14 -92h-246z" />
<glyph unicode="g" horiz-adv-x="1011" d="M356 -72q-43 -3 -78 -8.5t-76 -19t-69.5 -34t-48 -55.5t-21.5 -81q-2 -54 22.5 -95.5t66.5 -63.5t89 -33t97 -11q46 0 101.5 12.5t115 39t104 76.5t56.5 116q8 44 -7 75.5t-40 47t-65.5 24.5t-67.5 10.5t-62 1.5q-74 0 -117 -2zM569 866q-53 0 -94.5 -12t-80.5 -42 t-64.5 -91t-34.5 -150q-10 -89 41.5 -157t144.5 -62q88 6 151 64t85 155q30 128 -10 211.5t-138 83.5zM78 182l250 129q-47 25 -77.5 48t-59 58t-39.5 83.5t-5 111.5q8 88 71.5 161.5t160.5 115t203 41.5q123 0 209 -86q6 7 17 20.5t17 20.5q35 35 43 41q55 51 117 51 q37 0 60.5 -20.5t17.5 -51.5q-6 -34 -30 -55t-58 -21q-61 0 -43 80q-67 0 -111 -96q67 -97 47 -211q-17 -100 -81 -173t-155 -108.5t-198 -35.5q-87 0 -143.5 -39t-61.5 -88q-3 -46 46 -70.5t131 -24.5h219q131 0 189 -59.5t46 -169.5q-4 -39 -23.5 -83t-64 -94t-107 -89.5 t-161 -65.5t-217.5 -26q-172 0 -272.5 52.5t-98.5 131.5q1 65 35 119.5t88 89.5t114 57t123 31q-24 5 -38.5 8.5t-36 10t-35 12.5t-30.5 16t-26.5 21.5t-19 27.5t-13.5 34.5t-4 42.5t5 52z" />
<glyph unicode="h" horiz-adv-x="1105" d="M676 129l100 561q16 92 -24.5 121.5t-114.5 1.5q-71 -27 -151.5 -95.5t-141.5 -158.5l-100 -559h-160l248 1399q5 28 -29 47.5t-90 34.5l8 20q153 13 281 64q6 6 12 3q2 -1 0 -5l-154 -918q88 129 197 204t205 85q94 10 144 -49t28 -183l-90 -501q-13 -85 -6.5 -106 t36.5 -21q21 0 52 32t55 82l35 -16q-56 -97 -114.5 -144.5t-137.5 -47.5q-43 0 -71.5 36t-16.5 113z" />
<glyph unicode="i" horiz-adv-x="604" d="M477 190l37 -18q-58 -97 -117.5 -144.5t-138.5 -47.5q-44 0 -73 36.5t-15 112.5l104 565q13 83 6.5 104t-36.5 21q-19 0 -54 -45q-28 -38 -53 -78l-37 25q56 96 115.5 144t138.5 48q45 0 74.5 -36t15.5 -111l-104 -565q-13 -85 -6 -106t37 -21q21 0 51.5 33t54.5 83z M336 1294q0 37 30.5 68t67.5 31q40 0 70.5 -30.5t30.5 -68.5q0 -40 -30 -69t-71 -29q-38 0 -68 30t-30 68z" />
<glyph unicode="j" horiz-adv-x="571" d="M440 766l-151 -842q-13 -76 -49 -195t-76 -180q-186 -278 -459 -278q-55 0 -81.5 27.5t-18.5 68.5q8 40 42 69t74 29q31 0 54 -18.5t26 -46.5q2 -15 5 -24.5t9.5 -18.5t19 -8.5t30.5 10.5q48 25 79.5 55.5t66 93t64.5 170.5t60 271l137 745q12 85 5.5 106t-35.5 21 q-19 0 -54 -45q-8 -12 -25.5 -39t-25.5 -39l-37 25q56 97 114.5 144.5t137.5 47.5q43 0 71.5 -36.5t16.5 -112.5zM307 1294q0 37 31 68t68 31q38 0 68 -30.5t30 -68.5t-29 -67t-69 -29q-38 0 -68.5 29.5t-30.5 66.5z" />
<glyph unicode="k" horiz-adv-x="1060" d="M711 819q-109 -2 -235 -111.5t-152 -228.5q45 -12 104.5 -13t125 19.5t120 50.5t90.5 81t37 110q0 42 -23.5 67t-66.5 25zM956 66v-39q-14 -16 -55.5 -31.5t-75.5 -15.5q-80 0 -141 25t-96 58.5t-70 86.5q-14 21 -42.5 69t-45.5 72q-56 78 -121 112l-57 -403h-164 l242 1382q15 53 -37 80q-31 13 -41 15q-3 1 -9.5 3t-9.5 3q-1 1 -4 2t-4 2l4 29q158 13 291 59q3 3 7 2.5t3 -8.5l-182 -955q63 128 193.5 216t236.5 88q164 0 164 -127q0 -80 -35 -144t-87 -103.5t-124 -68t-132.5 -41.5t-125.5 -20q89 -37 150 -109q19 -24 49 -69t43 -62 q20 -27 37.5 -46t43 -37.5t52 -25t64 -9.5t79.5 10z" />
<glyph unicode="l" horiz-adv-x="581" d="M520 1575v4h4l-2 -2h4q4 0 4 -6v-2l-245 -1368q-13 -85 -6.5 -106t36.5 -21q22 0 52 32.5t55 83.5l37 -18q-56 -96 -115.5 -144t-138.5 -48q-44 0 -73 36t-17 113l223 1268q0 38 -39.5 61t-71.5 29l4 29q155 13 289 59z" />
<glyph unicode="m" horiz-adv-x="1712" d="M1554 193l37 -19q-56 -98 -114 -146t-136 -48q-56 0 -77.5 42t-10.5 107l99 555q16 88 -19.5 124.5t-103.5 20.5q-65 -16 -140.5 -75.5t-136.5 -149.5l-108 -602h-144l119 692q11 59 -4.5 92.5t-49 37t-79.5 -12.5q-67 -26 -145.5 -93t-139.5 -155l-100 -563h-158 l129 696q12 52 6.5 88.5t-36.5 36.5q-22 0 -52 -35t-53 -86l-37 23q57 98 115 146.5t135 48.5q37 0 64.5 -27t27.5 -82q0 -9 -2 -23q-5 -34 -20 -127q89 131 194 200.5t197 72.5q89 5 136 -50t26 -161l-6 -35q85 123 186 186.5t193 65.5q88 0 135 -59t28 -172l-90 -506 q-12 -53 -6 -90t37 -37q22 0 51.5 34t52.5 85z" />
<glyph unicode="n" horiz-adv-x="1163" d="M1036 197l37 -23q-56 -98 -114.5 -146t-137.5 -48q-43 0 -71.5 36.5t-16.5 112.5l101 565q16 92 -25 121.5t-115 1.5q-71 -27 -151.5 -95.5t-141.5 -158.5l-100 -563h-158l129 696q13 85 6.5 105t-36.5 20q-20 0 -50 -35t-55 -86l-37 23q57 98 115 146.5t137 48.5 q42 0 71 -37t17 -113l-22 -129q90 132 197.5 208t203.5 85q94 10 143.5 -47t28.5 -178l-90 -506q-13 -85 -6 -106t37 -21q39 0 104 123z" />
<glyph unicode="o" horiz-adv-x="1095" d="M604 870q-74 0 -135 -31.5t-100.5 -85t-64 -113.5t-36.5 -126q-11 -59 -12 -122t12 -128.5t39 -116.5t76.5 -83.5t118.5 -32.5q74 0 130.5 28.5t92 81t57.5 111.5t35 135q12 68 15.5 129.5t-5.5 128.5t-32.5 115t-72 79t-118.5 31zM469 -20q-209 0 -317 128t-70 343 q38 213 191 342t362 129q206 0 306 -127.5t63 -343.5q-35 -201 -187.5 -336t-347.5 -135z" />
<glyph unicode="p" horiz-adv-x="1112" d="M424 655l-78 -434q10 -82 58.5 -129t119.5 -47q63 0 115.5 29.5t86 72t59.5 101t39 106.5t22 99q22 125 7.5 205.5t-49 126t-86 54.5t-104.5 -8.5t-104.5 -64t-85.5 -111.5zM319 49l-98 -553h-155l206 1200q12 85 5.5 106t-35.5 21q-20 0 -50 -35.5t-55 -87.5l-37 25 q56 97 114.5 145t137.5 48q45 0 73 -40t11 -128q41 48 89 84t96.5 57t99 30t95 2.5t85 -24.5t70.5 -51.5t49.5 -78.5t22.5 -106t-9 -133q-24 -131 -83 -240t-137 -177t-164.5 -103t-173.5 -25t-157 64z" />
<glyph unicode="q" horiz-adv-x="1009" d="M715 408l47 251q-6 95 -54.5 146t-123.5 51q-77 0 -140 -39t-103 -99.5t-67.5 -136.5t-39 -146t-11.5 -132q0 -32 3 -61t13 -62t27 -56.5t46.5 -39.5t68.5 -16q66 0 122.5 31t96.5 84t67 107.5t48 117.5zM879 920h86l-72 -396l-197 -1028h-159l145 740 q-142 -259 -377 -259q-119 0 -178 76t-59 199q0 88 23.5 180.5t71 179t113.5 154t158 108.5t197 41q148 0 219 -51z" />
<glyph unicode="r" horiz-adv-x="759" d="M362 348l-61 -348h-151l122 696q13 85 7 105t-35 20q-25 0 -54 -45q-24 -31 -53 -76l-37 23q56 98 115 146.5t137 48.5q44 0 73 -37t17 -113l-6 -25l10 -2q4 14 21.5 41t46.5 60t74.5 56.5t93.5 23.5q46 0 77.5 -29t24.5 -70q-7 -44 -39.5 -71t-76.5 -27q-79 0 -60 102 q-38 0 -71.5 -26t-58.5 -72.5t-44.5 -95t-34.5 -109.5t-22.5 -98.5t-14.5 -77.5z" />
<glyph unicode="s" horiz-adv-x="798" d="M506 922q42 0 83 -7.5t78.5 -22.5t58.5 -43.5t17 -66.5q-8 -77 -77 -77q-39 0 -50 29t-4 67q4 25 -5.5 43t-29 26.5t-39 12.5t-40.5 4q-75 0 -126.5 -49t-62.5 -117q-11 -65 56 -111q33 -23 69 -39q38 -18 78 -36q46 -22 78 -43.5t62 -53.5t41 -76t1 -98 q-22 -121 -132 -196t-247 -88q-86 -7 -155.5 12.5t-108 68t-26.5 119.5q5 32 27 55t50 23q40 0 52.5 -19.5t5.5 -56.5q-14 -81 33 -122.5t122 -34.5q76 8 138.5 59.5t76.5 136.5q13 72 -49 127q-35 28 -63 43q-12 7 -37 20.5t-37 20.5q-18 10 -30.5 17t-29 17t-28 18.5 t-25 20t-22.5 22.5t-18 24t-14.5 27t-9 29.5t-3 33.5t3.5 37q16 87 69 143.5t120.5 78.5t148.5 22z" />
<glyph unicode="t" horiz-adv-x="686" d="M555 139l27 -20q-67 -69 -148.5 -102.5t-154.5 -36.5q-34 -1 -59.5 7.5t-40.5 21t-23.5 36.5t-11 43.5t0 51t5 50.5t8.5 52l102 565h-145l18 92q64 0 84 4q33 5 55 27q18 20 31 61.5t33 134.5h135l-41 -227h293l-16 -92h-291l-92 -522q-9 -39 -13 -66q-4 -46 -2 -72 q7 -84 82 -84q88 0 164 76z" />
<glyph unicode="u" horiz-adv-x="1144" d="M1008 190l36 -16q-56 -98 -114 -146t-137 -48q-44 0 -74 37t-14 112l34 164q-96 -139 -203.5 -221.5t-199.5 -96.5q-90 -14 -137 42.5t-25 183.5l88 495q12 55 9 82.5t-11 35t-29 7.5t-53 -45q-30 -42 -51 -76l-37 23q56 99 114.5 147t137.5 48q42 0 71 -37t17 -113 l-98 -555q-11 -65 4 -101t48 -38t79 18q66 32 145.5 106t143.5 169l96 534h137l-113 -700q-11 -85 -5 -105t36 -20q21 0 52 32.5t53 81.5z" />
<glyph unicode="v" horiz-adv-x="1019" d="M193 240l79 456q12 85 6 105t-36 20q-23 0 -52 -45q-24 -31 -53 -76l-37 23q56 99 114.5 147t137.5 48q43 0 72.5 -37.5t15.5 -112.5l-90 -494q-5 -26 -7 -43t-3.5 -42t3 -41t12.5 -32t25 -24t42 -8q62 0 126.5 45.5t115.5 115.5t88.5 138t60.5 129q27 77 33 150 q4 49 4 155q0 105 88 105q72 0 72 -82q0 -131 -85.5 -311t-183.5 -291q-88 -101 -201.5 -179.5t-215.5 -78.5q-93 0 -124.5 55t-6.5 205z" />
<glyph unicode="w" horiz-adv-x="1531" d="M913 608l-51 -336q-7 -44 1.5 -86t38.5 -72t77 -30q184 0 346 428q27 77 33 150q4 49 4 155q0 52 21 86.5t67 34.5q37 0 54.5 -28.5t17.5 -69.5q0 -126 -78.5 -301.5t-167.5 -302.5q-77 -107 -176 -183t-201 -76q-85 0 -126 43.5t-42.5 124.5t19.5 195l-15 -14 q-34 -50 -61 -87t-71.5 -89.5t-83 -86t-86.5 -58.5t-91 -25q-37 0 -66 7t-54 24.5t-37.5 47.5t-16.5 74.5t10 106.5l94 456q14 85 7 105t-37 20q-22 0 -54 -45q-8 -11 -25.5 -37.5t-25.5 -38.5l-37 23q57 98 115 146.5t135 48.5q45 0 74.5 -37.5t13.5 -112.5l-94 -494 q-9 -52 -11.5 -94t19.5 -68t70 -26q71 0 192 150q33 43 82 112.5t60 83.5l53 342q10 62 43.5 94.5t83.5 32.5t66.5 -39t5.5 -84q-7 -35 -41 -86q-5 -9 -25.5 -38.5t-28.5 -45.5z" />
<glyph unicode="x" horiz-adv-x="1116" d="M555 162l-78 213l-133 -207q-43 -69 -117.5 -128.5t-130.5 -59.5q-52 0 -78 26t-26 66q0 44 28.5 80.5t69.5 52.5l16 -12q-5 -38 7.5 -68.5t44.5 -30.5q43 0 80 31t94 111l133 188l-64 188q-26 78 -57.5 123t-77.5 45q-83 0 -145 -127l-31 15q19 65 50.5 119.5t85 94.5 t116.5 40q61 0 96.5 -37.5t63.5 -110.5l71 -194l99 143q138 199 278 199q38 0 61 -21.5t23 -58.5q0 -45 -27 -80t-65 -55q-6 12 -16 25t-30 27.5t-40 14.5q-93 0 -184 -135l-82 -119l86 -254q11 -29 21 -50.5t26 -46t37 -37.5t47 -13q58 0 102 41q18 15 35 39q12 14 31 41 l29 -15q-11 -19 -48 -75q-31 -50 -63 -82q-78 -88 -164 -88q-111 0 -174 182z" />
<glyph unicode="y" horiz-adv-x="1110" d="M858 901h139l-118 -708q-23 -138 -53.5 -243.5t-84 -203.5t-127 -161t-183 -100.5t-249.5 -37.5q-58 0 -92.5 28.5t-26.5 67.5q8 40 43 70.5t74 30.5q30 0 53.5 -19.5t26.5 -46.5q1 -5 2 -14t2 -13q4 -16 8 -22q13 -23 47 -23q279 0 396 625l30 156q-94 -139 -201.5 -219 t-199.5 -93q-90 -13 -136 45t-22 185l86 491q13 85 6.5 106t-36.5 21q-21 0 -52 -45q-28 -38 -53 -78l-37 25q56 97 115 145t137 48q44 0 73 -36.5t15 -113.5l-96 -551q-12 -66 2.5 -101.5t47.5 -37t79 17.5q67 33 146.5 108t144.5 169z" />
<glyph unicode="z" horiz-adv-x="923" d="M47 106l563 623q-63 -5 -139 43q-17 9 -63 41q-41 25 -62 33q-30 15 -64 11.5t-62.5 -16.5t-43.5 -44.5t-8 -71.5q0 -2 4 -10q1 -2 4 -6.5t4 -6.5q8 -17 6 -28q-3 -21 -15.5 -35.5t-27.5 -13.5q-25 1 -37 19t-12 44q0 94 89.5 164t191.5 70q55 0 164 -48q11 -4 39 -15 t43 -15q46 -17 73 -17q42 0 58 12t18 40q4 33 14.5 51t38.5 18q35 0 35 -37q0 -12 -39 -61q-5 -6 -30.5 -35.5t-36.5 -42.5l-486 -545q89 7 211 -98q38 -34 95.5 -93.5t68.5 -70.5q84 -73 172 -39q31 11 51 32.5t17 41.5h24q-3 -82 -92.5 -142.5t-187.5 -60.5 q-62 0 -118 44.5t-124 125.5q-8 9 -17 20t-19 24t-15 20q-9 9 -26 28t-25 27q-56 53 -99 53q-52 0 -75 -49t-9 -84q6 -13 -6.5 -23t-32.5 -12q-22 -3 -35.5 11.5t-13.5 37.5q0 29 7.5 46.5t29.5 39.5z" />
<glyph unicode="{" horiz-adv-x="616" d="M287 778l69 391q14 76 40.5 130t58 84t79.5 46t90 20.5t105 4.5l-2 -10q-97 -17 -166.5 -91t-89.5 -182l-61 -350q-23 -122 -69 -189t-157 -97q6 -4 19 -16.5t35.5 -40.5t40 -58.5t27.5 -72t3 -81.5l-65 -370q-19 -108 24.5 -182t134.5 -91l-2 -12q-39 0 -67 1.5t-59.5 6 t-53 13.5t-42.5 23t-32.5 35.5t-19.5 49.5t-7 67t9 87l70 391q19 105 -5.5 160t-107.5 87q92 30 136 85t65 161z" />
<glyph unicode="|" horiz-adv-x="225" d="M348 1495l-270 -1497h-96l270 1497h96z" />
<glyph unicode="}" horiz-adv-x="616" d="M516 1171l-70 -391q-19 -105 5.5 -160.5t107.5 -87.5q-93 -30 -136.5 -84.5t-64.5 -160.5l-69 -391q-14 -76 -40.5 -130t-58 -84t-79.5 -46t-90 -20.5t-105 -4.5l2 10q97 17 166.5 91t89.5 182l66 370q9 49 43.5 99.5t76 88t67 57t36.5 26.5q-70 21 -103 61t-33.5 95 t11.5 128l63 350q19 108 -24.5 182t-134.5 91l2 12q39 0 67 -1.5t59.5 -6t53 -13.5t42.5 -23t32.5 -35.5t19.5 -49.5t7 -67t-9 -87z" />
<glyph unicode="~" horiz-adv-x="794" d="M557 616l-223 84q-67 28 -121 -26q-17 -17 -47 -60q-33 -47 -47 -69l-35 24q3 6 12 33q2 6 8.5 25t10.5 30q24 73 51 97q32 29 87 51t79 12l203 -84q23 -10 45 -11.5t42 6t38 19t36.5 32t34.5 41t35 48.5l35 -24q-7 -14 -13 -35q-1 -2 -4.5 -14.5t-5 -16.5t-5 -16.5 t-6 -18t-6.5 -17t-7.5 -17.5t-8 -15.5t-9 -15.5t-10 -12t-11.5 -11q-30 -24 -79.5 -36.5t-78.5 -2.5z" />
<glyph horiz-adv-x="1155" />
<glyph unicode="&#xa1;" horiz-adv-x="368" d="M303 913l-86 -825q-5 -47 -39 -83t-84 -36q-48 0 -68.5 35t-7.5 82l211 825l3 9q3 10 7.5 20.5t14 19.5t20.5 9h7q20 0 23.5 -26.5t-1.5 -29.5zM311 1165q-44 0 -75.5 37.5t-24.5 81.5q9 46 53 82.5t90 36.5q44 0 75.5 -37t23.5 -80q-7 -44 -52.5 -82.5t-89.5 -38.5z" />
<glyph unicode="&#xa2;" horiz-adv-x="942" d="M305 135l320 733h-19q-296 0 -366 -397q-41 -230 65 -336zM299 -8l-63 -135h-52l66 149q-114 52 -166 168.5t-27 253.5q23 125 100 237.5t194.5 183.5t244.5 71q31 0 47 -2l64 147h71l-69 -158l18 -6q40 -10 66 -22q52 -24 93.5 -72t33.5 -96q-8 -39 -41 -67t-72 -28 q-41 0 -63.5 28t-14.5 69q7 42 43 71q-40 49 -88 70l-336 -750q58 -30 139 -30q70 0 159.5 35.5t150.5 85.5l28 -33q-112 -93 -213.5 -136.5t-226.5 -43.5q-38 0 -86 10z" />
<glyph unicode="&#xa3;" horiz-adv-x="1204" d="M63 49q12 -28 44.5 -36t70.5 7q93 35 162 181q-55 23 -110 18t-97.5 -25t-63 -59.5t-6.5 -85.5zM647 0l-207 160q-71 -103 -154.5 -155.5t-191.5 -45.5q-43 3 -73 39t-23 78q0 32 21.5 69t64.5 73t122 58.5t179 18.5q91 209 158 407h-187l15 52h200q223 557 508 557 q35 0 63 -8t46.5 -30.5t11.5 -58.5q-7 -38 -32 -69.5t-64 -30.5q-12 0 -25 19q-8 12 -12 20q-2 3 -12 23q-12 20 -19.5 30.5t-22.5 21.5t-30 11q-38 0 -85 -60.5t-86 -145.5t-67.5 -160t-39.5 -119h227l-8 -52h-238q-19 -46 -53.5 -132.5t-63 -154.5t-69.5 -157 q47 -10 118 -92q9 -12 29 -35t29 -35q18 -26 47 -55q31 -31 61.5 -41t57.5 -4.5t61 32.5t64 59t75 87l41 -37q-12 -9 -24 -24q-20 -24 -37 -41q-57 -57 -131 -90q-141 -63 -244 18z" />
<glyph unicode="&#xa4;" horiz-adv-x="958" d="M551 838q-119 0 -216.5 -85t-119.5 -206q-20 -118 49 -203.5t187 -85.5q115 0 210 87t117 206q21 114 -46 200.5t-181 86.5zM20 193l121 106q-61 104 -37 248q12 69 44.5 137.5t84.5 112.5l-88 106l70 62l88 -107q51 39 126 60.5t142 21.5q64 0 127 -21.5t101 -60.5 l125 107l49 -62l-119 -102q29 -44 38 -116.5t-3 -133.5q-30 -156 -123 -252l82 -106l-68 -58l-86 109q-51 -42 -124.5 -65t-139.5 -23q-69 0 -134.5 22t-109.5 66l-120 -109z" />
<glyph unicode="&#xa5;" horiz-adv-x="1404" d="M487 498l9 49h172l14 76l-313 614l-166 18l6 27h502l-6 -27l-140 -20l262 -508l443 508l-137 18l6 29h350l-6 -27l-131 -18l-504 -575l-21 -115h174l-10 -49h-172l-24 -138h174l-11 -49h-172l-47 -262l187 -18l-6 -31h-539l6 31l193 18l47 262h-174l10 49h172l24 138 h-172z" />
<glyph unicode="&#xa6;" horiz-adv-x="206" d="M43 -82h-74l103 567h73zM225 928h-73l100 547h74z" />
<glyph unicode="&#xa7;" horiz-adv-x="899" d="M522 82l-22 -21l8 -8q78 51 140 125t75 146q4 20 4 41t-3.5 43t-8.5 42.5t-14.5 44t-18 43t-22.5 44.5t-25 43.5t-28 44t-28.5 43t-29.5 43.5q-100 147 -133 211q-58 110 -45 182q2 15 8.5 31t12.5 27.5t17.5 28.5t16.5 23.5t18 22.5l13 16q-147 -97 -181 -270 q-8 -48 0 -98.5t35 -108t49.5 -96.5t65.5 -107q43 -61 66 -102q38 -66 53 -104q52 -116 41 -209q-3 -28 -23 -62q-4 -9 -11 -18.5t-16 -21.5t-14 -19zM836 1237q-30 0 -52 18q-10 10 -16 19q-6 8 -14 24q-41 64 -123 64q-32 0 -55 -8.5t-35.5 -19.5t-22 -34t-13.5 -39.5 t-9 -48.5q-19 -98 36 -211q22 -46 60 -100q9 -13 32.5 -47.5t37.5 -54.5q21 -30 35.5 -51.5t32.5 -51.5t30.5 -54.5t26 -54t20.5 -57.5t12.5 -58.5t5 -62t-5.5 -63.5q-29 -157 -189.5 -272t-371.5 -115q-55 0 -108 13.5t-87.5 41t-27.5 62.5q9 59 69 59q38 0 64 -22 q12 -10 35 -47q16 -25 26 -37.5t36 -25.5t61 -13q37 0 64.5 10.5t43 24t27 40.5t16 44t10.5 51q14 95 -41 205q-23 50 -57 102q-57 87 -70 106q-58 87 -91 146.5t-55.5 144.5t-8.5 162q15 91 91 175t195 138t248 54q50 0 96.5 -8t82 -31.5t28.5 -57.5q-9 -59 -69 -59z" />
<glyph unicode="&#xa8;" horiz-adv-x="677" d="M565 1290q0 38 32 70.5t69 32.5q38 0 68 -31.5t30 -71.5q0 -41 -29 -71.5t-69 -30.5q-38 0 -69.5 31t-31.5 71zM211 1290q0 38 30.5 70.5t67.5 32.5q38 0 69.5 -31.5t31.5 -71.5q0 -41 -30.5 -71.5t-70.5 -30.5q-38 0 -68 31t-30 71z" />
<glyph unicode="&#xa9;" horiz-adv-x="1292" d="M850 694l20 -28q-18 118 -129 118q-190 0 -235 -252q-21 -112 22.5 -174.5t147.5 -62.5q106 0 166 43q4 -4 14 -19q-72 -59 -118.5 -79.5t-127.5 -20.5q-119 0 -183.5 82t-39.5 227q22 118 123 201.5t223 83.5q54 0 97.5 -16.5t70 -55t17.5 -94.5q-5 -23 -27 -41t-47 -18 q-32 0 -44.5 26t2 52.5t48.5 27.5zM741 1016q-79 0 -167.5 -36.5t-167.5 -98t-138.5 -154t-77.5 -195.5q-18 -102 8.5 -196.5t82.5 -160t132 -105.5t154 -41q209 -3 367.5 141.5t195.5 361.5q38 211 -73 346.5t-316 137.5zM557 -20q-117 0 -215.5 42.5t-164 115t-93.5 175.5 t-8 219q27 154 128.5 277.5t246 190.5t301.5 67q118 0 218.5 -39.5t168 -108t97 -169t9.5 -215.5t-86.5 -219t-160 -177t-209 -116t-232.5 -43z" />
<glyph unicode="&#xaa;" horiz-adv-x="565" d="M418 993l31 172q-102 -39 -151.5 -67.5t-57.5 -65.5q-24 -112 77 -112q31 0 64.5 26.5t36.5 46.5zM573 940l13 -18q-4 -3 -21 -14.5t-24 -16.5q-24 -11 -51 -9.5t-48 23.5t-18 56h-10v-5q-46 -82 -160 -75q-50 2 -76.5 36t-17.5 89q10 62 112 118q29 15 92.5 41t90.5 41 l12 64q10 62 -6.5 93t-77.5 23q-73 -20 -80 -65q-2 -6 -2 -16v-11q3 -6 -8 -20q-19 -31 -57 -23q-14 6 -18.5 15.5t-0.5 27.5q5 30 50.5 61t101.5 54q64 23 109 19t63 -52t2 -139l-41 -217q-14 -85 12 -100q24 -11 59 20z" />
<glyph unicode="&#xab;" horiz-adv-x="800" d="M598 272q4 -7 24.5 -43t28.5 -53q27 -46 27 -59q1 -9 -13 -21t-28 -14q-6 8 -31.5 38.5t-57.5 70t-59 73.5q-123 153 -120 166q4 13 180 166q152 132 211 182q13 -1 23 -13.5t5 -21.5q-4 -11 -49 -59q-14 -16 -44 -49t-42 -47q-105 -114 -122 -141q-6 -11 -7 -17 q-4 -25 74 -158zM287 272q4 -7 24.5 -43t28.5 -53q23 -39 27 -59q1 -7 -15 -18t-28 -15q-6 7 -31.5 38t-57 69.5t-57.5 72.5q-124 154 -121 166q3 9 179 166q75 65 210 180q11 -4 23 -14.5t8 -18.5q-4 -11 -49 -59q-27 -31 -88 -96q-9 -10 -25 -28t-25.5 -28.5t-22.5 -25.5 t-21 -24.5t-16 -20.5t-12 -18.5t-5 -12.5q-4 -25 74 -158z" />
<glyph unicode="&#xac;" horiz-adv-x="903" d="M838 430h-95l58 315h-686l16 95h778z" />
<glyph unicode="&#xad;" horiz-adv-x="634" d="M569 532v-98q-329 -35 -503 -65v98q26 3 133 15t195 23.5t175 26.5z" />
<glyph unicode="&#xae;" horiz-adv-x="696" d="M449 1001v-2h-156l2 2q7 0 27 5q23 4 26 26l43 238q1 12 -12 17t-33 7v2h166q43 0 73.5 -17.5t24.5 -51.5q-6 -31 -33 -49t-79 -29l92 -133l43 -12l-2 -5h-103l-79 148l-3 6q94 0 107 72q11 69 -64 69h-45l-45 -262q-3 -22 21 -26q25 -5 29 -5zM512 1382 q-126 0 -189 -53.5t-85 -179.5q-26 -142 17 -200t173 -58q126 0 189 53.5t85 179.5q26 142 -17 200t-173 58zM422 860q-127 0 -194.5 76.5t-43.5 210.5q21 121 115 193.5t219 72.5q126 0 193.5 -72t46.5 -192q-24 -136 -116.5 -212.5t-219.5 -76.5z" />
<glyph unicode="&#xaf;" horiz-adv-x="698" d="M766 1188h-573l16 102h573z" />
<glyph unicode="&#xb0;" horiz-adv-x="696" d="M504 1339q-70 0 -129.5 -50.5t-75.5 -141.5q-16 -90 26 -141.5t113 -51.5q70 0 129.5 50.5t75.5 140.5q16 92 -26 143t-113 51zM420 860q-123 0 -190.5 81.5t-45.5 203.5q22 126 120.5 217.5t219.5 91.5q122 0 189 -90.5t45 -216.5q-22 -123 -118.5 -205t-219.5 -82z" />
<glyph unicode="&#xb1;" horiz-adv-x="788" d="M670 125h-664l17 92h663zM432 350h-113l48 271h-271l17 94h270l43 248h115l-43 -248h268l-16 -94h-269z" />
<glyph unicode="&#xb2;" horiz-adv-x="774" d="M723 1137l94 116l31 -24l-103 -172h-206h-326l-35 37q44 25 117 71q85 59 137 99q158 129 176 235q10 58 -16 107t-82 49q-57 0 -96.5 -16.5t-83.5 -57.5l-17 10q130 144 256 144q81 0 133 -55.5t37 -133.5q-29 -162 -395 -409h379z" />
<glyph unicode="&#xb3;" horiz-adv-x="718" d="M365 1272l-7 39q51 19 88.5 37t82.5 47t73.5 68t36.5 85q11 63 -24 105.5t-99 42.5q-30 0 -74.5 -13.5t-56.5 -40.5q39 -3 54 -21t10 -40q-4 -26 -32 -41.5t-59 -15.5q-20 0 -35 17.5t-12 37.5q14 77 91.5 123.5t156.5 46.5q43 0 80.5 -9.5t68 -29t45 -53t7.5 -76.5 q-11 -68 -60 -128t-114 -73l2 -10q84 3 144.5 -70.5t45.5 -158.5q-27 -150 -145.5 -238t-272.5 -88q-74 0 -145.5 47t-60.5 113q4 28 31.5 50t56.5 22q28 0 46.5 -22t14.5 -50q-10 -41 -49 -64q3 -21 43 -41t72 -20q109 0 188 74.5t98 183.5q17 93 -23.5 144t-137.5 51 q-10 0 -68 -15q-29 -13 -61 -16z" />
<glyph unicode="&#xb4;" horiz-adv-x="444" d="M473 1255l-272 -211h-29l227 291q27 37 62 48.5t61 -11.5q22 -23 8.5 -53.5t-57.5 -63.5z" />
<glyph unicode="&#xb6;" horiz-adv-x="1067" d="M598 676l113 643q-404 -17 -457 -311q-6 -48 -7 -86.5t11.5 -70t28.5 -56t43 -43t55 -31.5t64.5 -22t71.5 -14.5t77 -8.5zM561 68l74 4l221 1249h-72zM932 53l-10 -53q-38 2 -90.5 11t-108.5 9q-47 0 -118 -3.5t-170 -9.5t-124 -7l11 51l165 10l101 557h-70 q-79 0 -150.5 28t-123.5 77t-76 123.5t-8 159.5q19 105 93.5 190t175.5 130.5t204 45.5q268 0 315 2q20 1 81 7t140 12l-10 -52l-147 -22l-221 -1245z" />
<glyph unicode="&#xb7;" horiz-adv-x="370" d="M240 635q-45 0 -84 39t-39 84q0 44 39.5 83.5t83.5 39.5q45 0 83.5 -39t38.5 -84q0 -46 -38 -84.5t-84 -38.5z" />
<glyph unicode="&#xb8;" horiz-adv-x="534" d="M203 -8l-72 -146q43 23 84 23q67 0 93.5 -45.5t10.5 -106.5q-19 -63 -78.5 -108t-148.5 -45q-101 0 -180 24l29 54q45 -23 141 -23q47 0 80 26t43 64q10 37 -8.5 64.5t-65.5 27.5h-84l98 195z" />
<glyph unicode="&#xb9;" horiz-adv-x="534" d="M537 1649l-97 -529l144 -20l-11 -53q-40 2 -92 11t-108 9q-54 0 -109 -8.5t-96 -11.5l10 53l148 20l96 529l-143 20l10 53q43 -4 96 -12q50 -8 104 -8q51 0 109.5 9t95.5 11l-10 -53z" />
<glyph unicode="&#xba;" horiz-adv-x="673" d="M637 1245q3 41 -6 76q-20 82 -137 82q-46 0 -81 -19.5t-56 -55.5t-33.5 -73t-20.5 -86q-11 -76 -10 -133.5t35 -91t102 -33.5q47 0 80.5 18t55.5 55.5t35 78.5t24 102q11 71 12 80zM401 881q-120 0 -179.5 68.5t-33.5 217.5q19 111 106 189t206 78q138 0 199.5 -70.5 t39.5 -196.5q-26 -146 -117 -216t-221 -70z" />
<glyph unicode="&#xbb;" horiz-adv-x="819" d="M625 596q131 -157 129 -166q0 -7 -189 -166q-49 -40 -128 -104.5t-93 -75.5q-31 16 -29 33q2 3 50 59q16 16 49.5 52t38.5 42q122 140 125 160q4 25 -70 158q-8 16 -17 32.5t-20 35.5t-16 28q-27 52 -29 57q3 9 17 20t24 15q9 -11 33 -38.5t61.5 -69t63.5 -72.5zM313 596 q131 -157 129 -166q0 -8 -188 -166q-52 -43 -132 -107.5t-91 -74.5q-12 1 -20.5 12t-6.5 23q4 7 49 59q16 16 49.5 52t38.5 42q122 140 125 160q5 27 -69 158q-10 20 -30 54t-24 42q-27 52 -28 57q3 13 15 24t24 13q9 -11 32.5 -38t62.5 -71t64 -73z" />
<glyph unicode="&#xbc;" horiz-adv-x="1507" d="M739 82h318l73 412zM1092 -358h-111l63 360h-378l-35 41l618 625h23l-103 -586h211l-14 -80h-209zM201 -39h-131l1222 1473h90zM481 1364l-92 -524l139 -21l-8 -53q-40 3 -91.5 11.5t-106.5 8.5q-54 0 -109.5 -9t-93.5 -11l8 53l147 21l95 522l-142 20l9 54q40 -3 96 -13 q50 -8 102 -8q51 0 110 9.5t95 11.5l-10 -52z" />
<glyph unicode="&#xbd;" horiz-adv-x="1544" d="M1432 172l-101 -172h-207h-323l-31 39q81 49 115 72q102 69 133 94q158 129 176 235q10 57 -16.5 105.5t-83.5 48.5q-55 0 -93.5 -16.5t-82.5 -57.5l-17 10q131 142 254 142q80 0 132 -54.5t40 -130.5q-8 -43 -40.5 -93t-68.5 -88t-97.5 -88t-95 -74t-93.5 -66h373 l94 119zM201 -41h-131l1222 1475h90zM481 1362l-92 -524l139 -21l-8 -51q-39 2 -91 11t-107 9q-54 0 -108.5 -9t-94.5 -11l8 51l147 21l95 524l-142 20l9 54q34 -3 98 -13q50 -8 102 -8q51 0 108.5 9.5t94.5 11.5l-10 -52z" />
<glyph unicode="&#xbe;" horiz-adv-x="1728" d="M965 82h317l72 412zM1313 -358h-111l64 360h-379l-33 39l619 627h22l-102 -586h209l-15 -80h-209zM1604 1434l-1182 -1473h-131l1222 1473h91zM319 1008l-6 39q39 15 69 28t67.5 35t64 45.5t48 57t28.5 71.5q11 62 -23.5 104t-97.5 42q-31 0 -75.5 -13.5t-57.5 -40.5 q40 -3 55.5 -20.5t11.5 -40.5q-4 -26 -32 -42t-58 -16q-20 0 -35 18t-12 40q14 76 91 122t155 46q42 0 79 -9.5t67.5 -28.5t45 -53t7.5 -77q-11 -66 -60 -126t-114 -73l2 -10q85 3 144 -70t44 -159q-26 -148 -143.5 -236t-270.5 -88q-72 0 -143.5 47.5t-60.5 112.5 q4 27 32 49t58 22q27 0 45 -22t14 -49q-11 -42 -49 -62q4 -21 42.5 -41t70.5 -20q108 0 187.5 73.5t98.5 180.5q15 94 -24.5 144t-134.5 50q-21 0 -68 -14q-25 -8 -33 -10q-5 -1 -14.5 -3t-14.5 -3z" />
<glyph unicode="&#xbf;" horiz-adv-x="677" d="M586 885l-49 -283q-33 -3 -71 -10.5t-88.5 -22.5t-96.5 -41.5t-87 -61t-68.5 -87.5t-33.5 -117q-3 -42 12 -76t42.5 -53.5t59.5 -29.5t65 -6.5t57 18.5q20 11 34 22q14 7 23 10q21 7 57 7q25 0 37 -2q26 -4 37 -11q39 -23 29 -86q-7 -39 -49.5 -58.5t-85.5 -19.5 q-83 0 -149.5 14.5t-122.5 47t-83.5 94.5t-19.5 148q22 257 219 376q69 40 160 56q34 5 57 12q27 7 27 18l37 177q0 9 17 14q29 7 35 -21q2 -12 -1 -28zM582 1174q-43 0 -74.5 37t-24.5 81q9 44 54.5 81.5t89.5 37.5t74 -37t22 -80t-52.5 -81.5t-88.5 -38.5z" />
<glyph unicode="&#xc0;" horiz-adv-x="1515" d="M825 1219l-346 -611h465zM391 31l-6 -31h-442l6 31q50 4 100 28t80 78l659 1153q16 22 10.5 45.5t-13.5 35.5t-19 22q108 40 164 77q264 -1147 307 -1351q38 -85 184 -88l-6 -31h-559l6 31q16 1 44 6.5t61.5 15.5t55.5 27.5t19 38.5l-79 416h-527l-211 -394 q-15 -29 -0.5 -51.5t47.5 -34t63.5 -17.5t55.5 -7zM901 1524l-194 205q-34 40 -32 70t32 50q33 19 62 3t40 -44l123 -284h-31z" />
<glyph unicode="&#xc1;" horiz-adv-x="1515" d="M825 1219l-346 -611h465zM391 31l-6 -31h-442l6 31q50 4 100 28t80 78l659 1153q16 22 10.5 45.5t-13.5 35.5t-19 22q108 40 164 77q264 -1147 307 -1351q38 -85 184 -88l-6 -31h-559l6 31q16 1 44 6.5t61.5 15.5t55.5 27.5t19 38.5l-79 416h-527l-211 -394 q-15 -29 -0.5 -51.5t47.5 -34t63.5 -17.5t55.5 -7zM1126 1749l-266 -205h-29l222 285q28 35 61.5 47t59.5 -10q45 -45 -48 -117z" />
<glyph unicode="&#xc2;" horiz-adv-x="1515" d="M825 1219l-346 -611h465zM391 31l-6 -31h-442l6 31q50 4 100 28t80 78l659 1153q16 22 10.5 45.5t-13.5 35.5t-19 22q108 40 164 77q264 -1147 307 -1351q38 -85 184 -88l-6 -31h-559l6 31q16 1 44 6.5t61.5 15.5t55.5 27.5t19 38.5l-79 416h-527l-211 -394 q-15 -29 -0.5 -51.5t47.5 -34t63.5 -17.5t55.5 -7zM1016 1849l119 -305h-31l-182 215l-256 -215h-29l227 305q8 12 15 19q4 6 16 18q27 19 57 19t43 -13q6 -6 11 -16q4 -12 10 -27z" />
<glyph unicode="&#xc3;" horiz-adv-x="1515" d="M825 1219l-346 -611h465zM391 31l-6 -31h-442l6 31q50 4 100 28t80 78l659 1153q16 22 10.5 45.5t-13.5 35.5t-19 22q108 40 164 77q264 -1147 307 -1351q38 -85 184 -88l-6 -31h-559l6 31q16 1 44 6.5t61.5 15.5t55.5 27.5t19 38.5l-79 416h-527l-211 -394 q-15 -29 -0.5 -51.5t47.5 -34t63.5 -17.5t55.5 -7zM1298 1880l27 -33q-19 -118 -72 -180q-24 -29 -57.5 -42t-62 -11.5t-48.5 12.5l-211 82q-24 10 -46.5 10.5t-41.5 -8t-35.5 -20.5t-33 -33.5t-29.5 -41.5t-29 -48l-49 16q5 34 30 86t60 94q25 37 59.5 54t62 16t50.5 -10 l191 -82q80 -34 131 2t104 137z" />
<glyph unicode="&#xc4;" horiz-adv-x="1515" d="M825 1219l-346 -611h465zM391 31l-6 -31h-442l6 31q50 4 100 28t80 78l659 1153q16 22 10.5 45.5t-13.5 35.5t-19 22q108 40 164 77q264 -1147 307 -1351q38 -85 184 -88l-6 -31h-559l6 31q16 1 44 6.5t61.5 15.5t55.5 27.5t19 38.5l-79 416h-527l-211 -394 q-15 -29 -0.5 -51.5t47.5 -34t63.5 -17.5t55.5 -7zM1044 1786q0 37 31 67.5t68 30.5t66.5 -30t29.5 -68q0 -40 -29 -69t-67 -29t-68.5 30t-30.5 68zM694 1786q0 36 31 67t66 31q38 0 68 -30t30 -68q0 -40 -29 -69t-69 -29q-37 0 -67 30t-30 68z" />
<glyph unicode="&#xc5;" horiz-adv-x="1515" d="M825 1219l-346 -611h465zM391 31l-6 -31h-442l6 31q50 4 100 28t80 78l659 1153q16 22 10.5 45.5t-13.5 35.5t-19 22q108 40 164 77q264 -1147 307 -1351q38 -85 184 -88l-6 -31h-559l6 31q16 1 44 6.5t61.5 15.5t55.5 27.5t19 38.5l-79 416h-527l-211 -394 q-15 -29 -0.5 -51.5t47.5 -34t63.5 -17.5t55.5 -7zM993 1765q0 121 -108 121q-109 0 -109 -121q0 -120 109 -120q108 0 108 120zM885 1946q75 0 127.5 -53t52.5 -128t-52.5 -127.5t-127.5 -52.5t-127.5 52.5t-52.5 127.5t52.5 128t127.5 53z" />
<glyph unicode="&#xc6;" horiz-adv-x="2007" d="M1137 1298l-353 -524h353l94 524h-94zM1911 319l-117 -319q-561 15 -707 23q-197 -10 -327 -23l10 51q16 1 30 2.5t47 7.5t60 17.5t56.5 29t49.5 47t27 66.5l84 481h-383l-338 -538q-36 -50 -8 -74q31 -31 152 -39l-8 -51q-255 31 -545 0l8 51q26 -4 66.5 -1t80 10.5 t83 32.5t75.5 65l676 1030q25 38 25 66t-18.5 44.5t-53.5 26.5t-71.5 13t-82.5 3l11 52q79 -8 187 -12t189.5 -5t230 1.5t203 3.5t219 6.5t175.5 5.5l-37 -320h-51q6 34 6 63t-5.5 51.5t-14.5 41t-24.5 32t-31.5 23.5t-39 16.5t-44.5 10.5t-50.5 6.5t-53.5 3t-56.5 0.5h-188 l-94 -547q1 2 71 1l70 -1q94 4 137 12q71 16 116.5 61.5t61.5 133.5h52q-50 -157 -68 -264q-14 -85 -18 -221h-49q36 206 -156 206h-230l-94 -520q-7 -40 33 -75t80 -35h168q94 4 149 20q151 44 224 227h51z" />
<glyph unicode="&#xc7;" horiz-adv-x="1409" d="M643 -20l-68 -138q63 27 78 27q61 0 101.5 -40t31.5 -99q-9 -56 -51.5 -93.5t-93 -52t-106.5 -14.5q-120 0 -175 18l27 52q39 -19 137 -19q109 0 125 86q9 49 -7.5 69.5t-66.5 20.5h-94l103 185q-62 4 -66 4q-105 5 -187 39.5t-133 91t-81.5 132.5t-32.5 165.5t14 189.5 q22 119 80.5 243t147.5 236t195 200.5t233.5 141t253.5 52.5q240 0 354 -128t70 -364q-22 -120 -145.5 -220.5t-246.5 -100.5q-126 0 -185 53t-38 164q13 70 49 111t119 93q-40 -77 -47 -94q-28 -62 -31 -114q-3 -93 30.5 -138t125.5 -45q111 0 187 75.5t96 182.5 q36 198 -62 327.5t-293 129.5q-119 0 -220.5 -38t-173.5 -101t-128 -150.5t-90 -181.5t-53 -199q-14 -78 -16.5 -152t7 -148.5t39 -136.5t75.5 -110t119.5 -75t168.5 -27q136 0 276.5 54t212.5 161h27q-126 -148 -264 -223t-309 -92z" />
<glyph unicode="&#xc8;" horiz-adv-x="1230" d="M1186 1071h-51q4 43 5 77.5t-10.5 61.5t-25 47t-38 34.5t-49 23.5t-57.5 14.5t-64.5 7.5t-70.5 2h-190l-100 -567h225q12 0 27.5 2t45.5 11.5t56.5 25.5t54.5 49.5t45 77.5h51q-6 -21 -43 -92q-33 -68 -41 -109q-2 -8 -2 -51q1 -7 3.5 -27.5t3.5 -31.5q10 -69 -3 -133 h-51q35 206 -153 206h-232l-96 -540q-9 -49 12 -79t99 -30q115 0 170 2q82 6 149 29q75 26 130.5 81.5t96.5 155.5h52l-117 -319h-1002l7 31q44 0 66 0.5t50.5 4.5t42.5 11.5t30 22t24 36t14 52.5l194 1091q3 18 3 32t-2.5 25t-9.5 19t-14.5 14t-21.5 9.5t-26.5 6t-33.5 3.5 t-38.5 1.5t-44.5 0.5l6 31h961zM774 1524l-194 205q-34 40 -32.5 70t30.5 50q34 19 63.5 3t40.5 -44l123 -284h-31z" />
<glyph unicode="&#xc9;" horiz-adv-x="1230" d="M1186 1071h-51q4 43 5 77.5t-10.5 61.5t-25 47t-38 34.5t-49 23.5t-57.5 14.5t-64.5 7.5t-70.5 2h-190l-100 -567h225q16 0 38.5 4.5t61 18.5t74 50.5t55.5 90.5h51q-6 -18 -43 -90q-33 -68 -41 -109q-2 -8 -2 -51q1 -7 3.5 -27.5t3.5 -31.5q10 -69 -3 -133h-51 q35 206 -153 206h-232l-96 -540q-9 -49 12 -79t99 -30q115 0 170 2q82 6 149 29q75 26 130.5 81.5t96.5 155.5h52l-117 -319h-1002l7 31q44 0 66 0.5t50.5 4.5t42.5 11.5t30 22t24 36t14 52.5l194 1091q3 17 3 31t-2.5 25t-9.5 19t-14.5 14t-21.5 10t-26.5 6.5t-33 3.5 t-38.5 1.5t-45 0.5l6 31h961zM999 1749l-266 -205h-31l224 285q27 35 62 47t59 -10q45 -45 -48 -117z" />
<glyph unicode="&#xca;" horiz-adv-x="1230" d="M1186 1071h-51q4 43 5 77.5t-10.5 61.5t-25 47t-38 34.5t-49 23.5t-57.5 14.5t-64.5 7.5t-70.5 2h-190l-100 -567h225q16 0 38.5 4.5t61 18.5t74 50.5t55.5 90.5h51q-6 -18 -43 -90q-33 -68 -41 -109q-2 -8 -2 -51q1 -7 3.5 -27.5t3.5 -31.5q10 -69 -3 -133h-51 q35 206 -153 206h-232l-96 -540q-9 -49 12 -79t99 -30q115 0 170 2q82 6 149 29q75 26 130.5 81.5t96.5 155.5h52l-117 -319h-1002l7 31q44 0 66 0.5t50.5 4.5t42.5 11.5t30 22t24 36t14 52.5l194 1091q3 17 3 31t-2.5 25t-9.5 19t-14.5 14t-21.5 10t-26.5 6.5t-33 3.5 t-38.5 1.5t-45 0.5l6 31h961zM889 1849l119 -305h-31l-182 215l-256 -215h-29l225 305q3 3 8.5 9.5t8.5 9.5q4 6 16 18q27 19 57 19t43 -13q6 -6 11 -16q4 -12 10 -27z" />
<glyph unicode="&#xcb;" horiz-adv-x="1230" d="M1186 1071h-51q4 43 5 77.5t-10.5 61.5t-25 47t-38 34.5t-49 23.5t-57.5 14.5t-64.5 7.5t-70.5 2h-190l-100 -567h225q16 0 38.5 4.5t61 18.5t74 50.5t55.5 90.5h51q-6 -18 -43 -90q-33 -68 -41 -109q-2 -8 -2 -51q1 -7 3.5 -27.5t3.5 -31.5q10 -69 -3 -133h-51 q35 206 -153 206h-232l-96 -540q-9 -49 12 -79t99 -30q115 0 170 2q82 6 149 29q75 26 130.5 81.5t96.5 155.5h52l-117 -319h-1002l7 31q44 0 66 0.5t50.5 4.5t42.5 11.5t30 22t24 36t14 52.5l194 1091q3 17 3 31t-2.5 25t-9.5 19t-14.5 14t-21.5 10t-26.5 6.5t-33 3.5 t-38.5 1.5t-45 0.5l6 31h961zM918 1786q0 37 30.5 67.5t67.5 30.5t67.5 -30t30.5 -68q0 -39 -29.5 -68.5t-68.5 -29.5q-38 0 -68 30t-30 68zM565 1786q0 37 31 67.5t68 30.5q38 0 68 -30t30 -68q0 -40 -29 -69t-69 -29q-38 0 -68.5 30t-30.5 68z" />
<glyph unicode="&#xcc;" horiz-adv-x="780" d="M623 1251l-201 -1112q-11 -74 67 -96q33 -10 68 -10q20 -2 55 -2l-6 -31h-590l7 31q36 -1 68.5 2.5t67 14t58 33.5t29.5 56l200 1112q5 27 -11 48t-38.5 32t-54.5 18.5t-50.5 9.5t-35.5 3l6 31h590l-6 -31q-31 0 -53.5 -1t-54.5 -7.5t-53 -17t-39 -32t-23 -51.5z M578 1524l-195 205q-34 40 -32.5 70t30.5 50q34 19 63.5 3t40.5 -44l123 -284h-30z" />
<glyph unicode="&#xcd;" horiz-adv-x="780" d="M623 1251l-201 -1112q-11 -74 67 -96q33 -10 68 -10q20 -2 55 -2l-6 -31h-590l7 31q35 -1 67.5 2.5t67.5 14t58.5 33.5t29.5 56l198 1112q6 33 -15.5 57t-60.5 34.5t-63.5 14.5t-48.5 5l6 31h590l-6 -31q-31 0 -53.5 -1t-54.5 -7.5t-53 -17t-39 -32t-23 -51.5zM805 1749 l-268 -205h-29l223 285q28 35 61.5 47t59.5 -10q43 -46 -47 -117z" />
<glyph unicode="&#xce;" horiz-adv-x="780" d="M623 1251l-201 -1112q-11 -74 67 -96q33 -10 68 -10q20 -2 55 -2l-6 -31h-590l7 31q36 -1 68.5 2.5t67 14t58 33.5t29.5 56l200 1112q6 33 -17 57t-60 34t-65 14t-48 4l6 33h590l-6 -31q-31 0 -53.5 -1t-54.5 -7.5t-53 -17t-39 -32t-23 -51.5zM692 1849l121 -305h-33 l-182 215l-256 -215h-31l230 305q10 15 14 19q4 6 16 18q27 19 58 19q33 0 43 -13q8 -8 10 -16q2 -3 5.5 -13.5z" />
<glyph unicode="&#xcf;" horiz-adv-x="780" d="M621 1251l-199 -1112q-13 -74 67 -96q33 -10 68 -10q20 -2 55 -2l-6 -31h-590l7 31q35 -1 67.5 2.5t67.5 14t58.5 33.5t29.5 56l198 1112q6 33 -15.5 57t-60.5 34.5t-63.5 14.5t-48.5 5l6 31h590l-6 -31q-40 0 -69 -3t-66 -12.5t-60.5 -33t-29.5 -60.5zM721 1786 q0 37 30.5 67.5t67.5 30.5q38 0 68.5 -30t30.5 -68q0 -40 -29.5 -69t-69.5 -29q-38 0 -68 30t-30 68zM369 1786q0 37 30.5 67.5t67.5 30.5q38 0 68 -30t30 -68q0 -40 -29 -69t-69 -29q-38 0 -68 30t-30 68z" />
<glyph unicode="&#xd1;" horiz-adv-x="1722" d="M1360 -20h-76l-747 1161l-179 -1002q-13 -72 88 -96q26 -6 82 -10q23 -2 60 -2l-6 -31h-545l6 31q29 -1 57.5 1.5t66.5 11.5t65 33.5t34 61.5l197 1112q5 26 -14.5 47t-47 31.5t-67 18t-60.5 9.5t-41 3l7 31h354l737 -1059l162 919q5 25 -2.5 43.5t-21.5 29.5t-42.5 18.5 t-54 10.5t-67.5 7l6 31h504l-7 -31q-120 -9 -167 -33t-56 -74zM1364 1757l27 -33q-2 -5 -7.5 -30t-11.5 -43q-24 -74 -55 -107q-23 -28 -56 -41t-61 -12t-47 12l-213 82q-25 10 -47 11t-41.5 -7.5t-35.5 -20.5t-33.5 -34.5t-30 -41.5t-29.5 -48l-49 16q8 36 34 87.5t60 92.5 q25 37 59 54t60.5 16t48.5 -10l192 -82q34 -14 63 -15t51.5 8t44.5 31.5t39 49t38 65.5z" />
<glyph unicode="&#xd2;" horiz-adv-x="1683" d="M838 1411l-43 -61q-89 -12 -167 -57t-135.5 -112t-100 -152.5t-65.5 -178.5t-26.5 -190.5t12 -188.5t54.5 -172t96.5 -141t143 -95t188.5 -36q246 -1 424 203q149 170 203 425q53 249 -9 451q-62 203 -221 271q-43 19 -92 26q-105 14 -158.5 -22.5t-60.5 -100.5 q-6 -57 24 -106.5t76 -49.5q12 0 23 11q2 2 5.5 8t4.5 8q8 20 39 20q35 0 50 -23t7 -56q-10 -35 -43 -57.5t-86 -18.5q-107 7 -151 77.5t-19 159.5q24 91 109 151.5t210 49.5q100 -9 183.5 -45t141.5 -91t100.5 -128t60 -155.5t20.5 -173t-18 -181.5q-28 -140 -97 -267 t-173.5 -229t-254.5 -162.5t-323 -60.5q-138 0 -252 38.5t-191 104.5t-128.5 154.5t-72 189t-13.5 207.5q8 106 41.5 208.5t95.5 196t145.5 167t197.5 122.5t245 62zM1083 1524l-194 205q-34 40 -32 70t32 50q33 19 62 3t40 -44l123 -284h-31z" />
<glyph unicode="&#xd3;" horiz-adv-x="1683" d="M838 1411l-43 -61q-89 -12 -167 -57t-135.5 -112t-100 -152.5t-65.5 -178.5t-26.5 -190.5t12 -188.5t54.5 -172t96.5 -141t143 -95t188.5 -36q246 -1 424 203q149 170 203 425q53 249 -9 451q-62 203 -221 271q-43 19 -92 26q-105 14 -158.5 -22.5t-60.5 -100.5 q-6 -57 24 -106.5t76 -49.5q12 0 23 11q2 2 5.5 8t4.5 8q8 20 39 20q35 0 50 -23t7 -56q-10 -35 -43 -57.5t-86 -18.5q-107 7 -151 77.5t-19 159.5q24 91 109 151.5t210 49.5q100 -9 183.5 -45t141.5 -91t100.5 -128t60 -155.5t20.5 -173t-18 -181.5q-28 -140 -97 -267 t-173.5 -229t-254.5 -162.5t-323 -60.5q-138 0 -252 38.5t-191 104.5t-128.5 154.5t-72 189t-13.5 207.5q8 106 41.5 208.5t95.5 196t145.5 167t197.5 122.5t245 62zM1309 1749l-267 -205h-28l221 285q28 35 61.5 47t59.5 -10q45 -45 -47 -117z" />
<glyph unicode="&#xd4;" horiz-adv-x="1683" d="M838 1411l-43 -61q-89 -12 -167 -57t-135.5 -112t-100 -152.5t-65.5 -178.5t-26.5 -190.5t12 -188.5t54.5 -172t96.5 -141t143 -95t188.5 -36q246 -1 424 203q149 170 203 425q53 249 -9 451q-62 203 -221 271q-43 19 -92 26q-105 14 -158.5 -22.5t-60.5 -100.5 q-6 -57 24 -106.5t76 -49.5q9 0 23 9q2 3 5 9t5 9q8 20 39 20q35 0 50 -23t7 -56q-10 -35 -43 -57.5t-86 -18.5q-107 7 -151 77.5t-19 159.5q24 91 109 151.5t210 49.5q100 -10 183.5 -46t141.5 -91t100.5 -127.5t60 -155t20.5 -173t-18 -181.5q-28 -140 -97 -267 t-173.5 -229t-254.5 -162.5t-323 -60.5q-138 0 -252 38.5t-191 104.5t-128.5 154.5t-72 189t-13.5 207.5q8 106 41.5 208.5t95.5 196t145.5 167t197.5 122.5t245 62zM1198 1849l119 -305h-31l-182 215l-256 -215h-29l228 305q10 15 14 19q4 6 16 18q27 19 58 19q30 0 43 -13 q4 -4 10 -16q4 -12 10 -27z" />
<glyph unicode="&#xd5;" horiz-adv-x="1683" d="M838 1411l-43 -61q-89 -12 -167 -57t-135.5 -112t-100 -152.5t-65.5 -178.5t-26.5 -190.5t12 -188.5t54.5 -172t96.5 -141t143 -95t188.5 -36q246 -1 424 203q149 170 203 425q53 249 -9 451q-62 203 -221 271q-43 19 -92 26q-105 14 -158.5 -22.5t-60.5 -100.5 q-6 -57 24 -106.5t76 -49.5q12 0 23 11q2 2 5.5 8t4.5 8q8 20 39 20q35 0 50 -23t7 -56q-10 -35 -43 -57.5t-86 -18.5q-107 7 -151 77.5t-19 159.5q24 91 109 151.5t210 49.5q100 -9 183.5 -45t141.5 -91t100.5 -128t60 -155.5t20.5 -173t-18 -181.5q-28 -140 -97 -267 t-173.5 -229t-254.5 -162.5t-323 -60.5q-138 0 -252 38.5t-191 104.5t-128.5 154.5t-72 189t-13.5 207.5q8 106 41.5 208.5t95.5 196t145.5 167t197.5 122.5t245 62zM1479 1880l26 -33q-3 -32 -20 -87.5t-49 -92.5q-24 -29 -57.5 -42t-62 -11.5t-48.5 12.5l-211 82 q-24 10 -46.5 10.5t-41.5 -8t-35.5 -20.5t-33 -33.5t-29.5 -41.5t-29 -48l-49 16q5 34 30 86t60 94q25 37 59.5 54t62 16t50.5 -10l190 -82q80 -34 131.5 2.5t102.5 136.5z" />
<glyph unicode="&#xd6;" horiz-adv-x="1683" d="M838 1411l-43 -61q-89 -12 -167 -57t-135.5 -112t-100 -152.5t-65.5 -178.5t-26.5 -190.5t12 -188.5t54.5 -172t96.5 -141t143 -95t188.5 -36q246 -1 424 203q149 170 203 425q53 249 -9 451q-62 203 -221 271q-43 19 -92 26q-105 14 -158.5 -22.5t-60.5 -100.5 q-6 -57 24 -106.5t76 -49.5q12 0 23 11q2 2 5.5 8t4.5 8q8 20 39 20q35 0 50 -23t7 -56q-10 -35 -43 -57.5t-86 -18.5q-107 7 -151 77.5t-19 159.5q24 91 109 151.5t210 49.5q100 -9 183.5 -45t141.5 -91t100.5 -128t60 -155.5t20.5 -173t-18 -181.5q-28 -140 -97 -267 t-173.5 -229t-254.5 -162.5t-323 -60.5q-138 0 -252 38.5t-191 104.5t-128.5 154.5t-72 189t-13.5 207.5q8 106 41.5 208.5t95.5 196t145.5 167t197.5 122.5t245 62zM1227 1786q0 37 30.5 67.5t65.5 30.5q38 0 68 -30t30 -68q0 -40 -29 -69t-69 -29q-37 0 -66.5 30t-29.5 68 zM877 1786q0 37 30.5 67.5t65.5 30.5q38 0 68 -30t30 -68q0 -40 -29 -69t-69 -29q-37 0 -66.5 30t-29.5 68z" />
<glyph unicode="&#xd7;" horiz-adv-x="1024" d="M498 375l-439 -373l-57 96l414 353l-285 372l109 76l290 -352l414 352l82 -76l-438 -372l309 -353l-113 -96z" />
<glyph unicode="&#xd8;" horiz-adv-x="1617" d="M1251 1346l-684 -1264q98 -52 228 -55q113 0 214 45t175 121t131 177t88 211t38.5 224.5t-10 216t-63.5 187.5t-117 137zM1032 1169l119 226q-23 6 -51 10q-105 14 -158.5 -22.5t-60.5 -100.5q-6 -57 24 -106.5t76 -49.5q8 0 14.5 4t8 6.5t6.5 10.5q9 18 22 22z M1333 1495l-41 -76q113 -44 192 -132t115 -198t35.5 -237.5t-35.5 -252.5t-108.5 -240.5t-174.5 -203.5t-242.5 -141t-303.5 -53q-138 0 -248 39l-67 -123h-93l80 154q-104 52 -177.5 137.5t-110 187t-41 216.5t22 227t86.5 217t145.5 188t207.5 139t263 70l-43 -61 q-123 -16 -222.5 -92.5t-160 -185.5t-89.5 -242.5t-20.5 -261.5t58 -246t135.5 -193l458 889q-96 18 -132.5 90.5t-8.5 157.5q29 87 112.5 143t204.5 45q6 -1 14 -2t18.5 -2t15.5 -2l24 45h131z" />
<glyph unicode="&#xd9;" horiz-adv-x="1544" d="M330 608l80 498q16 91 15 145t-36.5 76.5t-124.5 22.5h-33l9 43h587l-8 -41h-45q-82 0 -125 -53t-67 -207l-97 -656q-11 -76 3.5 -145.5t53.5 -125.5t111 -89t168 -33q51 0 95 7.5t80 23t66 35t54.5 48t43.5 57t34.5 67.5t27 73.5t22 81t17.5 84t15 88.5l84 529 q9 45 5.5 84t-19 67.5t-56 45t-104.5 16.5h-25l8 43h467l-8 -43h-22q-98 0 -144 -121q-16 -43 -26 -107q-9 -52 -15 -96l-75 -514q-41 -283 -176.5 -413t-391.5 -130q-264 0 -380 168t-68 471zM971 1524l-195 205q-33 40 -31 70t31 50q21 15 42.5 10t38 -19.5t24.5 -31.5 l120 -284h-30z" />
<glyph unicode="&#xda;" horiz-adv-x="1544" d="M330 608l80 498q16 91 15 145t-36.5 76.5t-124.5 22.5h-33l9 43h587l-8 -41h-45q-82 0 -125 -53t-67 -207l-97 -656q-11 -76 3.5 -145.5t53.5 -125.5t111 -89t168 -33q51 0 95 7.5t80 23t66 35t54.5 48t43.5 57t34.5 67.5t27 73.5t22 81t17.5 84t15 88.5l84 529 q9 45 5.5 84t-19 67.5t-56 45t-104.5 16.5h-25l8 43h467l-8 -43h-22q-98 0 -144 -121q-16 -43 -26 -107q-9 -52 -15 -96l-75 -514q-41 -283 -176.5 -413t-391.5 -130q-264 0 -380 168t-68 471zM1196 1749l-266 -205h-29l223 285q27 35 61 47t58 -10q46 -46 -47 -117z" />
<glyph unicode="&#xdb;" horiz-adv-x="1544" d="M330 608l80 498q16 91 15 145t-36.5 76.5t-124.5 22.5h-33l9 43h587l-8 -41h-45q-82 0 -125 -53t-67 -207l-97 -656q-11 -76 3.5 -145.5t53.5 -125.5t111 -89t168 -33q51 0 95 7.5t80 23t66 35t54.5 48t43.5 57t34.5 67.5t27 73.5t22 81t17.5 84t15 88.5l84 529 q9 45 5.5 84t-19 67.5t-56 45t-104.5 16.5h-25l8 43h467l-8 -43h-22q-98 0 -144 -121q-16 -43 -26 -107q-6 -33 -15 -96l-75 -514q-41 -283 -176.5 -413t-391.5 -130q-264 0 -380 167.5t-68 471.5zM1085 1849l119 -305h-30l-181 215l-258 -215h-28l227 305q2 3 7 9.5t7 9.5 q3 3 9.5 9t9.5 9q23 19 55 19q33 0 43 -13q8 -8 10 -16q2 -3 5.5 -13.5z" />
<glyph unicode="&#xdc;" horiz-adv-x="1544" d="M330 608l80 498q16 91 15 145t-36.5 76.5t-124.5 22.5h-33l9 43h587l-8 -41h-45q-82 0 -125 -53t-67 -207l-97 -656q-11 -76 3.5 -145.5t53.5 -125.5t111 -89t168 -33q51 0 95 7.5t80 23t66 35t54.5 48t43.5 57t34.5 67.5t27 73.5t22 81t17.5 84t15 88.5l84 529 q9 45 5.5 84t-19 67.5t-56 45t-104.5 16.5h-25l8 43h467l-8 -43h-22q-98 0 -144 -121q-16 -43 -26 -107q-6 -33 -15 -96l-75 -514q-41 -283 -176.5 -413t-391.5 -130q-264 0 -380 168t-68 471zM1114 1786q0 37 30.5 67.5t67.5 30.5q38 0 68.5 -30t30.5 -68q0 -40 -29.5 -69 t-69.5 -29q-38 0 -68 30t-30 68zM764 1786q0 37 30.5 67.5t67.5 30.5q38 0 68.5 -30t30.5 -68q0 -40 -29.5 -69t-69.5 -29q-38 0 -68 30t-30 68z" />
<glyph unicode="&#xdd;" horiz-adv-x="1435" d="M963 0h-588l4 31q32 -4 69 -1t69 11t56.5 32.5t30.5 63.5l96 539l-290 577q-53 101 -228 107l6 31h545l-6 -33q-86 -7 -107.5 -33.5t7.5 -75.5l233 -461l393 459q33 31 43 52t-2.5 33t-36.5 18t-65 8l6 33h381l-6 -33q-62 -4 -103.5 -18t-64.5 -32.5t-55 -54.5l-465 -534 l-105 -580q-13 -71 60 -96q21 -6 67 -10q20 -2 60 -2zM1210 1749l-268 -205h-29l224 285q28 35 61 47t59 -10q43 -46 -47 -117z" />
<glyph unicode="&#xdf;" horiz-adv-x="1044" d="M133 805l17 92q33 1 60 10.5t42 22t25 24.5t13 20l3 9q0 3 5.5 26t20 64.5t36 88t57.5 95.5t80 88t108.5 64t138.5 25q62 0 116.5 -16.5t95.5 -48t59.5 -83t7.5 -115.5q-17 -92 -66.5 -145.5t-130.5 -99.5q-10 -5 -63 -37q-54 -32 -86.5 -66t-40.5 -84q-10 -61 39 -114 q17 -17 53 -45q10 -7 30.5 -21.5t30.5 -21.5q39 -28 61 -47t47 -48.5t33.5 -63t2.5 -73.5q-25 -138 -136 -231.5t-251 -93.5q-68 0 -129 30.5t-52 85.5q5 24 25 42t43 18q27 0 45.5 -9.5t26 -20.5t16.5 -30q11 -28 25 -45q20 -20 53 -20q75 0 132 49t69 121q10 61 -43 114 q-26 26 -56 47q-2 2 -26.5 20t-38.5 26q-83 57 -123 111.5t-27 133.5q8 48 27 85.5t51.5 66.5t57 45t69.5 41q6 4 32 19t37 22t29.5 20.5t32.5 26.5q66 66 78 149q21 119 -21 186.5t-147 67.5q-46 0 -85 -13.5t-67.5 -34.5t-51.5 -55t-38 -67t-28 -79t-20 -82.5t-15 -85.5 l-156 -965h-149l135 805h-119z" />
<glyph unicode="&#xe0;" horiz-adv-x="1046" d="M664 352l55 293q1 25 -1.5 50t-12 55.5t-25.5 53.5t-45.5 38.5t-69.5 15.5q-69 0 -129.5 -43.5t-101.5 -110.5t-71 -147.5t-44 -156t-14 -134.5q0 -52 13 -94t49 -72t91 -30q101 0 180.5 77t125.5 205zM930 190l37 -18q-56 -97 -114.5 -144.5t-137.5 -47.5 q-45 0 -75 36.5t-13 110.5l18 78q-170 -225 -399 -225q-103 0 -150 63t-47 170q0 87 27.5 185t80 189.5t120 166t155.5 119.5t180 45q126 0 179 -95l45 92h86l-127 -714q-11 -55 -9.5 -83t8.5 -36t23 -8q26 0 57 32t56 84zM645 1032l-196 205q-33 40 -31 70.5t31 50.5 q34 19 63.5 3t40.5 -44l123 -285h-31z" />
<glyph unicode="&#xe1;" horiz-adv-x="1046" d="M664 352l55 293q1 25 -1.5 50t-12 55.5t-25.5 53.5t-45.5 38.5t-69.5 15.5q-69 0 -129.5 -43.5t-101.5 -110.5t-71 -147.5t-44 -156t-14 -134.5q0 -52 13 -94t49 -72t91 -30q101 0 180.5 77t125.5 205zM930 190l37 -18q-56 -97 -114.5 -144.5t-137.5 -47.5 q-45 0 -75 36.5t-13 110.5l18 78q-170 -225 -399 -225q-103 0 -150 63t-47 170q0 87 27.5 185t80 189.5t120 166t155.5 119.5t180 45q126 0 179 -95l45 92h86l-127 -714q-11 -55 -9.5 -83t8.5 -36t23 -8q26 0 57 32t56 84zM870 1257l-266 -204h-31l226 284q27 35 61 47 t58 -10q46 -46 -48 -117z" />
<glyph unicode="&#xe2;" horiz-adv-x="1046" d="M664 352l55 293q1 25 -1.5 50t-12 55.5t-25.5 53.5t-45.5 38.5t-69.5 15.5q-69 0 -129.5 -43t-101.5 -110.5t-71 -148.5t-44 -156.5t-14 -135.5q0 -51 13 -92.5t49 -71.5t91 -30q101 0 180.5 77t125.5 205zM930 190l37 -18q-56 -97 -114.5 -144.5t-137.5 -47.5 q-45 0 -75 36.5t-13 110.5l18 78q-170 -225 -399 -225q-103 0 -150 63t-47 170q0 87 27.5 185t80 189.5t120 166t155.5 119.5t180 45q126 0 179 -95l45 92h86l-127 -714q-11 -55 -9.5 -83t8.5 -36t23 -8q26 0 57 32t56 84zM760 1358l119 -305h-31l-182 213l-256 -213h-31 l229 305q6 9 15 18q6 9 16 19q25 18 57 18q31 0 43 -12q5 -5 11 -17q2 -3 3.5 -7t3.5 -9.5t3 -9.5z" />
<glyph unicode="&#xe3;" horiz-adv-x="1046" d="M664 352l53 293q1 33 -4 64.5t-19.5 68t-47.5 58.5t-81 22q-69 0 -129.5 -43.5t-101.5 -110.5t-71 -147.5t-44 -156t-14 -134.5q0 -52 13 -94t49 -72t91 -30q99 0 178.5 77t127.5 205zM930 190l37 -18q-56 -96 -115 -144t-137 -48q-45 0 -75.5 36.5t-12.5 110.5l18 78 q-175 -225 -401 -225q-102 0 -148.5 63t-46.5 170q0 72 20 153t55.5 159t87.5 149.5t112.5 125.5t135 86t150.5 32q125 0 178 -95l48 92h86l-127 -714q-10 -55 -9.5 -83.5t7.5 -36t22 -7.5q27 0 58.5 32t56.5 84zM1042 1389l27 -33q-19 -121 -72 -182q-24 -28 -57.5 -40.5 t-62 -11t-48.5 12.5l-213 82q-24 9 -46 10t-41.5 -8t-35 -21t-33 -34.5t-30 -41.5t-29.5 -49l-49 19q7 35 31.5 87t58.5 93q25 37 60 53.5t62 15.5t50 -10l193 -82q80 -34 131 2.5t104 137.5z" />
<glyph unicode="&#xe4;" horiz-adv-x="1046" d="M664 352l55 293q1 25 -1.5 50t-12 55.5t-25.5 53.5t-45.5 38.5t-69.5 15.5q-69 0 -129.5 -43.5t-101.5 -110.5t-71 -147.5t-44 -156t-14 -134.5q0 -52 13 -94t49 -72t91 -30q101 0 180.5 77t125.5 205zM930 190l37 -18q-56 -97 -114.5 -144.5t-137.5 -47.5 q-45 0 -75 36.5t-13 110.5l18 78q-175 -225 -399 -225q-103 0 -150 63t-47 170q0 87 27.5 185t80 189.5t120 166t155.5 119.5t180 45q126 0 179 -95l45 92h86l-127 -714q-11 -55 -9.5 -83t8.5 -36t23 -8q26 0 57 32t56 84zM788 1294q0 37 31 68t68 31q38 0 68 -30.5 t30 -68.5q0 -40 -29 -69t-69 -29q-38 0 -68.5 30t-30.5 68zM436 1294q0 37 31 68t68 31q38 0 68 -30.5t30 -68.5q0 -40 -29 -69t-69 -29q-38 0 -68.5 30t-30.5 68z" />
<glyph unicode="&#xe5;" horiz-adv-x="1046" d="M664 352l55 291q1 26 -1.5 51t-12 56t-25.5 54t-45.5 38.5t-69.5 15.5q-69 0 -129.5 -43t-101.5 -110.5t-71 -148.5t-44 -156.5t-14 -135.5q0 -51 13 -92.5t49 -71.5t91 -30q101 0 180.5 77t125.5 205zM930 190l37 -18q-56 -97 -114.5 -144.5t-137.5 -47.5 q-45 0 -75 36.5t-13 110.5l18 78q-170 -225 -399 -225q-103 0 -150 63t-47 170q0 87 27.5 185t80 189.5t120 166t155.5 119.5t180 45q126 0 179 -95l45 92h86l-127 -714q-11 -55 -9.5 -83t8.5 -36t23 -8q26 0 57 32t56 84zM737 1274q0 121 -108 121q-109 0 -109 -121 t109 -121q108 0 108 121zM629 1454q75 0 127.5 -52.5t52.5 -127.5t-52.5 -127.5t-127.5 -52.5q-76 0 -129.5 52.5t-53.5 127.5t53.5 127.5t129.5 52.5z" />
<glyph unicode="&#xe6;" horiz-adv-x="1718" d="M662 354l53 293q1 33 -4 65t-19.5 68.5t-47.5 59t-81 22.5q-68 0 -128.5 -43.5t-101.5 -111t-71.5 -148.5t-44.5 -157t-14 -136q0 -82 36.5 -139t116.5 -57q101 0 179.5 77t126.5 207zM1092 444q197 32 310.5 133t113.5 207q0 42 -25.5 64t-69.5 20q-54 -2 -102.5 -33 t-83 -75.5t-64.5 -104t-48 -110t-31 -101.5zM918 920l-127 -719q-10 -54 -8.5 -82t8 -35.5t22.5 -7.5q56 0 115 114q-8 36 -8 78q0 137 50.5 262t129 209.5t174.5 134.5t188 50q91 0 142 -32t51 -95q0 -58 -22.5 -108.5t-56.5 -86t-85.5 -66t-98.5 -49.5t-108 -36 t-101.5 -25t-90.5 -16q-14 -60 -9.5 -119t23.5 -105t69.5 -75t127.5 -29q115 0 241 121l33 -29q-67 -82 -162.5 -138t-210.5 -56q-192 0 -262 159q-53 -82 -106.5 -120.5t-122.5 -38.5q-45 0 -75.5 37t-12.5 112l16 78q-168 -227 -397 -227q-102 0 -148.5 63.5t-46.5 171.5 q0 87 27.5 185t79 190t119 166.5t155 120t178.5 45.5q125 0 178 -95l45 93h87z" />
<glyph unicode="&#xe7;" horiz-adv-x="876" d="M215 -203l96 191q-80 14 -134.5 62t-78 116t-22.5 149.5t26 167.5t71 163.5t109 140t146.5 99t175.5 36.5q98 0 153.5 -39t69.5 -95q12 -50 -10 -89.5t-63 -39.5q-47 0 -68 30.5t-9.5 66.5t46.5 51q7 63 -129 63q-76 0 -142.5 -48t-109.5 -122.5t-67.5 -163.5t-24.5 -174 q-1 -69 15 -125.5t51.5 -94t87.5 -49t129 15t169 92.5l29 -31q-106 -104 -184 -145t-178 -41l-70 -142q43 21 84 21q65 0 91.5 -44t8.5 -104q-19 -63 -77 -107t-146 -44q-102 0 -178 24l29 52q50 -23 139 -23q47 0 80 26.5t41 61.5q11 36 -8 64t-64 28h-84z" />
<glyph unicode="&#xe8;" horiz-adv-x="876" d="M578 868q-54 -2 -103.5 -33t-84.5 -75.5t-65 -104t-48 -110t-31 -101.5q198 32 312 133t114 207q0 42 -25 64t-69 20zM702 203l33 -29q-70 -82 -165.5 -138t-211.5 -56q-135 0 -210.5 78t-75.5 210q0 137 50.5 262t130 209.5t176.5 134.5t189 50q93 0 144 -32t51 -95 q0 -58 -23 -108.5t-57 -86t-86 -66t-99.5 -49.5t-109 -36t-101.5 -25t-91 -16q-14 -60 -9.5 -119t23.5 -105t70 -75t129 -29q117 0 243 121z" />
<glyph unicode="&#xe9;" horiz-adv-x="876" d="M575 864q-54 -2 -102.5 -33t-83 -75t-64.5 -103.5t-48 -109.5t-31 -101q196 32 311 133t115 205q0 42 -26 64t-71 20zM700 203l33 -29q-68 -82 -163.5 -138t-211.5 -56q-135 0 -210.5 78t-75.5 210q0 110 33 213t88.5 181t125.5 137t147.5 90t151.5 31q92 0 143.5 -32 t51.5 -95q0 -58 -23 -107.5t-57 -85t-86.5 -66t-99.5 -49.5t-109 -36t-102.5 -25t-91.5 -16q-9 -51 -9.5 -95t11 -88t36 -75t69.5 -50.5t108 -19.5q113 0 241 123zM834 1257l-269 -204h-30l225 284q28 35 61.5 47t59.5 -10q43 -46 -47 -117z" />
<glyph unicode="&#xea;" horiz-adv-x="876" d="M578 864q-54 -2 -103.5 -33t-84.5 -75t-65 -103.5t-48 -109.5t-31 -101q196 32 311 133t115 205q0 42 -25 64t-69 20zM702 203l31 -29q-68 -82 -163.5 -138t-211.5 -56q-135 0 -210.5 78t-75.5 210q0 110 33 213t88.5 181t125.5 137t147.5 90t151.5 31q93 0 144 -32 t51 -95q0 -58 -23 -107.5t-57 -85t-86.5 -66t-99.5 -49.5t-109 -36t-102.5 -25t-91.5 -16q-9 -51 -9.5 -95t11 -88t36 -75t69.5 -50.5t108 -19.5q112 0 243 123zM721 1358l121 -305h-33l-182 213l-256 -213h-31l229 305q6 9 15 18q7 11 18 19q22 18 55 18q34 0 43 -12 q9 -9 11 -17q2 -3 3.5 -7t3.5 -9.5t3 -9.5z" />
<glyph unicode="&#xeb;" horiz-adv-x="876" d="M578 868q-54 -2 -103.5 -33t-84.5 -75.5t-65 -104t-48 -110t-31 -101.5q198 32 312 133t114 207q0 42 -25 64t-69 20zM702 203l33 -29q-70 -82 -165.5 -138t-211.5 -56q-135 0 -210.5 78t-75.5 210q0 137 50.5 262t130 209.5t176.5 134.5t189 50q93 0 144 -32t51 -95 q0 -58 -23 -108.5t-57 -86t-86 -66t-99.5 -49.5t-109 -36t-101.5 -25t-91 -16q-14 -60 -9.5 -119t23.5 -105t70 -75t129 -29q117 0 243 121z" />
<glyph unicode="&#xec;" horiz-adv-x="655" d="M190 129l105 565q13 83 6 104t-37 21q-18 0 -53 -45q-4 -5 -53 -76l-37 23q56 97 115.5 144.5t140.5 47.5q43 0 72.5 -36t15.5 -111l-105 -565q-13 -85 -6 -106t37 -21q19 0 53 47q29 38 54 76l37 -25q-56 -97 -115.5 -144.5t-140.5 -47.5q-43 0 -73 37t-16 112z M408 1032l-199 205q-34 40 -32 70.5t32 50.5q22 15 43.5 10t38 -19.5t24.5 -31.5l125 -285h-32z" />
<glyph unicode="&#xed;" horiz-adv-x="655" d="M190 129l103 565q14 83 7 104t-36 21q-18 0 -53 -45q-28 -38 -53 -78l-37 25q56 96 115.5 144t138.5 48q43 0 72.5 -36t15.5 -111l-105 -565q-13 -85 -6 -106t37 -21q18 0 53 45q5 8 24.5 36t27.5 42l38 -25q-56 -97 -115 -144.5t-138 -47.5q-44 0 -73.5 36.5 t-15.5 112.5zM633 1257l-268 -204h-29l223 284q29 35 63 47t60 -10q44 -47 -49 -117z" />
<glyph unicode="&#xee;" horiz-adv-x="655" d="M190 129l105 565q12 83 5 104t-36 21q-18 0 -53 -45q-28 -38 -53 -78l-37 25q56 96 115.5 144t138.5 48q44 0 73 -35.5t15 -111.5l-105 -565q-12 -85 -5 -106t36 -21q18 0 53 45q37 51 54 78l36 -25q-56 -97 -115 -144.5t-138 -47.5q-44 0 -73.5 36.5t-15.5 112.5z M522 1358l121 -305h-33l-182 213l-260 -213h-29l230 305q8 12 14 18q3 3 9 9.5t9 9.5q22 18 58 18q31 0 43 -12q3 -3 10 -17q2 -6 10 -26z" />
<glyph unicode="&#xef;" horiz-adv-x="655" d="M190 129l103 565q13 83 6.5 104t-35.5 21q-18 0 -53 -45q-28 -38 -53 -78l-37 25q56 96 115.5 144t138.5 48q43 0 72.5 -36t15.5 -111l-105 -565q-13 -85 -6 -106t37 -21q18 0 53 45q8 13 26 39.5t26 38.5l36 -25q-56 -97 -114 -144.5t-137 -47.5q-44 0 -73.5 36.5 t-15.5 112.5zM549 1294q0 37 31.5 68t68.5 31q38 0 68.5 -30.5t30.5 -68.5q0 -40 -29.5 -69t-69.5 -29q-38 0 -69 30t-31 68zM197 1294q0 37 30.5 68t67.5 31q38 0 68 -30.5t30 -68.5q0 -40 -29 -69t-69 -29q-38 0 -68 30t-30 68z" />
<glyph unicode="&#xf1;" horiz-adv-x="1163" d="M1036 197l37 -25q-56 -97 -114.5 -144.5t-137.5 -47.5q-43 0 -71.5 36.5t-16.5 112.5l101 563q16 91 -25 121t-115 2q-71 -27 -151.5 -95.5t-141.5 -158.5l-100 -561h-158l129 694q13 83 6.5 104t-36.5 21q-20 0 -50 -35t-55 -86l-37 23q56 97 114.5 144.5t137.5 47.5 q43 0 71.5 -36t16.5 -111l-22 -129q89 132 197 207t204 86q93 10 143 -48t29 -180l-90 -501q-13 -85 -6 -106t37 -21q20 0 47.5 33.5t56.5 89.5zM999 1389l27 -33q-19 -118 -72 -182q-24 -28 -58 -40.5t-62.5 -11t-47.5 12.5l-213 82q-68 26 -115.5 -13t-99.5 -131l-51 19 q7 34 32.5 86.5t59.5 93.5q25 37 60 53.5t62 15.5t50 -10l193 -82q80 -34 131 2.5t104 137.5z" />
<glyph unicode="&#xf2;" horiz-adv-x="1095" d="M604 866q-74 0 -135 -31.5t-100.5 -84t-64 -112.5t-36.5 -126q-11 -59 -12 -121t12 -127.5t39 -116.5t76.5 -83.5t118.5 -32.5q74 0 130.5 28.5t92 81t57.5 111.5t35 135q9 55 13 106.5t2 107.5t-17 102t-39.5 83.5t-68.5 58.5t-103 21zM469 -20q-209 0 -317 128t-70 341 t191 341t362 128q206 0 306 -126.5t63 -340.5q-35 -201 -187.5 -336t-347.5 -135zM643 1032l-197 205q-33 40 -31 70.5t31 50.5q21 15 42.5 10t38 -19.5t24.5 -31.5l123 -285h-31z" />
<glyph unicode="&#xf3;" horiz-adv-x="1095" d="M604 866q-74 0 -135 -31.5t-100.5 -84t-64 -112.5t-36.5 -126q-11 -59 -12 -121t12 -127.5t39 -116.5t76.5 -83.5t118.5 -32.5q74 0 130.5 28.5t92 81t57.5 111.5t35 135q9 55 13 106.5t2 107.5t-17 102t-39.5 83.5t-68.5 58.5t-103 21zM469 -20q-209 0 -317 128t-70 341 q38 212 191 340.5t362 128.5q206 0 306 -126.5t63 -340.5q-35 -201 -187.5 -336t-347.5 -135zM868 1257l-268 -204h-29l224 284q29 35 62 47t58 -10q45 -45 -47 -117z" />
<glyph unicode="&#xf4;" horiz-adv-x="1095" d="M604 866q-74 0 -135 -31.5t-100.5 -84t-64 -112.5t-36.5 -126q-11 -59 -12 -121t12 -127.5t39 -116.5t76.5 -83.5t118.5 -32.5q74 0 130.5 28.5t92 80.5t57.5 111t35 134q9 55 13 107t2 108.5t-17 102.5t-39.5 83.5t-68.5 58.5t-103 21zM469 -20q-209 0 -317 128t-70 341 q38 212 191 340.5t362 128.5q206 0 306 -126.5t63 -340.5q-35 -201 -187.5 -336t-347.5 -135zM758 1358l119 -305h-31l-182 213l-258 -213h-29l227 305q6 6 14 18l19 19q25 18 57 18q31 0 43 -12q5 -5 11 -17q2 -6 10 -26z" />
<glyph unicode="&#xf5;" horiz-adv-x="1095" d="M604 866q-74 0 -135 -31.5t-100.5 -84t-64 -112.5t-36.5 -126q-11 -59 -12 -121t12 -127.5t39 -116.5t76.5 -83.5t118.5 -32.5q74 0 130.5 28.5t92 81t57.5 111.5t35 135q9 55 13 106.5t2 107.5t-17 102t-39.5 83.5t-68.5 58.5t-103 21zM467 -20q-207 0 -314 128t-71 341 q38 212 191 340.5t362 128.5q206 0 306 -126.5t63 -340.5q-23 -132 -100.5 -239.5t-192.5 -169.5t-244 -62zM1040 1389l27 -33q-19 -121 -72 -182q-24 -28 -57.5 -40.5t-62 -11t-48.5 12.5l-213 82q-24 9 -46 10t-41.5 -8t-35 -21t-33 -34.5t-30 -41.5t-29.5 -49l-49 19 q5 33 30 85.5t60 94.5q25 37 60 53.5t62 15.5t50 -10l193 -82q80 -34 131 2.5t104 137.5z" />
<glyph unicode="&#xf6;" horiz-adv-x="1095" d="M604 866q-74 0 -135 -31.5t-100.5 -84t-64 -112.5t-36.5 -126q-11 -59 -12 -121t12 -127.5t39 -116.5t76.5 -83.5t118.5 -32.5q74 0 130.5 28.5t92 81t57.5 111.5t35 135q9 55 13 106.5t2 107.5t-17 102t-39.5 83.5t-68.5 58.5t-103 21zM469 -20q-209 0 -317 128t-70 341 q38 212 191 340.5t362 128.5q206 0 306 -126.5t63 -340.5q-35 -201 -187.5 -336t-347.5 -135zM786 1294q0 37 31 68t68 31q38 0 68 -30.5t30 -68.5q0 -40 -29 -69t-69 -29q-38 0 -68.5 30t-30.5 68zM434 1294q0 37 30.5 68t67.5 31q38 0 68.5 -30.5t30.5 -68.5 q0 -40 -29.5 -69t-69.5 -29q-38 0 -68 30t-30 68z" />
<glyph unicode="&#xf7;" horiz-adv-x="913" d="M395 217q43 0 75 -38t24 -79q-9 -45 -54 -82.5t-90 -37.5q-42 0 -72.5 37t-23.5 81q7 43 52.5 81t88.5 38zM838 375h-789l21 112h788zM375 780q8 43 52 82t87 39q44 0 76 -38.5t24 -80.5q-9 -45 -53.5 -81.5t-89.5 -36.5q-43 0 -74 36t-22 80z" />
<glyph unicode="&#xf8;" horiz-adv-x="1095" d="M801 745l-477 -622q68 -90 178 -90q60 0 108.5 19.5t81.5 51.5t58.5 78.5t40.5 95.5t26 109q39 226 -16 358zM287 197l463 624q-59 47 -146 47q-74 0 -134.5 -31t-100 -84.5t-64.5 -112.5t-37 -126q-30 -170 19 -317zM979 983l-100 -131q172 -127 125 -401 q-35 -201 -187.5 -336t-347.5 -135q-121 0 -217 47l-98 -129h-93l129 172q-151 132 -108 381q36 213 190 342t365 129q93 0 164 -29l67 90h111z" />
<glyph unicode="&#xf9;" horiz-adv-x="1144" d="M1008 190l36 -18q-56 -97 -114 -144.5t-137 -47.5q-44 0 -74 37t-14 112l34 162q-96 -138 -204 -220t-199 -96q-90 -14 -137 42.5t-25 183.5l88 493q13 83 6 104t-37 21q-18 0 -53 -45q-22 -34 -51 -76l-37 23q56 97 114.5 144.5t137.5 47.5q43 0 71.5 -36t16.5 -111 l-98 -553q-11 -65 4 -101t48 -38t79 18q65 30 144.5 104.5t144.5 168.5l96 532h137l-113 -696q-12 -85 -5.5 -106t36.5 -21q21 0 51.5 33t53.5 83zM621 1032l-195 205q-34 40 -32 70.5t32 50.5q21 15 42 10t37.5 -19.5t24.5 -31.5l123 -285h-32z" />
<glyph unicode="&#xfa;" horiz-adv-x="1144" d="M1008 190l36 -18q-56 -97 -114 -144.5t-137 -47.5q-44 0 -74 37t-14 112l34 162q-96 -138 -204 -220t-199 -96q-90 -14 -137 42.5t-25 183.5l88 493q13 83 6 104t-37 21q-18 0 -53 -45q-8 -13 -25.5 -39.5t-25.5 -38.5l-37 25q56 97 114.5 144.5t137.5 47.5 q43 0 71.5 -36t16.5 -111l-98 -553q-11 -65 4 -101t48 -38t79 18q65 30 144.5 104.5t144.5 168.5l96 532h137l-113 -696q-12 -85 -5.5 -106t36.5 -21q21 0 51.5 33t53.5 83zM848 1257l-268 -204h-29l223 284q28 35 61.5 47t59.5 -10q45 -45 -47 -117z" />
<glyph unicode="&#xfb;" horiz-adv-x="1144" d="M1008 190l36 -18q-56 -97 -114 -144.5t-137 -47.5q-44 0 -74 37t-14 112l34 162q-96 -138 -204 -220t-199 -96q-90 -14 -137 42.5t-25 183.5l88 493q13 83 6 104t-37 21q-18 0 -53 -45q-8 -13 -25.5 -39.5t-25.5 -38.5l-37 25q56 97 114.5 144.5t137.5 47.5 q43 0 71.5 -36t16.5 -111l-98 -553q-11 -65 4 -101t48 -38t79 18q65 30 144.5 104.5t144.5 168.5l96 532h137l-113 -696q-12 -85 -5.5 -106t36.5 -21q21 0 51.5 33t53.5 83zM737 1358l119 -305h-31l-182 215l-258 -215h-29l228 305q2 3 7 9t7 9q3 3 9 9.5t9 9.5q22 18 58 18 q31 0 43 -12q7 -15 8 -17q4 -6 12 -26z" />
<glyph unicode="&#xfc;" horiz-adv-x="1144" d="M1008 190l36 -18q-56 -97 -114 -144.5t-137 -47.5q-44 0 -74 37t-14 112l34 162q-96 -138 -204 -220t-199 -96q-90 -14 -137 42.5t-25 183.5l88 493q13 83 6 104t-37 21q-18 0 -53 -45q-8 -13 -25.5 -39.5t-25.5 -38.5l-37 25q56 97 114.5 144.5t137.5 47.5 q43 0 71.5 -36t16.5 -111l-98 -553q-11 -65 4 -101t48 -38t79 18q65 30 144.5 104.5t144.5 168.5l96 532h137l-113 -696q-12 -85 -5.5 -106t36.5 -21q21 0 51.5 33t53.5 83zM766 1294q0 37 30.5 68t67.5 31t68 -30.5t31 -68.5q0 -39 -30 -68.5t-69 -29.5q-38 0 -68 30 t-30 68zM414 1294q0 37 30.5 68t67.5 31q38 0 68 -30.5t30 -68.5q0 -40 -29 -69t-69 -29q-38 0 -68 30t-30 68z" />
<glyph unicode="&#xfd;" horiz-adv-x="1110" d="M858 899h139l-118 -706q-23 -138 -53.5 -243.5t-84 -203.5t-127 -161t-183 -100.5t-249.5 -37.5q-58 0 -92.5 28.5t-26.5 67.5q8 40 43 70.5t74 30.5q30 0 53.5 -20t26.5 -48q1 -4 2 -12.5t2 -12.5q4 -16 8 -22q13 -23 47 -23q279 0 396 625l30 154q-95 -138 -202 -218.5 t-199 -93.5q-91 -11 -136.5 46t-21.5 184l86 491q13 85 6.5 106t-36.5 21q-22 0 -52 -47q-24 -31 -53 -76l-37 25q56 96 115 144t137 48q44 0 73 -36.5t15 -112.5l-96 -551q-12 -65 2.5 -100.5t47.5 -37t79 18.5q67 31 146.5 106t144.5 169zM821 1257l-268 -204h-29l224 284 q27 35 61.5 47t58.5 -10q45 -45 -47 -117z" />
<glyph unicode="&#xff;" horiz-adv-x="1110" d="M858 899h139l-118 -706q-23 -138 -53.5 -243.5t-84 -203.5t-127 -161t-183 -100.5t-249.5 -37.5q-58 0 -92.5 28.5t-26.5 67.5q8 40 43 70.5t74 30.5q30 0 53.5 -20t26.5 -48q1 -4 2 -12.5t2 -12.5q4 -16 8 -22q13 -23 47 -23q279 0 396 625l30 154q-95 -138 -202 -218.5 t-199 -93.5q-91 -11 -136.5 46t-21.5 184l86 491q13 85 6.5 106t-36.5 21q-22 0 -52 -47q-24 -31 -53 -76l-37 25q56 96 115 144t137 48q44 0 73 -36.5t15 -112.5l-96 -551q-12 -65 2.5 -100.5t47.5 -37t79 18.5q67 31 146.5 106t144.5 169zM739 1294q0 37 31 68t68 31 q38 0 68 -30.5t30 -68.5q0 -40 -29 -68t-69 -28q-38 0 -68.5 29.5t-30.5 66.5zM387 1294q0 37 30.5 68t67.5 31q38 0 68.5 -30.5t30.5 -68.5q0 -39 -29.5 -67.5t-69.5 -28.5q-38 0 -68 29.5t-30 66.5z" />
<glyph unicode="&#x131;" horiz-adv-x="655" d="M190 129l105 567q12 55 9 82.5t-11 35t-29 7.5t-53 -45q-24 -31 -53 -76l-37 23q56 98 115.5 146.5t140.5 48.5q43 0 72.5 -37.5t15.5 -112.5l-105 -567q-12 -55 -9 -82.5t11 -35t29 -7.5t53 45q29 38 54 76l37 -23q-56 -98 -115.5 -146t-140.5 -48q-43 0 -73 37t-16 112 z" />
<glyph unicode="&#x152;" horiz-adv-x="1988" d="M999 221l195 1100h-129q-329 0 -501 -140t-228 -464q-28 -140 -13.5 -258t64.5 -204t151 -134.5t246 -48.5q84 0 143 37t72 112zM1892 319l-116 -319h-1026q-87 0 -173 23t-162 67t-139.5 107t-104 143t-56 175t3.5 202q22 124 80.5 230.5t140.5 182t182.5 132.5 t209.5 88t218 42t211 1h819l-38 -320h-52q14 81 -4.5 133.5t-69.5 76t-103.5 31t-133.5 7.5h-188l-97 -549q43 6 139.5 4.5t135.5 5.5q71 10 116.5 50t63.5 126h51q-5 -21 -31 -107t-34 -132q-7 -43 -9 -114t-8 -109h-51q17 105 -21.5 155.5t-134.5 50.5h-229l-92 -520 q-6 -34 35 -72t75 -38q120 0 173 2q89 3 149 22q72 23 126 75.5t93 147.5h51z" />
<glyph unicode="&#x153;" horiz-adv-x="1658" d="M1018 610h397q45 0 60 68q11 68 -43.5 130t-137.5 62q-57 0 -107.5 -24.5t-84.5 -63.5t-55.5 -83.5t-28.5 -88.5zM573 870q-60 0 -109 -21.5t-82 -55.5t-58.5 -82.5t-40 -95.5t-23.5 -101q-11 -60 -14 -121t6 -128t31.5 -117.5t70 -83.5t115.5 -33q252 0 313 356 q12 66 16 128t-4.5 128.5t-31.5 115t-71 80t-118 31.5zM1503 174l29 -33q-100 -84 -173.5 -122.5t-158.5 -38.5q-278 0 -364 188q-79 -90 -182 -139t-216 -49q-205 0 -304 127t-62 344q37 215 181.5 343t350.5 128q123 0 210 -50t132 -145q77 91 173 143t188 52 q170 0 250.5 -92t48.5 -271h-598q-86 -487 252 -487q123 0 243 102z" />
<glyph unicode="&#x160;" horiz-adv-x="972" d="M516 858l158 -88q73 -40 123.5 -97.5t73 -120.5t21.5 -131.5t-24.5 -132t-71 -121.5t-113 -100.5t-156.5 -68t-195 -25.5q-113 0 -215 52q-37 15 -70 41q-8 5 -21 14t-18 12l53 291h62q0 -6 2 -40t4 -56q7 -69 25 -119q57 -139 217 -139q86 0 156 33.5t111 86.5t60 119 t11 129.5t-44.5 120t-97.5 88.5l-178 94q-87 45 -133.5 117t-49.5 150t31 158t97.5 143t162.5 103t214 40q49 0 143 -22.5t133 -42.5l-47 -261h-63q-1 24 0 50t-3.5 53t-11 52.5t-22.5 48t-37.5 39.5t-55.5 26.5t-77 9.5q-85 0 -151 -28t-103 -72t-51 -100.5t-2.5 -112 t51 -107.5t102.5 -86zM473 1579l-119 305h31l182 -215l258 215h29l-227 -305q-3 -3 -8.5 -9t-8.5 -9q-6 -9 -16 -19q-25 -18 -57 -18q-31 0 -43 12q-6 6 -11 16q-4 12 -10 27z" />
<glyph unicode="&#x161;" horiz-adv-x="798" d="M504 918q43 0 83.5 -7t78.5 -22t59 -43t16 -66q-8 -78 -77 -78q-70 0 -52 97q6 32 -14 52t-46 26t-56 6q-75 0 -125.5 -48t-61.5 -116q-10 -64 56 -113q40 -24 67 -37q13 -6 39.5 -18.5t40.5 -18.5q47 -22 78 -43t61 -52.5t40.5 -75t0.5 -97.5q-15 -82 -74.5 -145.5 t-137.5 -97t-165 -41.5q-86 -7 -155.5 12.5t-108 68t-26.5 119.5q5 31 27 54.5t50 23.5q72 0 58 -76q-14 -81 33 -122.5t122 -34.5q75 8 137 59.5t78 136.5q13 70 -49 125q-28 25 -63 43q-38 21 -76 41q-17 10 -29.5 17t-29 17t-28 18.5t-24.5 20t-22 22.5t-18 24t-14.5 27 t-9 29.5t-3 33.5t3.5 37q16 86 69 142t120 78t147 22zM444 1085l-118 308h30l183 -215l258 215h28l-227 -306q-1 -1 -6.5 -8t-7.5 -12q-10 -10 -19 -16q-23 -19 -55 -19t-45 10q-7 14 -8 17l-3 6t-3.5 6.5t-3.5 6.5t-3 7z" />
<glyph unicode="&#x178;" horiz-adv-x="1435" d="M963 0h-588l4 31q32 -4 69 -1t69 11t56.5 32.5t30.5 63.5l96 539l-290 577q-53 101 -228 107l6 31h545l-6 -33q-86 -7 -107.5 -33.5t7.5 -75.5l233 -461l393 459q33 31 43 52t-2.5 33t-36.5 18t-65 8l6 33h381l-6 -33q-62 -4 -103.5 -18t-64.5 -32.5t-55 -54.5l-465 -534 l-105 -580q-13 -71 60 -96q21 -6 67 -10q20 -2 60 -2zM1126 1786q0 37 31 67.5t68 30.5q38 0 68 -30t30 -68q0 -40 -29 -69t-69 -29q-38 0 -68.5 30t-30.5 68zM776 1786q0 37 30.5 67.5t67.5 30.5q38 0 68.5 -30t30.5 -68q0 -40 -29.5 -69t-69.5 -29q-38 0 -68 30t-30 68z " />
<glyph unicode="&#x17d;" horiz-adv-x="1259" d="M1325 1280l-932 -1044q-2 -2 -2 -7q-3 -6 4 -6q2 2 6 4q1 0 3.5 1.5t6.5 3.5t7 4q42 14 78 14q54 0 105.5 -20.5t103 -62.5t88.5 -79.5t90 -97.5q15 -16 43 -49t43 -50q41 -47 84 -84q93 -83 172 -83q76 0 129.5 30t56.5 94h27q-2 -69 -48 -122.5t-115.5 -80 t-146.5 -26.5q-106 0 -196 80q-33 26 -78 82q-48 59 -72 94q-37 50 -59.5 78t-61.5 68t-72.5 61t-80.5 37t-98 16q-75 0 -101 -41t-26 -110q0 -39 -30.5 -67t-74.5 -28q-41 0 -68.5 30.5t-27.5 76.5q0 28 35 72q11 15 31.5 36t21.5 23l922 1012l-7 8q-16 -14 -36 -14 q-62 0 -122.5 18t-96.5 37t-93 55q-105 63 -137 76q-82 35 -162 35q-122 0 -155 -148q42 37 73 37q37 0 67 -30t30 -68q0 -39 -29.5 -68.5t-67.5 -29.5q-45 0 -81.5 34t-36.5 99q0 82 75.5 156.5t184.5 74.5q111 0 188 -20t148 -56q10 -4 50 -24.5t62 -28.5q61 -22 129 -22 q60 0 84 24q19 16 35 53q10 24 19.5 37t34.5 25t63 12q22 0 38 -15t13 -46.5t-37 -69.5zM643 1579l-119 305h31l182 -213l256 213h29l-227 -305q-6 -9 -15 -18q-1 -1 -7 -8t-11 -11q-22 -18 -55 -18q-34 0 -43 12q-6 6 -11 16q-2 3 -5.5 13.5z" />
<glyph unicode="&#x17e;" horiz-adv-x="923" d="M47 106l563 619q-60 -5 -139 45q-17 9 -63 41q-41 25 -62 33q-65 29 -128.5 -7t-49.5 -114q0 -2 4 -10q1 -2 4 -6.5t4 -6.5q8 -17 6 -28q-3 -21 -15.5 -35.5t-27.5 -13.5q-25 1 -37 19t-12 44q0 94 89.5 164t191.5 70q45 0 164 -48q38 -16 82 -32q51 -15 73 -15 q42 0 58 12t18 40q4 33 14.5 51t38.5 18q35 0 35 -37q0 -15 -39 -61q-5 -6 -30.5 -35.5t-36.5 -42.5l-486 -543q91 7 211 -100q37 -32 93.5 -90.5t70.5 -71.5q80 -72 172 -41q31 12 51 34t17 42h24q-3 -82 -92.5 -142.5t-187.5 -60.5q-62 0 -118 44.5t-124 125.5 q-9 10 -26 32t-25 30q-36 40 -51 55q-55 55 -99 55q-27 0 -47.5 -15.5t-29 -37t-12 -44t4.5 -36.5q6 -14 -6.5 -23.5t-32.5 -11.5q-22 -3 -35.5 11.5t-13.5 37.5q0 29 7.5 45.5t29.5 40.5zM451 1085l-119 308h30l183 -215l258 215h28l-227 -306q-2 -3 -7 -9t-7 -9 q-8 -11 -19 -18q-27 -19 -57 -19q-31 0 -43 12q-3 3 -10 17q-1 3 -4.5 11.5t-5.5 12.5z" />
<glyph unicode="&#x192;" horiz-adv-x="1187" d="M459 897h200q19 48 37.5 91.5t48.5 101.5t61 106.5t72.5 97.5t84 83t95 55.5t107.5 21.5q57 0 93 -22t28 -74q-5 -37 -30.5 -69.5t-63.5 -31.5q-12 3 -25 19q-8 8 -14 20q-2 3 -12 23q-35 63 -72 63q-38 0 -85 -60.5t-85.5 -145t-66.5 -160t-39 -119.5h227l-10 -51h-238 q-24 -55 -110 -295t-150 -375q-45 -96 -92 -170t-103 -134.5t-121.5 -91t-136.5 -26.5q-45 3 -75 39t-23 78q3 16 20.5 37.5t28.5 21.5q33 0 51 -13t35 -38q25 -30 31 -35q22 -18 49 -18q38 0 109 136t145.5 332t123.5 333.5t75 218.5h-185z" />
<glyph unicode="&#x2c6;" horiz-adv-x="634" d="M555 1358l121 -314h-33l-182 220l-260 -220h-29l229 312q10 15 15 20q1 1 7 8t11 11q22 18 58 18q31 0 43 -12q3 -3 10 -17q1 -3 10 -26z" />
<glyph unicode="&#x2c7;" horiz-adv-x="634" d="M350 1079l-121 314h33l182 -219l261 219h28l-229 -312q-10 -15 -15 -20q-1 -1 -7 -8t-11 -11q-22 -18 -57 -18q-31 0 -43 12q-5 5 -11 17q-1 3 -10 26z" />
<glyph unicode="&#x2d8;" horiz-adv-x="696" d="M236 1434h51q2 -97 54 -154t146 -57q96 0 174 59t95 152h51q-43 -150 -128.5 -239t-215.5 -89q-128 0 -181.5 89t-45.5 239z" />
<glyph unicode="&#x2d9;" horiz-adv-x="329" d="M313 1188q-40 0 -71 31t-31 71q0 38 32 70.5t70 32.5q40 0 71.5 -31.5t31.5 -71.5q0 -41 -31 -71.5t-72 -30.5z" />
<glyph unicode="&#x2da;" horiz-adv-x="497" d="M504 1270q0 123 -111 123q-110 0 -110 -123t110 -123q111 0 111 123zM393 1454q77 0 131 -54t54 -130t-54 -130.5t-131 -54.5q-76 0 -130 54t-54 131q0 76 53.5 130t130.5 54z" />
<glyph unicode="&#x2db;" horiz-adv-x="489" d="M211 0h68q-211 -157 -228 -266q-8 -47 14.5 -68.5t59.5 -21.5q93 0 139 61l29 -16q-40 -57 -97.5 -88t-105.5 -31q-29 0 -47 2q-31 3 -57 18q-70 38 -52 142q3 19 14.5 42t38.5 58.5t85 79.5t139 88z" />
<glyph unicode="&#x2dc;" horiz-adv-x="798" d="M868 1389l27 -35q-19 -122 -72 -185q-24 -29 -58 -42.5t-62.5 -11.5t-47.5 13l-215 84q-24 10 -46 11t-41.5 -8t-36 -21.5t-33 -34.5t-29.5 -42.5t-29 -49.5l-51 16q7 35 32.5 88.5t59.5 96.5q26 38 60.5 55.5t62 16.5t49.5 -11l195 -84q80 -34 131 3t104 141z" />
<glyph unicode="&#x2dd;" horiz-adv-x="772" d="M801 1255l-269 -211h-28l223 291q14 18 38.5 33.5t35.5 15.5q7 0 12 5q1 0 4 1t4 1q10 0 23 -13q28 -18 18 -57q-3 -20 -61 -66zM467 1255l-266 -211h-29l223 291q13 18 38 33.5t36 15.5q2 0 12 5q1 0 3.5 1t4.5 1q8 0 21 -13q29 -20 20 -57q-1 -9 -20.5 -29t-42.5 -37z " />
<glyph unicode="&#x2000;" horiz-adv-x="973" />
<glyph unicode="&#x2001;" horiz-adv-x="1946" />
<glyph unicode="&#x2002;" horiz-adv-x="973" />
<glyph unicode="&#x2003;" horiz-adv-x="1946" />
<glyph unicode="&#x2004;" horiz-adv-x="648" />
<glyph unicode="&#x2005;" horiz-adv-x="486" />
<glyph unicode="&#x2006;" horiz-adv-x="324" />
<glyph unicode="&#x2007;" horiz-adv-x="324" />
<glyph unicode="&#x2008;" horiz-adv-x="243" />
<glyph unicode="&#x2009;" horiz-adv-x="389" />
<glyph unicode="&#x200a;" horiz-adv-x="108" />
<glyph unicode="&#x2010;" horiz-adv-x="634" d="M569 532v-98q-329 -35 -503 -65v98q26 3 133 15t195 23.5t175 26.5z" />
<glyph unicode="&#x2011;" horiz-adv-x="634" d="M569 532v-98q-329 -35 -503 -65v98q26 3 133 15t195 23.5t175 26.5z" />
<glyph unicode="&#x2012;" horiz-adv-x="634" d="M569 532v-98q-329 -35 -503 -65v98q26 3 133 15t195 23.5t175 26.5z" />
<glyph unicode="&#x2013;" horiz-adv-x="1169" d="M70 492h1044l-16 -101h-1045z" />
<glyph unicode="&#x2014;" horiz-adv-x="1660" d="M70 492h1536l-17 -101h-1536z" />
<glyph unicode="&#x2018;" horiz-adv-x="407" d="M489 1391l-8 -52q-64 -11 -130.5 -78.5t-76.5 -134.5q-8 -38 19 -47q13 -3 29 0h34q34 0 61.5 -28.5t20.5 -69.5q-6 -38 -46.5 -79.5t-94.5 -41.5q-72 0 -108.5 51.5t-26.5 110.5q19 104 74.5 185.5t119.5 124t133 59.5z" />
<glyph unicode="&#x2019;" horiz-adv-x="471" d="M158 862l8 51q64 11 130.5 78.5t76.5 134.5q9 39 -19 48q-12 3 -28 0h-35q-34 0 -61.5 28.5t-20.5 69.5q6 38 46.5 79.5t94.5 41.5q72 0 108.5 -51.5t26.5 -110.5q-19 -104 -74.5 -185.5t-119.5 -124t-133 -59.5z" />
<glyph unicode="&#x201a;" horiz-adv-x="409" d="M-49 -305l8 51q64 11 130.5 78.5t76.5 134.5q8 38 -19 47q-12 3 -28 0h-35q-34 0 -61.5 28.5t-20.5 69.5q6 38 46.5 79.5t94.5 41.5q72 0 109 -51.5t27 -110.5q-15 -79 -50 -145.5t-81.5 -110.5t-96 -72t-100.5 -40z" />
<glyph unicode="&#x201c;" horiz-adv-x="776" d="M858 1391l-8 -52q-62 -11 -127.5 -78.5t-75.5 -134.5q-8 -38 19 -47q12 -3 26 0h37q32 0 59 -28.5t21 -69.5q-6 -38 -46.5 -79.5t-94.5 -41.5q-71 0 -106.5 51.5t-24.5 110.5q18 104 72.5 185.5t117.5 124t131 59.5zM485 1391l-8 -52q-63 -11 -129 -78.5t-76 -134.5 q-8 -38 19 -47q12 -3 28 0h35q33 0 60 -28.5t20 -69.5q-6 -38 -46.5 -79.5t-94.5 -41.5q-69 0 -105 51.5t-26 110.5q27 153 120 248t203 121z" />
<glyph unicode="&#x201d;" horiz-adv-x="778" d="M530 862l9 51q63 11 128.5 78.5t75.5 134.5q9 39 -18 48q-13 3 -29 0h-34q-33 0 -60 28.5t-20 69.5q6 38 46.5 79.5t94.5 41.5q69 0 105 -51.5t26 -110.5q-27 -153 -120.5 -248t-203.5 -121zM158 862l8 51q62 11 127.5 78.5t75.5 134.5q9 39 -19 48q-12 3 -26 0h-37 q-32 0 -59 28.5t-21 69.5q6 38 46.5 79.5t94.5 41.5q71 0 106.5 -51.5t24.5 -110.5q-18 -104 -72.5 -185.5t-117.5 -124t-131 -59.5z" />
<glyph unicode="&#x201e;" horiz-adv-x="778" d="M324 -305l8 51q63 11 129 78.5t76 134.5q8 38 -19 47q-13 3 -29 0h-34q-33 0 -60 28.5t-20 69.5q6 38 46.5 79.5t94.5 41.5q69 0 105 -51.5t26 -110.5q-27 -153 -120 -247.5t-203 -120.5zM-49 -305l8 51q62 11 127.5 78.5t75.5 134.5q8 38 -19 47q-12 3 -26 0h-37 q-32 0 -59 28.5t-21 69.5q6 38 46.5 79.5t94.5 41.5q71 0 106.5 -51.5t24.5 -110.5q-14 -79 -48 -145.5t-80 -110.5t-94.5 -72t-98.5 -40z" />
<glyph unicode="&#x2020;" horiz-adv-x="901" d="M360 -266h-73l49 282q31 179 37.5 296t-6.5 218q57 61 89.5 146t59.5 233q-78 0 -172 -32l-63 -21q-30 -10 -52 -10q-42 0 -66 24.5t-18 53.5q6 30 38.5 53.5t74.5 23.5q20 0 47 -10q42 -14 57 -20q83 -31 160 -31q24 140 0 242q-2 16 -8.5 38.5t-7.5 26.5q-7 29 -4 47 q7 33 42.5 66t76.5 33q40 0 62 -32t17 -65q-5 -19 -18 -49q-12 -19 -33 -63q-51 -97 -76 -244q83 0 162 31q10 4 58 20q27 10 47 10q43 0 66.5 -23t17.5 -52q-6 -31 -38.5 -55.5t-74.5 -24.5q-18 0 -45 10q-4 2 -14 6t-18.5 7.5t-16.5 7.5q-74 32 -150 32 q-20 -115 -27 -167.5t-4 -111t25 -98.5q-53 -114 -86.5 -226t-64.5 -288z" />
<glyph unicode="&#x2021;" horiz-adv-x="901" d="M680 1251q-4 -8 -14.5 -27t-16.5 -30q-48 -99 -71 -233q42 0 62 0.5t46 5t47 14.5q96 41 131 41q39 0 53 -30t7 -66q-5 -34 -28.5 -57t-64.5 -23q-20 0 -47 10q-7 2 -26.5 10t-30.5 11q-82 32 -160 32q-18 -102 -23.5 -147t-0.5 -91.5t28 -76.5q-26 -23 -44 -52.5 t-32 -82t-21.5 -92t-22.5 -129.5q46 0 90 14q9 3 69 29q43 20 125 20q41 0 56 -22t8 -56q-5 -33 -28 -55.5t-64 -22.5q-15 0 -48 11q-6 2 -26 9t-31 11q-79 31 -158 31q-22 -131 -14 -252q1 -17 4.5 -42t3.5 -30q4 -38 0 -51q-5 -30 -37 -54t-75 -24q-40 0 -54.5 21.5 t-9.5 54.5q4 18 21 51q4 10 15 33.5t17 38.5q49 103 78 254q-81 0 -172 -31q-13 -4 -34.5 -11t-28.5 -9q-37 -11 -52 -11q-42 0 -65 23t-18 53q5 31 37 55.5t75 24.5q25 0 36.5 -0.5t27 -5t32.5 -14.5q84 -43 168 -43q24 138 20.5 223t-40.5 133q55 45 85 115.5t52 199.5 q-76 0 -170 -32q-11 -3 -22 -6.5t-23 -8t-18 -6.5q-33 -10 -52 -10q-44 0 -67 23.5t-17 54.5q5 32 40.5 65t76.5 33q26 0 47 -12q36 -24 45 -29q39 -20 168 -20q27 137 11 231q-2 12 -6 30.5t-5 26.5q-7 28 -2 45q5 37 30.5 68t65.5 31t62.5 -32t17.5 -65q-9 -30 -18 -45z " />
<glyph unicode="&#x2022;" horiz-adv-x="458" d="M121 786q12 71 20.5 101.5t24.5 44.5q14 12 53 18q25 2 98 2q76 0 101 -2q36 -6 43 -18q10 -10 10 -47q-1 -10 -3 -24.5t-5.5 -36.5t-5.5 -38q-14 -77 -21 -98q-8 -33 -24 -49q-17 -14 -48 -17.5t-104 -3.5h-46t-35.5 2t-28.5 2t-19 7t-14.5 9.5t-7 16t-3.5 21t2.5 29 t4 35.5t8.5 46z" />
<glyph unicode="&#x2026;" horiz-adv-x="1232" d="M870 102q0 44 38 83.5t81 39.5q44 0 81.5 -39t37.5 -84q0 -46 -37.5 -84t-81.5 -38q-43 0 -81 38.5t-38 83.5zM436 102q0 44 38 83.5t81 39.5q44 0 81.5 -39t37.5 -84q0 -46 -37.5 -84t-81.5 -38q-43 0 -81 38.5t-38 83.5zM2 102q0 44 38 83.5t81 39.5q44 0 81.5 -39 t37.5 -84q0 -46 -37.5 -84t-81.5 -38q-43 0 -81 38.5t-38 83.5z" />
<glyph unicode="&#x202f;" horiz-adv-x="389" />
<glyph unicode="&#x2030;" horiz-adv-x="2091" d="M1731 616q-59 0 -105 -29t-73 -78t-41.5 -95t-22.5 -97q-10 -56 -10 -104.5t12 -95t46.5 -74t90.5 -27.5q65 0 115.5 45.5t78 109.5t42.5 144q12 55 10 109t-14.5 96.5t-45.5 69t-83 26.5zM1010 616q-48 0 -87.5 -20.5t-64.5 -50.5t-44.5 -73t-29 -78.5t-16.5 -76.5 q-10 -56 -10 -104.5t12 -95t46.5 -74t90.5 -27.5q65 0 115.5 45.5t78 109.5t42.5 144q12 55 10 109t-14.5 96.5t-45.5 69t-83 26.5zM1739 651q140 0 218 -96t52 -238q-26 -145 -138 -241t-253 -96q-142 0 -225.5 96t-57.5 239t143.5 239.5t260.5 96.5zM1018 651 q140 0 218 -96t52 -238q-26 -144 -137.5 -240.5t-251.5 -96.5q-141 0 -225 96t-60 239q26 143 144.5 239.5t259.5 96.5zM569 1380q-48 0 -87.5 -20.5t-65 -50.5t-45 -72.5t-29 -78.5t-16.5 -77q-10 -56 -10 -104.5t12 -95t46.5 -74t90.5 -27.5q49 0 90 25.5t69 69.5 t46.5 94.5t29.5 109.5q12 55 10 109t-14 96.5t-44.5 69t-82.5 26.5zM575 1415q140 0 218 -96t53 -238q-25 -145 -137 -241.5t-252 -96.5q-141 0 -225 96.5t-60 239.5q26 141 144 238.5t259 97.5zM1374 1434l-1179 -1475h-132l1221 1475h90z" />
<glyph unicode="&#x2039;" horiz-adv-x="512" d="M309 272q9 -17 29 -50t27 -46q23 -45 26 -59q1 -7 -16 -18t-29 -15q-4 5 -156 180q-133 151 -133 166q5 11 191 166q166 131 223 180q11 -4 23 -14.5t8 -18.5q-4 -11 -49 -59q-13 -15 -43 -47t-45 -49q-105 -114 -122 -141q-6 -11 -7 -17q-5 -27 73 -158z" />
<glyph unicode="&#x203a;" horiz-adv-x="514" d="M197 588q-10 17 -29.5 50t-26.5 46q-23 45 -26 59q-1 7 16 18t29 15q15 -19 155 -180q134 -153 134 -166q-5 -11 -191 -166q-166 -131 -223 -180q-11 4 -23 14.5t-8 18.5q4 11 49 59q13 15 43 47t45 49q105 114 122 141q6 11 7 17q5 27 -73 158z" />
<glyph unicode="&#x2044;" horiz-adv-x="1105" d="M1208 1413l-1134 -1433h-90l1093 1433h131z" />
<glyph unicode="&#x205f;" horiz-adv-x="486" />
<glyph unicode="&#x20ac;" horiz-adv-x="1351" d="M1214 233l23 -71q-95 -81 -221 -131.5t-240 -50.5q-276 0 -415.5 145.5t-131.5 411.5h-153l14 71h143l9 47q2 21 16 68h-147l12 72h158q90 228 293 372t440 144q45 0 105.5 -12.5t120 -36t96.5 -64t28 -88.5q-7 -42 -50 -70t-87 -28q-43 0 -64.5 31t-13.5 75q6 37 37 76 q-55 31 -86 38t-101 7q-199 0 -333.5 -118.5t-202.5 -325.5h350l-12 -72h-350l-21 -115h350l-12 -71h-350q-20 -204 89.5 -324.5t311.5 -120.5q129 0 219 28.5t176 112.5z" />
<glyph unicode="&#x2122;" horiz-adv-x="1046" d="M692 1008v-9h-172v9q34 1 55 7.5t25 11.5t4 9l55 305q7 37 -22 43v9h86l96 -265l195 265h123l-2 -9q-24 -1 -39.5 -11t-19.5 -20l-3 -10l-55 -307q0 -26 63 -28v-9h-192v9q24 1 39 7.5t18.5 11.5t3.5 9l51 299l-210 -284l-3 -7q-2 0 -2 7l-102 274l-51 -289q0 -26 59 -28 zM453 1008v-9h-205l2 9q59 2 72 28l57 336h-105q-13 0 -31.5 -19.5t-25.5 -54.5h-6l16 95h381l-16 -95h-2q4 33 -8 53.5t-27 20.5h-111l-59 -336v-8q4 -8 10 -10q13 -10 58 -10z" />
<glyph unicode="&#x2212;" horiz-adv-x="913" d="M858 492l-16 -101h-789l17 101h788z" />
<glyph unicode="&#x221a;" horiz-adv-x="1300" d="M102 512l-16 59l328 148l116 -543l770 1108l80 -10l-888 -1344l-175 680z" />
<glyph unicode="&#x221e;" horiz-adv-x="987" d="M782 733q-31 0 -63 -16.5t-61 -46.5t-47.5 -52.5t-41.5 -54.5q15 -56 59 -88.5t103 -32.5q67 0 123.5 36.5t67.5 101.5q13 75 -27 114t-113 39zM336 760q-87 0 -147 -41t-74 -125q-13 -75 30.5 -119.5t120.5 -44.5q73 0 142 62.5t112 142.5q-20 58 -70 91.5t-114 33.5z M84 580q24 130 87 203t183 73q71 0 119 -61t68 -146q64 87 120 127.5t138 40.5q89 0 127 -69.5t22 -165.5q-16 -97 -77.5 -160.5t-155.5 -63.5q-67 0 -107 50q-6 9 -30 51q-3 8 -13.5 29t-17.5 36q-49 -61 -64 -78q-95 -114 -209 -114q-113 0 -162 66.5t-28 181.5z" />
<glyph unicode="&#x2248;" horiz-adv-x="796" d="M506 328l-221 84q-66 24 -121 -27q-24 -24 -47 -57q-8 -12 -24 -35.5t-23 -34.5l-35 25q7 13 12 32q12 42 16 54q28 74 54 94q32 29 87 51t79 12l200 -82q24 -10 46.5 -11.5t42.5 5.5t38 18.5t37 31.5t35 39.5t35 47.5l35 -22q-7 -14 -13 -35q-36 -122 -73 -151 q-31 -23 -81.5 -36t-78.5 -3zM565 662l-223 83q-66 24 -119 -26q-19 -17 -49 -60q-46 -66 -47 -67l-35 22q3 6 12 33q12 32 19 53q22 72 51 97q33 29 88 51t80 12l201 -84q23 -10 45 -11t42 6.5t38 19t36.5 31.5t34.5 39.5t35 47.5l35 -24q-3 -6 -12 -33q-1 -3 -5.5 -18.5 t-6.5 -21.5t-6.5 -21t-8 -22.5t-9 -20t-10.5 -20t-12 -15.5t-14 -13q-30 -24 -80.5 -36t-79.5 -2z" />
<glyph unicode="&#x2260;" horiz-adv-x="901" d="M410 248l-131 -268h-93l119 268h-280l14 74h297l106 237h-360l12 72h379l127 291h133l-139 -291h278l-14 -72h-299l-115 -237h371l-12 -74h-393z" />
<glyph unicode="&#x2264;" horiz-adv-x="927" d="M768 2h-784l16 90h786zM100 639l17 96l862 367l-16 -90l-725 -314l614 -313l-21 -115z" />
<glyph unicode="&#x2265;" horiz-adv-x="927" d="M786 2h-788l16 90h787zM911 735l-18 -96l-860 -367l18 111l727 313l-616 314l16 94z" />
<glyph unicode="&#x25ca;" horiz-adv-x="1146" d="M498 27l424 485l-258 463l-418 -463zM541 -61h-119l-348 573l551 573h118l351 -573z" />
<glyph unicode="&#xe000;" horiz-adv-x="921" d="M0 922h922v-922h-922v922z" />
<glyph unicode="&#xf8ff;" horiz-adv-x="2224" d="M541 0h-297v1083h297v-1083zM1145 573h407l-200 582zM1063 334l-119 -334h-323l567 1495h332l561 -1495h-334l-119 334h-565zM246 1253v242h295v-242h-295z" />
<glyph unicode="&#xfb01;" horiz-adv-x="1167" d="M176 897h98q17 105 48 199t88 188t133.5 161.5t190 109.5t251.5 42q55 0 81.5 -27.5t18.5 -68.5q-8 -40 -42 -69t-74 -29q-30 0 -52.5 18.5t-27.5 46.5v23v20q-3 21 -41 21q-81 -2 -147 -40.5t-111 -96.5t-81 -144.5t-57.5 -168.5t-39.5 -185h436q81 0 109 -44t12 -130 l-95 -520q-13 -85 -6 -106t37 -21q20 0 50 33t55 84l37 -19q-56 -97 -114.5 -144.5t-137.5 -47.5q-43 0 -72.5 37t-15.5 112l92 498q20 121 -23 155q-26 16 -61 19q-25 2 -90 2h-228l-217 -1354h-155l235 1354h-143z" />
<glyph unicode="&#xfb02;" horiz-adv-x="1140" d="M1100 1575v4q2 -2 4 -2q-2 0 -2 -2v2h4q4 0 4 -6v-2l-242 -1366q-13 -85 -6 -106t37 -21q20 0 50 33t55 84l36 -19q-56 -96 -115 -144t-137 -48q-43 0 -71.5 36.5t-16.5 112.5l220 1266q0 28 -29 53q-21 -6 -39 -6q-30 0 -52.5 18.5t-27.5 46.5q0 4 -1 12t-1 11 q-3 14 -10 18q-11 14 -49 2q-132 -47 -203 -237q-33 -95 -53 -193q-27 -130 -43 -225h243l-14 -92h-244l-209 -1309h-155l227 1309h-143l59 92h98q14 87 37 169.5t57.5 168t83 156.5t108 127.5t139 88t169.5 31.5q55 0 81 -27t20 -71q48 9 131 35z" />
<glyph unicode="&#xfb06;" />
<glyph horiz-adv-x="2109" d="M1985 188l34 -16q-56 -97 -114 -144.5t-136 -47.5q-44 0 -72 36.5t-16 112.5l99 561q11 62 -5 97.5t-51 39t-82 -13.5q-69 -25 -149 -93.5t-143 -160.5l-99 -559h-157l213 1210q7 41 -6.5 68.5t-42.5 40.5t-57 17.5t-62 4.5h-265l-204 -1159q-7 -41 3.5 -71t29 -45 t49 -23.5t51 -10t47.5 -1.5l-6 -31h-586l6 31q21 0 40.5 1.5t53.5 10t59.5 23t48.5 44.5t30 70l204 1161h-294q-35 0 -71 -7.5t-72.5 -32.5t-43.5 -64h-49q23 117 29 145q15 50 24 66q11 22 23 10q29 -30 59.5 -43.5t87.5 -17.5q27 -3 70 -4t81.5 -1t121 0.5t141.5 0.5 q66 0 249.5 -2.5t192.5 0.5q177 3 242 53q3 3 8 2.5t4 -6.5l-137 -795q90 131 197.5 205t201.5 84q95 10 144.5 -49t27.5 -183l-88 -501q-13 -85 -6.5 -106t35.5 -21q22 0 52.5 32t54.5 82z" />
<glyph horiz-adv-x="1597" d="M1278 805l-90 -520q-8 -38 -10 -68q-6 -32 -2 -67q11 -78 81 -78q32 0 88 25.5t93 56.5l28 -35q-69 -67 -164 -103t-165 -36q-33 0 -57 9.5t-38 23t-21.5 38t-9.5 43t0.5 50.5t5 49t7.5 49l100 563h-145l10 51q88 1 122 34t48 116q22 134 -7.5 204t-135.5 70 q-92 0 -167.5 -60.5t-107.5 -151.5t-8 -177q48 -25 71 -63.5t21 -79.5q-2 -40 -22 -66.5t-53 -26.5q-47 0 -68 31t-9.5 67.5t46.5 51.5q4 61 -129 61q-75 0 -141 -48t-109 -122.5t-67.5 -163t-24.5 -172.5q0 -70 16 -126t51.5 -94t86.5 -49.5t127.5 14.5t168.5 92l29 -31 q-106 -104 -183.5 -145t-174.5 -41q-74 0 -131.5 26t-92 70.5t-52.5 104.5t-17 128t18 140q21 90 66 173t108 149.5t149.5 106.5t182.5 40q9 0 19 -1t23.5 -2t23.5 -2q-23 77 0.5 157t80 141.5t143 101t181.5 39.5q113 0 184 -54t80 -168l-39 -233h289l-18 -92h-289z" />
<glyph horiz-adv-x="1673" d="M973 623l-70 -402q-13 -76 41 -128t133 -52q65 0 121 34t95.5 92t66 127t39.5 146q14 101 7.5 190t-47.5 149.5t-106 60.5q-105 0 -168.5 -55.5t-111.5 -161.5zM1143 1563l-150 -836q41 69 103.5 115t129 64t134 11t120.5 -37t86 -86.5t33 -131.5q0 -125 -39 -245.5 t-109 -218t-179.5 -157t-239.5 -59.5q-103 0 -164 24.5t-94 77.5q-28 47 -24 143q2 31 20 146l154 852l26 149q8 51 -49 82q-22 -12 -51 -12q-30 0 -52.5 18.5t-27.5 46.5q0 11 -4 23q0 10 -8 18q-11 14 -49 2q-134 -48 -201 -237q-25 -62 -55 -193q-15 -74 -41 -225h243 l-16 -92h-242l-209 -1309h-155l225 1309h-141l57 92h98q18 106 47 204t79 198t113.5 173.5t155.5 119.5t199 46q55 0 82 -27.5t19 -68.5q-1 -3 -2.5 -10t-3.5 -14q97 19 167 47q15 6 15 -2z" />
<glyph horiz-adv-x="1153" d="M412 897h397q18 106 47 204t79 198t113.5 173.5t155.5 119.5t199 46q55 0 81.5 -27.5t18.5 -68.5q-7 -40 -42 -69t-75 -29q-30 0 -52 18.5t-27 46.5q0 11 -4 23q0 9 -9 18q-11 14 -49 2q-134 -48 -201 -237q-24 -60 -55 -191q-15 -77 -41 -227h244l-16 -92h-244 l-207 -1309h-156l226 1309h-398l-217 -1354h-155l233 1354h-141l57 92h98q70 359 287.5 529t513.5 112l-84 -68q-70 10 -127 10.5t-106 -11t-87.5 -32t-71.5 -56t-58.5 -80t-48 -107.5t-41 -133.5t-37.5 -163.5z" />
<glyph horiz-adv-x="1101" d="M412 897h397q18 106 47 204t79 198t113.5 173.5t155.5 119.5t199 46q55 0 81.5 -27.5t18.5 -68.5q-7 -40 -42 -69t-75 -29q-30 0 -52 18.5t-27 46.5q0 11 -4 23q0 9 -9 18q-11 14 -49 2q-134 -48 -201 -237q-24 -60 -55 -191q-15 -77 -41 -227h244l-16 -92h-244 l-207 -1309h-156l226 1309h-398l-217 -1354h-155l233 1354h-141l57 92h98q70 359 287.5 529t513.5 112l-84 -68q-70 10 -127 10.5t-106 -11t-87.5 -32t-71.5 -56t-58.5 -80t-48 -107.5t-41 -133.5t-37.5 -163.5z" />
<glyph horiz-adv-x="2273" d="M2148 190l35 -16q-56 -97 -114 -144.5t-136 -47.5q-43 0 -71.5 36.5t-16.5 112.5l99 561q16 92 -24 121.5t-114 1.5q-70 -27 -149.5 -95.5t-140.5 -158.5l-99 -559h-160l246 1397q8 36 -59 63q-26 -18 -62 -18q-31 0 -53.5 18.5t-25.5 46.5q-1 3 -2.5 11.5t-2.5 11.5 q-3 13 -8 18q-13 13 -51 2q-130 -47 -201 -237q-24 -70 -53 -191q-15 -77 -41 -227h242l-15 -92h-243l-207 -1309h-154l224 1309h-396l-215 -1354h-155l233 1354h-141l57 92h98q70 359 286.5 529t512.5 112l-84 -68q-70 10 -127 10.5t-106 -11t-87.5 -32t-71.5 -56 t-58.5 -80t-48 -107.5t-41 -133.5t-37.5 -163.5h395q18 106 47 204t79 198t113.5 173.5t155.5 119.5t199 46q55 0 80.5 -27t17.5 -69q0 -1 -2 -11t-6 -18q101 17 184 52q5 5 11 2q3 -1 2 -4l-154 -918q89 131 196 206t201 83q95 10 144.5 -48t27.5 -181l-88 -502 q-13 -85 -6.5 -106t35.5 -21q22 0 51.5 31.5t54.5 82.5z" />
<glyph horiz-adv-x="1740" d="M412 897h438q12 74 31.5 142.5t50.5 139.5t70.5 131.5t95.5 114t122 91t153 59.5t186 22q55 0 81.5 -27.5t18.5 -68.5q-7 -40 -42 -69t-75 -29q-30 0 -52.5 18.5t-27.5 46.5v23v20q-3 21 -39 21q-81 -2 -147 -40.5t-111 -96.5t-81 -144.5t-57.5 -168.5t-39.5 -185h436 q80 0 108 -44t13 -130l-96 -520q-12 -85 -5 -106t36 -21q22 0 51.5 33t52.5 84l37 -19q-56 -97 -114 -144.5t-136 -47.5q-44 0 -73 36.5t-15 112.5l90 498q12 64 7 100t-29 55q-22 16 -60 19q-25 2 -90 2h-227l-215 -1354h-156l234 1354h-439l-217 -1354h-155l233 1354h-141 l57 92h98q70 359 287.5 529t513.5 112l-84 -68q-71 10 -128 10.5t-106 -11t-87 -32t-71 -56.5t-58.5 -80t-48.5 -107t-41 -133.5t-37 -163.5z" />
<glyph horiz-adv-x="1652" d="M412 899h376q18 105 49 198.5t88 187.5t132.5 161t189 109t250.5 42q55 0 81.5 -27.5t18.5 -68.5q-8 -40 -42 -69t-74 -29q-30 0 -52.5 18.5t-27.5 46.5v23v20q-3 21 -39 21q-81 -2 -147.5 -40t-111.5 -96t-81 -144t-57 -168t-39 -185h450q85 0 121 -36.5t23 -117.5 l-146 -819q-21 -119 -63.5 -230.5t-109 -211.5t-150 -174.5t-192.5 -118t-230 -43.5q-55 0 -81 27.5t-18 68.5q6 39 41 69t74 30q31 0 54 -19t26 -47q1 -4 2 -11.5t2 -10.5q3 -10 8 -17q10 -10 49 -4t79 25.5t93 70t99 125.5t91 203t75 291l131 725q3 30 4.5 51t-6.5 35.5 t-16.5 23.5t-25 13.5t-31 6t-34.5 1.5h-334l-217 -1352h-153l233 1352h-377l-217 -1352h-155l233 1352h-141l57 94h98q70 358 287.5 527.5t513.5 111.5l-84 -68q-71 10 -128 10.5t-106 -11t-87 -32t-71 -56t-58.5 -79.5t-48.5 -107t-41 -133.5t-37 -162.5z" />
<glyph horiz-adv-x="2197" d="M1939 727q0 43 -23 67.5t-67 24.5q-110 -2 -234.5 -110.5t-150.5 -227.5q45 -12 104 -13t124.5 19.5t120 50.5t90 80t36.5 109zM2091 68v-39q-13 -15 -54.5 -31t-74.5 -16q-114 0 -182.5 44.5t-120.5 125.5q-14 21 -42.5 69t-45.5 72q-57 79 -121 113l-55 -404h-164 l239 1380q15 49 -30 78q-27 -16 -58 -16q-30 0 -52 18.5t-27 46.5q-1 3 -2.5 11.5t-2.5 11.5q-3 13 -8 18q-13 13 -49 2q-134 -48 -201 -237q-24 -60 -55 -191q-15 -77 -41 -227h242l-15 -92h-241l-209 -1309h-154l224 1309h-396l-215 -1354h-155l233 1354h-141l57 92h98 q70 359 286.5 529t512.5 112l-84 -68q-70 10 -127 10.5t-106 -11t-87.5 -32t-71.5 -56t-58.5 -80t-48 -107.5t-41 -133.5t-37.5 -163.5h397q17 106 45.5 204t78.5 198t113.5 173.5t155.5 119.5t199 46q55 0 80.5 -28.5t17.5 -75.5q102 21 164 41q1 1 3.5 2t4 -1t0.5 -7 l-180 -953q63 128 192.5 215t235.5 87q162 0 162 -125q0 -80 -35 -144.5t-86.5 -104t-123.5 -68t-132 -41t-125 -19.5q91 -37 149 -109q21 -25 54 -73.5t39 -57.5q20 -27 37 -46t42.5 -37.5t51.5 -25t63 -9.5t78 10z" />
<glyph horiz-adv-x="1966" d="M1464 805l-92 -518q-7 -33 -10 -66q-7 -39 -4 -71q7 -84 82 -84q87 0 162 75l24 -20q-67 -68 -147 -102t-152 -37q-34 -1 -59 7.5t-40 21t-23 36.5t-10.5 43.5t0 51t5 50.5t8.5 52l101 561h-379l-209 -1309h-154l226 1309h-398l-215 -1354h-155l233 1354h-141l57 92h98 q70 359 287.5 529t513.5 112l-84 -68q-71 10 -128 10.5t-106 -11t-87.5 -32t-71.5 -56t-58.5 -80t-48 -107.5t-41 -133.5t-36.5 -163.5h395q17 105 46 203.5t79 198.5t113.5 173.5t155 119.5t198.5 46q55 0 81.5 -27.5t18.5 -68.5q-6 -39 -41.5 -68.5t-75.5 -29.5 q-31 0 -52.5 18.5t-24.5 46.5q-1 3 -2.5 11.5t-2.5 11.5q-3 13 -8 18q-14 14 -51 2q-130 -46 -201 -237q-33 -94 -53 -191q-29 -145 -43 -227h215q46 0 66.5 1t47 8.5t37.5 19.5t26 39.5t24.5 63t23.5 95.5h136l-41 -227h288l-16 -92h-287z" />
<glyph horiz-adv-x="1722" d="M1597 190l35 -16q-56 -97 -114 -144.5t-136 -47.5q-44 0 -73 36.5t-15 112.5l99 561q16 91 -24 121t-114 2q-71 -27 -150.5 -95.5t-141.5 -158.5l-99 -559h-157l245 1397q5 31 -49 59q-21 -14 -53 -14q-30 0 -52.5 18.5t-27.5 46.5q0 11 -4 23q0 10 -8 18q-11 14 -49 2 q-134 -48 -201 -237q-25 -62 -55 -193q-15 -74 -41 -225h243l-16 -92h-242l-209 -1309h-155l225 1309h-141l57 92h98q18 106 47 204t79 198t113.5 173.5t155.5 119.5t199 46q55 0 82 -27.5t19 -70.5q0 -4 -2 -6q0 -4 -4 -16q77 16 159 47q13 6 14 1q0 -1 -1 -3l-154 -918 q90 131 197.5 205t201.5 84q95 10 144.5 -48t27.5 -181l-88 -502q-13 -85 -6.5 -106t35.5 -21q22 0 51.5 31.5t54.5 82.5z" />
<glyph horiz-adv-x="1140" d="M176 899h98q17 105 48 198.5t88 187.5t133.5 161t190 109t251.5 42q55 0 81.5 -27.5t18.5 -68.5q-8 -40 -42 -69t-74 -29q-30 0 -52.5 18.5t-27.5 46.5v23v20q-3 21 -41 21q-81 -2 -147 -40t-111 -96t-81 -144t-57.5 -168t-39.5 -185h450q87 0 123 -36t23 -118l-146 -819 q-21 -119 -63.5 -230.5t-109.5 -211.5t-150.5 -174.5t-193 -118t-230.5 -43.5q-55 0 -82 27.5t-19 68.5q8 40 42.5 69.5t74.5 29.5q30 0 52.5 -19t27.5 -47q1 -4 2 -11.5t2 -10.5q0 -5 8 -17q10 -10 49 -4t79 25.5t93 70t99 125.5t91 203t75 291l133 725q3 30 4 51 t-7.5 35.5t-16.5 23.5t-24 13.5t-30.5 6t-34.5 1.5h-336l-217 -1352h-153l233 1352h-143z" />
<glyph horiz-adv-x="1667" d="M1407 727q2 43 -21.5 67.5t-66.5 24.5q-110 -2 -235 -110.5t-150 -227.5q44 -12 103 -13t124.5 19.5t120 50.5t90 80t35.5 109zM1561 68v-39q-13 -16 -54 -31.5t-75 -15.5q-79 0 -140 25t-96 59t-70 86q-14 22 -42 69.5t-44 71.5q-56 78 -122 110l-56 -401h-162l240 1380 q12 48 -31 78q-31 -16 -59 -16q-30 0 -52.5 18.5t-27.5 46.5q0 4 -1 12t-1 11q-3 14 -10 18q-11 14 -49 2q-130 -46 -201 -237q-29 -71 -53 -193q-17 -71 -43 -225h243l-16 -92h-242l-209 -1309h-155l225 1309h-141l57 92h98q18 106 47 204t79 198t113.5 173.5t155.5 119.5 t199 46q56 0 82 -28.5t17 -75.5q106 22 163 41q3 3 7.5 2.5t3.5 -8.5l-181 -953q64 129 192 215.5t236 86.5q162 0 162 -125q0 -80 -35 -144.5t-86.5 -104t-123 -68t-131.5 -41t-125 -19.5q87 -36 149 -109q19 -24 49 -69t43 -62q19 -27 36.5 -46t42.5 -37.5t51.5 -25.5 t63.5 -9t79 10z" />
<glyph horiz-adv-x="1200" d="M932 805l-92 -518q-1 -10 -5.5 -34t-5.5 -32q-4 -49 -2 -71q7 -84 80 -84q89 0 164 75l25 -20q-67 -68 -147 -102t-152 -37q-34 -1 -59 7.5t-40 21t-23 36.5t-10.5 43.5t0 51t5 50.5t8.5 52l100 561h-381l-209 -1309h-155l225 1309h-141l57 92h100q14 87 37 169.5 t57.5 168t83 156.5t108 127.5t139 88t169.5 31.5q55 0 82 -27.5t19 -68.5q-7 -40 -42 -69t-75 -29q-30 0 -52.5 18.5t-27.5 46.5q-1 4 -2 12t-2 11q-3 13 -8 18q-13 13 -51 2q-130 -47 -201 -237q-33 -95 -53 -193q-27 -130 -43 -225h215q47 0 67.5 1t47.5 8.5t38 19.5 t26 39.5t24.5 63t23.5 95.5h133l-41 -227h291l-16 -92h-289z" />
<glyph />
<glyph />
<glyph />
<glyph />
<glyph />
<glyph />
<glyph />
</font>
</defs>
</svg>
