<?xml version="1.0" standalone="no"?>
<!DOCTYPE svg PUBLIC "-//W3C//DTD SVG 1.1//EN" "http://www.w3.org/Graphics/SVG/1.1/DTD/svg11.dtd" >
<svg xmlns="http://www.w3.org/2000/svg">
<metadata></metadata>
<defs>
<font id="iABCRegular" horiz-adv-x="552" >
<font-face units-per-em="2048" ascent="1495" descent="-553" />
<missing-glyph horiz-adv-x="573" />
<glyph horiz-adv-x="1036" />
<glyph unicode=" "  horiz-adv-x="573" />
<glyph unicode="&#x09;" horiz-adv-x="573" />
<glyph unicode="&#xa0;" horiz-adv-x="573" />
<glyph unicode="!" horiz-adv-x="532" d="M389 96q0 -44 -38 -80t-85 -36q-46 0 -84.5 36.5t-38.5 79.5t38.5 80t84.5 37t84.5 -37t38.5 -80zM229 469l-63 827q-5 46 23 81.5t77 35.5t77.5 -35.5t23.5 -81.5l-64 -827l-1 -10q-2 -10 -4.5 -19.5t-10.5 -17.5t-19 -8h-4q-11 0 -19 8t-10.5 17.5t-4.5 19.5z" />
<glyph unicode="&#x22;" d="M369 1376q0 18 0.5 26.5t3.5 21.5t8.5 19t16.5 10.5t28 4.5q16 0 27 -4.5t16.5 -10.5t8 -19t3 -21.5t0.5 -26.5l-20 -420q-2 -25 -19 -35.5t-34 0t-19 35.5zM72 1376q0 18 0.5 26.5t3 21.5t8 19t16.5 10.5t27 4.5q17 0 28 -4.5t16.5 -10.5t8.5 -19t3.5 -21.5t0.5 -26.5 l-20 -420q-2 -25 -19 -35.5t-34 0t-19 35.5z" />
<glyph unicode="#" horiz-adv-x="1228" d="M672 481l129 389h-264l-152 -389h287zM983 1352h109l-146 -373h209l-37 -109h-207l-151 -389l207 2l-35 -110h-209l-145 -373h-89l146 373h-285l-145 -373h-88l145 373h-188l37 110l186 -2l131 389h-166l35 109h188l123 373h111l-146 -373h285z" />
<glyph unicode="$" horiz-adv-x="878" d="M489 539l-38 18l-64 -534h19q59 0 107.5 24t77.5 63t44.5 83.5t15.5 89.5q0 40 -4 67t-18.5 63t-49.5 67.5t-90 58.5zM408 754l55 454q-70 -1 -120.5 -26.5t-75 -66t-34.5 -78.5t-10 -76q0 -32 12.5 -61t28.5 -48.5t44.5 -40t47.5 -31t52 -26.5zM741 1188v-225h-53 q-5 38 -12 67t-23 66t-47.5 64t-75.5 40l-57 -479l80 -41q55 -27 94.5 -53.5t79 -65t60 -90t20.5 -113.5q0 -155 -122 -266.5t-306 -114.5l-14 -120h-68l14 125q-73 11 -155 53q-22 11 -80 47l-4 254h51q7 -22 18 -70q16 -58 33 -97t53.5 -77.5t89.5 -58.5l68 555l-72 33 q-88 41 -148.5 114.5t-60.5 177.5q0 167 91 246.5t272 87.5l16 125h68l-16 -133q64 -10 141 -33q22 -4 51 -14q2 -1 5.5 -1.5t5.5 -1t3 -1.5z" />
<glyph unicode="%" horiz-adv-x="1785" d="M1192 315q0 -55 8.5 -104t28.5 -96.5t59.5 -75t95.5 -27.5q67 0 110.5 46.5t60 111.5t16.5 145t-16.5 145t-60 111.5t-110.5 46.5q-192 0 -192 -303zM1714 315q0 -144 -95 -239.5t-235 -95.5q-141 0 -241.5 96t-100.5 239q0 141 100.5 237.5t241.5 96.5q140 0 235 -96 t95 -238zM221 1081q0 -55 8.5 -104t29 -96.5t60 -75t95.5 -27.5q67 0 110.5 47t59.5 111.5t16 144.5q0 59 -9.5 110t-30 96t-58 71t-88.5 26q-193 0 -193 -303zM743 1081q0 -144 -94.5 -240t-234.5 -96q-141 0 -241.5 96.5t-100.5 239.5q0 141 100.5 237.5t241.5 96.5 q140 0 234.5 -96t94.5 -238zM1288 1434h86l-921 -1475h-127z" />
<glyph unicode="&#x26;" horiz-adv-x="1396" d="M1274 586h49q9 -61 -41 -111q-91 -91 -270 -59q-42 -132 -105 -234q-125 -202 -366 -202q-204 0 -336.5 117t-132.5 311q0 111 96.5 207t230.5 96q-107 72 -154.5 136.5t-47.5 139.5q0 57 26.5 101.5t71 69.5t96.5 37.5t109 12.5q55 0 123.5 -25t124 -78t55.5 -118 q0 -33 -18 -54.5t-58 -21.5q-33 0 -54.5 18t-21.5 58q0 20 1.5 30.5t7 23t19 17.5t36.5 5q0 34 -64.5 56t-109.5 22q-80 0 -136.5 -57t-56.5 -138q0 -122 80.5 -188t208.5 -68v-88q-40 0 -85.5 10.5t-72.5 10.5q-256 0 -256 -256q0 -145 89 -242.5t229 -97.5q160 0 276 170 q72 106 107 237l-113 23q-127 24 -133 -105h-47q0 49 8 74q8 34 51 80q33 32 65 41t95 -2l186 -41q82 -19 157 1.5t81 80.5z" />
<glyph unicode="'" horiz-adv-x="266" d="M72 1376q0 22 1 32.5t6.5 24.5t18.5 19.5t35 5.5q18 0 30 -4.5t18.5 -11t9.5 -19t3.5 -21.5t0.5 -26l-23 -420q-2 -25 -20.5 -35.5t-37 0t-20.5 35.5z" />
<glyph unicode="(" horiz-adv-x="614" d="M541 -295l-15 -29q-197 130 -325.5 364.5t-128.5 512.5t128.5 512.5t325.5 364.5l15 -29q-160 -157 -238 -364.5t-78 -483.5t78 -483.5t238 -364.5z" />
<glyph unicode=")" horiz-adv-x="614" d="M74 1401l14 29q197 -130 326 -364.5t129 -512.5t-129 -512.5t-326 -364.5l-14 29q159 156 237 364t78 484t-78 484t-237 364z" />
<glyph unicode="*" horiz-adv-x="839" d="M406 1434h28l43 -275l275 125l14 -29l-254 -190l254 -191l-14 -28l-275 147l-43 -297h-28l-44 297l-274 -147l-14 28l254 191l-254 190l14 29l274 -125z" />
<glyph unicode="+" horiz-adv-x="880" d="M385 758h111v-314h313v-90h-313v-354h-111v354h-313v90h313v314z" />
<glyph unicode="," horiz-adv-x="573" d="M166 -305v47q63 14 117.5 82t54.5 135q0 39 -29 49q-8 2 -28 2q-6 0 -18.5 -1t-18.5 -1q-34 0 -67.5 29t-33.5 69q0 37 33.5 78t87.5 41q73 0 119.5 -51.5t46.5 -110.5q0 -79 -23 -145t-62.5 -110t-84 -72t-94.5 -41z" />
<glyph unicode="-" horiz-adv-x="655" d="M74 467l489 65l19 -98l-490 -65z" />
<glyph unicode="." horiz-adv-x="532" d="M389 102q0 -46 -38.5 -84t-84.5 -38q-45 0 -84 38.5t-39 83.5q0 44 39.5 83.5t83.5 39.5q45 0 84 -39t39 -84z" />
<glyph unicode="/" horiz-adv-x="655" d="M449 1413h133l-418 -1433h-90z" />
<glyph unicode="0" horiz-adv-x="1136" d="M233 451q0 -96 41 -179.5t121 -136.5t183 -53q143 0 234 104.5t91 264.5q0 164 -87.5 269t-242.5 105q-84 0 -151 -34.5t-107 -90t-61 -120t-21 -129.5zM1044 451q0 -132 -63 -240t-171 -169.5t-237 -61.5q-130 0 -240 61t-175.5 170t-65.5 240t65.5 240t175.5 170 t240 61q221 0 346 -132t125 -339z" />
<glyph unicode="1" horiz-adv-x="860" d="M143 901h574v-27q-215 0 -215 -90v-667q0 -29 25 -49.5t63.5 -28.5t69.5 -10.5t57 -1.5v-27h-574v27q6 1 22.5 2t24.5 2q25 2 70 10q90 24 90 76v667q0 24 -13.5 41.5t-33 26.5t-50 14.5t-54.5 6.5t-56 1v27z" />
<glyph unicode="2" horiz-adv-x="997" d="M160 729l-29 14q135 179 324 179q113 0 197.5 -68.5t84.5 -173.5q0 -60 -29.5 -125.5t-69.5 -118.5t-104 -115t-111 -101t-112 -89h525l79 105h48l-99 -236h-741l-53 53q56 37 98 66.5t105.5 78t109.5 94.5t90.5 100t68 111.5t23.5 112.5q0 81 -48 148t-126 67 q-77 0 -128 -23t-103 -79z" />
<glyph unicode="3" horiz-adv-x="1007" d="M322 272l-13 58q135 16 217 97t97 185q16 103 -37 179.5t-162 76.5q-81 0 -142 -43.5t-61 -117.5q88 -5 88 -72q0 -34 -27.5 -53t-56.5 -19q-37 0 -60.5 29t-23.5 61q0 122 99 192t233 70q84 0 154.5 -28t117 -88.5t46.5 -143.5q0 -113 -99.5 -211.5t-230.5 -128.5l2 -14 q41 6 78 6q96 0 172 -30.5t120.5 -81.5t65.5 -114.5t16 -133.5q-6 -71 -39 -136.5t-89.5 -121t-145 -92t-195.5 -43.5q-155 -10 -254.5 40t-99.5 117q0 43 25.5 72t75.5 29q42 0 64 -23.5t22 -64.5q0 -23 -24 -47t-50 -25q5 -16 33 -35.5t80 -32t122 3.5q74 17 133.5 59 t95.5 98t52.5 121t11.5 128.5t-34 120.5t-77.5 97t-126.5 57t-173 3z" />
<glyph unicode="4" horiz-adv-x="1044" d="M633 135v545l-438 -545h438zM754 922h32v-787h187v-90h-189v-471h-151v471h-524l-35 35z" />
<glyph unicode="5" horiz-adv-x="923" d="M266 903h547l-35 -139h-485l-53 -199q110 2 201.5 -25t153.5 -74.5t103.5 -112t58.5 -137.5t13 -150q-5 -97 -45.5 -187t-110.5 -163t-178.5 -116.5t-238.5 -43.5q-127 0 -198 43.5t-71 109.5q0 40 29.5 67t81.5 27q37 0 60.5 -23.5t23.5 -58.5q0 -28 -23 -47 q-4 -4 -20 -16q-19 -9 -29 -18q7 -19 44 -34.5t93 -15.5q88 0 164 40t126 105.5t79.5 146.5t32.5 165q3 85 -22 159.5t-76.5 132.5t-140.5 86t-204 15z" />
<glyph unicode="6" horiz-adv-x="1048" d="M406 526v43q32 53 99.5 86t143.5 33q146 0 237 -87.5t91 -235.5q0 -105 -61 -194t-160 -140t-211 -51q-199 0 -315.5 129t-116.5 337q0 192 72.5 371.5t190 309t273.5 208.5t318 80v-43q-130 -10 -244.5 -66t-196.5 -142t-142 -194.5t-89 -226t-29 -233.5 q0 -97 15.5 -180t49 -153t93.5 -110t141 -40q65 0 116.5 28.5t82 75t45.5 101.5t14 112q-2 100 -66 168t-192 68q-93 0 -159 -54z" />
<glyph unicode="7" horiz-adv-x="1034" d="M211 901h780l23 -53q-261 -406 -369 -594q-192 -342 -309 -672q-10 -32 -26.5 -43.5t-49.5 -11.5q-49 0 -79.5 32t-10.5 91q13 39 332 518q373 560 387 582h-684l-64 -166h-45z" />
<glyph unicode="8" horiz-adv-x="1017" d="M221 305q-2 -112 76.5 -195t191.5 -83q126 0 199.5 69.5t71.5 169.5q-4 227 -332 369q-114 -75 -159.5 -155t-47.5 -175zM299 1079q-3 -102 76 -184q30 -33 88 -74q17 -13 56 -39.5t61 -42.5q104 58 140 136.5t36 185.5q0 104 -65.5 173.5t-172.5 70.5q-93 1 -155 -63 t-64 -163zM897 1051q-1 -59 -20 -106.5t-59 -86.5t-86 -68.5t-116 -64.5q175 -104 242 -184t68 -199q2 -158 -121 -260t-324 -102q-172 0 -280.5 97.5t-108.5 221.5q0 108 92.5 211t225.5 154q-46 29 -68.5 43.5t-59 40.5t-53.5 44t-40 46t-33 54.5t-17 61t-6 74.5 q3 131 121 227.5t270 96.5q157 0 265.5 -84.5t107.5 -216.5z" />
<glyph unicode="9" horiz-adv-x="1083" d="M719 381l20 -23q-63 -61 -120.5 -94t-126.5 -33q-143 0 -244 91t-101 239q0 106 56.5 192t149 134.5t202.5 54.5q209 12 333 -97t124 -325q0 -170 -89.5 -349t-230.5 -318.5t-326.5 -230t-365.5 -93.5v49q168 17 321.5 95.5t265 196t178 270.5t66.5 313q0 442 -278 442 q-76 0 -131.5 -47t-80 -113t-24.5 -137q0 -276 256 -276q87 0 146 59z" />
<glyph unicode=":" horiz-adv-x="532" d="M389 96q0 -43 -38.5 -79.5t-84.5 -36.5q-44 0 -83.5 36.5t-39.5 79.5t39.5 81t83.5 38q45 0 84 -38t39 -81zM389 784q0 -44 -38.5 -81t-84.5 -37q-45 0 -84 37t-39 81q0 41 39.5 79t83.5 38q45 0 84 -37.5t39 -79.5z" />
<glyph unicode=";" horiz-adv-x="430" d="M104 -305v47q63 12 117.5 79.5t54.5 133.5q0 41 -28 47q-8 2 -29 2h-37q-34 0 -67 28t-33 68q0 36 33.5 76.5t87.5 40.5q73 0 119.5 -50t46.5 -108q0 -151 -79 -244t-186 -120zM326 784q0 -44 -38.5 -80t-84.5 -36q-44 0 -82.5 36t-38.5 80q0 41 39 79t82 38 q45 0 84 -37.5t39 -79.5z" />
<glyph unicode="&#x3c;" horiz-adv-x="942" d="M72 467l798 369v-109l-677 -307l677 -307v-109l-798 369v94z" />
<glyph unicode="=" horiz-adv-x="921" d="M72 315h778v-69h-778v69zM72 635h778v-70h-778v70z" />
<glyph unicode="&#x3e;" horiz-adv-x="942" d="M72 727v109l798 -369v-94l-798 -369v109l678 307z" />
<glyph unicode="?" horiz-adv-x="841" d="M424 96q0 -43 -38 -79.5t-81 -36.5q-44 0 -81.5 36.5t-37.5 79.5q0 41 38 79t81 38t81 -37t38 -80zM250 506v280q34 3 71 10.5t85.5 23t90 42t76.5 62t52.5 89t11.5 117.5q-3 42 -24.5 76.5t-52 54.5t-65.5 30.5t-68 7t-56 -18.5q-45 -31 -97.5 -39t-91.5 16.5t-39 79.5 q0 37 38 56.5t81 19.5q66 0 123 -8t113 -29.5t96.5 -55t68 -87t33.5 -123.5q22 -259 -153 -375q-58 -38 -152 -55q-34 -5 -57 -12q-27 -6 -27 -21v-178q0 -4 -7.5 -8.5t-18.5 -3.5q-31 4 -31 49z" />
<glyph unicode="@" horiz-adv-x="1925" d="M1137 205v229q-112 -27 -146 -37q-65 -18 -114 -39q-54 -27 -81.5 -62t-27.5 -89q0 -21 2 -29q7 -60 46 -88.5t97 -28.5q33 0 68 14t62 34.5t49 41.5t33.5 36t11.5 18zM1288 614v-432q0 -43 11.5 -74t25.5 -45t33 -22t26.5 -9t12.5 -1q63 0 112.5 35.5t79 89.5t49 126 t26.5 138.5t7 132.5q0 141 -40 259t-108.5 200.5t-162 140t-199 84.5t-219.5 27q-139 0 -266 -58t-219.5 -157.5t-147.5 -239.5t-55 -297q0 -75 9.5 -149.5t33.5 -156.5t60.5 -153.5t94.5 -137.5t132 -113t177.5 -75t225.5 -28q7 14 14 35q26 69 86 69q38 0 56 -21t18 -54 q0 -27 -35 -51.5t-77 -24.5q-160 0 -297 33.5t-236.5 93.5t-176 139t-123 174t-70 195t-23.5 205q0 147 48 278t130 228.5t189 169t228.5 107.5t244.5 36q175 0 330 -55.5t267 -152t177 -234.5t65 -296q0 -154 -52.5 -288.5t-151.5 -218.5t-222 -84q-208 0 -233 143h-13 q-51 -74 -125 -112t-153 -38q-92 0 -159.5 48t-74.5 129q0 5 -1 14.5t-1 13.5q0 126 136 189q67 31 161 55q101 29 222 57v158q0 48 -8.5 87t-28 73.5t-55.5 53.5t-87 19q-71 0 -128.5 -33.5t-57.5 -84.5q0 -13 8 -25q3 -3 9.5 -8t9.5 -8q22 -15 22 -43q0 -31 -28.5 -52.5 t-61.5 -21.5q-38 0 -67 29t-29 67q0 44 46.5 98t129 95t170.5 41q164 0 236.5 -70.5t72.5 -241.5z" />
<glyph unicode="A" horiz-adv-x="1449" d="M881 594l-236 625l-217 -625h453zM649 1434h84l508 -1301q59 -104 178 -106v-27h-522v27q86 2 131.5 31t26.5 79l-146 391h-506l-137 -391q-22 -64 11 -86t124 -24v-27h-370v27q56 2 87 24.5t52 81.5z" />
<glyph unicode="B" horiz-adv-x="1245" d="M442 690v-473q0 -172 174 -172q179 0 269 93.5t82 260.5q-4 72 -36.5 129.5t-83 92t-109.5 52t-120 17.5h-176zM442 1298v-542h170q115 0 193 79t78 214q0 63 -21 110.5t-51 73t-69.5 41t-69 20t-56.5 4.5h-174zM90 1364h522q85 0 159 -20t133.5 -59t93.5 -105t34 -152 q0 -112 -87 -196t-171 -84v-15q100 0 185 -37t140.5 -115t55.5 -182q0 -189 -148.5 -294t-392.5 -105h-524v27q184 0 184 108v1096q0 33 -22.5 56t-58 33t-58.5 14t-45 5v25z" />
<glyph unicode="C" horiz-adv-x="1355" d="M1241 266l31 -30q-75 -119 -202 -187.5t-275 -68.5q-319 0 -512 196t-193 526q0 123 38.5 232.5t105.5 190.5t156 140t192.5 89t212.5 30q115 0 228.5 -31t192 -91.5t78.5 -133.5q0 -34 -26 -64t-78 -30q-53 0 -80 37t-25.5 86.5t23.5 95.5q-115 86 -313 86 q-114 0 -208 -47.5t-157 -130.5t-97 -195.5t-34 -242.5q0 -100 20 -193.5t63.5 -178.5t107 -148t158 -100t208.5 -37q128 0 215 50t170 150z" />
<glyph unicode="D" horiz-adv-x="1495" d="M453 1319v-1151q10 -63 64 -93t124 -30q145 0 253.5 49t173.5 139t96.5 207t31.5 262q0 319 -164 468t-491 149h-88zM100 1364h500q126 0 238 -19.5t218 -67.5t181.5 -122t121.5 -190t46 -263q0 -155 -60.5 -288.5t-159 -223t-225 -140t-258.5 -50.5h-602v27 q185 0 185 108v1096q0 33 -22.5 56t-58.5 33t-59 14t-45 5v25z" />
<glyph unicode="E" horiz-adv-x="1214" d="M1075 311h47l-59 -311h-963v27q185 0 185 108v1096q0 33 -22.5 56t-58.5 33t-59 14t-45 5v25h924l18 -309h-47q-1 66 -20.5 114.5t-50 77t-77.5 45t-94 22t-110 5.5h-190v-563q36 0 94 -1t80 -1q82 3 129 16q116 31 116 170h48q-39 -153 -39 -218t39 -237h-48 q-1 87 -29.5 132t-86.5 63q-42 12 -129 12q-34 0 -174 -4v-561q14 -82 129 -82t166 4q81 3 145 27q140 54 182 235z" />
<glyph unicode="F" horiz-adv-x="1173" d="M1044 1364l39 -309h-47q-16 112 -66.5 170t-133.5 80q-68 18 -174 18q-30 0 -98.5 -2t-108.5 -2v-563q36 0 93 -1t79 -1q85 3 131 16q113 31 116 170h46q-39 -153 -39 -218t39 -237h-48q0 86 -28.5 131.5t-85.5 63.5q-44 12 -131 12q-36 0 -172 -4v-575q6 -53 43.5 -69.5 t138.5 -16.5v-27h-537v27q185 0 185 108v1096q0 33 -22.5 56t-58.5 33t-59 14t-45 5v25h944z" />
<glyph unicode="G" horiz-adv-x="1597" d="M1538 594v-43q-77 -2 -117 -21.5t-55 -64.5q-12 -37 -12 -117q-1 -20 -1 -46t0.5 -63t0.5 -61q-251 -198 -500 -198q-149 0 -275.5 39.5t-215 107t-151.5 157.5t-92.5 190.5t-29.5 207.5t29.5 208t91 191t148 157.5t210 106.5t267.5 39q82 0 262 -41q177 -38 256 -38 v-371h-66q-3 172 -130.5 288.5t-303.5 116.5q-107 0 -198 -36.5t-155 -98.5t-110 -145t-68.5 -176t-23.5 -191q-2 -123 32 -237t98.5 -206.5t170 -148t236.5 -55.5q193 0 271.5 86t78.5 289v129h-223v45h575z" />
<glyph unicode="H" horiz-adv-x="1685" d="M1587 1364v-25q-22 -1 -45 -5t-58.5 -14t-58 -33t-22.5 -56v-1096q0 -70 72 -96q33 -10 61 -10q18 -2 51 -2v-27h-534v27q182 0 182 108v555h-784v-555q0 -72 71 -96q30 -10 62 -10q16 -2 51 -2v-27h-535v27q183 0 183 108v1096q0 27 -16.5 47t-37.5 31t-50 18t-46 9 t-33 3v25h535v-25q-23 -1 -46 -5t-58.5 -14t-57.5 -33t-22 -56v-475h784v475q0 33 -22 56t-57.5 33t-58 14t-44.5 5v25h534z" />
<glyph unicode="I" horiz-adv-x="743" d="M100 1364h543v-25q-22 -1 -45 -5t-59.5 -14t-59 -33t-22.5 -56v-1096q0 -72 71 -96q33 -10 64 -10q18 -2 51 -2v-27h-543v27q185 0 185 108v1096q0 33 -22.5 56t-58.5 33t-59 14t-45 5v25z" />
<glyph unicode="J" horiz-adv-x="716" d="M111 1364h536v-25q-105 -1 -145.5 -28t-40.5 -80v-1024q0 -393 -142 -616.5t-378 -225.5q-68 0 -105 34t-37 79q0 44 34.5 79t80.5 35q34 0 67 -22.5t42 -52.5q2 -4 5 -14.5t5 -14.5q4 -15 12 -23q18 -15 59 0q12 3 27 9q22 9 31 16q37 26 61 80q70 147 70 536v1125 q0 53 -43 80t-139 28v25z" />
<glyph unicode="K" horiz-adv-x="1445" d="M1292 1364v-25q-65 -3 -146.5 -47.5t-157 -108.5t-153.5 -144.5t-133.5 -148.5t-99.5 -128q13 -14 152 -167t237 -251q310 -310 445 -317v-27h-357l-628 709v-574q0 -72 71 -96q30 -10 62 -10q18 -2 51 -2v-27h-535v27q183 0 183 108v1096q0 27 -16.5 47t-37.5 31t-50 18 t-46 9t-33 3v25h535v-25q-22 -1 -45 -5t-58.5 -14t-58 -33t-22.5 -56v-496l448 490q15 17 24.5 31.5t12.5 30.5t-6 27t-36.5 18.5t-72.5 6.5v25h471z" />
<glyph unicode="L" horiz-adv-x="1142" d="M1065 289h45l-98 -289h-912v27q183 0 183 108v1096q0 27 -16.5 47t-37.5 31t-50 18t-46 9t-33 3v25h537v-25q-22 -1 -45 -5t-59.5 -14t-59 -33t-22.5 -56v-1096q0 -23 12 -51q36 -36 147 -39q78 -3 138.5 -0.5t105.5 12.5t82 37.5t67.5 73.5t61.5 121z" />
<glyph unicode="M" horiz-adv-x="1865" d="M1464 1364h332v-25q-94 -2 -138 -30t-44 -99v-1075q0 -108 182 -108v-27h-551v27q24 1 49 5t64.5 14t64.5 33t25 56v1024l-559 -1089l-549 1089v-1024q0 -62 58 -86t163 -22v-27h-491v27q184 6 184 108v1096q0 29 -11 49t-34 31t-43.5 16t-54.5 10v27h313l526 -1022z" />
<glyph unicode="N" horiz-adv-x="1595" d="M1065 1364h471v-25q-80 -7 -119.5 -20.5t-51 -32.5t-11.5 -55v-1251h-72l-942 1148v-993q0 -72 104 -96q26 -6 82 -10q23 -2 56 -2v-27h-512v27q184 -6 184 108v1096q0 32 -20 55t-51 33.5t-52.5 14.5t-40.5 5v25h262l916 -1065v932q0 25 -11 43.5t-26.5 29t-45 18 t-54.5 10.5t-66 7v25z" />
<glyph unicode="O" horiz-adv-x="1605" d="M299 762q0 -110 18.5 -213t60 -198.5t102.5 -167t152 -114t202 -42.5q90 0 168 35t133 94t94.5 136t58.5 161.5t19 169.5q0 113 -17.5 215t-56.5 194.5t-97.5 160t-146 107t-196.5 39.5q-141 0 -255 -80t-176.5 -212t-62.5 -285zM1516 682q0 -152 -56.5 -284t-152 -223 t-224 -143t-270.5 -52q-206 0 -369.5 84t-258.5 245t-95 373q0 201 98 363t263 250.5t362 88.5q152 0 281 -47t223 -135t146.5 -221.5t52.5 -298.5z" />
<glyph unicode="P" horiz-adv-x="1163" d="M567 608v47q53 2 92 6.5t80 14.5t69 25.5t54 40t41 58.5t24 81t9 106q0 150 -96 241t-238 91h-149v-1188q6 -28 26.5 -48.5t46 -31t63 -16t64.5 -7t64 -1.5v-27h-617v27q185 0 185 108v1096q0 33 -22.5 56t-58.5 33t-59 14t-45 5v25h605q100 0 191.5 -49.5t149.5 -137.5 t58 -190q0 -110 -62.5 -198.5t-158 -134.5t-199.5 -46h-117z" />
<glyph unicode="Q" horiz-adv-x="1605" d="M834 31q90 0 168 35t133 93.5t94.5 135t58.5 161t19 169.5q0 112 -17.5 213.5t-56.5 194t-97.5 159.5t-146.5 107t-196 40q-141 0 -255 -79.5t-176.5 -211t-62.5 -284.5q0 -110 18.5 -212.5t60 -198t102.5 -166.5t152 -113.5t202 -42.5zM1456 -186q0 -76 -56.5 -132 t-131 -80t-150.5 -24q-75 0 -144.5 25.5t-128 75t-97.5 130t-48 181.5q-275 38 -442.5 222.5t-167.5 471.5q0 200 98 361.5t263 250t362 88.5q204 0 362 -81t249.5 -241t91.5 -378q0 -191 -87.5 -346.5t-235 -246.5t-327.5 -107q2 -47 13.5 -95.5t34.5 -96.5t53.5 -84.5 t75 -59.5t96.5 -23q157 0 213 117q-56 0 -80.5 21.5t-24.5 70.5q0 45 33 69.5t82 24.5q38 0 66 -34.5t28 -79.5z" />
<glyph unicode="R" horiz-adv-x="1435" d="M453 1319v-623q116 0 198.5 14.5t148.5 50.5t99 102.5t33 164.5q0 147 -92.5 219t-239.5 72h-147zM459 1364h284q157 0 267 -91.5t110 -244.5q0 -76 -44 -141.5t-108 -106t-121 -64t-99 -30.5q79 -47 172 -158q24 -29 52 -65t62 -81.5t53 -70.5q51 -63 87 -104.5t82 -86 t88 -67.5t81 -26v-27h-313l-362 563q-95 116 -297 86v-532q21 -85 200 -90v-27h-553v27q185 0 185 108v1096q0 33 -22.5 56t-58.5 33t-59 14t-45 5v25h359z" />
<glyph unicode="S" horiz-adv-x="1024" d="M559 598l-192 90q-100 48 -167 130t-67 198q0 109 48.5 189.5t126 120.5t171.5 54t189 -2.5t174 -56.5v-254h-60q-13 129 -91 201.5t-177 74.5q-103 0 -175.5 -73t-72.5 -205q0 -80 70 -143q25 -25 63 -45q15 -11 64 -35l170 -88q61 -31 103 -59t86.5 -71t67.5 -99.5 t23 -125.5q0 -174 -137 -300t-338 -126q-112 0 -221 50q-36 18 -117 67v283h56q4 -13 11.5 -44.5t12.5 -49.5q20 -63 47 -117q78 -137 240 -137q87 0 151.5 46.5t93.5 111t29 132.5q0 44 -5 74t-21 70t-55.5 75t-100.5 64z" />
<glyph unicode="T" horiz-adv-x="1255" d="M117 1217h-64q9 68 29 131q10 42 22 57q7 14 13 2q49 -25 53 -27q35 -8 68 -12q61 -4 393 -4q372 0 451.5 5.5t115.5 37.5q6 6 6 -2q0 -21 -12 -64q-6 -25 -21 -77t-18 -68h-49v12q0 30 -17.5 49.5t-51 27t-58 9.5t-62.5 2h-210v-1122q0 -147 202 -147v-27h-573v27 q30 0 51.5 1.5t52.5 10t50.5 23t34 43.5t14.5 69v1122h-232q-33 0 -55.5 -1.5t-56.5 -8t-54 -24.5t-22 -45z" />
<glyph unicode="U" horiz-adv-x="1583" d="M1065 1364h469v-25q-40 -1 -82.5 -10.5t-80.5 -35t-38 -62.5v-647q0 -143 -47 -259.5t-125.5 -189.5t-176 -112.5t-202.5 -40.5q-105 -2 -201.5 35.5t-175 109t-125.5 190t-47 265.5v649q0 30 -19 52.5t-49.5 33.5t-58.5 16t-55 6v25h533v-25q-27 -1 -55 -6t-58.5 -16 t-50 -33.5t-19.5 -52.5v-672q0 -122 36 -220t96 -158t135 -90.5t155 -27.5q81 2 156 38t135.5 101.5t96.5 169t36 230.5v629q0 40 -31 65.5t-68 33.5t-83 9v25z" />
<glyph unicode="V" horiz-adv-x="1525" d="M1024 1364h451v-25q-54 -2 -108.5 -29.5t-74.5 -76.5l-483 -1253h-113l-463 1253q-53 102 -182 106v25h553v-25q-77 0 -104 -2q-49 -3 -66 -12q-41 -17 -12 -96l371 -1055l411 1055q12 29 14 47t-5.5 31.5t-31.5 19.5t-60 9t-97 3v25z" />
<glyph unicode="W" horiz-adv-x="2066" d="M1661 1364h356v-25q-53 -2 -106.5 -29t-73.5 -77l-504 -1253h-71l-203 526l-211 -526h-113l-504 1253q-51 102 -180 106v25h408v-25q-23 0 -31 -2q-17 -3 -25 -14q-12 -19 19 -94l409 -1053l183 445l-238 612q-22 59 -56 81.5t-83 24.5v25h389v-25q-21 0 -34.5 -1.5 t-29 -7.5t-22.5 -17t-7 -32.5t11 -51.5l148 -418l172 416q24 59 -2.5 84.5t-77.5 27.5v25h348v-25q-53 -2 -106.5 -29t-73.5 -77l-217 -541l182 -516l424 1053q24 58 -2 83t-78 27v25z" />
<glyph unicode="X" horiz-adv-x="1665" d="M911 750l392 -512q64 -84 146.5 -145.5t166.5 -65.5v-27h-574v27h101q37 0 39.5 29t-23.5 61q-66 90 -188.5 252t-177.5 237l-359 -506q-8 -13 -11 -29t6 -30t32 -14h82v-27h-492v27q158 5 365 233q75 81 170 209q24 32 74.5 102t76.5 105q-87 117 -135.5 181t-110 143 t-94.5 117.5t-76 84.5t-69.5 65.5t-60 39t-61 25.5t-60.5 7v25h594v-25h-76q-32 0 -52.5 -14t-22 -31t8.5 -32l338 -443l334 445q17 20 2.5 47.5t-49.5 27.5h-86v25h491v-25q-94 -10 -174.5 -49t-115.5 -84z" />
<glyph unicode="Y" horiz-adv-x="1425" d="M1004 1364h370v-25q-87 -7 -126.5 -30t-73.5 -74l-367 -530v-570q0 -36 18.5 -59.5t53 -33t63 -12.5t68.5 -3v-27h-574v27q203 -15 203 108v529l-387 571q-69 104 -201 104v25h494v-25q-83 -9 -101 -37t19 -75l309 -457l311 457q28 30 34.5 51.5t-8.5 33.5t-39.5 18 t-65.5 9v25z" />
<glyph unicode="Z" horiz-adv-x="1271" d="M170 1055l59 309h914q17 0 21.5 -3t-1.5 -13l-741 -1127q-67 -104 -53 -137q7 -12 30 -16q12 -2 41 -2h475q177 0 250 243h45l-57 -309h-1038q-33 0 -35 6v4q5 10 8 13l870 1275h-456q-158 0 -219 -81q-24 -31 -41 -80q-6 -19 -23 -82h-49z" />
<glyph unicode="[" horiz-adv-x="512" d="M92 1393h348v-47h-235v-1299h235v-47h-348v1393z" />
<glyph unicode="\" horiz-adv-x="634" d="M74 1413h133l354 -1433h-90z" />
<glyph unicode="]" d="M92 1346v47h348v-1393h-348v47h236v1299h-236z" />
<glyph unicode="^" horiz-adv-x="655" d="M78 1044l174 314q22 33 27 37q18 18 51 18t45 -12q2 -2 6.5 -8t7.5 -9q8 -16 14 -26l175 -314h-27l-223 224l-224 -224h-26z" />
<glyph unicode="_" horiz-adv-x="1187" d="M72 -123h1044v-102h-1044v102z" />
<glyph unicode="`" horiz-adv-x="464" d="M340 1044l-238 211q-26 23 -35.5 48.5t-4 45t19.5 31.5q22 17 53 4.5t53 -47.5l179 -293h-27z" />
<glyph unicode="a" horiz-adv-x="958" d="M616 203v254q-43 -11 -66 -17.5t-61 -18t-58.5 -20t-50.5 -21.5t-47 -25t-36.5 -29t-29 -34.5t-16.5 -39.5t-7 -47q0 -62 36.5 -104t110.5 -42q33 0 68 14.5t62 34.5t49 41.5t34 36.5t12 17zM614 504v135q0 238 -180 238q-70 0 -129 -35t-59 -86q0 -13 8 -25q2 -2 6 -7 t6 -7q19 -19 19 -45q0 -31 -24 -52.5t-56 -21.5q-39 0 -67.5 28.5t-28.5 67.5q0 45 47 99.5t130.5 95.5t172.5 41q165 0 238 -72t73 -244v-434q0 -57 19.5 -89t52.5 -32q29 0 59 27l25 -31q-73 -73 -158 -73q-65 0 -106 45t-41 133q-59 -88 -137 -136.5t-156 -48.5 q-62 0 -110 20t-74 51.5t-39 65t-13 66.5q0 35 7.5 64t28 54.5t41 44.5t61 38.5t72 33t92 31t102 29t118.5 31.5z" />
<glyph unicode="b" horiz-adv-x="1083" d="M297 635v-414q0 -79 66 -133.5t149 -54.5q77 0 140.5 34t103.5 91t62 127t24 145q3 102 -29.5 190.5t-108 147.5t-180.5 59q-77 0 -152 -59.5t-75 -132.5zM41 1389l223 81q15 6 22.5 4t9.5 -6t1 -10v-710q29 59 114.5 113t184.5 54q174 0 289.5 -113.5t115.5 -289.5 q0 -242 -144.5 -387t-364.5 -145q-142 0 -244.5 69t-102.5 172v1032q0 58 -31.5 81.5t-72.5 23.5v31z" />
<glyph unicode="c" horiz-adv-x="927" d="M809 184l33 -30q-73 -92 -167 -136.5t-192 -44.5q-80 0 -152 32t-128.5 90t-89.5 148t-33 199q0 95 29.5 180t85 152.5t144 108.5t198.5 45q74 2 134 -12t95 -36t58 -49.5t31.5 -50.5t8.5 -41q0 -28 -16.5 -42.5t-40.5 -14.5q-42 0 -54 34t13 75q-73 88 -186 88 q-157 0 -250.5 -104t-93.5 -302q0 -120 47.5 -211t122 -136.5t161.5 -45.5q143 0 242 104z" />
<glyph unicode="d" horiz-adv-x="1122" d="M776 172v539q-20 32 -31.5 48t-34 41t-43 37t-52.5 21.5t-70 9.5q-98 0 -167.5 -60t-99.5 -148t-28 -191q2 -76 22 -146.5t57.5 -128t97.5 -92t134 -34.5q158 0 215 104zM672 1401l225 69q15 6 22 3.5t8.5 -6t0.5 -9.5v-1341q0 -70 104 -70v-27q-172 -10 -254 -38v151 q-37 -76 -116 -114.5t-142 -38.5q-109 0 -196 40t-139.5 106.5t-78.5 149.5t-22 173q3 89 35 171.5t90 149t149 106t203 39.5q63 0 115 -20q19 -7 53 -23t47 -22v426q0 94 -104 94v31z" />
<glyph unicode="e" horiz-adv-x="935" d="M248 610h405q49 0 49 70q0 84 -60.5 144.5t-139.5 60.5q-107 0 -172 -69.5t-82 -205.5zM819 190l25 -24q-72 -95 -167.5 -143t-193.5 -48q-96 0 -173.5 40.5t-126.5 108.5t-75 152.5t-26 176.5q1 92 28 176t77.5 152t133 108.5t185.5 40.5q160 0 250.5 -87t97.5 -255 q0 -11 -7.5 -19t-19.5 -8h-577q-17 -227 73 -355t244 -128q128 0 252 112z" />
<glyph unicode="f" horiz-adv-x="618" d="M117 895h80q0 350 114 526t316 176q49 0 76.5 -28.5t27.5 -67.5q0 -38 -29 -67t-69 -29q-29 0 -55 18.5t-35 46.5q-1 2 -3 9.5t-3 9.5q-17 33 -37 33q-121 0 -144 -236q-6 -57 -7.5 -122t0 -156.5t1.5 -112.5h230v-88h-230v-649q0 -32 12.5 -56.5t30.5 -37.5t46.5 -21.5 t51 -11.5t52.5 -4v-27h-447v27q5 1 15.5 2t15.5 2q15 0 35 8q35 18 35 78v690h-125q3 29 19 58.5t26 29.5z" />
<glyph unicode="g" horiz-adv-x="1001" d="M555 -20h-162q-99 -11 -161.5 -55.5t-57.5 -135.5q5 -70 56.5 -114t124 -57.5t155.5 -4.5q82 9 153 38.5t118.5 80.5t47.5 114q0 99 -106 125q-43 9 -90 9h-78zM502 350q46 0 81 19.5t53.5 46t29.5 61.5t13.5 58.5t2.5 44.5q0 48 -9 94.5t-30.5 95.5t-65 79t-104.5 30 q-47 0 -82.5 -14t-56 -36t-33.5 -52.5t-17.5 -59t-4.5 -60.5q0 -39 5.5 -77.5t21 -81t39 -74.5t64.5 -53t93 -21zM440 102h138q48 0 80.5 -1t76 -5t73 -11t61 -20t50 -32t30.5 -47t12 -64q0 -83 -40 -151.5t-107.5 -112t-150 -69t-174.5 -31.5q-121 -9 -227.5 14t-174 77.5 t-67.5 129.5q0 37 20 69t48 53t72.5 40.5t79.5 30t82 22.5q-89 23 -134 65t-45 131l207 129q-46 15 -84.5 38t-74.5 57.5t-57 86t-21 113.5q0 137 109 223.5t272 86.5q25 0 44.5 -1t38 -3.5t27.5 -4.5t29 -6.5t26 -5.5q107 -22 267 -26v-58h-150q68 -62 68 -196 q1 -87 -52 -164.5t-142 -122t-189 -41.5q-83 2 -131 -27.5t-41 -89.5q7 -76 151 -76z" />
<glyph unicode="h" horiz-adv-x="1122" d="M926 655v-559q0 -26 22.5 -42.5t42 -20.5t39.5 -6v-27h-360v27q20 2 39.5 6t42 20.5t22.5 42.5v496q0 47 -3 80.5t-12.5 64.5t-26 49.5t-44.5 29.5t-67 11q-64 0 -137 -41t-136 -98v-592q0 -20 12 -34.5t31.5 -21t33.5 -9.5t28 -4v-27h-361v27q14 1 28 4t33.5 9.5 t31.5 21t12 34.5v1180q0 94 -105 94v31l223 69q16 5 24.5 3.5t8.5 -6v-9.5v-708q74 74 173.5 119.5t183.5 45.5q221 0 221 -260z" />
<glyph unicode="i" d="M354 903v-807q0 -60 107 -69v-27h-369v27q107 9 107 69v625q0 96 -107 96v29l230 72q26 4 30 0.5t2 -15.5zM162 1303q0 45 31.5 74.5t76.5 29.5t75 -29t30 -75q0 -43 -30 -74t-75 -31q-44 0 -76 32t-32 73z" />
<glyph unicode="j" horiz-adv-x="532" d="M102 848l226 70q12 4 19.5 5t10 -3t2.5 -5.5v-9.5v-909q0 -120 -25 -215t-67 -156.5t-100 -102.5t-119.5 -58t-130.5 -17q-55 0 -89 28.5t-34 67.5q0 41 24.5 69t63.5 28q34 0 61 -21t27 -59q0 -27 18.5 -45.5t43.5 -18.5q174 0 174 500v727q0 91 -105 96v29zM172 1303 q0 45 31 74.5t76 29.5t74.5 -28.5t29.5 -75.5q0 -42 -29.5 -73.5t-74.5 -31.5q-42 0 -74.5 32.5t-32.5 72.5z" />
<glyph unicode="k" horiz-adv-x="1136" d="M563 571l379 -477q25 -34 77.5 -50.5t106.5 -18.5v-27h-301l-354 496l-133 -121v-277q0 -26 22 -42.5t41 -20.5t39 -6v-27h-358v27q20 2 39.5 6t42 20.5t22.5 42.5v1180q0 94 -104 94v31l223 69q10 3 17 3.5t10 0t4.5 -4t1.5 -5v-6.5v-987l385 342q18 15 15.5 26.5 t-23.5 16.5q-20 6 -92 6v31h419v-31q-131 -3 -254 -94q-59 -41 -110 -92q-14 -12 -52.5 -48t-62.5 -57z" />
<glyph unicode="l" d="M92 1401l230 69q12 4 20 4t10 -2.5t2.5 -6t-0.5 -7.5v-1362q0 -60 107 -69v-27h-369v27q107 9 107 69v1180q0 94 -107 94v31z" />
<glyph unicode="m" horiz-adv-x="1701" d="M1507 657v-561q0 -20 12 -34.5t31 -21t32.5 -9.5t27.5 -4v-27h-359v27q14 1 28 4t33.5 9.5t31.5 21t12 34.5v500q0 120 -41 177.5t-111 57.5q-82 0 -154 -41.5t-124 -105.5v-27v-561q0 -26 22 -42.5t41 -20.5t39 -6v-27h-356v27q20 2 39 6t41 20.5t22 42.5v541 q0 100 -44.5 149t-109.5 45.5t-139.5 -45.5t-134.5 -112v-578q0 -20 12 -34.5t31.5 -21t33.5 -9.5t28 -4v-27h-359v27q14 1 27.5 4t32.5 9.5t31 21t12 34.5v629q0 96 -103 96v29l223 72q12 4 19 4.5t9.5 -2.5t3 -7t-0.5 -8v-170q85 86 177.5 131.5t171 47t138.5 -43 t82 -129.5q83 81 165 129t175 48q252 0 252 -265z" />
<glyph unicode="n" horiz-adv-x="1146" d="M950 657v-561q0 -20 12 -34.5t31.5 -21t33.5 -9.5t28 -4v-27h-361v27q14 1 28 4t33.5 9.5t31.5 21t12 34.5v541q0 61 -16.5 104t-45.5 63t-66.5 26t-80 -6.5t-85 -35.5t-83.5 -59t-74 -80v-553q0 -20 12 -34.5t31.5 -21t33.5 -9.5t28 -4v-27h-361v27q14 1 28 4t33.5 9.5 t31.5 21t12 34.5v629q0 96 -105 96v29l223 72q16 6 24.5 4.5t8.5 -7v-10.5v-194q64 71 135.5 119t137.5 68.5t126.5 15.5t105 -34.5t71 -88t26.5 -138.5z" />
<glyph unicode="o" horiz-adv-x="1105" d="M254 492q0 -59 10 -120t34 -124t59.5 -111.5t91.5 -79t124 -30.5q75 0 131 32.5t87.5 89t46 121.5t14.5 140q0 84 -16.5 162t-51.5 150t-100 115.5t-152 43.5q-75 0 -131.5 -36.5t-87 -96.5t-45 -124.5t-14.5 -131.5zM1024 451q0 -199 -137 -335t-334 -136 q-209 0 -340 129t-131 342q0 214 131.5 345.5t339.5 131.5q207 0 339 -131.5t132 -345.5z" />
<glyph unicode="p" horiz-adv-x="1120" d="M328 702v-452q0 -83 68 -143t167 -60q73 -1 132.5 31.5t97.5 88.5t58.5 125t22.5 144q2 74 -16 143t-54 125.5t-96.5 90.5t-136.5 34q-64 0 -141 -40.5t-102 -86.5zM328 905v-139q80 80 150 118t169 38q101 0 180.5 -40t126.5 -107t68.5 -150.5t13.5 -173.5 q-5 -73 -28 -140.5t-64.5 -127.5t-98 -104.5t-134.5 -70t-168 -24.5q-70 1 -126 30.5t-89 79.5v-469q0 -26 22.5 -42.5t42 -20.5t39.5 -6v-27h-360v27q20 2 39.5 6t42 20.5t22.5 42.5v1096q0 96 -104 96v31l223 70q16 5 24.5 3.5t8.5 -6.5v-10z" />
<glyph unicode="q" horiz-adv-x="1083" d="M786 203v456q0 51 -24.5 92t-62 64.5t-76 36t-72.5 12.5q-94 0 -164 -58t-103 -144t-34 -185q0 -74 20 -142t58 -123.5t101.5 -88.5t143.5 -33q46 0 87 14.5t67 36.5t38.5 36.5t19.5 23.5zM936 -383h10l-8 8q0 -26 22.5 -42.5t42 -20.5t39.5 -6v-27h-360v27q20 2 39.5 6 t42 20.5t22.5 42.5v533q-26 -63 -113.5 -114.5t-180.5 -51.5q-84 1 -154 28t-118 72t-80.5 104t-46 126t-9.5 137q5 89 39 170.5t93 147.5t151 105.5t204 39.5q105 0 267 -115l69 117q29 13 29 -17v-1290z" />
<glyph unicode="r" horiz-adv-x="778" d="M350 907v-170q150 185 279 185q47 0 83 -28.5t36 -68.5q0 -37 -18 -62t-44 -30.5t-51.5 1t-43.5 33t-18 64.5q-61 0 -128.5 -55t-94.5 -123v-557q0 -59 168 -69v-27h-426v27q14 1 28 4t33.5 9.5t31.5 21t12 34.5v629q0 96 -105 96v29l225 72q33 11 33 -15z" />
<glyph unicode="s" horiz-adv-x="821" d="M446 377l-131 61q-74 34 -134 97t-60 139q0 127 88 191.5t233 64.5q34 0 119 -15.5t117 -27.5v-170h-57q-11 70 -57.5 120t-141.5 50q-51 0 -87 -15t-52.5 -40.5t-23 -48t-7.5 -48.5q-3 -59 43 -98q22 -20 86 -51l125 -60q37 -17 57.5 -28t52.5 -35t49 -49t30.5 -65 t13.5 -89q0 -129 -101 -208t-246 -79q-127 0 -270 78v189h55q3 -10 10.5 -31.5t10.5 -28.5q12 -34 39 -69q64 -82 174 -82q89 0 137 55.5t45 122.5q-2 57 -26.5 98t-90.5 72z" />
<glyph unicode="t" horiz-adv-x="716" d="M324 1126h49v-227h293v-90h-293v-526q0 -6 -0.5 -18t-0.5 -23t1 -21q4 -45 10 -65q25 -74 98 -74q49 0 88 24q5 3 29 21l16 16l27 -26q-101 -124 -258 -131q-34 -1 -60.5 7t-43.5 20t-29 35.5t-18 42t-9 50.5t-3.5 49.5t-0.5 51.5v567h-147v70q79 3 163.5 80t88.5 167z " />
<glyph unicode="u" horiz-adv-x="1103" d="M651 846l226 72q21 9 26.5 4t3.5 -17v-786q0 -29 21 -46t41 -20.5t43 -3.5v-29q-175 -11 -256 -38v149q-21 -15 -62.5 -48t-66.5 -50q-77 -53 -170 -53q-144 0 -213.5 89t-69.5 236v440q-14 72 -102 72v29l221 72q16 6 23.5 3.5t9 -6.5t0.5 -10v-579q0 -46 8.5 -87.5 t27 -81.5t54 -63.5t84.5 -23.5q137 0 256 129v522q0 96 -105 96v29z" />
<glyph unicode="v" horiz-adv-x="1052" d="M684 901h338v-27q-43 -1 -70.5 -22t-54.5 -66l-330 -806h-94l-317 806q-21 50 -52.5 68t-72.5 20v27h401v-27q-71 -2 -103 -25t-14 -69l248 -633l244 633q20 52 -14 72t-109 22v27z" />
<glyph unicode="w" horiz-adv-x="1564" d="M1196 901h338v-27q-43 -1 -70.5 -22.5t-52.5 -65.5l-309 -806h-92l-211 679l-256 -679h-92l-297 806q-18 50 -49.5 68t-73.5 20v27h399v-27q-71 -2 -102 -24.5t-13 -69.5l226 -635l219 627q-3 7 -9.5 24.5t-9.5 24.5q-8 23 -20 33q-23 20 -90 20v27h379v-27 q-68 -1 -89.5 -23t-7.5 -69l185 -639l223 637q10 23 5.5 39.5t-13 26.5t-28.5 16.5t-40.5 8.5t-48.5 3v27z" />
<glyph unicode="x" horiz-adv-x="1064" d="M1004 899v-27q-39 1 -67.5 -7.5t-59 -27.5t-73 -66t-89.5 -105.5t-127 -165.5q131 -169 203 -258q93 -116 118 -140q42 -43 73.5 -58t72.5 -17v-27h-406v27h31q18 0 29.5 2t22.5 9t7.5 24t-22.5 42q-42 57 -112 149t-93 122l-188 -271q-12 -16 -16 -32t10.5 -30.5 t52.5 -14.5h20v-27h-381v27q43 1 69.5 4t61 21.5t57.5 38.5t69 74t86 107t118 158q-87 115 -138 180.5t-100 123.5t-80 84t-60 40.5t-58 15.5v27h389v-29h-27q-16 0 -29 -3.5t-23.5 -11t-7.5 -24.5t21 -40q116 -143 187 -238l184 242q26 30 21.5 46.5t-19 22.5t-37.5 6h-37 v27h347z" />
<glyph unicode="y" horiz-adv-x="1054" d="M686 901h338v-27q-44 -1 -71.5 -22t-53.5 -66l-340 -827q-34 -82 -54 -129.5t-45 -102t-40.5 -82t-36.5 -58.5t-38 -44t-40 -25.5t-46 -16t-54 -3.5q-46 0 -89.5 32.5t-43.5 80.5t28 72t58 24q78 0 78 -59q0 -78 40 -78q48 0 91 88q29 59 120 299l-329 829 q-33 84 -125 88v27h401v-27q-71 -2 -103 -24.5t-14 -67.5l248 -630l244 630q20 51 -14.5 70.5t-108.5 21.5v27z" />
<glyph unicode="z" horiz-adv-x="880" d="M94 707l39 235q17 0 23 -6q3 -1 14 -12q23 -23 74 -23h575v-33l-524 -716q-19 -26 -25 -49.5t5 -39.5t40 -16h330q34 0 65.5 43t48 88.5t21.5 77.5h47l-39 -256h-737v53l613 799h-437q-54 -72 -65 -145h-68z" />
<glyph unicode="{" horiz-adv-x="634" d="M240 780v391q0 76 17 129t43 83t71 46t87 20.5t105 4.5v-8q-96 -17 -153.5 -92t-57.5 -183v-350q0 -48 -3.5 -81t-14 -68t-29.5 -59t-52 -44.5t-79 -33.5q11 -8 34 -28t58.5 -57t60.5 -87.5t25 -98.5v-370q0 -108 57.5 -183t153.5 -92v-8q-63 0 -105 4.5t-87 20.5t-71 46 t-43 83t-17 129v391q0 105 -34 160t-120 87q86 32 120 87.5t34 160.5z" />
<glyph unicode="|" horiz-adv-x="245" d="M72 1497h102v-1599h-102v1599z" />
<glyph unicode="}" horiz-adv-x="634" d="M72 1446v8q63 0 105 -4.5t87 -20.5t71 -46t43 -83t17 -129v-391q0 -105 34 -160.5t120 -87.5q-86 -32 -120 -87t-34 -160v-391q0 -76 -17 -129t-43 -83t-71 -46t-87 -20.5t-105 -4.5v8q96 17 153.5 92t57.5 183v370q0 48 25 98.5t60.5 87.5t58.5 57t34 28 q-46 13 -79 33.5t-52 44.5t-29.5 59t-14 68t-3.5 81v350q0 108 -57.5 183t-153.5 92z" />
<glyph unicode="~" horiz-adv-x="815" d="M274 817l220 -86q73 -28 121 9t92 126l34 -20q-58 -152 -102.5 -200.5t-97.5 -29.5l-240 86q-73 28 -119 -28q-19 -22 -39 -60q-7 -12 -18.5 -36t-15.5 -31l-35 22q23 62 35 103q16 48 36 94q24 42 50.5 55t78.5 -4z" />
<glyph horiz-adv-x="1605" />
<glyph unicode="&#xa1;" horiz-adv-x="389" d="M193 969h4q11 0 18.5 -8.5t10 -18t4.5 -19.5l1 -10l64 -827q5 -46 -23 -81.5t-77 -35.5t-77.5 35.5t-23.5 81.5l64 827l2 10q1 10 3.5 19.5t10.5 18t19 8.5zM317 1286q0 -43 -38.5 -80t-83.5 -37q-46 0 -84.5 37t-38.5 80q0 44 38 80.5t85 36.5q45 0 83.5 -37t38.5 -80z " />
<glyph unicode="&#xa2;" horiz-adv-x="962" d="M373 131l190 741h-18q-301 0 -301 -401q0 -230 129 -340zM612 1065h68l-43 -158l22 -6q34 -10 70 -26.5t73.5 -40t61 -56t23.5 -67.5q0 -38 -28 -65.5t-66 -27.5q-41 0 -69 27.5t-28 67.5t33 73q-42 45 -104 72l-207 -756q63 -32 147 -32q68 0 153 36.5t138 86.5l31 -33 q-94 -91 -188 -134.5t-218 -43.5q-37 0 -92 10l-39 -135h-47l39 149q-124 52 -197 169t-73 255q0 125 57 237t161.5 182.5t231.5 70.5q31 0 51 -2z" />
<glyph unicode="&#xa3;" horiz-adv-x="1224" d="M145 102q0 -40 19.5 -67t52.5 -27q49 0 102 54.5t78 138.5q-40 15 -83.5 17.5t-81.5 -7.5t-62.5 -38t-24.5 -71zM328 752h200q11 49 22.5 93t31.5 102.5t42.5 107t55.5 97.5t69.5 82.5t85.5 55t103 21.5q57 0 98 -22.5t41 -74.5q0 -36 -19.5 -65.5t-58.5 -30.5 q-30 -1 -45 14t-24 42l-6 24q-2 3 -5.5 10.5t-5.5 10.5q-14 24 -36 24q-51 0 -99 -105t-72 -214t-28 -172h211v-47h-221q-20 -75 -49.5 -211t-57.5 -240q49 -8 94 -49q29 -29 41 -43q7 -8 20.5 -23.5t20.5 -23.5q26 -31 40.5 -47t38.5 -38t46.5 -32t46.5 -10q48 0 90.5 43 t104.5 139l45 -35q-28 -39 -55 -69q-28 -36 -58 -60q-60 -51 -159 -51q-32 0 -52 4.5t-53 22.5q-34 20 -270 180q-53 -102 -126.5 -152.5t-185.5 -50.5q-60 0 -93.5 37t-33.5 86q0 92 93.5 151.5t267.5 59.5q52 202 88 412h-188z" />
<glyph unicode="&#xa4;" horiz-adv-x="976" d="M203 547q0 -119 85.5 -206t203.5 -87t200 88.5t82 208.5q0 115 -83 203t-197 88q-121 0 -206 -86.5t-85 -208.5zM737 858l107 107l59 -60l-102 -104q39 -45 59.5 -114t20.5 -136t-20.5 -135.5t-59.5 -118.5l102 -107l-55 -53l-105 107q-47 -42 -116.5 -65t-134.5 -23 q-69 0 -139 22.5t-120 65.5l-104 -107l-55 53l104 109q-40 51 -61 117.5t-21 130.5q0 69 21 137.5t65 114.5l-108 106l57 58l107 -105q47 39 118 60.5t138 21.5q64 0 131 -21.5t112 -60.5z" />
<glyph unicode="&#xa5;" horiz-adv-x="1425" d="M1006 1282h348v-20h-129l-406 -600v-117h174v-45h-174v-142h174v-45h-174v-286h191v-27h-537v25h191v288h-175v45h175v142h-175v45h175v80l-424 635h-168v22h501v-20h-141l356 -539l359 537h-141v22z" />
<glyph unicode="&#xa6;" horiz-adv-x="225" d="M72 483h82v-565h-82v565zM72 1475h82v-543h-82v543z" />
<glyph unicode="&#xa7;" horiz-adv-x="921" d="M600 80l-18 -21l8 -10q70 53 120 127t50 148q0 50 -20 104t-61 114t-77 104.5t-94 111.5q-12 14 -44.5 52t-48.5 57t-39 48.5t-40 53.5q-76 110 -76 182q0 66 64 156q-142 -106 -142 -279q0 -49 17 -99.5t55 -108.5t68 -97t86 -107q40 -50 81 -102q38 -50 74 -104 q73 -119 78 -211q2 -22 -12 -58q-2 -7 -29 -61zM766 1296q0 -55 -55 -55q-29 0 -56 19l-18 18q-9 12 -19 22q-25 31 -55.5 48.5t-81.5 17.5q-27 0 -46.5 -4.5t-31.5 -16.5t-18.5 -22t-9.5 -32t-3.5 -35t-0.5 -42q0 -100 75 -213q25 -38 78 -102q40 -49 88 -100 q58 -67 89.5 -108t71.5 -103t58.5 -122t18.5 -122q0 -155 -141.5 -270t-352.5 -115q-55 0 -110 13.5t-94 41t-39 62.5q0 55 55 55q41 0 68 -20q8 -6 15.5 -14.5t16.5 -19.5t13 -16q19 -24 32.5 -37t42 -25.5t64.5 -12.5q27 0 48.5 5.5t35 13t23 22.5t14 26.5t7 33t3 34 t0.5 37.5q0 92 -76 207q-31 48 -78 104q-9 12 -88 106q-55 65 -89 109.5t-72.5 105.5t-57 120t-18.5 118q0 67 36.5 133t99 117t151.5 83t186 32q35 0 71 -5t71 -15.5t57 -30.5t22 -46z" />
<glyph unicode="&#xa8;" horiz-adv-x="696" d="M633 1249q0 -45 -30 -77.5t-75 -32.5q-42 0 -74 33.5t-32 76.5q0 49 30.5 80t75.5 31t75 -30.5t30 -80.5zM276 1249q0 -45 -30 -77.5t-74 -32.5t-75 33.5t-31 76.5q0 49 30.5 80t75.5 31t74.5 -30.5t29.5 -80.5z" />
<glyph unicode="&#xa9;" horiz-adv-x="1312" d="M815 694l35 -41q-25 74 -63.5 103.5t-92.5 29.5q-194 0 -194 -254q0 -114 54.5 -176.5t158.5 -62.5q109 0 157 41q3 -2 9.5 -7.5t9.5 -7.5q-61 -58 -104.5 -78t-122.5 -20q-119 0 -198 81.5t-79 225.5q0 117 86 200t209 83q85 0 148 -42t63 -122q0 -22 -18.5 -39.5 t-41.5 -17.5t-41 17.5t-18 39.5q0 44 43 47zM182 532q0 -103 43.5 -199t112 -161.5t151.5 -105t162 -41.5q212 -1 345.5 144.5t133.5 362.5q0 214 -135 350t-342 138q-79 0 -162.5 -36.5t-152 -99t-112.5 -156t-44 -196.5zM1241 535q0 -115 -48 -219t-128.5 -177 t-188.5 -116t-225 -43q-156 0 -288.5 71.5t-211.5 199t-79 281.5t79.5 277.5t212 190.5t289.5 67t291 -66.5t215.5 -189.5t81.5 -276z" />
<glyph unicode="&#xaa;" horiz-adv-x="585" d="M334 993v174q-97 -39 -143.5 -69t-47.5 -66q-4 -117 101 -117q33 0 61.5 28.5t28.5 49.5zM334 1206v64q0 64 -24 96.5t-85 22.5q-35 -9 -53 -27t-18 -41q0 -3 1 -8.5t1 -7.5q2 -4 2 -11q3 -6 -2 -20q-9 -13 -23.5 -18.5t-28.5 -0.5q-28 8 -28 41q0 29 39.5 59.5 t91.5 53.5q203 84 203 -172v-219q0 -87 32 -103q24 -11 56 21l14 -16q-6 -4 -39 -31q-32 -21 -79.5 3t-47.5 79h-14v-17q-32 -80 -146 -73q-50 2 -82 36t-32 89q0 62 92 116q26 15 85 41.5t85 42.5z" />
<glyph unicode="&#xab;" horiz-adv-x="819" d="M748 745q-2 -8 -37 -59q-10 -15 -35 -47t-37 -49q-100 -135 -100 -160t100 -160q12 -17 37 -49t35 -47q35 -51 37 -59q3 -9 -8 -20t-23 -13q-332 332 -332 348t332 348q12 -2 23 -13t8 -20zM434 745q-4 -9 -39 -59q-8 -13 -19 -28.5t-26 -35.5l-24 -32 q-101 -136 -101 -160t101 -160q4 -6 31 -42.5t38 -53.5q35 -50 39 -59q1 -3 -2.5 -7.5t-10 -9.5t-10.5 -7.5t-10 -6.5q-329 329 -329 346t329 346q6 -4 10 -6.5t10.5 -7.5t10 -9.5t2.5 -7.5z" />
<glyph unicode="&#xac;" horiz-adv-x="921" d="M72 840h778v-410h-90v318h-688v92z" />
<glyph unicode="&#xad;" horiz-adv-x="655" d="M74 467l489 65l19 -98l-490 -65z" />
<glyph unicode="&#xae;" horiz-adv-x="897" d="M420 1104q121 -5 121 104q0 99 -95 99h-61v-385q0 -33 78 -33v-2h-207v2q21 0 40 7.5t19 25.5v350q0 20 -10 26.5t-29 8.5v4h197q57 0 96 -25.5t39 -77.5q0 -48 -36 -74.5t-115 -33.5q16 -22 41 -55t82 -91.5t88 -64.5v-2h-103l-139 211zM119 1085q0 -134 97 -232.5 t233 -98.5q137 0 234 98t97 233q0 139 -97 238.5t-234 99.5q-136 0 -233 -100t-97 -238zM825 1085q0 -152 -109.5 -258t-266.5 -106q-156 0 -266.5 106t-110.5 258q0 156 110.5 264.5t266.5 108.5q157 0 266.5 -108.5t109.5 -264.5z" />
<glyph unicode="&#xaf;" horiz-adv-x="716" d="M72 1290h573v-102h-573v102z" />
<glyph unicode="&#xb0;" horiz-adv-x="716" d="M182 1147q0 -93 52.5 -145t123.5 -52q72 0 124.5 52t52.5 145q0 92 -53 144t-124 52t-123.5 -52t-52.5 -144zM645 1147q0 -123 -82 -205t-205 -82t-204.5 82t-81.5 205q0 125 82.5 216t203.5 91t204 -91t83 -216z" />
<glyph unicode="&#xb1;" horiz-adv-x="808" d="M72 213h665v-88h-665v88zM348 963h111v-250h272v-90h-272v-271h-111v271h-272v90h272v250z" />
<glyph unicode="&#xb2;" horiz-adv-x="792" d="M137 1585l-16 8q107 142 231 142q79 0 141 -56t62 -133q0 -43 -23 -91.5t-54.5 -89t-81.5 -88t-86 -77t-85 -67.5h387l74 116l33 -22l-72 -170q-11 1 -101 0.5t-106 -0.5q-11 0 -163 0.5t-164 -0.5l-37 35q41 26 102 71q67 50 119 99q137 130 137 239q0 60 -34.5 109 t-92.5 49q-57 0 -95 -16.5t-75 -57.5z" />
<glyph unicode="&#xb3;" horiz-adv-x="739" d="M233 1274l-12 35q36 15 64 28.5t62.5 36t57 47t38.5 58t16 71.5q0 64 -43.5 107t-108.5 43q-31 0 -75 -15.5t-52 -42.5q41 -4 59.5 -21.5t18.5 -39.5q0 -25 -24 -40t-54 -15q-21 0 -38 17t-17 38q0 76 68 122t147 46q58 0 108.5 -16t86.5 -55.5t36 -96.5q0 -68 -37 -127 t-100 -72l2 -14q84 3 158 -70.5t74 -158.5q0 -148 -103.5 -236t-257.5 -88q-74 0 -154.5 47t-80.5 113q0 26 22.5 47.5t50.5 21.5t51 -22t23 -49q0 -38 -41 -62q9 -23 52.5 -44t76.5 -21q111 0 179.5 76t68.5 186q0 93 -51 145t-148 52q-15 0 -31.5 -4.5t-36 -11t-30.5 -9.5 q-12 -6 -25 -6z" />
<glyph unicode="&#xb4;" horiz-adv-x="464" d="M94 1044l178 293q24 39 54.5 49t52.5 -8q62 -46 -21 -123l-237 -211h-27z" />
<glyph unicode="&#xb6;" horiz-adv-x="1085" d="M571 674v649q-409 -18 -409 -315q0 -74 22.5 -131t59 -92.5t91.5 -59.5t110.5 -35t125.5 -16zM717 70v1255h-78v-1262zM571 621h-69q-107 0 -204.5 46.5t-161.5 137t-64 203.5q0 104 59.5 188.5t152.5 130t197 45.5q271 0 318 2q19 1 78.5 7t136.5 12v-50l-146 -20v-1253 l146 -21v-49q-38 2 -91 11t-110 9q-40 0 -410 -20v47l168 12v562z" />
<glyph unicode="&#xb7;" horiz-adv-x="442" d="M371 629q0 -55 -47.5 -102.5t-102.5 -47.5q-54 0 -101.5 47.5t-47.5 102.5q0 54 47.5 101.5t101.5 47.5q55 0 102.5 -47.5t47.5 -101.5z" />
<glyph unicode="&#xb8;" d="M160 -197l76 193l55 -4l-47 -148q58 29 75 29q63 0 112.5 -41t49.5 -100q0 -56 -35.5 -94t-84.5 -53t-105 -15q-123 0 -182 18l16 50q45 -19 143 -19q115 0 115 92q0 51 -20.5 71.5t-71.5 20.5h-96z" />
<glyph unicode="&#xb9;" d="M72 1722h409v-47h-149v-581l149 2v-49h-409v49l149 -2v581h-149v47z" />
<glyph unicode="&#xba;" horiz-adv-x="696" d="M182 1167q0 -125 38 -192.5t138 -67.5q49 0 81 19t48 57t21.5 79.5t5.5 102.5q0 36 -1 56.5t-5.5 53.5t-16 52.5t-30 40t-50 30t-73.5 9.5q-39 0 -68 -14t-45.5 -36t-26.5 -55t-13 -64.5t-3 -70.5zM625 1165q0 -145 -79 -214.5t-208 -69.5q-121 0 -193.5 69t-72.5 217 q0 111 73.5 189t192.5 78q137 0 212 -71t75 -198z" />
<glyph unicode="&#xbb;" horiz-adv-x="839" d="M608 594q160 -153 160 -164t-160 -164q-43 -42 -110.5 -106t-79.5 -76q-1 1 -8 5.5t-11 8t-8.5 8.5t-5.5 9q5 9 41 57q28 40 70 96q98 136 98 162t-98 162q-42 56 -70 96q-36 48 -41 57q1 4 5.5 9t8.5 8.5t11 8t8 5.5q12 -12 79.5 -76t110.5 -106zM295 594 q160 -153 160 -164t-160 -164q-46 -45 -114.5 -109.5t-78.5 -74.5q-10 1 -19 11.5t-11 21.5q5 9 41 57q38 55 69 96q99 137 99 162t-99 162q-31 41 -69 96q-36 48 -41 57q2 11 11 21.5t19 11.5q10 -10 78.5 -74.5t114.5 -109.5z" />
<glyph unicode="&#xbc;" horiz-adv-x="1525" d="M1135 80v418l-324 -418h324zM1223 666h20v-586h211v-78h-211v-360h-108v360h-381l-39 39zM1130 1434h87l-922 -1473h-129zM72 1436h399v-47h-145v-572h145v-49h-399v49h145v572h-145v47z" />
<glyph unicode="&#xbd;" horiz-adv-x="1562" d="M915 524l-16 6q50 67 104 103.5t123 36.5q79 0 140 -55t61 -130q0 -43 -23 -91.5t-54 -88.5t-80.5 -86.5t-84.5 -76t-84 -66.5h381l72 117l35 -25l-70 -168h-205h-323l-37 37q43 29 70 48t75 55t79.5 68t64 71t49 80t16.5 81q0 58 -35 107t-94 49q-55 0 -91.5 -16.5 t-72.5 -55.5zM1130 1434h87l-922 -1475h-129zM72 1436h399v-47h-145v-574h145v-47h-399v47h145v574h-145v47z" />
<glyph unicode="&#xbe;" horiz-adv-x="1746" d="M1358 80v418l-324 -418h324zM1444 666h20v-586h211v-78h-211v-360h-106v360h-381l-39 39zM1352 1434h86l-920 -1473h-129zM231 1012l-12 35q46 19 79.5 37t72.5 47.5t60.5 69t21.5 85.5q0 63 -42.5 105.5t-105.5 42.5q-31 0 -74.5 -15.5t-50.5 -42.5q39 -3 57.5 -20.5 t18.5 -38.5q0 -25 -24 -40t-54 -15q-20 0 -37.5 17.5t-17.5 37.5q0 74 68 120t145 46q91 0 159 -42t68 -124q0 -68 -37 -127t-98 -70l2 -14q84 3 156.5 -70.5t72.5 -158.5q0 -147 -101.5 -234.5t-252.5 -87.5q-45 0 -98 19.5t-94 58t-41 82.5q0 26 22 46.5t51 20.5 q27 0 49.5 -21t22.5 -48q0 -37 -39 -62q9 -23 51.5 -43t75.5 -20q108 0 175 74.5t67 183.5q0 93 -49.5 143.5t-145.5 50.5q-12 0 -26 -2.5t-23 -5.5t-25 -8.5t-22 -7.5q-16 -4 -25 -4z" />
<glyph unicode="&#xbf;" horiz-adv-x="698" d="M463 743v179q0 4 7.5 8.5t18.5 3.5q31 -4 31 -49v-281q-34 -3 -71 -10.5t-85.5 -23t-90 -42t-76.5 -62t-52.5 -89t-11.5 -117.5q3 -42 24.5 -76.5t52 -54.5t65.5 -30t68 -6.5t56 18.5q7 6 18 13.5t13 8.5q7 5 21 10q14 7 57 7q18 0 29.5 -0.5t30.5 -6t30 -15t20 -29 t9 -46.5q0 -37 -38 -56.5t-81 -19.5q-83 0 -153 14.5t-133 47t-102 94.5t-46 148q-22 258 153 374q60 39 152 56q34 5 57 12q27 6 27 20zM584 1294q0 -41 -38 -78.5t-81 -37.5t-81 36.5t-38 79.5t38 80t81 37q44 0 81.5 -37t37.5 -80z" />
<glyph unicode="&#xc0;" horiz-adv-x="1449" d="M881 592l-236 622l-217 -622h453zM649 1430h84l508 -1297q59 -104 178 -106v-27h-522v27q86 2 131.5 31t26.5 79l-146 389h-506l-137 -389q-22 -64 11 -86t124 -24v-27h-370v27q56 2 87 24.5t52 81.5zM836 1520l-230 204q-25 22 -34 47t-3.5 43t19.5 29q20 17 50 4.5 t52 -47.5l170 -280h-24z" />
<glyph unicode="&#xc1;" horiz-adv-x="1449" d="M881 592l-236 622l-217 -622h453zM649 1430h84l508 -1297q59 -104 178 -106v-27h-522v27q86 2 131.5 31t26.5 79l-146 389h-506l-137 -389q-22 -64 11 -86t124 -24v-27h-370v27q56 2 87 24.5t52 81.5zM836 1520l-230 204q-25 22 -34 47t-3.5 43t19.5 29q20 17 50 4.5 t52 -47.5l170 -280h-24z" />
<glyph unicode="&#xc2;" horiz-adv-x="1449" d="M881 592l-236 622l-217 -622h453zM649 1430h84l508 -1297q59 -104 178 -106v-27h-522v27q86 2 131.5 31t26.5 79l-146 389h-506l-137 -389q-22 -64 11 -86t124 -24v-27h-370v27q56 2 87 24.5t52 81.5zM502 1520l172 303q11 22 24 35q18 18 52 18q33 0 45 -12q7 -7 12 -17 q11 -17 14 -24l172 -303h-24l-221 215l-220 -215h-26z" />
<glyph unicode="&#xc3;" horiz-adv-x="1449" d="M881 592l-236 622l-217 -622h453zM649 1430h84l508 -1297q59 -104 178 -106v-27h-522v27q86 2 131.5 31t26.5 79l-146 389h-506l-137 -389q-22 -64 11 -86t124 -24v-27h-370v27q56 2 87 24.5t52 81.5zM616 1794l207 -82q37 -15 66.5 -16t50.5 8.5t39 31.5t31 48.5 t26 64.5l31 -30q0 -114 -60.5 -179.5t-136.5 -37.5l-227 81q-27 10 -50 11t-41 -8t-32 -21t-27 -34t-22 -41t-20 -48l-52 17q1 66 30.5 128.5t80.5 95t106 11.5z" />
<glyph unicode="&#xc4;" horiz-adv-x="1449" d="M881 592l-236 625l-217 -625h453zM649 1432h84l508 -1299q59 -104 178 -106v-27h-522v27q86 2 131.5 31t26.5 79l-146 389h-506l-137 -389q-22 -64 11 -86t124 -24v-27h-370v27q56 2 87 24.5t52 81.5zM1006 1575q0 -38 -29.5 -67t-67.5 -29q-37 0 -66.5 29.5t-29.5 66.5 q0 35 30.5 65.5t65.5 30.5q37 0 67 -29.5t30 -66.5zM653 1575q0 -38 -29 -67t-67 -29q-37 0 -66.5 29.5t-29.5 66.5q0 35 30.5 65.5t65.5 30.5q37 0 66.5 -29.5t29.5 -66.5z" />
<glyph unicode="&#xc5;" horiz-adv-x="1449" d="M881 592l-236 622l-217 -622h453zM649 1430h84l508 -1297q59 -104 178 -106v-27h-522v27q86 2 131.5 31t26.5 79l-146 389h-506l-137 -389q-22 -64 11 -86t124 -24v-27h-370v27q56 2 87 24.5t52 81.5zM623 1739q0 -123 110 -123q111 0 111 123t-111 123q-110 0 -110 -123 zM911 1739q0 -75 -51.5 -126.5t-126.5 -51.5t-126.5 51.5t-51.5 126.5q0 74 51.5 126t126.5 52t126.5 -52t51.5 -126z" />
<glyph unicode="&#xc6;" horiz-adv-x="1906" d="M1012 756v559h-88l-267 -559h355zM606 1364h1141l16 -309h-45q-1 66 -20 114.5t-49 77t-77 45t-94 22t-110 5.5h-190v-563q33 0 87.5 -1t77.5 -1q85 0 132 12q60 14 91 55t31 119h45q-39 -153 -39 -218t39 -237h-45q-1 90 -31.5 136.5t-90.5 62.5q-49 10 -132 10 q-98 -4 -165 -4v-536q0 -44 33 -76.5t96 -32.5q115 0 168 4q79 3 143 27q138 53 180 235h47l-59 -311h-957v27q42 0 63.5 1t46 5t35.5 11.5t21.5 22t13.5 35.5t3 52v536h-379l-240 -532q-13 -22 -13 -42.5t15.5 -39t55 -32t100.5 -17.5v-27h-531v27h74q52 4 80 10 q84 23 129 115l485 1013q15 32 17.5 56.5t-8 41t-27 27.5t-44 17t-55.5 8.5t-65 3.5v45z" />
<glyph unicode="&#xc7;" horiz-adv-x="1355" d="M573 -203l78 197q-261 44 -411 233t-150 478q0 153 59 282.5t157.5 215t225.5 133.5t263 48q115 0 228.5 -31t192 -91t78.5 -132q0 -35 -26 -64.5t-78 -29.5q-53 0 -80 36.5t-25.5 85.5t23.5 95q-115 86 -313 86q-114 0 -208.5 -47.5t-157 -130.5t-96.5 -195t-34 -241 q0 -100 20 -193.5t63.5 -178t107 -147t158 -99.5t208.5 -37q127 0 214.5 49.5t170.5 148.5l31 -28q-75 -120 -201.5 -188t-275.5 -68q-28 0 -90 4l-50 -150q54 27 74 27q62 0 111 -40t49 -97q0 -55 -35 -92t-82.5 -51.5t-103.5 -14.5q-120 0 -179 18l17 47q43 -18 141 -18 q111 0 111 90q0 49 -20 69.5t-70 20.5h-95z" />
<glyph unicode="&#xc8;" horiz-adv-x="1155" d="M1075 309h47l-59 -309h-963v27q185 0 185 108v1092q0 33 -22.5 56t-58.5 33t-59 14t-45 5v25h924l18 -307h-47q-1 81 -28.5 135t-79 80.5t-108.5 36.5t-136 10h-190v-561q36 0 94 -1t80 -1q82 3 129 16q116 31 116 170h48q-39 -151 -39 -216.5t39 -236.5h-48 q-1 85 -30 130t-86 63q-49 14 -129 14q-22 0 -79 -2t-95 -2v-561q14 -82 129 -82t166 4q81 3 145 27q140 54 182 233zM657 1417l-227 201q-25 22 -34 46.5t-3.5 42t19.5 28.5q20 16 49.5 4t50.5 -47l168 -275h-23z" />
<glyph unicode="&#xc9;" horiz-adv-x="1155" d="M1075 309h47l-59 -309h-963v27q185 0 185 108v1092q0 33 -22.5 56t-58.5 33t-59 14t-45 5v25h924l18 -307h-47q-1 81 -28.5 135t-79 80.5t-108.5 36.5t-136 10h-190v-561q36 0 94 -1t80 -1q82 3 129 16q116 31 116 170h48q-39 -151 -39 -216.5t39 -236.5h-48 q-1 85 -30 130t-86 63q-49 14 -129 14q-22 0 -79 -2t-95 -2v-561q14 -82 129 -82t166 4q81 3 145 27q140 54 182 233zM524 1417l168 275q22 38 51 49t50 -6q23 -17 26.5 -36t-8 -38t-37.5 -43l-225 -201h-25z" />
<glyph unicode="&#xca;" horiz-adv-x="1155" d="M1075 309h47l-59 -309h-963v27q185 0 185 108v1092q0 33 -22.5 56t-58.5 33t-59 14t-45 5v25h924l18 -307h-47q-1 81 -28.5 135t-79 80.5t-108.5 36.5t-136 10h-190v-561q36 0 94 -1t80 -1q82 3 129 16q116 31 116 170h48q-39 -151 -39 -216.5t39 -236.5h-48 q-1 85 -30 130t-86 63q-49 14 -129 14q-22 0 -79 -2t-95 -2v-561q14 -82 129 -82t166 4q81 3 145 27q140 54 182 233zM283 1477l225 235q2 3 7 9.5t7 9.5q7 11 15 16q14 18 47 18q27 0 39 -12q2 -4 6 -8q2 -4 8 -10q10 -15 18 -23l226 -235h-64l-235 149l-236 -149h-63z" />
<glyph unicode="&#xcb;" horiz-adv-x="1155" d="M1075 309h47l-59 -309h-963v27q185 0 185 108v1094q0 33 -22.5 56t-58.5 33t-59 14t-45 5v25h924l18 -309h-47q-1 66 -20.5 114.5t-50 77t-77.5 45t-94 22t-110 5.5h-190v-563h174q77 0 129 14q116 31 116 170h48q-39 -151 -39 -216.5t39 -236.5h-48q-1 85 -30 130 t-86 63q-49 14 -129 14q-22 0 -79 -2t-95 -2v-561q14 -82 129 -82t166 4q81 3 145 27q140 54 182 233zM868 1571q0 -37 -28 -65.5t-66 -28.5q-35 0 -64.5 29.5t-29.5 64.5t30 64.5t64 29.5q38 0 66 -28.5t28 -65.5zM524 1571q0 -37 -28.5 -65.5t-65.5 -28.5q-38 0 -66 29 t-28 65t29 65t65 29t65 -29t29 -65z" />
<glyph unicode="&#xcc;" horiz-adv-x="743" d="M100 1360h543v-25q-22 -1 -45 -5t-59.5 -14t-59 -33t-22.5 -56v-1092q0 -75 71 -96q33 -10 64 -10q18 -2 51 -2v-27h-543v27q185 -5 185 108v1092q0 33 -22.5 56t-58.5 33t-59 14t-45 5v25zM475 1520l-233 204q-26 22 -35 47t-4 43t18 29q22 17 52.5 4.5t52.5 -47.5 l174 -280h-25z" />
<glyph unicode="&#xcd;" horiz-adv-x="743" d="M100 1360h543v-25q-22 -1 -45 -5t-59.5 -14t-59 -33t-22.5 -56v-1092q0 -75 71 -96q33 -10 64 -10q18 -2 51 -2v-27h-543v27q185 -5 185 108v1092q0 33 -22.5 56t-58.5 33t-59 14t-45 5v25zM233 1520l175 280q24 38 54 49t52 -6q64 -48 -20 -119l-234 -204h-27z" />
<glyph unicode="&#xce;" horiz-adv-x="743" d="M100 1360h543v-25q-22 -1 -45 -5t-59.5 -14t-59 -33t-22.5 -56v-1092q0 -75 71 -96q33 -10 64 -10q18 -2 51 -2v-27h-543v27q185 -5 185 108v1092q0 33 -22.5 56t-58.5 33t-59 14t-45 5v25zM135 1520l174 303q19 28 27 35q18 18 51 18t45 -12q5 -5 14 -17q6 -9 15 -24 l174 -303h-27l-223 215l-223 -215h-27z" />
<glyph unicode="&#xcf;" horiz-adv-x="743" d="M100 1360h543v-25q-22 -1 -45 -5t-59.5 -14t-59 -33t-22.5 -56v-1092q0 -75 71 -96q33 -10 64 -10q16 -2 51 -2v-27h-543v27q185 -5 185 108v1092q0 33 -22.5 56t-58.5 33t-59 14t-45 5v25zM655 1718q0 -42 -29.5 -73t-74.5 -31q-42 0 -74.5 32t-32.5 72q0 45 31 75 t76 30t74.5 -29t29.5 -76zM299 1718q0 -42 -30 -73t-74 -31q-43 0 -75 32t-32 72q0 45 31 75t76 30t74.5 -29t29.5 -76z" />
<glyph unicode="&#xd1;" horiz-adv-x="1595" d="M1065 1360h471v-25q-79 -6 -119 -19.5t-51.5 -33t-11.5 -55.5v-1247h-72l-942 1146v-991q0 -72 104 -96q26 -6 82 -10q23 -2 56 -2v-27h-512v27q184 -6 184 108v1092q0 27 -14.5 47t-33.5 31t-45 18t-41 9t-30 3v25h262l916 -1063v930q0 26 -11 44.5t-26.5 29t-45.5 17.5 t-53.5 10t-66.5 7v25zM666 1794l206 -82q37 -15 66.5 -16t50.5 8.5t39 31.5t31 48.5t26 64.5l31 -30q-1 -114 -61.5 -179.5t-134.5 -37.5l-228 81q-27 10 -50 11t-41 -8t-32 -21t-27 -34t-22 -41t-20 -48l-51 17q1 66 30.5 128.5t80.5 95t106 11.5z" />
<glyph unicode="&#xd2;" horiz-adv-x="1605" d="M299 760q0 -109 18.5 -211.5t60 -198t102.5 -167t152 -114t202 -42.5q90 0 168 35t133 93.5t94.5 135t58.5 161t19 169.5q0 112 -17.5 213.5t-56.5 194t-97.5 159.5t-146.5 107t-196 40q-141 0 -255 -79.5t-176.5 -211t-62.5 -284.5zM1516 680q0 -151 -56.5 -282.5 t-152 -222.5t-224 -143t-270.5 -52q-206 0 -369.5 84t-258.5 244.5t-95 371.5q0 201 98 362.5t262.5 249.5t362.5 88q153 0 281.5 -47t222.5 -134.5t146.5 -220.5t52.5 -298zM897 1520l-229 204q-25 22 -34 47t-4.5 43t17.5 29q22 17 52.5 4.5t52.5 -47.5l170 -280h-25z" />
<glyph unicode="&#xd3;" horiz-adv-x="1605" d="M299 760q0 -109 18.5 -211.5t60 -198t102.5 -167t152 -114t202 -42.5q90 0 168 35t133 93.5t94.5 135t58.5 161t19 169.5q0 112 -17.5 213.5t-56.5 194t-97.5 159.5t-146.5 107t-196 40q-141 0 -255 -79.5t-176.5 -211t-62.5 -284.5zM1516 680q0 -151 -56.5 -282.5 t-152 -222.5t-224 -143t-270.5 -52q-206 0 -369.5 84t-258.5 244.5t-95 371.5q0 201 98 362.5t262.5 249.5t362.5 88q153 0 281.5 -47t222.5 -134.5t146.5 -220.5t52.5 -298zM662 1520l169 280q24 38 53.5 49t51.5 -6q62 -49 -21 -119l-229 -204h-24z" />
<glyph unicode="&#xd4;" horiz-adv-x="1605" d="M299 760q0 -109 18.5 -211.5t60 -198t102.5 -167t152 -114t202 -42.5q90 0 168 35t133 93.5t94.5 135t58.5 161t19 169.5q0 112 -17.5 213.5t-56.5 194t-97.5 159.5t-146.5 107t-196 40q-141 0 -255 -79.5t-176.5 -211t-62.5 -284.5zM1516 680q0 -151 -56.5 -282.5 t-152 -222.5t-224 -143t-270.5 -52q-206 0 -369.5 84t-258.5 244.5t-95 371.5q0 200 98 361.5t263 250t362 88.5q153 0 281.5 -47t222.5 -134.5t146.5 -220.5t52.5 -298zM563 1520l172 303q10 20 25 35q18 18 51 18t45 -12q7 -7 12 -17q14 -20 15 -24l172 -303h-25l-221 215 l-219 -215h-27z" />
<glyph unicode="&#xd5;" horiz-adv-x="1605" d="M299 760q0 -109 18.5 -211.5t60 -198t102.5 -167t152 -114t202 -42.5q90 0 168 35t133 93.5t94.5 135t58.5 161t19 169.5q0 112 -17.5 213.5t-56.5 194t-97.5 159.5t-146.5 107t-196 40q-141 0 -255 -79.5t-176.5 -211t-62.5 -284.5zM1516 680q0 -151 -56.5 -282.5 t-152 -222.5t-224 -143t-270.5 -52q-206 0 -369.5 84t-258.5 244.5t-95 371.5q0 201 98 362.5t262.5 249.5t362.5 88q153 0 281.5 -47t222.5 -134.5t146.5 -220.5t52.5 -298zM678 1794l207 -82q37 -15 66.5 -16t50.5 8.5t39 31.5t31 48.5t26 64.5l30 -30 q-1 -114 -61.5 -179.5t-134.5 -37.5l-227 81q-27 10 -50 11t-41 -8t-32 -21t-27.5 -34t-22.5 -41.5t-20 -47.5l-51 17q1 66 30.5 128.5t80.5 95t106 11.5z" />
<glyph unicode="&#xd6;" horiz-adv-x="1605" d="M299 760q0 -109 18.5 -211.5t60 -198t102.5 -167t152 -114t202 -42.5q90 0 168 35t133 93.5t94.5 135t58.5 161t19 169.5q0 113 -17.5 214.5t-56.5 194t-97.5 159.5t-146 106.5t-196.5 39.5q-141 0 -255 -79.5t-176.5 -211t-62.5 -284.5zM1516 680q0 -151 -56.5 -282.5 t-152 -222.5t-224 -143t-270.5 -52q-206 0 -369.5 84t-258.5 244.5t-95 371.5q0 201 98 362.5t262.5 249.5t362.5 88q153 0 281.5 -47t222.5 -134.5t146.5 -220.5t52.5 -298zM1075 1718q0 -42 -29.5 -73t-72.5 -31q-42 0 -73.5 32t-31.5 72q0 45 30 75t75 30 q43 0 72.5 -29.5t29.5 -75.5zM723 1718q0 -42 -29.5 -73t-72.5 -31q-42 0 -73.5 32t-31.5 72q0 45 31 75t74 30q45 0 73.5 -29t28.5 -76z" />
<glyph unicode="&#xd7;" horiz-adv-x="1044" d="M522 545l355 354l81 -82l-362 -366l373 -355l-92 -94l-373 360l-357 -360l-88 88l369 361l-356 350l96 98z" />
<glyph unicode="&#xd8;" horiz-adv-x="1626" d="M1055 1262l-437 -1184q98 -49 216 -49q90 0 168 35t133 93.5t94.5 135t58.5 161t19 169.5q0 208 -61.5 377.5t-190.5 261.5zM543 125l405 1190q-80 22 -155 22q-141 0 -255 -79.5t-176.5 -211t-62.5 -284.5q0 -193 60 -363.5t184 -273.5zM1128 1464l-45 -123 q202 -71 317.5 -241t115.5 -418q0 -152 -56.5 -284t-152 -223t-224 -143t-270.5 -52q-118 0 -219 28l-49 -129h-86l53 156q-196 78 -309 246t-113 401q0 201 98 363t263 250.5t362 88.5q79 0 156 -14l30 94h129z" />
<glyph unicode="&#xd9;" horiz-adv-x="1583" d="M1065 1360h469v-25q-29 -1 -60 -6.5t-64.5 -17t-55 -33.5t-21.5 -51v-645q0 -143 -47 -259.5t-125.5 -189t-176 -111.5t-202.5 -40q-105 -2 -201.5 35.5t-175 109t-125.5 189t-47 264.5v647q0 30 -19 52.5t-49.5 33.5t-58.5 16t-55 6v25h533v-25q-27 -1 -55 -6t-58.5 -16 t-50 -33.5t-19.5 -52.5v-668q0 -122 36 -220.5t96 -158t134.5 -90t155.5 -27.5q82 2 156.5 38t135 101t96.5 168t36 230v627q0 40 -31 65.5t-68 33.5t-83 9v25zM874 1520l-229 204q-25 22 -34 47t-4 43t18 29q22 17 52 4.5t52 -47.5l170 -280h-25z" />
<glyph unicode="&#xda;" horiz-adv-x="1583" d="M1065 1360h469v-25q-29 -1 -60 -6.5t-64.5 -17t-55 -33.5t-21.5 -51v-645q0 -143 -47 -259.5t-125.5 -189t-176 -111.5t-202.5 -40q-105 -2 -201.5 35.5t-175 109t-125.5 189t-47 264.5v647q0 30 -19 52.5t-49.5 33.5t-58.5 16t-55 6v25h533v-25q-27 -1 -55 -6t-58.5 -16 t-50 -33.5t-19.5 -52.5v-668q0 -122 36 -220.5t96 -158t134.5 -90t155.5 -27.5q82 2 156.5 38t135 101t96.5 168t36 230v627q0 40 -31 65.5t-68 33.5t-83 9v25zM637 1520l172 280q24 38 52.5 49t49.5 -6q65 -49 -18 -119l-229 -204h-27z" />
<glyph unicode="&#xdb;" horiz-adv-x="1583" d="M1065 1360h469v-25q-29 -1 -60 -6.5t-64.5 -17t-55 -33.5t-21.5 -51v-645q0 -143 -47 -259.5t-125.5 -189t-176 -111.5t-202.5 -40q-105 -2 -201.5 35.5t-175 109t-125.5 189t-47 264.5v647q0 30 -19 52.5t-49.5 33.5t-58.5 16t-55 6v25h533v-25q-27 -1 -55 -6t-58.5 -16 t-50 -33.5t-19.5 -52.5v-668q0 -122 36 -220.5t96 -158t134.5 -90t155.5 -27.5q82 2 156.5 38t135 101t96.5 168t36 230v627q0 40 -31 65.5t-68 33.5t-83 9v25zM541 1520l172 303q11 22 24 35q18 18 51 18q31 0 46 -12q7 -7 12 -17q2 -3 6.5 -11.5t7.5 -12.5l172 -303h-26 l-220 215l-219 -215h-26z" />
<glyph unicode="&#xdc;" horiz-adv-x="1583" d="M1065 1360h469v-25q-29 -1 -60 -6.5t-64.5 -17t-55 -33.5t-21.5 -51v-645q0 -143 -47 -259.5t-125.5 -189t-176 -111.5t-202.5 -40q-105 -2 -201.5 35.5t-175 109t-125.5 189t-47 264.5v647q0 30 -19 52.5t-49.5 33.5t-58.5 16t-55 6v25h533v-25q-27 -1 -55 -6t-58.5 -16 t-50 -33.5t-19.5 -52.5v-668q0 -122 36 -220.5t96 -158t134.5 -90t155.5 -27.5q82 2 156.5 38t135 101t96.5 168t36 230v627q0 31 -17 53t-45.5 33.5t-58 16.5t-61.5 5v25zM1053 1718q0 -42 -30 -73t-73 -31t-73.5 31.5t-30.5 72.5q0 46 30 75.5t74 29.5t73.5 -29.5 t29.5 -75.5zM700 1718q0 -42 -29.5 -73t-72.5 -31q-42 0 -73 32t-31 72q0 45 30.5 75t73.5 30q44 0 73 -29.5t29 -75.5z" />
<glyph unicode="&#xdd;" horiz-adv-x="1425" d="M1004 1360h370v-25q-87 -7 -126.5 -30t-73.5 -74l-367 -529v-567q0 -36 18.5 -59.5t53 -33t63 -12.5t68.5 -3v-27h-574v27q203 -15 203 108v527l-387 569q-69 104 -201 104v25h494v-25q-84 -9 -101 -36t19 -76l309 -455l311 455q28 30 34.5 51.5t-8.5 34t-40 18.5t-65 8 v25zM557 1520l172 280q24 38 53.5 49t51.5 -6q62 -49 -21 -119l-229 -204h-27z" />
<glyph unicode="&#xdf;" horiz-adv-x="1064" d="M197 879v45q0 24 2.5 55t11.5 82.5t24.5 99t45 99t69 88.5t100 61.5t134.5 24.5q145 0 236 -67.5t91 -195.5q0 -48 -12 -87t-36 -68t-47 -47.5t-58 -40.5q-25 -15 -58 -37q-36 -24 -51 -39q-51 -48 -51 -115q0 -63 61 -114q26 -23 62 -45q24 -17 67 -43q43 -27 70 -47 t56.5 -49t44 -63t14.5 -73q0 -138 -94 -230.5t-232 -92.5q-40 0 -84 11t-80.5 39t-36.5 66q0 22 16.5 39t39.5 17q26 0 45.5 -9.5t28.5 -20.5t22 -30q16 -29 33 -43q22 -22 57 -22q77 0 125.5 50.5t48.5 123.5q0 60 -63 116q-36 29 -66 48q-14 9 -71 45q-44 26 -73.5 47.5 t-60 51.5t-46 66.5t-15.5 79.5q0 38 10 70.5t23 53.5t38 44t42.5 35t50.5 33q82 50 114 88q56 63 56 151q0 120 -55.5 188t-161.5 68q-41 0 -74.5 -9.5t-57.5 -29t-41.5 -42t-29 -56.5t-18.5 -64t-10 -72t-4 -73t-1 -75v-965h-256v27q14 1 28 4t33.5 9.5t31.5 21t12 34.5 v625q0 96 -105 96v29z" />
<glyph unicode="&#xe0;" horiz-adv-x="958" d="M616 203v250q-63 -16 -98 -26t-85.5 -27t-78.5 -34t-56.5 -41t-41 -54t-12.5 -66q0 -62 36.5 -105t110.5 -43q33 0 68 14.5t62 35t49 42t34 36.5t12 18zM614 500v137q0 233 -180 233q-71 0 -129.5 -33.5t-58.5 -84.5q0 -11 8 -23t12 -16q19 -15 19 -45q0 -31 -24 -52.5 t-56 -21.5q-38 0 -67 29t-29 67q0 45 47 99.5t130.5 95.5t172.5 41q165 0 238 -71.5t73 -242.5v-432q0 -58 19.5 -90.5t52.5 -32.5q27 0 59 29l25 -31q-73 -73 -158 -73q-65 0 -106 45t-41 133q-59 -88 -137 -136.5t-156 -48.5q-62 0 -110 20t-74 51t-39 64.5t-13 65.5 q0 28 5 52.5t18 45.5t26.5 38.5t39 34.5t47 30t59.5 27t67 24t79 24t85.5 23.5t95.5 24.5zM588 1055l-232 205q-25 23 -34 48t-3.5 43t19.5 29q20 17 50 4.5t52 -47.5l174 -282h-26z" />
<glyph unicode="&#xe1;" horiz-adv-x="958" d="M616 203v250q-63 -16 -98 -26t-85.5 -27t-78.5 -34t-56.5 -41t-41 -54t-12.5 -66q0 -62 36.5 -105t110.5 -43q33 0 68 14.5t62 35t49 42t34 36.5t12 18zM614 500v137q0 233 -180 233q-71 0 -129.5 -33.5t-58.5 -84.5q0 -11 8 -23t12 -16q19 -15 19 -45q0 -31 -24 -52.5 t-56 -21.5q-38 0 -67 29t-29 67q0 45 47 99.5t130.5 95.5t172.5 41q165 0 238 -71.5t73 -242.5v-432q0 -58 19.5 -90.5t52.5 -32.5q27 0 59 29l25 -31q-73 -73 -158 -73q-65 0 -106 45t-41 133q-59 -88 -137 -136.5t-156 -48.5q-62 0 -110 20t-74 51t-39 64.5t-13 65.5 q0 28 5 52.5t18 45.5t26.5 38.5t39 34.5t47 30t59.5 27t67 24t79 24t85.5 23.5t95.5 24.5zM350 1055l172 282q24 38 54 49t51 -6q62 -46 -21 -120l-229 -205h-27z" />
<glyph unicode="&#xe2;" horiz-adv-x="958" d="M616 203v250q-63 -16 -98 -26t-85.5 -27t-78.5 -34t-56.5 -41t-41 -54t-12.5 -66q0 -62 36.5 -105t110.5 -43q33 0 68 14.5t62 35t49 42t34 36.5t12 18zM614 500v137q0 233 -180 233q-71 0 -129.5 -33.5t-58.5 -84.5q0 -9 8 -25q2 -2 6 -7t6 -7q19 -15 19 -45 q0 -31 -24 -52.5t-56 -21.5q-38 0 -67 29t-29 67q0 45 47 99.5t130.5 95.5t172.5 41q165 0 238 -71.5t73 -242.5v-434q0 -56 19.5 -88.5t52.5 -32.5q27 0 59 29l25 -31q-73 -73 -158 -73q-65 0 -106 45t-41 133q-59 -88 -137 -136.5t-156 -48.5q-62 0 -110 20t-74 51 t-39 64.5t-13 65.5q0 28 5 52.5t18 45.5t26.5 38.5t39 34.5t47 30t59.5 27t67 24t79 24t85.5 23.5t95.5 24.5zM252 1055l172 305q19 28 27 35q18 18 51 18t45 -12q7 -7 12 -17q8 -12 14 -24l175 -305h-27l-221 217l-221 -217h-27z" />
<glyph unicode="&#xe3;" horiz-adv-x="958" d="M616 203v250q-63 -16 -98 -26t-85.5 -27t-78.5 -34t-56.5 -41t-41 -54t-12.5 -66q0 -62 36.5 -105t110.5 -43q33 0 68 14.5t62 35t49 42t34 36.5t12 18zM614 500v137q0 233 -180 233q-71 0 -129.5 -33.5t-58.5 -84.5q0 -9 8 -25q2 -2 6 -7t6 -7q19 -15 19 -45 q0 -31 -24 -52.5t-56 -21.5q-38 0 -67 29t-29 67q0 45 47 99.5t130.5 95.5t172.5 41q165 0 238 -71.5t73 -242.5v-432q0 -58 19.5 -90.5t52.5 -32.5q27 0 59 29l25 -31q-73 -73 -158 -73q-65 0 -106 45t-41 133q-59 -88 -137 -136.5t-156 -48.5q-62 0 -110 20t-74 51 t-39 64.5t-13 65.5q0 28 5 52.5t18 45.5t26.5 38.5t39 34.5t47 30t59.5 27t67 24t79 24t85.5 23.5t95.5 24.5zM369 1331l206 -82q37 -15 67 -16t52 8.5t40 31.5t31 48.5t26 64.5l30 -30q0 -115 -61 -180t-137 -37l-230 82q-27 9 -50 10t-41 -8t-32 -21.5t-27.5 -34.5 t-22.5 -41.5t-21 -48.5l-52 19q2 66 32 128.5t82 95t108 11.5z" />
<glyph unicode="&#xe4;" horiz-adv-x="958" d="M616 203v250q-63 -16 -98 -26t-85.5 -27t-78.5 -34t-56.5 -41t-41 -54t-12.5 -66q0 -62 36.5 -105t110.5 -43q33 0 68 14.5t62 35t49 42t34 36.5t12 18zM614 500v137q0 235 -180 235q-70 0 -129 -34.5t-59 -85.5q0 -11 8 -23q2 -3 6 -8t6 -8q19 -15 19 -45 q0 -31 -24 -52.5t-56 -21.5q-38 0 -67 29t-29 67q0 45 47 99.5t130.5 95.5t172.5 41q165 0 238 -71.5t73 -242.5v-432q0 -58 19.5 -90.5t52.5 -32.5q27 0 59 29l25 -31q-73 -73 -158 -73q-65 0 -106 45t-41 133q-59 -88 -137 -136.5t-156 -48.5q-62 0 -110 20t-74 51.5 t-39 65t-13 66.5q0 31 7.5 57.5t19 48t35.5 42t45.5 35.5t61 31.5t70 28t84.5 27t93 25.5t106 27zM768 1255q0 -43 -29.5 -73.5t-74.5 -30.5q-42 0 -73.5 32t-31.5 72q0 45 31 75t74 30q45 0 74.5 -29t29.5 -76zM414 1255q0 -43 -30 -73.5t-75 -30.5q-42 0 -73 32t-31 72 q0 45 30.5 75t73.5 30q45 0 75 -29t30 -76z" />
<glyph unicode="&#xe5;" horiz-adv-x="958" d="M616 203v250q-63 -16 -98 -26t-85.5 -27t-78.5 -34t-56.5 -41t-41 -54t-12.5 -66q0 -62 36.5 -105t110.5 -43q33 0 68 14.5t62 35t49 42t34 36.5t12 18zM614 500v137q0 233 -180 233q-71 0 -129.5 -33.5t-58.5 -84.5q0 -13 8 -25q2 -2 6 -7t6 -7q19 -15 19 -45 q0 -31 -24 -52.5t-56 -21.5q-38 0 -67 29t-29 67q0 72 109 153t241 81q165 0 238 -70.5t73 -241.5v-434q0 -56 19.5 -88.5t52.5 -32.5q27 0 59 29l25 -31q-73 -73 -158 -73q-65 0 -106 45t-41 133q-59 -88 -137 -136.5t-156 -48.5q-62 0 -110 20t-74 51t-39 64.5t-13 65.5 q0 28 5 52.5t18 45.5t26.5 38.5t39 34.5t47 30t59.5 27t67 24t79 24t85.5 23.5t95.5 24.5zM373 1276q0 -123 112 -123q111 0 111 123t-111 123q-57 0 -84.5 -32.5t-27.5 -90.5zM666 1276q0 -75 -53 -127.5t-128 -52.5t-127.5 52.5t-52.5 127.5q0 74 52.5 126t127.5 52 t128 -52t53 -126z" />
<glyph unicode="&#xe6;" horiz-adv-x="1402" d="M598 180v283q-170 -64 -259 -126.5t-89 -131.5q0 -57 38 -103.5t115 -46.5q40 0 84.5 15.5t77.5 45.5t33 64zM750 545l362 86q38 13 47 54.5t-10 80.5q-19 45 -61.5 76.5t-100.5 31.5q-87 0 -144.5 -51.5t-78.5 -124.5q-1 -11 -6.5 -73.5t-7.5 -79.5zM598 514v143 q0 89 -44.5 149t-129.5 60q-84 0 -130 -46.5t-46 -94.5q0 -16 12 -16t21.5 -10t9.5 -31q0 -27 -18.5 -50t-59.5 -22q-35 0 -58.5 23.5t-23.5 58.5q-1 37 27 80.5t72 80t106 61t123 24.5q92 0 153 -24.5t97 -88.5q58 52 134 81.5t144 29.5q87 0 141.5 -12.5t92.5 -46.5 t53.5 -91.5t15.5 -148.5l-536 -125q-1 -62 6.5 -119.5t28.5 -119.5t55 -107t92 -74t133 -29q106 0 227 121l33 -31q-85 -83 -151.5 -121t-149.5 -38q-135 0 -226.5 47t-156.5 143q-28 -60 -70.5 -101t-88 -58.5t-79.5 -24t-67 -6.5q-106 0 -166.5 55.5t-60.5 146.5 q0 119 170 207q66 37 155 70q57 19 160 55z" />
<glyph unicode="&#xe7;" horiz-adv-x="927" d="M377 -203l72 183q-159 18 -264 141.5t-105 322.5q0 95 29.5 180t85 152t144 107.5t198.5 44.5q74 2 134 -12t95 -35.5t58 -49.5t31.5 -50t8.5 -40q0 -28 -16.5 -42.5t-40.5 -14.5q-42 0 -54 33.5t13 73.5q-73 88 -186 88q-157 0 -250.5 -103.5t-93.5 -300.5 q0 -178 97.5 -284.5t233.5 -106.5q146 0 242 104l33 -32q-133 -165 -338 -179l-45 -139q58 29 76 29q61 0 109 -41t48 -98q0 -55 -34.5 -92t-82.5 -51.5t-104 -14.5q-119 0 -178 18l16 47q41 -18 142 -18q110 0 110 90q0 50 -19.5 70t-70.5 20h-94z" />
<glyph unicode="&#xe8;" horiz-adv-x="935" d="M248 606h405q49 0 49 70q0 83 -60.5 143t-139.5 60q-107 0 -172 -69t-82 -204zM819 190l25 -26q-72 -93 -167.5 -141t-193.5 -48q-96 0 -173.5 40.5t-126.5 108t-75 151.5t-26 176q1 91 28 175t77.5 151.5t133 108t185.5 40.5q160 0 250.5 -87t97.5 -255q0 -11 -7.5 -18 t-19.5 -7h-577q-17 -226 72.5 -353.5t244.5 -127.5q131 0 252 112zM578 1055l-232 205q-25 23 -33.5 48t-3 43t18.5 29q20 17 51 4.5t53 -47.5l172 -282h-26z" />
<glyph unicode="&#xe9;" horiz-adv-x="935" d="M248 606h405q49 0 49 70q0 83 -60.5 143t-139.5 60q-107 0 -172 -69t-82 -204zM819 190l25 -26q-72 -93 -167.5 -141t-193.5 -48q-96 0 -173.5 40.5t-126.5 108t-75 151.5t-26 176q1 91 28 175t77.5 151.5t133 108t185.5 40.5q160 0 250.5 -87t97.5 -255q0 -11 -7.5 -18 t-19.5 -7h-577q-17 -226 72.5 -353.5t244.5 -127.5q131 0 252 112zM340 1055l172 282q24 38 53.5 49t50.5 -6q64 -48 -18 -120l-231 -205h-27z" />
<glyph unicode="&#xea;" horiz-adv-x="935" d="M248 606h405q49 0 49 70q0 83 -60.5 143t-139.5 60q-107 0 -172 -69t-82 -204zM819 190l25 -26q-72 -93 -167.5 -141t-193.5 -48q-96 0 -173.5 40.5t-126.5 108t-75 151.5t-26 176q1 91 28 175t77.5 151.5t133 108t185.5 40.5q160 0 250.5 -87t97.5 -255q0 -11 -7.5 -18 t-19.5 -7h-577q-17 -227 73 -355t244 -128q129 0 252 114zM242 1055l174 305q13 26 24 35q18 18 52 18q33 0 45 -12q7 -7 12 -17q3 -3 8.5 -12t7.5 -12l172 -305h-24l-224 217l-221 -217h-26z" />
<glyph unicode="&#xeb;" horiz-adv-x="935" d="M248 606h405q49 0 49 70q0 85 -60.5 145t-139.5 60q-107 0 -172 -69.5t-82 -205.5zM819 190l25 -26q-72 -93 -167.5 -141t-193.5 -48q-96 0 -173.5 40.5t-126.5 108t-75 151.5t-26 176q1 92 28 175.5t77.5 151.5t133 108t185.5 40q160 0 250.5 -87t97.5 -255 q0 -10 -8 -17.5t-19 -7.5h-577q-17 -226 72.5 -353.5t244.5 -127.5q131 0 252 112zM758 1255q0 -43 -29.5 -73.5t-73.5 -30.5q-43 0 -74.5 31.5t-31.5 72.5q0 45 30.5 75t75.5 30q44 0 73.5 -29.5t29.5 -75.5zM403 1255q0 -43 -29.5 -73.5t-74.5 -30.5q-42 0 -73 32t-31 72 q0 45 30.5 75t73.5 30q45 0 74.5 -29t29.5 -76z" />
<glyph unicode="&#xec;" d="M354 903v-807q0 -60 107 -69v-27h-369v27q107 9 107 69v625q0 96 -107 96v29l230 72q26 4 30 0.5t2 -15.5zM367 1055l-236 205q-26 23 -35 48t-3.5 43t18.5 29q22 17 53 4.5t53 -47.5l176 -282h-26z" />
<glyph unicode="&#xed;" d="M354 903v-807q0 -60 107 -69v-27h-369v27q107 9 107 69v625q0 96 -107 96v29l230 72q26 4 30 0.5t2 -15.5zM123 1055l176 282q24 38 55 49t52 -6q65 -46 -19 -120l-237 -205h-27z" />
<glyph unicode="&#xee;" d="M354 903v-807q0 -20 12 -34.5t31.5 -21t33.5 -9.5t28 -4v-27h-365v27q14 1 28 4t33.5 9.5t31.5 21t12 34.5v625q0 96 -105 96v29l228 72q26 4 29 1t3 -16zM27 1055l174 305q20 30 26 35q18 18 52 18q33 0 45 -12q5 -5 14 -17q1 -2 6 -10.5t8 -13.5l174 -305h-26l-224 217 l-223 -217h-26z" />
<glyph unicode="&#xef;" d="M354 903v-807q0 -20 12 -34.5t31.5 -21t33.5 -9.5t28 -4v-27h-363v27q14 1 28 4t33.5 9.5t31.5 21t12 34.5v625q0 96 -105 96v29l226 72q26 4 30 0.5t2 -15.5zM530 1255q0 -43 -29.5 -73.5t-74.5 -30.5q-42 0 -74.5 32t-32.5 72q0 45 31 75t76 30t74.5 -29t29.5 -76z M174 1255q0 -43 -30 -73.5t-74 -30.5t-75.5 31.5t-31.5 72.5q0 45 31 75t76 30t74.5 -29t29.5 -76z" />
<glyph unicode="&#xf1;" horiz-adv-x="1146" d="M950 655v-559q0 -20 12 -34.5t31.5 -21t33.5 -9.5t28 -4v-27h-361v27q14 1 28 4t33.5 9.5t31.5 21t12 34.5v539q0 104 -48.5 152.5t-118.5 40t-148 -57t-136 -125.5v-549q0 -20 12 -34.5t31.5 -21t33.5 -9.5t28 -4v-27h-361v27q14 1 28 4t33.5 9.5t31.5 21t12 34.5v625 q0 96 -105 96v29l223 72q26 5 30.5 1t2.5 -16v-192q77 85 163 137t162.5 62.5t139.5 -11t100 -85t37 -159.5zM465 1331l207 -82q37 -15 67 -16t51.5 8.5t39.5 31.5t31 48.5t26 64.5l31 -30q-1 -116 -62 -180.5t-137 -36.5l-227 82q-27 9 -50 10t-41 -8t-32.5 -21.5 t-27.5 -34.5t-22.5 -41.5t-21.5 -48.5l-51 19q1 66 31 128.5t81.5 95t106.5 11.5z" />
<glyph unicode="&#xf2;" horiz-adv-x="1105" d="M254 489q0 -59 10 -119.5t34 -123t59.5 -110.5t91.5 -78.5t124 -30.5q75 0 131 32.5t87.5 88.5t46 121t14.5 139q0 83 -16.5 160.5t-51.5 148.5t-100 114t-152 43q-75 0 -131.5 -36t-87 -95t-45 -123t-14.5 -131zM1024 449q0 -199 -137 -334t-334 -135q-209 0 -340 128 t-131 341t131.5 344t339.5 131q207 0 339 -131.5t132 -343.5zM655 1055l-231 205q-25 23 -33.5 48t-3 43t18.5 29q20 17 51 4.5t53 -47.5l172 -282h-27z" />
<glyph unicode="&#xf3;" horiz-adv-x="1105" d="M254 489q0 -59 10 -119.5t34 -123t59.5 -110.5t91.5 -78.5t124 -30.5q75 0 131 32.5t87.5 88.5t46 121t14.5 139q0 83 -16.5 160.5t-51.5 148.5t-100 114t-152 43q-75 0 -131.5 -36t-87 -95t-45 -123t-14.5 -131zM1024 449q0 -199 -137 -334t-334 -135q-209 0 -340 128 t-131 341t131.5 344t339.5 131q207 0 339 -131.5t132 -343.5zM418 1055l172 282q24 38 53.5 49t50.5 -6q62 -46 -18 -120l-232 -205h-26z" />
<glyph unicode="&#xf4;" horiz-adv-x="1105" d="M254 489q0 -59 10 -119.5t34 -123t59.5 -110.5t91.5 -78.5t124 -30.5q75 0 131 32.5t87.5 88.5t46 121t14.5 139q0 83 -16.5 160.5t-51.5 148.5t-100 114t-152 43q-75 0 -131.5 -36t-87 -95t-45 -123t-14.5 -131zM1024 449q0 -199 -137 -334t-334 -135q-209 0 -340 128 t-131 341t131.5 344t339.5 131q207 0 339 -131.5t132 -343.5zM319 1055l175 305q11 22 24 35q18 18 51 18t45 -12q9 -9 13 -17q3 -3 8.5 -12t7.5 -12l172 -305h-27l-221 217l-221 -217h-27z" />
<glyph unicode="&#xf5;" horiz-adv-x="1105" d="M254 492q0 -59 10 -120t34 -124t59.5 -111.5t91.5 -79t124 -30.5q75 0 131 32.5t87.5 89t46 121.5t14.5 140q0 84 -16.5 162t-51.5 150t-100 115.5t-152 43.5q-75 0 -131.5 -36.5t-87 -96.5t-45 -124.5t-14.5 -131.5zM1024 451q0 -199 -137 -335t-334 -136 q-209 0 -340 129t-131 342q0 214 131.5 345.5t339.5 131.5q207 0 339 -131.5t132 -345.5z" />
<glyph unicode="&#xf6;" horiz-adv-x="1105" d="M254 489q0 -59 10 -119.5t34 -123t59.5 -110.5t91.5 -78.5t124 -30.5q75 0 131 32.5t87.5 88.5t46 121t14.5 139q0 83 -16.5 161t-51.5 149.5t-100 115t-152 43.5q-75 0 -131.5 -36.5t-87 -96t-45 -124t-14.5 -131.5zM1024 449q0 -199 -137 -334t-334 -135 q-209 0 -340 128t-131 341t131.5 344t339.5 131q207 0 339 -131.5t132 -343.5zM836 1255q0 -43 -30 -73.5t-75 -30.5q-42 0 -73 32t-31 72q0 45 30.5 75t73.5 30q45 0 75 -29t30 -76zM481 1255q0 -43 -29 -73.5t-73 -30.5q-43 0 -75 31.5t-32 72.5q0 45 31 75t76 30 q43 0 72.5 -29t29.5 -76z" />
<glyph unicode="&#xf7;" horiz-adv-x="931" d="M561 96q0 -43 -37 -79.5t-80 -36.5t-80.5 36.5t-37.5 79.5t37.5 81t80.5 38t80 -38t37 -81zM72 485h788v-108h-788v108zM561 784q0 -45 -37 -81.5t-80 -36.5t-80.5 36.5t-37.5 81.5q0 40 38 78.5t80 38.5t79.5 -38.5t37.5 -78.5z" />
<glyph unicode="&#xf8;" horiz-adv-x="1064" d="M778 731l-377 -639q75 -63 172 -63q75 0 131 32.5t87.5 88t46 121t14.5 139.5q0 184 -74 321zM348 154l371 655q-79 70 -187 70q-75 0 -131.5 -36.5t-87 -96t-45 -123.5t-14.5 -131q0 -191 94 -338zM926 983l-84 -143q87 -65 134.5 -164.5t47.5 -224.5q0 -199 -137 -334 t-334 -135q-105 0 -195 34l-69 -118h-88l88 153q-100 62 -153.5 164.5t-53.5 235.5q0 214 131.5 345.5t339.5 131.5q108 0 209 -43l55 98h109z" />
<glyph unicode="&#xf9;" horiz-adv-x="1103" d="M651 842l226 71q21 8 26.5 3.5t3.5 -17.5v-782q0 -64 105 -70v-27q-175 -11 -256 -38v149q-19 -13 -61 -47.5t-68 -50.5q-77 -53 -170 -53q-144 0 -213.5 88t-69.5 235v440q-14 70 -102 70v29l221 71q24 5 29.5 1t3.5 -15v-575q0 -46 8.5 -87.5t27 -81.5t54 -63.5 t84.5 -23.5q137 0 256 129v520q0 96 -105 96v29zM627 1055l-232 205q-25 23 -33.5 48t-3 43t18.5 29q20 17 51 4.5t53 -47.5l172 -282h-26z" />
<glyph unicode="&#xfa;" horiz-adv-x="1103" d="M651 842l226 71q21 8 26.5 3.5t3.5 -17.5v-782q0 -64 105 -70v-27q-175 -11 -256 -38v149q-19 -13 -61 -47.5t-68 -50.5q-77 -53 -170 -53q-144 0 -213.5 88t-69.5 235v440q-14 70 -102 70v29l221 71q24 5 29.5 1t3.5 -15v-575q0 -46 8.5 -87.5t27 -81.5t54 -63.5 t84.5 -23.5q137 0 256 129v520q0 96 -105 96v29zM389 1055l172 282q24 38 53.5 49t51.5 -6q61 -48 -21 -120l-229 -205h-27z" />
<glyph unicode="&#xfb;" horiz-adv-x="1103" d="M651 842l226 71q21 8 26.5 3.5t3.5 -17.5v-782q0 -64 105 -70v-27q-175 -11 -256 -38v149q-19 -13 -61 -47.5t-68 -50.5q-77 -53 -170 -53q-144 0 -213.5 88t-69.5 235v440q-14 70 -102 70v29l221 71q24 5 29.5 1t3.5 -15v-575q0 -46 8.5 -87.5t27 -81.5t54 -63.5 t84.5 -23.5q137 0 256 129v520q0 96 -105 96v29zM291 1055l172 305q20 30 26 35q18 18 52 18q33 0 45 -12q7 -7 12 -17q8 -12 14 -24l174 -305h-26l-221 217l-222 -217h-26z" />
<glyph unicode="&#xfc;" horiz-adv-x="1103" d="M651 842l226 71q21 8 26.5 3.5t3.5 -17.5v-782q0 -64 105 -70v-27q-175 -11 -256 -38v149q-19 -13 -61 -47.5t-68 -50.5q-77 -53 -170 -53q-144 0 -213.5 88t-69.5 235v440q-14 70 -102 70v29l221 71q24 5 29.5 1t3.5 -15v-575q0 -46 8.5 -87.5t27 -81.5t54 -63.5 t84.5 -23.5q137 0 256 129v520q0 96 -105 96v29zM805 1255q0 -44 -29 -74t-74 -30q-42 0 -73 32t-31 72q0 45 30.5 75t73.5 30q45 0 74 -29t29 -76zM453 1255q0 -43 -29.5 -73.5t-73.5 -30.5q-43 0 -74.5 31.5t-31.5 72.5q0 45 30.5 75t75.5 30q44 0 73.5 -29.5t29.5 -75.5z " />
<glyph unicode="&#xfd;" horiz-adv-x="1054" d="M686 897h338v-27q-44 -1 -71.5 -21.5t-53.5 -64.5l-340 -825q-34 -82 -54 -129.5t-45 -102t-40.5 -82t-36.5 -58.5t-38 -44t-40 -25.5t-46 -16t-54 -3.5q-46 0 -89.5 32t-43.5 81q0 48 28 72t58 24q78 0 78 -59q0 -78 40 -78q48 0 91 88q27 54 120 297l-329 829 q-33 82 -125 86v27h401v-27q-71 -2 -103 -24.5t-14 -67.5l248 -628l244 628q20 53 -14.5 72.5t-108.5 19.5v27zM408 1057l172 280q24 38 53.5 49t50.5 -6q63 -47 -18 -118l-232 -205h-26z" />
<glyph unicode="&#xff;" horiz-adv-x="1054" d="M686 897h338v-27q-44 -1 -71.5 -21.5t-53.5 -64.5l-340 -825q-34 -82 -54 -129.5t-45 -102t-40.5 -82t-36.5 -58.5t-38 -44t-40 -25.5t-46 -16t-54 -3.5q-46 0 -89.5 32t-43.5 81q0 48 28 72t58 24q78 0 78 -59q0 -78 40 -78q48 0 91 88q27 54 120 297l-329 829 q-35 86 -125 86v27h401v-27q-71 -2 -103 -24.5t-14 -67.5l248 -628l244 628q20 53 -14.5 72.5t-108.5 19.5v27zM825 1255q0 -42 -29.5 -73t-74.5 -31q-42 0 -73.5 32t-31.5 72q0 45 31 75t74 30q45 0 74.5 -29t29.5 -76zM471 1255q0 -42 -29.5 -73t-72.5 -31t-74 31.5 t-31 72.5q0 45 30 75t75 30q43 0 72.5 -29t29.5 -76z" />
<glyph unicode="&#x131;" d="M354 909v-813q0 -60 107 -69v-27h-369v27q107 9 107 69v629q0 96 -107 96v29l230 72q12 4 20 4.5t10 -2.5t3 -7t-1 -8z" />
<glyph unicode="&#x152;" horiz-adv-x="1976" d="M1053 174v1145h-129q-322 0 -468.5 -147t-146.5 -470q0 -141 32 -258t97 -207.5t172.5 -141t249.5 -50.5q42 0 73.5 5t60.5 18.5t44 40t15 65.5zM1004 1364h782l18 -309h-45q-1 66 -20 114.5t-49.5 77t-77.5 45t-94 22t-109 5.5h-190v-563q33 0 87.5 -1t77.5 -1 q85 0 132 12q60 14 91 55t31 119h43q-37 -153 -37.5 -218t37.5 -237h-43q-1 90 -31.5 136.5t-90.5 62.5q-49 10 -132 10q-98 -4 -165 -4v-536q0 -41 39 -75t90 -34q114 0 165 4q80 3 144 27q140 54 182 235h45l-57 -311h-985q-103 0 -208.5 32t-200.5 94t-170 146 t-119 195.5t-44 234.5q0 145 55.5 264.5t147 197t209.5 128.5t243.5 68t248.5 4z" />
<glyph unicode="&#x153;" horiz-adv-x="1679" d="M1008 610h401q47 0 47 70q0 68 -65 131t-148 63q-59 0 -105.5 -25t-74 -65t-41.5 -85t-14 -89zM264 512q0 -50 5.5 -100.5t18 -107t36 -104.5t54.5 -87.5t78.5 -62.5t104.5 -23q254 0 254 362q0 66 -7 128t-27.5 129t-52.5 116t-86 80.5t-124 31.5q-75 0 -127.5 -32 t-78.5 -87.5t-37 -114t-11 -128.5zM1573 170l33 -31q-85 -83 -151.5 -121t-149.5 -38q-277 0 -400 190q-63 -91 -157 -140.5t-207 -49.5q-207 0 -328 127.5t-121 343.5t121 343.5t328 127.5q122 0 218 -50.5t156 -146.5q65 93 151.5 145t176.5 52q171 0 268 -91.5t97 -269.5 h-600q0 -73 6.5 -134t27.5 -130t56.5 -116.5t99 -79t148.5 -31.5q127 0 227 100z" />
<glyph unicode="&#x160;" horiz-adv-x="1024" d="M559 596l-192 90q-100 48 -167 130t-67 196q0 109 48.5 189.5t126 120.5t171.5 54t189 -2.5t174 -56.5v-252h-60q-13 128 -91 201t-177 73q-102 2 -175 -71.5t-73 -204.5q0 -80 70 -143q25 -25 63 -48l64 -32l170 -88q48 -25 82.5 -45.5t74.5 -53.5t64.5 -67.5 t41.5 -83.5t17 -105q0 -174 -137 -299t-338 -125q-112 0 -221 50q-36 18 -117 67v281h56q4 -14 12 -46.5t12 -48.5q22 -68 47 -114q78 -137 240 -137q87 0 151.5 46.5t93.5 111t29 132.5q0 34 -2 58t-12.5 57.5t-29 59t-53.5 54t-85 52.5zM729 1855h27l-172 -303 q-20 -30 -27 -36q-17 -17 -51 -17q-32 0 -45 10q-2 2 -12 17q-2 4 -8 13t-9 13l-172 303h27l221 -215z" />
<glyph unicode="&#x161;" horiz-adv-x="821" d="M446 375l-131 61q-74 34 -134 96.5t-60 137.5q0 127 88 191.5t233 64.5q34 0 119 -15.5t117 -27.5v-168h-57q-11 69 -57.5 117.5t-141.5 48.5q-41 0 -72.5 -10.5t-49.5 -25.5t-29 -36.5t-14.5 -39.5t-4.5 -38q-3 -56 43 -98q22 -20 86 -51l125 -58q36 -17 57.5 -28.5 t53 -35t48.5 -49t30.5 -65.5t13.5 -88q0 -128 -101 -206.5t-246 -78.5q-127 0 -270 78v187h55q2 -5 9 -26t12 -32q11 -36 39 -71q65 -80 174 -80q89 0 137 55.5t45 122.5q-2 55 -26.5 96t-90.5 72zM610 1393h27l-174 -303q-16 -28 -27 -37q-19 -19 -51 -19t-45 13 q-8 8 -14 16q-6 12 -15 27l-174 303h27l223 -215z" />
<glyph unicode="&#x178;" horiz-adv-x="1425" d="M1004 1360h370v-25q-87 -7 -126.5 -30t-73.5 -74l-367 -529v-567q0 -36 18.5 -59.5t53 -33t63 -12.5t68.5 -3v-27h-574v27q203 -15 203 108v527l-387 569q-69 104 -201 104v25h494v-25q-84 -9 -101 -36t19 -76l309 -455l311 455q28 30 34.5 51.5t-8.5 34t-40 18.5t-65 8 v25zM973 1718q0 -42 -30 -73t-73 -31q-42 0 -73 32t-31 72q0 46 30 75.5t74 29.5t73.5 -29.5t29.5 -75.5zM621 1718q0 -42 -30 -73t-73 -31q-42 0 -73 32t-31 72q0 45 30.5 75t73.5 30q44 0 73.5 -29.5t29.5 -75.5z" />
<glyph unicode="&#x17d;" horiz-adv-x="1271" d="M170 1053l59 307h914q17 0 21 -2.5t-1 -14.5l-741 -1124q-67 -102 -53 -135q7 -12 30 -16q12 -2 41 -2h475q176 0 250 241h45l-57 -307h-1038q-33 0 -35 6v4q5 10 8 13l870 1271h-456q-156 0 -219 -80q-26 -37 -41 -79q-4 -13 -11.5 -40.5t-11.5 -41.5h-49zM852 1855h25 l-172 -303q-11 -22 -25 -36q-17 -17 -51 -17q-32 0 -45 10q-5 5 -13 17q-2 5 -8 14l-8 12l-172 303h27l221 -215z" />
<glyph unicode="&#x17e;" horiz-adv-x="880" d="M94 705l39 233q17 -3 23 -6q6 -4 14 -12q25 -25 74 -23h575v-33l-524 -714q-19 -25 -25 -48.5t5 -39t40 -15.5h330q34 0 65.5 43t48 88t21.5 76h47l-39 -254h-737v53l613 795h-437q-53 -72 -65 -143h-68zM672 1393h24l-172 -303q-17 -29 -26 -37q-19 -19 -52 -19 q-32 0 -45 13q-8 8 -12 16q-2 3 -8 13.5t-8 13.5l-172 303h26l222 -215z" />
<glyph unicode="&#x192;" horiz-adv-x="1208" d="M389 897h201q17 84 39 170q27 104 67 182q105 205 303 205q35 0 63.5 -7.5t51.5 -30t23 -58.5q0 -37 -19 -67t-57 -29q-13 0 -25 18l-12 18q-2 4 -6 11.5t-6 11.5q-13 21 -20 31t-23 22t-33 12q-39 0 -76.5 -61.5t-61.5 -146.5t-39 -161.5t-18 -119.5h209v-47h-219 q-2 -11 -90 -436q-46 -222 -90 -346q-55 -156 -140.5 -235t-222.5 -79q-43 0 -79.5 37t-36.5 80q0 15 12 35t22 20q22 0 41 -8t29.5 -16.5t26.5 -24.5q15 -22 37 -37q25 -18 53 -18q71 0 174 465q46 214 104 563h-188z" />
<glyph unicode="&#x2c6;" horiz-adv-x="655" d="M92 1044l174 314q22 33 27 37q18 18 51 18t45 -12q2 -2 6.5 -8t7.5 -9q3 -6 15 -26l174 -314h-27l-223 224l-223 -224h-27z" />
<glyph unicode="&#x2c7;" horiz-adv-x="655" d="M551 1393h27l-175 -314q-2 -3 -7 -11.5t-9.5 -15t-9.5 -10.5q-18 -18 -51 -18t-45 12q-2 2 -7 8t-8 9q-8 16 -14 26l-174 314h26l224 -224z" />
<glyph unicode="&#x2d8;" horiz-adv-x="716" d="M596 1434h49q-19 -150 -89 -239t-198 -89t-197.5 89t-88.5 239h49q18 -99 80 -157t157 -58q97 0 166 60t72 155z" />
<glyph unicode="&#x2d9;" horiz-adv-x="348" d="M291 1296q0 -45 -31.5 -77.5t-77.5 -32.5q-45 0 -77.5 33.5t-32.5 76.5q0 49 31.5 80t78.5 31t78 -30.5t31 -80.5z" />
<glyph unicode="&#x2da;" horiz-adv-x="512" d="M141 1270q0 -127 115 -127t115 127t-115 127t-115 -127zM440 1270q0 -77 -54 -131t-130 -54t-130 54t-54 131q0 76 54 130t130 54t130 -54t54 -130z" />
<glyph unicode="&#x2db;" horiz-adv-x="512" d="M301 0h64q-181 -160 -181 -268q0 -47 27 -69.5t65 -22.5q98 0 132 61l30 -14q-30 -55 -82 -86t-100 -31q-184 0 -184 162q0 20 7 42.5t27.5 58t70.5 79.5t124 88z" />
<glyph unicode="&#x2dc;" horiz-adv-x="819" d="M291 1329l211 -86q37 -15 66.5 -16t51 9t40 33t31.5 50.5t26 66.5l31 -32q-1 -119 -62 -186.5t-137 -39.5l-232 86q-27 10 -50 11t-41 -8.5t-32 -22t-27.5 -35.5t-22.5 -42.5t-21 -49.5l-51 16q1 69 31 134.5t81.5 99.5t106.5 12z" />
<glyph unicode="&#x2dd;" horiz-adv-x="792" d="M412 1044l174 293q15 25 49 41t55 2q26 -20 30 -40.5t-8 -40t-40 -44.5l-234 -211h-26zM78 1044l172 293q16 25 50.5 41t53.5 2q26 -20 30 -40.5t-8 -40t-40 -44.5l-232 -211h-26z" />
<glyph unicode="&#x2000;" horiz-adv-x="958" />
<glyph unicode="&#x2001;" horiz-adv-x="1917" />
<glyph unicode="&#x2002;" horiz-adv-x="958" />
<glyph unicode="&#x2003;" horiz-adv-x="1917" />
<glyph unicode="&#x2004;" horiz-adv-x="639" />
<glyph unicode="&#x2005;" horiz-adv-x="479" />
<glyph unicode="&#x2006;" horiz-adv-x="319" />
<glyph unicode="&#x2007;" horiz-adv-x="319" />
<glyph unicode="&#x2008;" horiz-adv-x="239" />
<glyph unicode="&#x2009;" horiz-adv-x="383" />
<glyph unicode="&#x200a;" horiz-adv-x="106" />
<glyph unicode="&#x2010;" horiz-adv-x="655" d="M74 467l489 65l19 -98l-490 -65z" />
<glyph unicode="&#x2011;" horiz-adv-x="655" d="M74 467l489 65l19 -98l-490 -65z" />
<glyph unicode="&#x2012;" horiz-adv-x="655" d="M74 467l489 65l19 -98l-490 -65z" />
<glyph unicode="&#x2013;" horiz-adv-x="1187" d="M72 492h1044v-101h-1044v101z" />
<glyph unicode="&#x2014;" horiz-adv-x="1679" d="M72 492h1536v-101h-1536v101z" />
<glyph unicode="&#x2018;" horiz-adv-x="430" d="M336 1391v-48q-63 -14 -117.5 -82t-54.5 -135q0 -39 29 -49q8 -2 28 -2q6 0 18.5 1t18.5 1q34 0 67 -29t33 -69q0 -37 -33 -78t-87 -41q-73 0 -119.5 51.5t-46.5 110.5q0 79 23 145.5t62.5 110.5t84.5 72t94 41z" />
<glyph unicode="&#x2019;" horiz-adv-x="573" d="M166 862v47q63 14 117.5 82t54.5 135q0 40 -29 50q-8 2 -28 2q-6 0 -18.5 -1t-18.5 -1q-34 0 -67.5 29t-33.5 69q0 37 33.5 78t87.5 41q73 0 119.5 -51.5t46.5 -110.5q0 -79 -23 -145.5t-62.5 -110.5t-84.5 -72t-94 -41z" />
<glyph unicode="&#x201a;" horiz-adv-x="430" d="M94 -305v47q63 14 117.5 82t54.5 135q0 40 -28 49q-8 2 -29 2q-6 0 -18.5 -1t-18.5 -1q-34 0 -67 29t-33 69q0 37 33.5 78t87.5 41q73 0 119 -51.5t46 -110.5q0 -79 -23 -145t-62.5 -110t-84 -72t-94.5 -41z" />
<glyph unicode="&#x201c;" horiz-adv-x="798" d="M707 1391v-48q-62 -14 -115 -82t-53 -135q0 -41 28 -49q8 -2 27 -2q5 0 17 1t18 1q32 0 65 -29t33 -69q0 -37 -33 -78t-86 -41q-69 0 -114 51.5t-45 110.5q0 79 22.5 145.5t60.5 110.5t82 72t93 41zM330 1391v-48q-62 -14 -115 -82t-53 -135q0 -41 28 -49q8 -2 27 -2 q5 0 17 1t18 1q32 0 65 -29t33 -69q0 -37 -33 -78t-86 -41q-70 0 -114.5 51.5t-44.5 110.5q0 79 22.5 145.5t60.5 110.5t82 72t93 41z" />
<glyph unicode="&#x201d;" horiz-adv-x="798" d="M469 862v47q62 14 115 82t53 135q0 41 -29 50q-8 2 -26 2q-5 0 -17 -1t-18 -1q-32 0 -65 29t-33 69q0 37 32.5 78t85.5 41q70 0 115 -51.5t45 -110.5q0 -79 -22.5 -145.5t-60.5 -110.5t-82 -72t-93 -41zM92 862v47q62 14 115 82t53 135q0 41 -29 50q-8 2 -26 2 q-5 0 -17 -1t-18 -1q-32 0 -65 29t-33 69q0 37 32.5 78t85.5 41q69 0 114.5 -51.5t45.5 -110.5q0 -79 -22.5 -145.5t-60.5 -110.5t-82 -72t-93 -41z" />
<glyph unicode="&#x201e;" horiz-adv-x="798" d="M469 -305v47q62 14 115 82t53 135q0 40 -29 49q-8 2 -26 2q-5 0 -17 -1t-18 -1q-32 0 -65 29t-33 69q0 37 32.5 78t85.5 41q70 0 115 -51.5t45 -110.5q0 -79 -22.5 -145t-60.5 -110t-82 -72t-93 -41zM92 -305v47q62 14 115 82t53 135q0 40 -29 49q-8 2 -26 2q-5 0 -17 -1 t-18 -1q-32 0 -65 29t-33 69q0 37 32.5 78t85.5 41q69 0 114.5 -51.5t45.5 -110.5q0 -79 -22.5 -145t-60.5 -110t-82 -72t-93 -41z" />
<glyph unicode="&#x2020;" horiz-adv-x="921" d="M426 -266v282q0 176 -14 288t-47 226q45 62 63 149t18 232q-71 0 -167 -30q-11 -4 -32 -12t-30 -11q-24 -8 -49 -8q-42 0 -69 23t-27 53q0 28 27 50.5t69 22.5q25 0 49 -8q10 -3 31 -11t31 -11q100 -31 167 -31q0 142 -40 248q-4 12 -9.5 23.5t-11 23.5t-8.5 18 q-12 24 -12 45q0 33 28 65t68 32t68 -32t28 -65q0 -23 -8 -47q-2 -7 -10.5 -28t-12.5 -35q-30 -114 -30 -248q71 0 157 31q7 3 26 11t28 11q21 8 47 8q42 0 69 -22.5t27 -50.5q0 -30 -27 -53t-69 -23q-26 0 -47 8q-8 3 -26.5 11t-27.5 12q-84 30 -157 30q0 -119 2 -171.5 t16 -111t43 -98.5q-33 -114 -47 -226t-14 -288v-282h-70z" />
<glyph unicode="&#x2021;" horiz-adv-x="921" d="M557 1296q0 -22 -8 -43q-2 -6 -10 -25t-13 -32q-30 -101 -30 -238q44 0 64.5 1t45 6t45.5 16q84 39 123 39q38 0 57 -29.5t19 -64.5q0 -33 -18 -54.5t-58 -21.5q-25 0 -49 8q-9 3 -29.5 11t-31.5 12q-96 30 -168 30q0 -104 2 -148.5t15.5 -91.5t41.5 -77 q-40 -43 -49.5 -116t-9.5 -242q75 0 155 43q41 18 123 18q40 0 58 -21.5t18 -52.5q0 -33 -18 -54.5t-58 -21.5q-22 0 -49 9q-9 3 -29.5 10.5t-31.5 11.5q-100 31 -168 31q0 -136 30 -258q4 -15 12 -39l11 -33q8 -24 8 -49q0 -30 -27 -53t-69 -23q-40 0 -58 21.5t-18 54.5 q0 13 8 49l11 33t12 39q30 107 30 258q-67 0 -167 -31q-10 -3 -31 -11t-31 -11q-27 -9 -49 -9q-42 0 -69 23t-27 53q0 28 27 51t69 23q61 0 102 -18q77 -43 176 -43q0 146 -17 228t-62 130q45 46 62 117t17 200q-71 0 -167 -30q-11 -4 -32 -12t-30 -11q-24 -8 -49 -8 q-42 0 -69 23t-27 53q0 31 28 62.5t68 31.5q28 0 49 -12q9 -4 28.5 -14.5t24.5 -12.5q41 -23 176 -23q0 150 -30 238q-5 13 -13 32t-10 25q-8 32 -8 43q0 36 19 66.5t57 30.5q40 0 68 -32t28 -65z" />
<glyph unicode="&#x2022;" horiz-adv-x="479" d="M385 608q0 -56 -46.5 -102.5t-102.5 -46.5q-54 0 -102 47t-48 102q0 54 48 102t102 48q55 0 102 -48t47 -102z" />
<glyph unicode="&#x2026;" horiz-adv-x="1249" d="M1178 102q0 -45 -37 -83.5t-80 -38.5t-80 38.5t-37 83.5q0 44 37 83.5t80 39.5t80 -39.5t37 -83.5zM741 102q0 -46 -36.5 -84t-79.5 -38q-42 0 -79.5 38.5t-37.5 83.5q0 44 38 83.5t79 39.5q43 0 79.5 -39.5t36.5 -83.5zM305 102q0 -46 -36.5 -84t-80.5 -38 q-42 0 -79 38.5t-37 83.5q0 44 37.5 83.5t78.5 39.5q44 0 80.5 -39t36.5 -84z" />
<glyph unicode="&#x202f;" horiz-adv-x="383" />
<glyph unicode="&#x2030;" horiz-adv-x="2113" d="M1520 315q0 -55 8.5 -104t28.5 -96.5t59.5 -75t95.5 -27.5q67 0 110.5 47t59.5 111.5t16 144.5q0 59 -9.5 110t-30 96t-58 71t-88.5 26q-192 0 -192 -303zM799 315q0 -56 8.5 -104.5t28 -96t59.5 -75t96 -27.5q67 0 110.5 46.5t60 111.5t16.5 145t-16.5 145t-60 111.5 t-110.5 46.5q-192 0 -192 -303zM2042 315q0 -144 -95 -239.5t-235 -95.5q-141 0 -240.5 96t-99.5 239q0 141 99.5 237.5t240.5 96.5q140 0 235 -96t95 -238zM1319 315q0 -144 -94.5 -239.5t-233.5 -95.5q-141 0 -241.5 96t-100.5 239q0 141 100.5 237.5t241.5 96.5 q138 0 233 -96t95 -238zM221 1081q0 -56 8.5 -104.5t28.5 -96t60 -75t96 -27.5q67 0 110.5 47t59.5 111.5t16 144.5q0 59 -9.5 110t-30 96t-58 71t-88.5 26q-193 0 -193 -303zM741 1081q0 -144 -94 -240t-233 -96q-141 0 -241.5 96.5t-100.5 239.5q0 141 100.5 237.5 t241.5 96.5q138 0 232.5 -96t94.5 -238zM1120 1434h86l-919 -1475h-127z" />
<glyph unicode="&#x2039;" horiz-adv-x="532" d="M461 745q-4 -14 -39 -59q-17 -25 -72 -96q-88 -118 -99 -146q-3 -9 -3 -14q0 -23 90 -144q4 -5 6.5 -8.5t5.5 -7.5q55 -71 72 -96q35 -45 39 -59q4 -9 -31 -30q-1 -1 -2 -1q-39 34 -195 182q-161 154 -161 164t161 164q156 148 195 182q33 -22 33 -31z" />
<glyph unicode="&#x203a;" horiz-adv-x="532" d="M299 594q162 -154 162 -164t-162 -164q-156 -148 -195 -182q-32 22 -32 31q4 14 39 59q26 37 71 96l16.5 22l16.5 22t15.5 21t15 21t12.5 18.5t11 18l8 15t6 13t2 9.5t-2 9.5t-6 13l-8 15t-11 18t-12.5 18.5t-15 21t-15.5 21l-16.5 22l-16.5 22q-45 59 -71 96 q-35 45 -39 59q-1 3 1.5 7.5t9.5 10t10.5 7.5l10.5 6q39 -34 195 -182z" />
<glyph unicode="&#x2044;" horiz-adv-x="1126" d="M922 1413h127l-885 -1433h-86z" />
<glyph unicode="&#x205f;" horiz-adv-x="479" />
<glyph unicode="&#x20ac;" horiz-adv-x="1372" d="M72 793h157q50 230 228 374t415 144q45 0 108 -12.5t127 -36t108.5 -64t44.5 -88.5q0 -41 -37 -68.5t-80 -27.5t-69.5 32t-26.5 76q0 41 22 74q-60 32 -93.5 39.5t-103.5 7.5q-203 0 -317.5 -119.5t-146.5 -330.5h354v-68h-352v-119h352v-67h-352q17 -208 148 -328.5 t335 -120.5q130 0 215.5 27.5t157.5 111.5l32 -69q-81 -80 -197.5 -130t-228.5 -50q-277 0 -443 146t-206 413h-151v67h145q0 90 2 119h-147v68z" />
<glyph unicode="&#x2122;" horiz-adv-x="1064" d="M510 1030l4 4v312q0 33 -31 43v4h82l144 -269l153 269h119v-4q-25 -2 -39.5 -12.5t-15.5 -20.5l-2 -10v-312q0 -5 3.5 -10.5t20.5 -12t45 -7.5v-5h-188v5q23 1 36.5 8t16 12.5t2.5 9.5v309l-166 -294l-2 2l-153 284v-301q0 -28 63 -30v-5h-168v5q42 0 66 12q3 2 6.5 5.5 t5.5 4.5v4h-2zM451 1393v-76q-6 27 -20.5 43t-27.5 16h-114v-342q0 -28 71 -30v-5h-198v5q27 1 42.5 7.5t19 12t3.5 10.5v342h-106q-14 0 -30 -20.5t-17 -55.5h-2v93h379z" />
<glyph unicode="&#x2212;" horiz-adv-x="931" d="M72 492h788v-101h-788v101z" />
<glyph unicode="&#x221a;" horiz-adv-x="1320" d="M588 170l579 1114l78 -8l-651 -1344l-293 680l-201 -98l-26 55l299 148z" />
<glyph unicode="&#x221e;" horiz-adv-x="1007" d="M555 563q28 -58 78 -91.5t110 -33.5q67 0 118.5 38t51.5 106q0 75 -47.5 114t-122.5 39q-25 0 -50 -13t-43 -28.5t-39 -44t-30.5 -43.5t-25.5 -43zM96 594q0 -77 51.5 -122.5t128.5 -45.5q75 0 135 64.5t89 146.5q-31 58 -87.5 92.5t-121.5 34.5q-88 0 -141.5 -42.5 t-53.5 -127.5zM516 645q48 90 97 130t130 40q89 0 141 -69.5t52 -163.5q0 -98 -50 -161t-143 -63q-67 0 -116 52q-18 21 -39 51q-28 43 -45 65q-29 -50 -48 -78t-48.5 -58.5t-64.5 -44t-79 -13.5q-113 0 -172 66.5t-59 183.5q0 274 219 274q71 0 129.5 -61.5t95.5 -149.5z " />
<glyph unicode="&#x2248;" horiz-adv-x="815" d="M274 524l220 -84q73 -28 120.5 8.5t92.5 124.5l34 -22q-59 -149 -102 -195.5t-98 -25.5l-240 82q-72 27 -119 -27q-20 -23 -39 -59q-7 -12 -19.5 -36.5t-14.5 -29.5l-35 21q4 12 11.5 33t13.5 37.5t10 31.5q16 48 36 92q16 26 32 40t41 18.5t56 -9.5zM274 860l220 -84 q73 -28 120.5 8.5t92.5 124.5l34 -22q-62 -156 -100.5 -201t-99.5 -22l-240 84q-72 24 -119 -29q-19 -19 -39 -57q-7 -11 -34 -68l-35 22q26 71 35 103q22 62 36 90q24 41 51 54t78 -3z" />
<glyph unicode="&#x2260;" horiz-adv-x="921" d="M528 922h131l-90 -291h281v-70h-301l-74 -242h375v-69h-395l-82 -270h-90l71 270h-282v69h299l63 242h-362v70h381z" />
<glyph unicode="&#x2264;" horiz-adv-x="946" d="M72 90h788v-88h-788v88zM76 735l798 367v-109l-677 -305l677 -305v-109l-798 367v94z" />
<glyph unicode="&#x2265;" horiz-adv-x="946" d="M86 90h788v-88h-788v88zM72 993v109l798 -367v-94l-798 -367v109l678 305z" />
<glyph unicode="&#x25ca;" horiz-adv-x="1167" d="M926 512l-342 469l-342 -469l342 -489zM524 1085h119l451 -573l-451 -573h-119l-450 573z" />
<glyph unicode="&#xe000;" horiz-adv-x="901" d="M0 901h901v-901h-901v901z" />
<glyph unicode="&#xf8ff;" horiz-adv-x="1982" d="M72 1081h293v-1081h-293v1081zM1382 571l-202 592l-209 -592h411zM1018 1495h330l559 -1495h-328l-121 336h-569l-119 -336h-319zM74 1495h291v-238h-291v238z" />
<glyph horiz-adv-x="696" d="M625 1597q0 -41 -29.5 -71.5t-69.5 -30.5q-37 0 -66.5 31t-29.5 71q0 38 30.5 70.5t65.5 32.5q38 0 68.5 -31.5t30.5 -71.5zM266 1597q0 -41 -29 -71.5t-67 -30.5t-68 31t-30 71q0 38 30.5 70.5t67.5 32.5t66.5 -31.5t29.5 -71.5z" />
<glyph d="M199 102h155q2 -20 15 -34.5t32 -22t33 -10.5t27 -4v-31h-369v31q13 1 27 4t33 10.5t32 22t15 34.5z" />
<glyph horiz-adv-x="348" d="M-10 850l233 72q16 6 24.5 4.5t8.5 -7v-10.5v-909h-158v725q0 96 -108 96v29z" />
<glyph horiz-adv-x="450" d="M92 846l234 76q16 6 23.5 4t8.5 -6t0 -11l-159 -178q-9 84 -107 84v31z" />
<glyph horiz-adv-x="1204" d="M70 1364h362v-1364h-362v27q190 0 190 108v1096q0 33 -23 56t-60 33t-60.5 14t-46.5 5v25z" />
<glyph horiz-adv-x="860" d="M72 668v63q92 100 198.5 148.5t192.5 41.5t143.5 -75t57.5 -187v-563q0 -26 22.5 -42.5t42 -20.5t39.5 -6v-27h-362v27q104 8 104 69v541q0 102 -46.5 151.5t-113.5 44t-143 -49t-135 -115.5z" />
<glyph horiz-adv-x="1228" />
</font>
</defs>
</svg>
