<?xml version="1.0" standalone="no"?>
<!DOCTYPE svg PUBLIC "-//W3C//DTD SVG 1.1//EN" "http://www.w3.org/Graphics/SVG/1.1/DTD/svg11.dtd" >
<svg xmlns="http://www.w3.org/2000/svg">
<metadata></metadata>
<defs>
<font id="iABCRegular" horiz-adv-x="552" >
<font-face units-per-em="2048" ascent="1495" descent="-553" />
<missing-glyph horiz-adv-x="573" />
<glyph horiz-adv-x="1036" />
<glyph unicode=" "  horiz-adv-x="573" />
<glyph unicode="&#x09;" horiz-adv-x="573" />
<glyph unicode="&#xa0;" horiz-adv-x="573" />
<glyph unicode="!" horiz-adv-x="532" d="M225 471l-61 819q-3 49 24.5 86t77.5 37t78 -37t25 -86l-62 -819v-6.5t-2.5 -15t-6 -18.5t-11.5 -14.5t-19 -6.5h-4q-17 0 -27 15t-11 31zM266 225q46 0 84.5 -38.5t38.5 -84.5q0 -47 -38 -84.5t-85 -37.5q-46 0 -84.5 38t-38.5 84t38.5 84.5t84.5 38.5z" />
<glyph unicode="&#x22;" d="M72 1370v2q0 21 1 32t6.5 25.5t18.5 21.5t35 7t35.5 -7t18.5 -21.5t6.5 -26t1.5 -31.5v-2l-21 -407q1 -29 -19.5 -41t-41.5 0t-21 41zM358 1370v2q0 20 1.5 31.5t6.5 26t18.5 21.5t35.5 7t35 -7t18.5 -21.5t6.5 -25.5t1 -32v-2l-20 -407q1 -29 -19.5 -41t-41.5 0t-21 41z " />
<glyph unicode="#" horiz-adv-x="1228" d="M973 1352h123l-144 -369h205l-41 -123h-205l-143 -368h205l-41 -123h-205l-143 -369h-103l144 369h-267l-143 -369h-102l143 369h-184l41 123h184l123 368h-164l41 123h184l123 369h123l-143 -369h266zM666 492l122 368h-245l-144 -368h267z" />
<glyph unicode="$" horiz-adv-x="878" d="M475 1372h82l-16 -133q37 -6 87.5 -19t83.5 -22.5t31 -9.5v-236h-65q-5 39 -11.5 67t-21 65t-42.5 63.5t-68 38.5l-56 -461l76 -39q54 -28 92.5 -54t78.5 -65t60.5 -91t20.5 -116q0 -156 -120.5 -269t-299.5 -116l-14 -118h-82l14 125q-40 7 -81 22.5t-65.5 29t-51 29.5 t-31.5 19l-4 264h63q3 -11 14 -55.5t21 -71.5t28.5 -65t47.5 -64.5t67 -40.5l66 535l-66 30q-88 41 -148.5 115.5t-60.5 181.5q0 168 90.5 249t266.5 87zM401 764l54 432q-64 -1 -109.5 -25.5t-68 -64t-32 -76.5t-9.5 -74q0 -38 14 -68.5t43 -54.5t50 -37t58 -32zM485 532 l-28 15l-62 -512h11q75 0 130 40.5t79 96t24 115.5q0 38 -4 64t-17.5 60t-47 64.5t-85.5 56.5z" />
<glyph unicode="%" horiz-adv-x="1785" d="M1280 1434h102l-921 -1475h-144zM418 1415q141 0 237.5 -97t96.5 -241q0 -146 -96 -243t-238 -97q-143 0 -244.5 98t-101.5 242q0 143 101.5 240.5t244.5 97.5zM418 1370q-185 0 -185 -293q0 -55 8.5 -103t28.5 -92.5t58 -71t90 -26.5q48 0 83.5 24.5t55.5 67.5t29.5 93 t9.5 108t-9.5 108t-29.5 93t-55.5 67.5t-83.5 24.5zM1380 657q141 0 237.5 -97t96.5 -241q0 -146 -96 -242.5t-238 -96.5q-143 0 -244.5 97.5t-101.5 241.5q0 143 101.5 240.5t244.5 97.5zM1380 612q-184 0 -184 -293q0 -55 8.5 -102.5t28 -92.5t57 -71t90.5 -26 q63 0 105 43.5t58 106.5t16 142t-16 142t-58 107t-105 44z" />
<glyph unicode="&#x26;" horiz-adv-x="1396" d="M1260 594h61q1 -3 2 -7.5t1 -18.5t-3 -27.5t-13.5 -33t-27.5 -36.5q-90 -90 -266 -61q-42 -124 -103 -226q-127 -204 -368 -204q-204 0 -337.5 117.5t-133.5 312.5q0 71 42 142t114 118t151 47q-94 63 -139 127t-45 139q0 59 27.5 104t73 70.5t98 38t108.5 12.5 q40 0 91.5 -15.5t100 -43t82 -71.5t33.5 -95q0 -35 -20 -58.5t-62 -23.5q-35 0 -58.5 20t-23.5 62q0 20 1.5 31t6.5 24.5t18.5 20t35.5 6.5q0 27 -60 44t-104 17q-77 0 -131 -54t-54 -130q0 -119 79.5 -182.5t207.5 -63.5v-102q-44 0 -90 10t-74 10q-245 0 -245 -245 q0 -140 85.5 -234t221.5 -94q156 0 266 164q74 110 102 225l-102 21q-60 15 -91.5 -12.5t-31.5 -90.5h-61q0 39 2 58t16 48t43 58q34 34 67 43.5t97 -2.5l184 -41q85 -17 155.5 4t70.5 78z" />
<glyph unicode="'" horiz-adv-x="266" d="M72 1370v2q0 21 1 32t6.5 25.5t18.5 21.5t35 7t35.5 -7t18.5 -21.5t6.5 -26t1.5 -31.5v-2l-21 -407q1 -29 -19.5 -41t-41.5 0t-21 41z" />
<glyph unicode="(" horiz-adv-x="614" d="M543 -287l-21 -41q-195 130 -322.5 366t-127.5 515t127.5 515t322.5 366l21 -41q-155 -155 -231 -360.5t-76 -479.5t76 -479.5t231 -360.5z" />
<glyph unicode=")" horiz-adv-x="614" d="M72 1393l20 41q195 -130 323 -366t128 -515t-128 -515t-323 -366l-20 41q155 155 231 360.5t76 479.5t-76 479.5t-231 360.5z" />
<glyph unicode="*" horiz-adv-x="839" d="M399 1434h41l41 -267l267 123l20 -41l-246 -184l246 -184l-20 -41l-267 143l-41 -287h-41l-41 287l-266 -143l-20 41l245 184l-245 184l20 41l266 -123z" />
<glyph unicode="+" horiz-adv-x="880" d="M379 758h123v-307h307v-103h-307v-348h-123v348h-307v103h307v307z" />
<glyph unicode="," horiz-adv-x="573" d="M164 -307v61q59 9 111.5 75t52.5 130q0 13 -3 21.5t-6.5 13t-12.5 6t-15.5 1.5t-21 -0.5t-23.5 -0.5q-34 0 -68.5 29.5t-34.5 72.5q0 38 34 80.5t89 42.5q72 0 118 -52.5t46 -111.5q0 -81 -23.5 -148t-63 -110.5t-85 -71t-94.5 -38.5z" />
<glyph unicode="-" horiz-adv-x="655" d="M72 471l491 61l21 -102l-492 -61z" />
<glyph unicode="." horiz-adv-x="532" d="M266 225q45 0 84 -39t39 -84q0 -46 -38.5 -84t-84.5 -38q-45 0 -84 38.5t-39 83.5q0 44 39.5 83.5t83.5 39.5z" />
<glyph unicode="/" horiz-adv-x="655" d="M440 1413h144l-410 -1433h-102z" />
<glyph unicode="0" horiz-adv-x="1136" d="M573 922q221 0 346 -132t125 -339q0 -132 -63 -240t-171 -169.5t-237 -61.5q-130 0 -240 61t-175.5 170t-65.5 240t65.5 240t175.5 170t240 61zM573 813q-81 0 -145.5 -33t-103 -87t-58.5 -116t-20 -126q0 -93 39.5 -174t116.5 -132t176 -51q137 0 225 101t88 256 q0 159 -84.5 260.5t-233.5 101.5z" />
<glyph unicode="1" horiz-adv-x="860" d="M143 901h574v-41q-24 0 -39 -0.5t-43.5 -2.5t-47.5 -7.5t-39 -14t-30 -23t-10 -34.5v-655q2 -29 28 -48t64.5 -25.5t66 -8t50.5 -0.5v-41h-574v41q201 8 201 82v655q0 20 -8.5 34.5t-26 23t-33.5 14t-44 7.5t-44 2.5t-45 0.5v41z" />
<glyph unicode="2" horiz-adv-x="997" d="M168 717l-41 20q137 185 328 185q115 0 200.5 -68.5t85.5 -177.5q0 -60 -29 -125.5t-68.5 -118t-100.5 -112t-105 -96.5t-102 -81h491l78 103h62l-103 -246h-737l-61 61q48 32 81 54.5t89 64t95 75.5t85 81.5t74 89.5t47.5 92t19.5 96q0 77 -46 141t-118 64 q-76 0 -125.5 -23t-99.5 -79z" />
<glyph unicode="3" horiz-adv-x="1007" d="M319 264l-16 72q167 16 255 138q69 95 58 204q-10 104 -88 150q-44 26 -102 26q-77 0 -135 -40t-58 -105q86 -5 86 -78q0 -37 -29 -57.5t-61 -20.5q-40 0 -64 30.5t-24 65.5q0 84 49.5 146t123.5 91t159 29q84 0 155 -28t118 -89.5t47 -146.5q0 -116 -99.5 -215 t-230.5 -129q41 6 78 6q200 0 303 -125q85 -103 70 -246q-15 -147 -129 -253q-128 -121 -336 -135q-154 -10 -255.5 41t-101.5 122q0 45 27.5 76t79.5 31q43 0 66.5 -26t23.5 -68q0 -26 -24 -51t-46 -27q3 -9 28.5 -25t75 -28t117.5 4q72 16 129 57.5t91.5 95.5t50 117.5 t10.5 125.5t-34 116.5t-76.5 93t-123 54.5t-168.5 1z" />
<glyph unicode="4" horiz-adv-x="1044" d="M748 922h40v-779h185v-102h-187v-467h-161v467h-512l-41 41zM625 143v512l-410 -512h410z" />
<glyph unicode="5" horiz-adv-x="923" d="M262 903h553l-37 -151h-479l-47 -183q259 4 402 -153q115 -126 118 -309q3 -182 -104 -328q-123 -169 -338 -211q-64 -12 -131 -12q-127 0 -199 44.5t-72 114.5q0 43 31.5 72t85.5 29q38 0 63 -25.5t25 -62.5q0 -19 -7 -33t-15 -20t-23 -16t-22 -15q2 -7 15.5 -15.5 t43 -16t65.5 -7.5q164 0 276 137q97 118 111 280q15 171 -70 285q-108 144 -332 127l-34 -4z" />
<glyph unicode="6" horiz-adv-x="1048" d="M401 512v61q32 54 101 88.5t145 34.5q147 0 238.5 -89t91.5 -238q0 -161 -130 -275t-302 -114q-199 0 -315.5 130.5t-116.5 338.5q0 192 72.5 372t190 309t273.5 207t318 78v-57q-128 -8 -240 -62t-192.5 -138.5t-139 -191.5t-87.5 -223t-29 -231q0 -96 15 -177t47 -149 t89 -106.5t135 -38.5q62 0 111 27.5t78 72t43.5 98t13.5 109.5q-2 95 -63 160t-183 65q-103 0 -164 -61z" />
<glyph unicode="7" horiz-adv-x="1034" d="M211 901h778l25 -61q-94 -146 -127.5 -199t-115 -185t-124 -211t-104.5 -198t-108.5 -231t-88.5 -230q-12 -33 -30 -46t-52 -13q-52 0 -83.5 34t-10.5 97q11 33 165 269t329 498t206 312h-655l-61 -164h-62z" />
<glyph unicode="8" horiz-adv-x="1017" d="M524 1352q157 0 265.5 -85t107.5 -220q-1 -60 -20 -108t-58 -87t-82.5 -68t-107.5 -61q112 -67 173 -119t92 -114t32 -144q2 -160 -121.5 -263t-323.5 -103q-86 0 -160.5 28t-123.5 73.5t-77 103.5t-28 118q0 109 90 212t213 151q-41 26 -62.5 40t-55 38.5t-50.5 42.5 t-39 45.5t-32 54.5t-17 62t-6 75q3 134 121 231t270 97zM518 1290q-89 1 -148 -60t-61 -155q-1 -66 33.5 -121.5t71 -85.5t132.5 -96q7 -5 11 -8t11 -7.5t12 -8.5q97 54 130 129t33 180q0 101 -61 166.5t-164 66.5zM430 627q-108 -72 -151.5 -149t-45.5 -169 q-2 -108 74 -188t182 -80q121 0 191 67t68 162q-4 222 -318 357z" />
<glyph unicode="9" horiz-adv-x="1083" d="M717 389l28 -33q-63 -63 -122 -97t-131 -34q-143 0 -245 91.5t-102 240.5q0 162 119.5 269t288.5 116q209 12 334 -98t125 -326q0 -171 -89.5 -350.5t-230.5 -319t-326.5 -229t-365.5 -90.5v61q165 16 316.5 93t261.5 192.5t175.5 266.5t65.5 309q0 430 -266 430 q-72 0 -125 -45t-76.5 -108.5t-23.5 -133.5q0 -131 58.5 -198.5t186.5 -67.5q86 0 144 61z" />
<glyph unicode=":" horiz-adv-x="532" d="M266 901q45 0 84 -39t39 -84q0 -46 -38.5 -84.5t-84.5 -38.5q-45 0 -84 39t-39 84q0 44 39.5 83.5t83.5 39.5zM266 225q45 0 84 -39t39 -84q0 -46 -38.5 -84t-84.5 -38q-45 0 -84 38.5t-39 83.5q0 44 39.5 83.5t83.5 39.5z" />
<glyph unicode=";" horiz-adv-x="430" d="M205 901q45 0 84 -39t39 -84q0 -46 -38.5 -84.5t-84.5 -38.5q-45 0 -84 39t-39 84q0 44 39.5 83.5t83.5 39.5zM102 -307v61q59 9 111.5 75t52.5 130q0 13 -3 21.5t-6.5 13t-12.5 6t-15.5 1.5t-21 -0.5t-23.5 -0.5q-34 0 -68 29.5t-34 72.5q0 38 34 80.5t89 42.5 q72 0 118 -52.5t46 -111.5q0 -81 -23.5 -148t-63.5 -110.5t-85.5 -71t-94.5 -38.5z" />
<glyph unicode="&#x3c;" horiz-adv-x="942" d="M72 471l798 369v-123l-655 -297l655 -297v-123l-798 369v102z" />
<glyph unicode="=" horiz-adv-x="921" d="M72 635h778v-82h-778v82zM72 328h778v-82h-778v82z" />
<glyph unicode="&#x3e;" horiz-adv-x="942" d="M72 717v123l798 -369v-102l-798 -369v123l655 297z" />
<glyph unicode="?" horiz-adv-x="841" d="M248 508v285q31 2 66.5 9.5t83 21.5t88 39.5t75 60t52 87t12.5 115.5q-3 40 -23.5 72.5t-49 51.5t-61 29t-63 7t-51.5 -18q-45 -31 -98.5 -39t-94.5 17t-41 85q0 41 40 61.5t83 20.5q65 0 121 -8.5t111.5 -30t96 -55t68 -88t33.5 -125.5q22 -259 -153 -377 q-43 -29 -100 -44t-91 -21t-35 -17v-176q0 -12 -21 -17q-32 -8 -44 21q-6 13 -4 33zM307 225q46 0 84.5 -38.5t38.5 -84.5t-38.5 -84t-84.5 -38t-84.5 38t-38.5 84q0 44 39.5 83.5t83.5 39.5z" />
<glyph unicode="@" horiz-adv-x="1925" d="M1292 612v-428q-1 -40 9.5 -69.5t25.5 -43t30 -21t25 -8.5l11 -1q74 0 129 50t83 130.5t41 163.5t13 168q0 138 -39 253.5t-107 196t-159.5 137t-195.5 83t-216 26.5q-136 0 -260.5 -57t-216 -154.5t-145.5 -234.5t-54 -291q0 -74 9.5 -147.5t33 -154t59 -151t93 -135 t129.5 -110.5t173 -73.5t220 -27.5q0 1 5 15t8 19.5t9.5 18.5t13 19.5t16.5 15t22.5 12t27.5 3.5q42 0 62 -23.5t20 -58.5q0 -31 -37.5 -56.5t-80.5 -25.5q-160 0 -297 33.5t-236.5 93.5t-176 139t-123 174t-70 195t-23.5 205q0 147 48 278t130 228.5t189 169t228.5 107.5 t244.5 36q233 0 425 -94t303 -263.5t111 -380.5q0 -154 -52.5 -289t-152.5 -219.5t-225 -84.5q-40 0 -71.5 4.5t-69.5 17.5t-63 43t-33 76h-2q-49 -72 -125 -110t-156 -38q-93 0 -162 49t-76 132q0 5 -1 14.5t-1 13.5q0 26 4 48.5t15.5 42t22.5 35.5t33 30.5t39 25.5 t49.5 23.5t55 20.5t64.5 19.5t70 18.5t78 20q18 5 28 7.5l26 6.5t29 7v150q-4 225 -170 225q-68 0 -123 -32t-55 -78q0 -14 12 -23.5t24.5 -23.5t12.5 -37q0 -33 -30.5 -56.5t-65.5 -23.5q-41 0 -71.5 30.5t-30.5 71.5q0 34 29 76t75.5 78.5t112.5 61t133 24.5 q165 0 239 -73t74 -245zM1128 207v219q-168 -43 -202 -56q-118 -42 -142 -112q-8 -22 -8 -49q0 -19 2 -27q14 -110 135 -110q32 0 65.5 14t59 33t47 39.5t32.5 34t11 14.5z" />
<glyph unicode="A" horiz-adv-x="1449" d="M645 1434h92l506 -1293q55 -100 176 -100v-41h-530v41q85 0 127.5 27t27.5 73l-141 381h-491l-133 -381q-19 -59 11.5 -79.5t121.5 -20.5v-41h-381v41q59 0 89 21t50 79zM868 602l-221 590l-207 -590h428z" />
<glyph unicode="B" horiz-adv-x="1245" d="M90 1364h522q67 0 128 -12t115 -38.5t93.5 -65.5t62.5 -96.5t23 -127.5q0 -76 -44 -144t-104.5 -104.5t-113.5 -36.5q100 0 185.5 -37.5t141.5 -116t56 -184.5q0 -190 -149 -295.5t-392 -105.5h-524v41q182 -4 182 100v1084q0 28 -19.5 48.5t-43.5 30t-55 15t-43.5 6 t-20.5 0.5v39zM453 1284v-522h159q110 0 185 76t75 206q0 60 -20 106t-48.5 70.5t-66.5 40t-66 19.5t-55 4h-163zM453 682v-461q0 -162 163 -162q172 0 258 90t80 252q-4 70 -35 125.5t-79.5 88.5t-105 50t-116.5 17h-165z" />
<glyph unicode="C" horiz-adv-x="1355" d="M1235 281l39 -39q-75 -122 -203 -192t-278 -70q-318 0 -510.5 196t-192.5 526q0 153 59 283.5t157.5 216.5t224.5 134t262 48q114 0 227.5 -30.5t193.5 -92t80 -137.5q0 -37 -27.5 -68.5t-82.5 -31.5q-57 0 -85 39t-27 88.5t22 93.5q-108 80 -301 80q-147 0 -257.5 -80 t-167.5 -215.5t-57 -306.5q0 -99 19.5 -190.5t62 -174.5t104.5 -144.5t154 -97.5t203 -36q126 0 212 50t169 151z" />
<glyph unicode="D" horiz-adv-x="1495" d="M100 1364h502q125 0 236.5 -19.5t217 -67.5t181.5 -122t122 -190t46 -263q0 -155 -60.5 -288.5t-159 -223t-225 -140t-258.5 -50.5h-602v41q183 -4 183 100v1084q0 28 -19.5 48.5t-43.5 30t-55.5 15t-44 6t-20.5 0.5v39zM463 1305v-1131q10 -59 61 -87t119 -28 q114 0 204.5 31.5t153 88t104 137.5t60.5 176.5t19 209.5q0 311 -160.5 457t-480.5 146h-80z" />
<glyph unicode="E" horiz-adv-x="1214" d="M1063 322h61l-61 -322h-963v41q183 -4 183 100v1084q0 28 -19.5 48.5t-43.5 30t-55.5 15t-44 6t-20.5 0.5v39h924l20 -320h-61q0 65 -18 112.5t-47 76t-74.5 45t-92 22t-108.5 5.5h-180v-543q180 -2 214 1q121 9 160 70q25 41 25 111h62q-40 -157 -40.5 -221.5 t40.5 -241.5h-62q0 35 -5.5 63.5t-12.5 49.5t-23.5 36.5t-29.5 25.5t-39 16t-44 9.5t-53.5 4t-57 0t-65.5 -2t-69 -1.5v-549q11 -74 119 -74h17q63 0 94.5 0.5t84 5.5t81 14.5t67 28.5t60.5 46.5t43.5 70t33.5 97.5z" />
<glyph unicode="F" horiz-adv-x="1173" d="M1044 1364l39 -320h-59q-6 46 -19 83t-28.5 64t-41 47t-48 33t-58 21t-63 11.5t-71 4.5t-73 0.5t-79 -2t-80.5 -1.5v-543q180 -2 214 1q121 9 160 70q25 41 25 111h62q-40 -157 -40.5 -221.5t40.5 -241.5h-62q0 35 -5.5 63.5t-12.5 49.5t-23.5 36.5t-29.5 25.5t-39 16 t-44 9.5t-53.5 4t-57 0t-65.5 -2t-69 -1.5v-563q6 -49 41.5 -63.5t138.5 -14.5v-41h-543v41q183 -4 183 100v1084q0 28 -19.5 48.5t-43.5 30t-55.5 15t-44 6t-20.5 0.5v39h944z" />
<glyph unicode="G" horiz-adv-x="1597" d="M1538 602v-57q-47 0 -78.5 -6.5t-52.5 -20t-31.5 -35.5t-15.5 -52.5t-5 -71v-91.5q1 -56 1 -88q-253 -200 -502 -200q-210 0 -374.5 77.5t-249 201.5t-124 273.5t-0.5 299t122 273.5t243.5 201.5t364.5 77.5q88 0 260 -39.5t260 -39.5v-381h-80q0 113 -58 205.5 t-154.5 144t-209.5 51.5q-116 0 -213 -43.5t-160 -116.5t-107.5 -168t-55 -200t-2 -210t50.5 -200t103.5 -168t156.5 -116.5t209 -43.5q188 0 264 82.5t76 280.5v121h-222v59h584z" />
<glyph unicode="H" horiz-adv-x="1685" d="M1587 1364v-39q-7 0 -19.5 -0.5t-44 -6t-55.5 -15t-43.5 -30t-19.5 -48.5v-1084q0 -24 8 -42.5t25 -29t31.5 -17t41 -8.5t38.5 -2.5t38 -0.5v-41h-543v41q181 -4 181 100v541h-764v-541q0 -24 8 -42.5t25 -29t31.5 -17t41 -8.5t38.5 -2.5t38 -0.5v-41h-543v41 q181 -4 181 100v1084q0 44 -45.5 69t-90.5 28l-45 3v39h543v-39q-7 0 -19.5 -0.5t-44 -6t-55.5 -15t-43.5 -30t-19.5 -48.5v-463h764v463q0 44 -45.5 69t-90.5 28l-45 3v39h543z" />
<glyph unicode="I" horiz-adv-x="743" d="M100 1364h543v-39q-7 0 -19.5 -0.5t-44 -6t-55.5 -15t-43.5 -30t-19.5 -48.5v-1084q0 -24 8 -42.5t25 -29t31.5 -17t41 -8.5t38.5 -2.5t38 -0.5v-41h-543v41q181 -4 181 100v1084q0 44 -45.5 69t-90.5 28l-45 3v39z" />
<glyph unicode="J" horiz-adv-x="716" d="M104 1364h543v-39q-105 0 -143.5 -25.5t-38.5 -74.5v-1016q0 -393 -142 -618.5t-378 -225.5q-69 -1 -107.5 34.5t-38.5 84.5q0 48 36 84.5t85 36.5q35 0 68.5 -24t44.5 -56q5 -17 7 -24t7.5 -16.5t12 -11.5t17.5 -1.5t27 6.5q44 17 59 28q121 101 122 603v1116 q0 100 -181 100v39z" />
<glyph unicode="K" horiz-adv-x="1445" d="M1294 1364v-39q-63 -1 -143.5 -43.5t-155.5 -105t-152 -142.5t-132.5 -146.5t-98.5 -125.5q22 -22 90 -97.5t134.5 -148.5t156.5 -162.5t166 -155.5t152 -111.5t125 -45.5v-41h-363l-612 690v-549q0 -24 8 -42.5t25 -29t31.5 -17t41 -8.5t38.5 -2.5t38 -0.5v-41h-543v41 q181 -4 181 100v1084q0 44 -45.5 69t-90.5 28l-45 3v39h543v-39q-7 0 -19.5 -0.5t-44 -6t-55.5 -15t-43.5 -30t-19.5 -48.5v-471l432 471q15 18 23 30t11 27t-6.5 24t-36 14.5t-71.5 4.5v39h481z" />
<glyph unicode="L" horiz-adv-x="1142" d="M1053 301h59l-100 -301h-912v41q181 -4 181 100v1084q0 44 -45.5 69t-90.5 28l-45 3v39h543v-39q-7 0 -19.5 -0.5t-44 -6t-55.5 -15t-43.5 -30t-19.5 -48.5v-1084q0 -27 10 -47q32 -32 139 -35q77 -3 136.5 -0.5t103 12.5t79 37t65 72.5t59.5 120.5z" />
<glyph unicode="M" horiz-adv-x="1865" d="M1456 1364h340v-39q-94 0 -137 -27t-43 -94v-1063q0 -24 8.5 -42t25.5 -28.5t33 -17t40.5 -9t38 -3t34.5 -0.5v-41h-561v41q8 0 21.5 0.5t48.5 6t61.5 15t48 30t21.5 48.5v983l-547 -1065l-537 1065v-983q0 -58 56.5 -80.5t162.5 -19.5v-41h-501v41q29 0 55 3.5 t57.5 12.5t50.5 30.5t19 53.5v1084q0 23 -8.5 40t-19.5 26.5t-33 17t-37 10t-43 6.5v39h321l518 -1004z" />
<glyph unicode="N" horiz-adv-x="1595" d="M1055 1364h481v-39q-81 -6 -120.5 -19t-49.5 -30.5t-10 -50.5v-1245h-82l-922 1124v-963q0 -100 240 -100v-41h-522v41q182 -6 182 100v1084q0 44 -40.5 69t-81.5 28l-40 3v39h270l895 -1042v903q0 23 -10 40t-24.5 27t-43.5 16.5t-54 9.5t-68 7v39z" />
<glyph unicode="O" horiz-adv-x="1605" d="M813 1384q152 0 281 -47t223 -135t146.5 -221.5t52.5 -298.5q0 -152 -56.5 -284t-152 -223t-224 -143t-270.5 -52q-206 0 -369.5 84t-258.5 245t-95 373q0 201 98 363t263 250.5t362 88.5zM793 1325q-137 0 -248.5 -78t-172.5 -206.5t-61 -278.5q0 -108 18 -209.5 t59 -195.5t100.5 -163.5t148.5 -111t197 -41.5t198 52t145.5 136t86 186t30.5 208q0 111 -17 211.5t-55.5 191t-95.5 156.5t-142.5 104.5t-190.5 38.5z" />
<glyph unicode="P" horiz-adv-x="1163" d="M561 602v60q63 3 106.5 8.5t88 18t73 35t51.5 56.5t33.5 84.5t10.5 118.5q0 146 -92.5 234t-229.5 88h-139v-1168q5 -27 26 -46.5t44.5 -29t63.5 -14.5t63 -5.5t63 -0.5v-41h-623v41q183 -4 183 100v1084q0 28 -19.5 48.5t-43.5 30t-55.5 15t-44 6t-20.5 0.5v39h602 q100 0 192.5 -49.5t151 -138.5t58.5 -193q0 -111 -63 -200t-159 -135t-200 -46h-121z" />
<glyph unicode="Q" horiz-adv-x="1605" d="M1356 -59q41 0 70.5 -37.5t29.5 -83.5q0 -60 -33 -108t-85.5 -76.5t-110 -43t-113.5 -14.5q-75 0 -145 26t-128.5 75.5t-98 129.5t-48.5 179q-270 36 -437 221.5t-167 472.5q0 201 98 363t263 250.5t362 88.5q152 0 281 -47t223 -135t146.5 -221.5t52.5 -298.5 q0 -191 -87.5 -347t-233.5 -247t-323 -106q3 -57 21 -114.5t48.5 -109.5t81.5 -85t112 -33q150 0 200 100q-100 0 -100 100q0 48 35.5 74.5t85.5 26.5zM311 762q0 -108 18 -209.5t59 -195.5t100.5 -163.5t148.5 -111t197 -41.5t198 52t145.5 136t86 186t30.5 208 q0 111 -17 211.5t-55.5 191t-95.5 156.5t-142.5 104.5t-190.5 38.5q-137 0 -248.5 -78t-172.5 -206.5t-61 -278.5z" />
<glyph unicode="R" horiz-adv-x="1435" d="M463 1364h280q158 0 269.5 -92.5t111.5 -247.5q0 -63 -30 -119t-73.5 -93.5t-95.5 -67t-91.5 -44t-65.5 -18.5q45 -26 101.5 -86.5t108.5 -130t112.5 -145.5t114 -137t112 -101t108.5 -41v-41h-321l-361 561q-26 32 -63.5 52t-69.5 27t-67 8t-52 -1t-28 -4v-520 q11 -44 70 -63t129 -19v-41h-562v41q183 -4 183 100v1084q0 28 -19.5 48.5t-43.5 30t-55.5 15t-44 6t-20.5 0.5v39h363zM463 1305v-603q112 0 192 14.5t143 49.5t94.5 99t31.5 159q0 142 -89.5 211.5t-232.5 69.5h-139z" />
<glyph unicode="S" horiz-adv-x="1024" d="M555 592l-188 90q-100 48 -167 130.5t-67 199.5q0 93 35 166t92 116t131.5 67t153.5 25t157 -16t142 -51v-262h-74q-5 58 -24.5 106.5t-49 80.5t-66.5 54t-76.5 27t-79 1t-74.5 -26t-62 -53t-43 -79.5t-16 -106.5q0 -42 16.5 -77t49 -61.5t58 -42t64.5 -34.5l168 -86 q47 -23 81.5 -44.5t74 -54.5t64.5 -68.5t41.5 -85t16.5 -106.5q0 -86 -36.5 -164.5t-98.5 -136.5t-150.5 -92.5t-187.5 -34.5q-42 0 -84.5 7.5t-72 17t-64.5 26t-51 25.5t-42 26l-26 17v291h68q4 -13 12 -45t14 -54t18.5 -56t26 -57.5t35.5 -50t48.5 -43t63.5 -27.5t81 -11 q83 0 145 45t89.5 107t27.5 128q0 43 -4.5 72t-20 68t-53 72t-96.5 61z" />
<glyph unicode="T" horiz-adv-x="1255" d="M129 1204h-78q24 155 53 198q14 21 25 3q3 -2 10 -5q45 -24 85 -29q58 -7 407 -7q369 0 446 5.5t109 35.5q22 18 19 -15q-2 -23 -39 -152q-11 -39 -13 -54h-61v20q0 23 -13 39t-29.5 24t-45.5 12t-46 4.5t-47 0.5h-200v-1104q0 -33 10 -58.5t29.5 -39.5t37.5 -23.5 t45.5 -12.5t41.5 -4t36 -1v-41h-581v41q26 0 41 1t42.5 4t44.5 12.5t35.5 23.5t27.5 39.5t9 58.5v1104h-221q-25 0 -41.5 -0.5t-45.5 -4.5t-47 -12t-32 -24t-14 -39z" />
<glyph unicode="U" horiz-adv-x="1583" d="M1055 1364h479v-39q-26 0 -56.5 -4.5t-64.5 -15t-56 -31.5t-22 -49v-641q0 -128 -38 -235.5t-101.5 -177.5t-146.5 -119.5t-174.5 -61.5t-183 -2.5t-174.5 58t-146.5 118t-101.5 178.5t-38 240v643q0 28 -19.5 49t-49 31.5t-57.5 15t-54 4.5v39h541v-39q-26 0 -54 -4.5 t-57.5 -15t-49 -31.5t-19.5 -49v-664q0 -245 139 -380q109 -106 260 -105q152 0 267 107q145 136 156 381q1 19 1 38v623q0 54 -53.5 77t-126.5 23v39z" />
<glyph unicode="V" horiz-adv-x="1525" d="M1014 1364h461v-39q-52 0 -107 -26t-74 -74l-481 -1245h-121l-461 1245q-51 100 -180 100v39h561v-39q-144 0 -175 -14.5t-5 -85.5l361 -1024l401 1024q14 34 15 51t-17.5 29.5t-59 16t-118.5 3.5v39z" />
<glyph unicode="W" horiz-adv-x="2066" d="M1649 1364h368v-39q-52 0 -106.5 -26t-73.5 -74l-502 -1245h-80l-196 507l-205 -507h-121l-502 1245q-51 100 -180 100v39h420v-39q-35 0 -47 -4t-12 -25.5t20 -70.5l402 -1024l172 420l-234 604q-28 57 -60 78.5t-79 21.5v39h401v-39q-24 0 -36 -0.5t-28.5 -6t-22 -15.5 t-5.5 -29.5t10 -48.5l140 -396l163 396q41 100 -79 100v39h360v-39q-52 0 -106 -26t-74 -74l-215 -533l174 -491l414 1024q40 100 -80 100v39z" />
<glyph unicode="X" horiz-adv-x="1665" d="M920 750l385 -504q64 -83 146 -143.5t165 -61.5v-41h-582v41h107q21 0 27.5 11.5t1.5 29t-19 37.5q-316 418 -358 475l-349 -492q-7 -10 -10 -23.5t4 -25.5t27 -12h88v-41h-502v41q44 0 92.5 19t89.5 45t92.5 75t87 87t88.5 104t80 103t78.5 107.5t69.5 94.5 q-86 115 -135 180t-109 142t-93.5 115.5t-75.5 83t-68 63t-58.5 37t-60 23.5t-59.5 5v39h602v-39h-82q-43 0 -58.5 -23.5t-1.5 -41.5l330 -431l326 433q14 15 1.5 39t-42.5 24h-94v39h501v-39q-93 -8 -172.5 -47t-115.5 -82z" />
<glyph unicode="Y" horiz-adv-x="1425" d="M993 1364h381v-39q-61 -4 -99.5 -17.5t-57 -30.5t-43.5 -52l-361 -523v-561q0 -24 8.5 -42t26.5 -28.5t34.5 -17t44.5 -9t43.5 -3t43.5 -0.5v-41h-582v41q32 -4 67 -1.5t65 10t49.5 31t19.5 60.5v521l-381 563q-42 61 -92 80.5t-109 19.5v39h502v-39q-83 -7 -99.5 -31.5 t17.5 -68.5l301 -443l301 443q26 28 32 47t-7.5 29.5t-38 16t-66.5 7.5v39z" />
<glyph unicode="Z" horiz-adv-x="1271" d="M168 1044l61 320h908q45 0 26 -27l-733 -1116q-27 -41 -39.5 -69t-15 -42t8 -21t19.5 -8t30 -1h9h469q173 0 242 239h59l-59 -319h-1032q-19 0 -29 2t-11 8t0.5 10t6.5 13l852 1251h-436q-38 0 -69.5 -4t-55.5 -13.5t-42 -18.5t-32 -26.5t-23.5 -29.5t-18 -35t-12.5 -36 t-11 -39t-11 -38h-61z" />
<glyph unicode="[" horiz-adv-x="512" d="M92 1393h348v-62h-225v-1270h225v-61h-348v1393z" />
<glyph unicode="\" horiz-adv-x="634" d="M72 1413h143l348 -1433h-102z" />
<glyph unicode="]" d="M92 1331v62h348v-1393h-348v61h225v1270h-225z" />
<glyph unicode="^" horiz-adv-x="655" d="M72 1044l176 312q11 19 16.5 27.5t23.5 19t42 10.5t38 -7t19.5 -15t20.5 -35l176 -312h-41l-215 211l-215 -211h-41z" />
<glyph unicode="_" horiz-adv-x="1187" d="M72 -123h1044v-102h-1044v102z" />
<glyph unicode="`" horiz-adv-x="464" d="M332 1044l-230 205q-26 23 -35 49.5t-3.5 46.5t20.5 33q25 19 58 6t55 -49l176 -291h-41z" />
<glyph unicode="a" horiz-adv-x="958" d="M606 508v129q-4 225 -170 225q-68 0 -123 -32t-55 -78q0 -15 18.5 -34.5t18.5 -49.5q0 -34 -25.5 -57t-58.5 -23q-41 0 -71.5 30.5t-30.5 71.5q0 34 29 76t75.5 78.5t112.5 61t133 24.5q165 0 239 -73t74 -245v-428q0 -54 18 -83t46 -29q29 0 59 30l33 -41q-8 -9 -22 -22 t-57 -35t-85 -22q-65 0 -108.5 42.5t-43.5 116.5q-51 -75 -127.5 -120.5t-152.5 -45.5q-63 0 -111.5 20t-75 52t-40 66.5t-13.5 68.5q0 29 5 54t18.5 46.5t26.5 39t40 35t47 30t59.5 27t65.5 24t77 24t82.5 22.5t92.5 24zM608 207v239q-58 -15 -93 -25t-81.5 -26.5t-74 -33 t-53.5 -39t-38 -51t-12 -62.5q0 -58 33.5 -97.5t103.5 -39.5q32 0 65.5 14t59 33t47 39.5t32.5 34t11 14.5z" />
<glyph unicode="b" horiz-adv-x="1083" d="M41 1386l225 84q26 7 34.5 0.5t6.5 -20.5v-672q20 41 106 92.5t181 51.5q176 0 291.5 -115t115.5 -293q0 -242 -144.5 -388t-364.5 -146q-141 0 -245 70t-104 175v1024q0 29 -10 49.5t-26 30t-32 13.5t-34 4v40zM307 635v-410q0 -74 63 -126t142 -52q84 0 151.5 42.5 t103.5 110.5t54.5 150.5t4.5 165t-47.5 150.5t-100.5 110.5t-154 42.5q-74 0 -145.5 -57.5t-71.5 -126.5z" />
<glyph unicode="c" horiz-adv-x="927" d="M803 199l41 -41q-73 -94 -167.5 -139.5t-193.5 -45.5q-80 0 -152.5 32t-128.5 90.5t-89 148.5t-33 198q0 95 29.5 180t84.5 152.5t143.5 108.5t197.5 45q74 2 133.5 -12t95 -36t59 -50t32.5 -52t9 -43q0 -30 -18.5 -46.5t-44.5 -16.5q-47 0 -60.5 37t11.5 75 q-64 80 -174 80q-151 0 -240.5 -99.5t-89.5 -291.5q0 -174 93.5 -277.5t223.5 -103.5q142 0 238 107z" />
<glyph unicode="d" horiz-adv-x="1122" d="M664 1399l225 71q24 7 33.5 0.5t7.5 -20.5v-1327q0 -22 12 -36.5t28.5 -19t33.5 -6.5t28 0v-41q-180 -9 -264 -40v129q-29 -60 -108 -94.5t-140 -34.5q-216 0 -338 151q-100 125 -99 302q0 179 102 312q120 159 331 175l45 2q34 0 66 -7t48 -13t48.5 -22t42.5 -20v410 q0 88 -102 88v41zM766 178v531q-24 38 -39 58t-42 45.5t-61 36.5t-79 11q-111 0 -185 -80t-89.5 -194.5t4.5 -229t97.5 -194.5t188.5 -80q153 0 205 96z" />
<glyph unicode="e" horiz-adv-x="935" d="M813 205l33 -35q-73 -96 -168.5 -145.5t-194.5 -49.5q-109 0 -195.5 52.5t-131.5 137t-66 186t1 203.5t69 186.5t138 137t208 52.5q160 0 250.5 -87.5t97.5 -256.5q0 -14 -10 -23.5t-23 -9.5h-561q-15 -217 72 -340t233 -123q124 0 248 115zM260 614h389q41 0 41 62 q0 80 -56.5 137t-131.5 57q-102 0 -164.5 -65t-77.5 -191z" />
<glyph unicode="f" horiz-adv-x="618" d="M123 901h72q0 345 112.5 520.5t315.5 175.5q51 0 79.5 -31t28.5 -71q0 -41 -30.5 -71.5t-71.5 -30.5q-32 0 -60 20t-37 49q-1 3 -3 8.5t-3 8t-3 7t-3 6.5t-3 5t-3.5 4.5t-4 3t-5.5 2t-6 0.5q-28 0 -50 -13.5t-37 -40t-26 -57t-16.5 -74.5t-9 -82.5t-3.5 -90v-88t1 -85.5 t1 -75h226v-102h-226v-635q0 -38 16.5 -63t47.5 -37t58.5 -16.5t66.5 -6.5v-41h-451v41q4 0 14.5 1t14.5 1.5t13.5 1.5t13.5 3t11.5 5t11 7t8.5 10t7 13.5t3.5 17.5t1.5 22v676h-123q0 31 18 66.5t33 35.5z" />
<glyph unicode="g" horiz-adv-x="1001" d="M440 111h135q47 0 78.5 -1t76 -5t74 -11t62 -20.5t51.5 -33t31.5 -48.5t12.5 -66q0 -182 -175 -285q-147 -86 -354 -87q-191 0 -310 72q-102 62 -102 157q0 143 275 213q-70 18 -112.5 62.5t-41.5 136.5l195 122q-40 13 -76.5 35t-71.5 56.5t-56 86.5t-21 115 q0 140 110 227t273 87q69 0 113 -10t116 -22t203 -15v-70h-135q52 -49 55 -189q0 -135 -116.5 -236t-268.5 -95q-80 0 -124 -26.5t-38 -80.5q8 -69 141 -69zM289 653q0 -38 5.5 -76t20.5 -79t37.5 -71.5t61.5 -50.5t88 -20q44 0 76.5 18t50 43t28 58.5t13 56t2.5 43.5 q0 47 -9 93t-29.5 92.5t-62 75t-98.5 28.5q-44 0 -78 -13t-53.5 -33.5t-32 -49.5t-16.5 -56.5t-4 -58.5zM555 -25h-160q-45 -5 -81 -16t-67.5 -31t-47.5 -54t-13 -79t26.5 -79.5t61 -54t85 -30.5t99 -8.5t103 11.5t97.5 30t81.5 47.5t56.5 62.5t21 76q0 26 -8.5 46.5 t-20 33.5t-33 22.5t-37 14t-44.5 6.5t-42 2.5t-42.5 0t-34.5 -0.5z" />
<glyph unicode="h" horiz-adv-x="1122" d="M928 655v-553q0 -27 25.5 -42.5t50.5 -17.5l26 -1v-41h-368v41q4 0 11 0.5t24.5 3.5t31 9t24.5 18.5t11 29.5v492q0 118 -28.5 171.5t-114.5 53.5q-61 0 -132 -39.5t-131 -93.5v-584q0 -27 26 -42.5t52 -17.5l25 -1v-41h-369v41q4 0 11 0.5t25 3.5t31.5 9t24.5 18.5 t11 29.5v1168q0 29 -9.5 48t-27 27t-32.5 10.5t-34 2.5v41l225 71q29 6 36 0.5t5 -20.5v-684q67 67 164.5 111.5t179.5 44.5q226 0 226 -267z" />
<glyph unicode="i" d="M270 1186q-45 0 -77.5 33.5t-32.5 76.5q0 49 31.5 80t78.5 31t78 -30.5t31 -80.5q0 -45 -31.5 -77.5t-77.5 -32.5zM358 901v-799q0 -27 26 -42.5t52 -17.5l25 -1v-41h-369v41q4 0 11 0.5t25 3.5t31.5 9t24.5 18.5t11 29.5v619q0 29 -9.5 48t-27 27t-32.5 10.5t-34 2.5v41 l225 72q26 8 34.5 1t6.5 -22z" />
<glyph unicode="j" horiz-adv-x="532" d="M274 1186q-45 0 -77.5 33.5t-32.5 76.5q0 49 31.5 80t78.5 31t78 -30.5t31 -80.5q0 -45 -31.5 -77.5t-77.5 -32.5zM94 850l225 72q26 8 34.5 1t6.5 -22v-901q0 -120 -25 -216t-66 -158t-98.5 -103t-119 -58.5t-129.5 -17.5q-55 0 -91 30.5t-36 71.5q0 42 26 72.5t66 30.5 q37 0 66 -22t29 -64q0 -24 15.5 -39.5t37.5 -15.5q162 0 162 489v721q0 29 -9.5 48t-27 27t-32.5 10.5t-34 2.5v41z" />
<glyph unicode="k" horiz-adv-x="1136" d="M573 571l369 -467q25 -32 78.5 -48.5t105.5 -16.5v-41h-307l-348 487l-123 -112v-271q0 -27 26 -42.5t52 -17.5l25 -1v-41h-369v41q4 0 11 0.5t24.5 3.5t31 9t24.5 18.5t11 29.5v1168q0 29 -9.5 48t-27 27t-32 10.5t-33.5 2.5v41l225 71q29 6 36 0.5t5 -20.5v-961 l369 328q28 28 -16 34q-20 3 -87 3v45h430v-45q-48 0 -95 -13t-81 -29t-80 -51t-70 -56t-74 -68t-71 -66z" />
<glyph unicode="l" d="M92 1399l225 71q29 6 36 0.5t5 -20.5v-1348q0 -27 26 -42.5t52 -17.5l25 -1v-41h-369v41q4 0 11 0.5t25 3.5t31.5 9t24.5 18.5t11 29.5v1168q0 29 -9.5 48t-27 27t-32.5 10.5t-34 2.5v41z" />
<glyph unicode="m" horiz-adv-x="1701" d="M1507 655v-553q0 -27 25.5 -42.5t51.5 -17.5l26 -1v-41h-369v41q4 0 11 0.5t24.5 3.5t31 9t24.5 18.5t11 29.5v492q0 117 -38.5 171t-104.5 54q-79 0 -148 -39.5t-120 -101.5v-23v-553q0 -27 25.5 -42.5t50.5 -17.5l26 -1v-41h-368v41q4 0 11 0.5t24.5 3.5t31 9 t24.5 18.5t11 29.5v533q0 92 -42 139t-103.5 44.5t-133.5 -42t-131 -108.5v-566q0 -27 26 -42.5t52 -17.5l25 -1v-41h-369v41q4 0 11 0.5t25 3.5t31.5 9t24.5 18.5t11 29.5v619q0 29 -9.5 48t-27 27t-32.5 10.5t-34 2.5v41l225 72q26 8 34.5 1t6.5 -22v-149 q107 108 226.5 149t212.5 3t123 -148q170 166 331 166q256 0 256 -267z" />
<glyph unicode="n" horiz-adv-x="1146" d="M952 655v-553q0 -27 26 -42.5t52 -17.5l25 -1v-41h-369v41q4 0 11 0.5t24.5 3.5t31 9t24.5 18.5t11 29.5v533q0 97 -45.5 143.5t-111 40.5t-140.5 -52.5t-133 -123.5v-541q0 -27 26 -42.5t52 -17.5l25 -1v-41h-369v41q4 0 11 0.5t25 3.5t31.5 9t24.5 18.5t11 29.5v619 q0 29 -9.5 48t-27 27t-32.5 10.5t-34 2.5v41l225 72q26 8 34.5 1t6.5 -22v-172q72 79 155.5 128.5t160 59.5t140 -12t101 -87t37.5 -163z" />
<glyph unicode="o" horiz-adv-x="1105" d="M553 928q207 0 339 -131.5t132 -345.5q0 -199 -137 -335t-334 -136q-209 0 -340 129t-131 342q0 214 131.5 345.5t339.5 131.5zM532 866q-58 0 -104.5 -23.5t-76 -61t-49.5 -87.5t-28 -100t-8 -102q0 -58 10 -117.5t33 -120.5t57.5 -107.5t88 -76t118.5 -29.5 q58 0 104 21t76 56t50 83t28.5 100t8.5 109q0 82 -16 158.5t-50 145.5t-96.5 110.5t-145.5 41.5z" />
<glyph unicode="p" horiz-adv-x="1120" d="M338 897v-119q71 71 140 107.5t167 36.5q199 0 307 -147q93 -125 86 -303q-6 -181 -111 -316q-127 -162 -340 -175q-22 -1 -44 -1q-68 1 -124.5 28t-80.5 64v-441q0 -27 25.5 -42.5t50.5 -16.5l26 -2v-41h-368v41q4 0 11 0.5t24.5 3.5t31 9t24.5 18.5t11 29.5v1086 q0 29 -9.5 48t-27 27t-32 10.5t-33.5 2.5v41l225 72q26 8 34.5 1t6.5 -22zM338 696v-446q0 -78 65 -136t160 -59q62 -1 115 25t87.5 69.5t59.5 100.5t31.5 120t3 126.5t-26.5 120.5t-57 101.5t-87 70.5t-118 26q-62 0 -135.5 -38.5t-97.5 -80.5z" />
<glyph unicode="q" horiz-adv-x="1083" d="M938 -369h2q0 -27 25.5 -42.5t50.5 -16.5l26 -2v-41h-368v41q4 0 11 0.5t24.5 3.5t31 9t24.5 18.5t11 29.5v492q-17 -42 -106 -89t-178 -46q-205 2 -318 150q-96 125 -91 301q6 179 110 310q127 160 345 172q16 1 33 1q60 0 130.5 -33.5t129.5 -77.5l66 111q15 9 28 4 t13 -25v-1270zM776 205v450q0 48 -23.5 87t-59 61.5t-72.5 34.5t-70 12q-107 0 -182.5 -77.5t-94 -188t-0.5 -221t98 -188t201 -77.5q38 0 73 11t58 26.5t40 31.5t24 27z" />
<glyph unicode="r" horiz-adv-x="778" d="M358 901v-147q138 168 267 168q48 0 85.5 -29.5t37.5 -73.5q0 -49 -29 -76.5t-63.5 -27.5t-63.5 27.5t-29 76.5q-53 0 -116.5 -53t-88.5 -117v-547q0 -27 41 -42.5t82 -17.5l41 -1v-41h-430v41q4 0 11 0.5t25 3.5t31.5 9t24.5 18.5t11 29.5v619q0 29 -9.5 48t-27 27 t-32.5 10.5t-34 2.5v41l225 72q41 12 41 -21z" />
<glyph unicode="s" horiz-adv-x="821" d="M442 371l-129 61q-73 35 -132.5 97.5t-59.5 140.5q0 129 88.5 194.5t232.5 65.5q34 0 122 -16.5t114 -28.5v-178h-70q-22 165 -186 165q-48 0 -82 -14t-49.5 -37.5t-21.5 -44.5t-7 -45q-1 -29 9 -52t32.5 -40.5t38 -26.5t43.5 -22l121 -58q36 -17 56.5 -28t52.5 -35.5 t49.5 -50t31 -66.5t13.5 -90q0 -130 -101.5 -209.5t-245.5 -79.5q-54 0 -117 18t-97 33.5t-56 28.5v197h68q9 -32 15 -50.5t24 -52.5t39 -53t58.5 -35t84.5 -16q83 0 128.5 52t43.5 116q-2 53 -25 91.5t-86 68.5z" />
<glyph unicode="t" horiz-adv-x="716" d="M317 1126h62v-225h287v-102h-287v-512q0 -100 16 -138q24 -54 84 -55q31 0 59.5 13t39.5 22.5t30 28.5l37 -35q-104 -130 -262 -137q-35 -1 -62 7.5t-44.5 21.5t-30 37t-18.5 42.5t-9 51t-3.5 50t-0.5 50.5v553h-143v82q76 0 160.5 77.5t84.5 167.5z" />
<glyph unicode="u" horiz-adv-x="1103" d="M643 846l225 72q26 10 34.5 2.5t6.5 -23.5v-774q0 -62 103 -62v-41q-183 -9 -267 -40v143q-15 -10 -53 -41.5t-64 -49.5t-72.5 -35t-96.5 -17q-146 0 -216.5 89.5t-70.5 237.5v434q-11 64 -100 64v41l223 72q25 8 34 1t7 -22v-569q0 -62 13.5 -114t52 -92t98.5 -40 q132 0 245 123v512q0 29 -9.5 48t-27 27t-32 10.5t-33.5 2.5v41z" />
<glyph unicode="v" horiz-adv-x="1052" d="M674 901h348v-41q-44 0 -71.5 -19.5t-51.5 -62.5l-328 -798h-102l-315 798q-21 49 -51.5 65.5t-71.5 16.5v41h409v-41q-71 0 -100 -20.5t-14 -61.5l237 -606l234 606q18 49 -16 65.5t-107 16.5v41z" />
<glyph unicode="w" horiz-adv-x="1564" d="M1186 901h348v-41q-44 0 -71.5 -19.5t-51.5 -62.5l-307 -798h-103l-202 655l-248 -655h-102l-295 798q-21 49 -51.5 65.5t-71.5 16.5v41h409v-41q-71 0 -100 -20.5t-14 -61.5l217 -606l209 594q-21 58 -28 68q-17 23 -74 26h-25v41h389v-41q-68 0 -89 -19.5t-5 -62.5 l176 -606l213 606q18 49 -16 65.5t-107 16.5v41z" />
<glyph unicode="x" horiz-adv-x="1064" d="M1004 899v-41q-63 2 -108 -22.5t-107.5 -94t-192.5 -241.5q239 -305 293 -365q68 -76 116 -89q20 -5 50 -5v-41h-414v41h37q17 0 27 2t18.5 7.5t5 19.5t-19.5 36q-35 47 -101 133t-96 126l-180 -259q-43 -65 41 -65h26v-41h-389v41q43 0 69 2.5t60 20t55.5 35.5 t67.5 71.5t84.5 104.5t116.5 155q-110 145 -167 216.5t-109.5 126.5t-84 71t-67.5 16v41h397v-43h-33q-83 0 -32 -65q95 -118 178 -228l176 230q49 63 -29 63h-43v41h355z" />
<glyph unicode="y" horiz-adv-x="1054" d="M676 901h348v-41q-44 0 -71.5 -19.5t-51.5 -62.5l-336 -819q-42 -119 -73.5 -195t-62.5 -131.5t-64 -83t-69 -39.5t-87 -12q-47 0 -92 34t-45 85t29.5 76.5t62.5 25.5q84 0 84 -65q0 -70 33 -70q38 0 70.5 61.5t108.5 258.5q14 36 21 55l-325 819q-20 49 -51 65.5 t-72 16.5v41h409v-41q-71 0 -100 -20.5t-14 -61.5l237 -606l234 606q18 49 -16 65.5t-107 16.5v41z" />
<glyph unicode="z" horiz-adv-x="880" d="M92 696l41 246q20 0 31.5 -6.5t16 -14t21 -14t46.5 -6.5q569 -2 571 0v-41l-516 -708q-28 -38 -24.5 -64.5t38.5 -26.5h324q32 0 62.5 43.5t46.5 89.5t18 72h61l-41 -266h-737v61l594 779h-409q-53 -73 -62 -144h-82z" />
<glyph unicode="{" horiz-adv-x="634" d="M236 778v389q0 78 17.5 132t43.5 84t72.5 46.5t88 20.5t105.5 4v-20q-93 -15 -149 -87.5t-56 -179.5v-348q0 -60 -5.5 -100.5t-22 -80t-50 -65.5t-85.5 -41q7 -5 18 -14t39 -38t49.5 -58.5t39 -72.5t17.5 -83v-368q0 -107 56 -179.5t149 -87.5v-20q-64 0 -105.5 4 t-88 20.5t-72.5 46.5t-43.5 84t-17.5 132v389q0 107 -36 160.5t-128 84.5q92 31 128 85t36 161z" />
<glyph unicode="|" horiz-adv-x="245" d="M72 1497h102v-1599h-102v1599z" />
<glyph unicode="}" horiz-adv-x="634" d="M72 1434v20q64 0 105.5 -4t88 -20.5t72.5 -46.5t43.5 -84t17.5 -132v-389q0 -107 36 -161t128 -85q-92 -31 -128 -84.5t-36 -160.5v-389q0 -78 -17.5 -132t-43.5 -84t-72.5 -46.5t-88 -20.5t-105.5 -4v20q93 15 148.5 87.5t55.5 179.5v368q0 40 17 82t41 73.5t48 57.5 t41 39l17 14q-52 15 -85.5 41t-50 65.5t-22.5 80t-6 100.5v348q0 107 -55.5 179.5t-148.5 87.5z" />
<glyph unicode="~" horiz-adv-x="815" d="M281 819l213 -82q69 -27 113.5 8.5t88.5 124.5l47 -28q-60 -150 -105.5 -199t-102.5 -29l-234 82q-15 5 -28.5 6.5t-24 1t-21.5 -6.5t-18.5 -10t-17 -16.5t-15 -19t-15 -24t-13.5 -25.5t-14.5 -29.5t-14.5 -29.5l-47 28q9 22 19.5 52.5t17.5 52.5t17 47.5t19.5 43 t23.5 33t29.5 22t36.5 6.5t46 -9z" />
<glyph horiz-adv-x="1605" />
<glyph unicode="&#xa1;" horiz-adv-x="389" d="M195 1403q46 0 84 -38.5t38 -84.5t-38 -84.5t-84 -38.5t-84.5 38.5t-38.5 84.5q0 47 38 85t85 38zM193 973h4q17 0 27 -15.5t11 -31.5l1 -15l61 -819q3 -49 -24.5 -86t-77.5 -37t-78 37t-25 86l62 819v7t2.5 14.5t6 19t11.5 15t19 6.5z" />
<glyph unicode="&#xa2;" horiz-adv-x="962" d="M604 1065h82l-43 -158l14 -4q46 -12 95 -36t92 -67.5t43 -90.5q0 -41 -30 -70t-71 -29q-43 0 -71.5 29t-28.5 72q0 42 29 71q-38 41 -88 62l-199 -733q60 -29 135 -29q68 0 152.5 36.5t134.5 86.5l41 -41q-96 -94 -190.5 -139t-219.5 -45q-41 0 -86 10l-37 -133h-61 l39 151q-120 50 -192 167.5t-72 254.5q0 125 57 237.5t161.5 183.5t231.5 71q31 0 45 -2zM371 147l182 713h-10q-287 0 -287 -389q0 -225 115 -324z" />
<glyph unicode="&#xa3;" horiz-adv-x="1224" d="M326 758h198q123 553 410 553q57 0 100 -24t43 -79q0 -37 -20.5 -69t-61.5 -33q-28 -1 -45 11.5t-24 31t-12.5 36.5t-15 31t-26.5 13q-46 0 -91.5 -100.5t-69 -206t-27.5 -164.5h209v-62h-221q-20 -74 -48 -205t-53 -227q35 -6 71.5 -35.5t67 -67t61.5 -74t66 -61 t68 -24.5q46 0 86.5 42.5t104.5 139.5l57 -43q-8 -11 -30.5 -39t-30 -37t-27 -30t-30.5 -28.5t-31 -20.5t-38 -18t-42 -9t-52 -4q-56 0 -103 26t-263 175q-50 -97 -124 -147t-185 -50q-63 0 -98.5 39t-35.5 90q0 94 94 154.5t263 60.5q52 201 84 393h-185zM391 201 q-51 16 -103 16t-91 -29t-39 -79q0 -37 18 -61.5t47 -24.5q45 0 94.5 50.5t73.5 127.5z" />
<glyph unicode="&#xa4;" horiz-adv-x="976" d="M733 862l105 105l67 -68l-100 -102q36 -42 56 -111t20 -135t-19.5 -134t-56.5 -116l100 -104l-63 -64l-103 107q-44 -40 -113 -62t-134 -22q-68 0 -137.5 21.5t-116.5 62.5l-103 -107l-63 64l102 106q-37 48 -57.5 114t-20.5 130q0 68 20.5 136.5t61.5 111.5l-106 104 l65 68l105 -105q44 37 114.5 57.5t137.5 20.5q63 0 130 -20.5t109 -57.5zM494 829q-117 0 -198 -82.5t-81 -199.5q0 -114 81.5 -197.5t195.5 -83.5q113 0 191.5 85t78.5 200q0 110 -79.5 194t-188.5 84z" />
<glyph unicode="&#xa5;" horiz-adv-x="1425" d="M995 1282h359v-35h-131l-398 -588v-106h172v-59h-172v-125h172v-60h-172v-268h189v-41h-545v39h188v270h-172v60h172v125h-172v59h172v70l-415 622h-170v37h510v-35h-133l339 -512l340 510h-133v37z" />
<glyph unicode="&#xa6;" horiz-adv-x="225" d="M72 1475h82v-553h-82v553zM72 492h82v-574h-82v574z" />
<glyph unicode="&#xa7;" horiz-adv-x="921" d="M543 1393q35 0 70.5 -5t72 -15.5t59.5 -32t23 -50.5q0 -61 -61 -61q-28 0 -48.5 12.5t-34.5 30.5t-30.5 36.5t-44.5 31t-68 12.5q-30 0 -50 -8t-30 -18t-15 -32.5t-6 -38t-1 -47.5q0 -67 35 -139.5t87 -134t113.5 -134t113.5 -138.5t87 -149.5t35 -164.5q0 -76 -37 -147 t-101 -124.5t-156.5 -85.5t-197.5 -32q-54 0 -108.5 13t-95.5 42t-41 68q0 61 61 61q34 0 58.5 -14.5t40.5 -35.5t33 -42.5t46 -36t68 -14.5q36 0 60 10t36.5 23t18.5 39t7 42.5t1 49.5q0 62 -35 133.5t-87 135t-113.5 138.5t-113.5 143.5t-87 150.5t-35 159 q0 142 138.5 255.5t332.5 113.5zM604 82l-20 -21q68 51 116 123t48 144q0 62 -36.5 137.5t-91 143.5t-118.5 144t-118.5 141t-91 133t-36.5 120q0 27 10 58t20 48l11 17q-102 -76 -102 -246q0 -62 32 -133t80.5 -133.5t106 -135t107 -136.5t85 -139t39.5 -142 q0 -9 -0.5 -17.5t-3.5 -18.5t-5 -16.5t-7.5 -18.5t-7.5 -16.5t-9 -18.5t-8 -17z" />
<glyph unicode="&#xa8;" horiz-adv-x="696" d="M176 1360q47 0 78 -30.5t31 -80.5q0 -45 -31.5 -77.5t-77.5 -32.5q-45 0 -77.5 33.5t-32.5 76.5q0 49 31.5 80t78.5 31zM524 1360q47 0 78 -30.5t31 -80.5q0 -45 -31.5 -77.5t-77.5 -32.5q-45 0 -77.5 33.5t-32.5 76.5q0 49 31.5 80t78.5 31z" />
<glyph unicode="&#xa9;" horiz-adv-x="1312" d="M653 1067q157 0 291 -66.5t215.5 -189.5t81.5 -276q0 -115 -48 -219t-128.5 -177t-188.5 -116t-225 -43q-156 0 -288.5 71.5t-211.5 199t-79 281.5t79.5 277.5t212 190.5t289.5 67zM653 1006q-61 0 -126 -22t-124 -65t-105.5 -99.5t-74.5 -131.5t-28 -156 q0 -101 42.5 -194t108.5 -157t147 -102.5t158 -39.5q136 -2 243.5 63t165.5 178t58 252q0 208 -132 340t-333 134zM817 698l12 -14q-32 92 -135 92q-186 0 -186 -244q0 -110 52.5 -169.5t152.5 -59.5q109 0 155 43q23 -18 27 -24q-63 -62 -107.5 -83.5t-125.5 -21.5 q-121 0 -201 83t-80 228q0 119 87.5 203t211.5 84q86 0 150.5 -43t64.5 -127q0 -25 -20 -44t-46 -19t-45.5 19t-19.5 44q0 53 53 53z" />
<glyph unicode="&#xaa;" horiz-adv-x="585" d="M326 1208v60q2 59 -20 87.5t-77 20.5q-63 -17 -63 -59q0 -9 2 -17t2 -14.5t-4 -17.5q-9 -16 -25 -22t-32 -1q-33 11 -33 47q0 32 41.5 66t89.5 51q46 20 83 21t65 -17.5t43.5 -63.5t15.5 -114v-213q0 -56 13 -78.5t30 -17.5t35 26l22 -26q-25 -23 -43 -35 q-22 -12 -51.5 -10t-55.5 28.5t-26 65.5v-17q-32 -84 -148 -77q-52 2 -85 37.5t-33 91.5q0 37 28.5 69t62 49.5t87 42t76.5 37.5zM326 997v160q-85 -35 -127 -62.5t-43 -60.5q-4 -104 90 -104q28 0 54 25t26 42z" />
<glyph unicode="&#xab;" horiz-adv-x="819" d="M399 778q5 -3 13 -7t19.5 -15t8.5 -19q-6 -18 -105 -151t-99 -156t99 -156t105 -151q3 -8 -7.5 -18t-22.5 -17l-11 -6q-327 327 -327 348t327 348zM707 778q16 0 30.5 -14t10.5 -27q-6 -18 -105.5 -151t-99.5 -156t99.5 -156t105.5 -151q4 -13 -10.5 -27t-30.5 -14 q-328 328 -328 348t328 348z" />
<glyph unicode="&#xac;" horiz-adv-x="921" d="M72 840h778v-410h-102v307h-676v103z" />
<glyph unicode="&#xad;" horiz-adv-x="655" d="M72 471l491 61l21 -102l-492 -61z" />
<glyph unicode="&#xae;" horiz-adv-x="897" d="M449 1458q157 0 266.5 -108.5t109.5 -264.5q0 -152 -109.5 -258t-266.5 -106q-156 0 -266.5 106t-110.5 258q0 156 110.5 264.5t266.5 108.5zM449 1409q-130 0 -223 -96t-93 -228q0 -128 93 -222.5t223 -94.5q131 0 224 94t93 223q0 133 -93 228.5t-224 95.5zM272 1313 h201q56 0 97.5 -26.5t41.5 -80.5q0 -100 -143 -112q6 -8 15.5 -21t37 -46.5t52 -59.5t52 -47t44.5 -21v-16h-111l-139 211q-11 16 0 16q112 0 112 96q0 48 -21.5 68t-64.5 20h-53v-368q0 -27 70 -27v-16h-211v16q59 0 59 27v342q0 13 -7 19t-13 6.5t-19 0.5v19z" />
<glyph unicode="&#xaf;" horiz-adv-x="716" d="M72 1290h573v-102h-573v102z" />
<glyph unicode="&#xb0;" horiz-adv-x="716" d="M358 1454q121 0 204 -91t83 -216q0 -123 -82 -205t-205 -82t-204.5 82t-81.5 205q0 125 82.5 216t203.5 91zM358 1331q-67 0 -115 -48.5t-48 -135.5t48 -135.5t115 -48.5t115.5 48.5t48.5 135.5t-48.5 135.5t-115.5 48.5z" />
<glyph unicode="&#xb1;" horiz-adv-x="808" d="M342 963h123v-246h266v-103h-266v-266h-123v266h-266v103h266v246zM72 225h665v-100h-665v100z" />
<glyph unicode="&#xb2;" horiz-adv-x="792" d="M145 1573l-28 14q109 148 235 148q81 0 144 -56.5t63 -136.5q0 -159 -309 -397h354l74 119l43 -31l-74 -176h-207h-323l-45 43q40 27 59 40t63 46t69 55t60.5 58t54.5 65t33.5 65.5t14.5 69.5q0 56 -32.5 102t-84.5 46q-56 0 -92 -16.5t-72 -57.5z" />
<glyph unicode="&#xb3;" horiz-adv-x="739" d="M231 1266l-16 47q46 19 80 37t73 46.5t60 66.5t21 83q0 60 -40 100t-100 40q-29 0 -69 -12t-45 -32q37 -3 55 -22.5t18 -42.5q0 -28 -26.5 -44.5t-57.5 -16.5q-23 0 -42 19t-19 42q0 78 69.5 125t147.5 47q57 0 107.5 -16t88 -56.5t37.5 -99.5q0 -68 -37.5 -129 t-101.5 -74q86 3 160 -71.5t74 -161.5q0 -149 -103 -237.5t-256 -88.5q-45 0 -98.5 19.5t-96 58.5t-42.5 86q0 29 24.5 52.5t55.5 23.5q30 0 53.5 -23.5t23.5 -54.5q0 -42 -36 -64q6 -15 46 -34t70 -19q105 0 169.5 72t64.5 178q0 90 -47 138t-140 48q-23 0 -64.5 -14 t-60.5 -16z" />
<glyph unicode="&#xb4;" horiz-adv-x="464" d="M88 1044l176 291q25 40 56.5 51.5t56.5 -8.5q69 -48 -19 -129l-229 -205h-41z" />
<glyph unicode="&#xb6;" horiz-adv-x="1085" d="M563 614h-61q-63 0 -125 17.5t-117 51.5t-97 80.5t-66.5 109t-24.5 131.5q0 106 59.5 191.5t153 131t196.5 45.5h185t97 1.5t57.5 3t67.5 6.5t126 10v-62l-144 -20v-1229l144 -21v-61q-42 3 -95.5 11.5t-109.5 8.5q-57 0 -410 -20v61l164 11v542zM707 82v1229h-62v-1233z M563 682v627q-389 -18 -389 -305q0 -71 21.5 -126t56.5 -89t87 -57.5t105 -34t119 -15.5z" />
<glyph unicode="&#xb7;" horiz-adv-x="442" d="M221 778q55 0 102.5 -47.5t47.5 -101.5q0 -55 -47.5 -102.5t-102.5 -47.5q-54 0 -101.5 47.5t-47.5 102.5q0 54 47.5 101.5t101.5 47.5z" />
<glyph unicode="&#xb8;" d="M154 -205l77 201l68 -4l-43 -135q41 20 61 20q64 0 114 -41.5t50 -101.5q0 -44 -20.5 -77t-54.5 -51.5t-71.5 -27t-78.5 -8.5q-123 0 -184 20l20 62q43 -21 144 -21q102 0 102 82q0 46 -18 64t-64 18h-102z" />
<glyph unicode="&#xb9;" d="M72 1722h409v-61h-143v-553h143v-61h-409v61h143v553h-143v61z" />
<glyph unicode="&#xba;" horiz-adv-x="696" d="M338 1434q137 0 212 -71t75 -198q0 -145 -79 -214.5t-208 -69.5q-121 0 -193.5 69t-72.5 217q0 111 73.5 189t192.5 78zM338 1393q-36 0 -62 -13t-41.5 -33t-24.5 -51t-12 -61t-3 -68q0 -120 35 -182.5t128 -62.5q85 0 114.5 61t29.5 182q0 30 -0.5 45.5t-3.5 43.5t-9 44 t-18 36.5t-29 31.5t-43.5 19t-60.5 8z" />
<glyph unicode="&#xbb;" horiz-adv-x="839" d="M113 778q5 -5 102 -97.5t171.5 -167t74.5 -83.5t-74.5 -83.5t-171.5 -167t-102 -97.5q-15 0 -28 13t-13 28q5 10 104.5 146.5t99.5 160.5t-99.5 160.5t-104.5 146.5q0 15 13 28t28 13zM420 778q5 -5 102 -97.5t171.5 -167t74.5 -83.5t-74.5 -83.5t-171.5 -167t-102 -97.5 q-41 21 -41 41q5 10 105 146.5t100 160.5t-100 160.5t-105 146.5q0 9 10.5 19t20.5 16z" />
<glyph unicode="&#xbc;" horiz-adv-x="1525" d="M72 1436h409v-62h-143v-553h143v-61h-409v61h143v553h-143v62zM1122 1434h103l-922 -1475h-143zM1214 672h31v-582h209v-90h-209v-358h-121v358h-372l-45 45zM1124 90v387l-299 -387h299z" />
<glyph unicode="&#xbd;" horiz-adv-x="1562" d="M72 1436h409v-62h-143v-553h143v-61h-409v61h143v553h-143v62zM1122 1434h103l-922 -1475h-143zM915 516l-28 14q109 148 235 148q81 0 144 -56.5t63 -134.5q0 -161 -309 -399h352l74 119l45 -31l-74 -176h-207h-323l-45 45q43 28 69.5 47t74.5 54.5t79.5 67t64.5 70.5 t49.5 79t16.5 79q0 56 -32.5 102t-86.5 46q-55 0 -90.5 -16.5t-71.5 -57.5z" />
<glyph unicode="&#xbe;" horiz-adv-x="1746" d="M231 999l-16 48q46 19 80 37t73 46.5t60 66.5t21 83q0 60 -40 99.5t-100 39.5q-29 0 -69 -11.5t-45 -31.5q37 -3 55 -22.5t18 -42.5q0 -29 -26.5 -45.5t-57.5 -16.5q-23 0 -42 19.5t-19 42.5q0 78 69.5 125t147.5 47q57 0 107.5 -16t88 -56.5t37.5 -99.5 q0 -68 -37.5 -129t-101.5 -74q86 3 160 -72t74 -162q0 -149 -103 -237t-256 -88q-45 0 -98.5 19.5t-96 58.5t-42.5 86q0 29 24.5 52t55.5 23q30 0 53.5 -23.5t23.5 -53.5q0 -42 -36 -64q6 -15 46 -34t70 -19q105 0 169.5 72t64.5 178q0 90 -47 138t-140 48q-23 0 -64 -14.5 t-61 -16.5zM1343 1434h103l-922 -1475h-143zM1436 672h30v-582h209v-90h-209v-358h-120v358h-373l-45 45zM1346 90v387l-299 -387h299z" />
<glyph unicode="&#xbf;" horiz-adv-x="698" d="M463 1411q46 0 84.5 -38.5t38.5 -84.5q0 -44 -39.5 -83.5t-83.5 -39.5q-46 0 -84.5 38.5t-38.5 84.5t38.5 84.5t84.5 38.5zM453 743v177q0 12 21 17q32 8 44 -21q6 -13 4 -33v-285q-39 -3 -83 -12t-101.5 -33.5t-101 -59t-71 -94.5t-20.5 -135q4 -49 34 -87.5t68.5 -53.5 t79 -18t66.5 18q42 29 54.5 34t56.5 5q18 0 29.5 -1t31 -6t31.5 -15.5t21.5 -31t9.5 -49.5q0 -41 -40 -61.5t-83 -20.5q-82 0 -151 14.5t-131.5 47.5t-101.5 95.5t-46 150.5q-22 259 153 377q43 29 100 44t91 20.5t35 16.5z" />
<glyph unicode="&#xc0;" horiz-adv-x="1449" d="M831 1507l-229 205q-26 23 -35 49.5t-3.5 46.5t20.5 33q25 19 57.5 6t54.5 -49l176 -291h-41zM645 1434h92l506 -1293q55 -100 176 -100v-41h-530v41q85 0 127.5 27t27.5 73l-141 381h-491l-133 -381q-19 -59 11.5 -79.5t121.5 -20.5v-41h-381v41q59 0 89 21t50 79z M868 602l-221 590l-207 -590h428z" />
<glyph unicode="&#xc1;" horiz-adv-x="1449" d="M831 1507l-229 205q-26 23 -35 49.5t-3.5 46.5t20.5 33q25 19 57.5 6t54.5 -49l176 -291h-41zM645 1434h92l506 -1293q55 -100 176 -100v-41h-530v41q85 0 127.5 27t27.5 73l-141 381h-491l-133 -381q-19 -59 11.5 -79.5t121.5 -20.5v-41h-381v41q59 0 89 21t50 79z M868 602l-221 590l-207 -590h428z" />
<glyph unicode="&#xc2;" horiz-adv-x="1449" d="M492 1507l176 312q11 19 16.5 27.5t23.5 19t42 10.5t38 -7.5t19 -14.5t20 -35l177 -312h-41l-215 211l-216 -211h-40zM645 1434h92l506 -1293q55 -100 176 -100v-41h-530v41q85 0 127.5 27t27.5 73l-141 381h-491l-133 -381q-19 -59 11.5 -79.5t121.5 -20.5v-41h-381v41 q59 0 89 21t50 79zM868 602l-221 590l-207 -590h428z" />
<glyph unicode="&#xc3;" horiz-adv-x="1449" d="M621 1794l204 -82q86 -29 128.5 6t76.5 137l41 -40q0 -117 -61.5 -184.5t-143.5 -41.5l-225 82q-25 10 -46 11t-38 -7.5t-30.5 -21t-26.5 -34.5t-22 -41.5t-21 -49.5l-62 20q0 67 31 134.5t85 103.5t110 8zM645 1434h92l506 -1293q55 -100 176 -100v-41h-530v41 q85 0 127.5 27t27.5 73l-141 381h-491l-133 -381q-19 -59 11.5 -79.5t121.5 -20.5v-41h-381v41q59 0 89 21t50 79zM868 602l-221 590l-207 -590h428z" />
<glyph unicode="&#xc4;" horiz-adv-x="1449" d="M559 1671q40 0 71.5 -31t31.5 -71q0 -41 -31 -72t-72 -31q-40 0 -71 31.5t-31 71.5q0 38 32 70t70 32zM907 1671q40 0 71.5 -31t31.5 -71q0 -41 -31 -72t-72 -31q-40 0 -71 31.5t-31 71.5q0 38 32 70t70 32zM645 1434h92l506 -1293q55 -100 176 -100v-41h-530v41 q85 0 127.5 27t27.5 73l-141 381h-491l-133 -381q-19 -59 11.5 -79.5t121.5 -20.5v-41h-381v41q59 0 89 21t50 79zM868 602l-221 590l-207 -590h428z" />
<glyph unicode="&#xc5;" horiz-adv-x="1449" d="M733 1917q77 0 131 -54t54 -130q0 -77 -54 -131t-131 -54q-76 0 -130 54t-54 131t53.5 130.5t130.5 53.5zM733 1847q-102 0 -102 -114q0 -115 102 -115q103 0 103 115q0 114 -103 114zM645 1434h92l506 -1293q55 -100 176 -100v-41h-530v41q85 0 127.5 27t27.5 73 l-141 381h-491l-133 -381q-19 -59 11.5 -79.5t121.5 -20.5v-41h-381v41q59 0 89 21t50 79zM868 602l-221 590l-207 -590h428z" />
<glyph unicode="&#xc6;" horiz-adv-x="1906" d="M602 1364h1145l18 -320h-59q0 65 -18 112.5t-47 76t-75 45t-93 22t-109 5.5h-180v-543q27 0 71.5 -1t69 -1t61.5 1t57.5 5.5t47 12.5t41 21.5t28.5 33t19.5 47t5.5 63.5h62q-40 -157 -40.5 -221.5t40.5 -241.5h-62q0 46 -9 80.5t-22 57t-38 36.5t-47 21t-60.5 9t-67 1 t-77 -2.5t-80.5 -1.5v-522q0 -41 30.5 -71t90.5 -30h17q63 0 94.5 0.5t84 5.5t81 14.5t67 28.5t60.5 46.5t43.5 70t33.5 97.5h61l-61 -322h-963v41h48t38.5 1.5t32.5 4.5t23 9t19 14t11 21t7.5 29.5t1.5 39.5v522h-365l-236 -522q-9 -15 -11.5 -29.5t4.5 -29.5t25 -27 t53.5 -21t86.5 -12v-41h-541v41q105 0 143 9q89 21 138 110l481 1003q17 35 17 61t-13.5 41.5t-42.5 24.5t-62 12t-79 3v59zM1004 762v538h-76l-256 -538h332z" />
<glyph unicode="&#xc7;" horiz-adv-x="1355" d="M565 -205l76 197q-254 45 -402.5 233.5t-148.5 476.5q0 153 59 283.5t157.5 216.5t224.5 134t262 48q114 0 227.5 -30.5t193.5 -92t80 -137.5q0 -37 -27.5 -68.5t-82.5 -31.5q-57 0 -85 39t-27 88.5t22 93.5q-108 80 -301 80q-147 0 -257.5 -80t-167.5 -215.5t-57 -306.5 q0 -99 19.5 -190.5t62 -174.5t104.5 -144.5t154 -97.5t203 -36q126 0 212 50t169 151l39 -39q-75 -122 -203 -192t-278 -70q-30 0 -84 4l-41 -127q41 20 61 20q64 0 114 -41.5t50 -101.5q0 -44 -20.5 -77t-54.5 -51.5t-71.5 -27t-78.5 -8.5q-124 0 -185 20l21 62 q43 -21 143 -21q103 0 103 82q0 46 -18 64t-64 18h-103z" />
<glyph unicode="&#xc8;" horiz-adv-x="1155" d="M653 1405l-225 201q-26 23 -35 49t-3.5 45.5t20.5 32.5q25 18 56.5 5.5t53.5 -48.5l172 -285h-39zM1063 322h61l-61 -322h-963v41q183 -4 183 100v1084q0 28 -19.5 48.5t-43.5 30t-55.5 15t-44 6t-20.5 0.5v39h924l20 -320h-61q0 65 -18 112.5t-47 76t-74.5 45t-92 22 t-108.5 5.5h-180v-543q180 -2 214 1q121 9 160 70q25 41 25 111h62q-40 -157 -40.5 -221.5t40.5 -241.5h-62q0 35 -5.5 63.5t-12.5 49.5t-23.5 36.5t-29.5 25.5t-39 16t-44 9.5t-53.5 4t-57 0t-65.5 -2t-69 -1.5v-549q11 -74 119 -74h17q63 0 94.5 0.5t84 5.5t81 14.5 t67 28.5t60.5 46.5t43.5 70t33.5 97.5z" />
<glyph unicode="&#xc9;" horiz-adv-x="1155" d="M512 1405l172 285q24 39 55.5 50.5t55.5 -7.5q68 -47 -19 -127l-223 -201h-41zM1063 322h61l-61 -322h-963v41q183 -4 183 100v1084q0 28 -19.5 48.5t-43.5 30t-55.5 15t-44 6t-20.5 0.5v39h924l20 -320h-61q0 65 -18 112.5t-47 76t-74.5 45t-92 22t-108.5 5.5h-180v-543 q180 -2 214 1q121 9 160 70q25 41 25 111h62q-40 -157 -40.5 -221.5t40.5 -241.5h-62q0 35 -5.5 63.5t-12.5 49.5t-23.5 36.5t-29.5 25.5t-39 16t-44 9.5t-53.5 4t-57 0t-65.5 -2t-69 -1.5v-549q11 -74 119 -74h17q63 0 94.5 0.5t84 5.5t81 14.5t67 28.5t60.5 46.5t43.5 70 t33.5 97.5z" />
<glyph unicode="&#xca;" horiz-adv-x="1155" d="M270 1464l234 246q4 4 13 16.5t15 19t20 13t32 6.5q17 0 28 -4.5t16 -10t13.5 -18.5t17.5 -22l234 -246h-80l-231 148l-230 -148h-82zM1063 322h61l-61 -322h-963v41q183 -4 183 100v1084q0 28 -19.5 48.5t-43.5 30t-55.5 15t-44 6t-20.5 0.5v39h924l20 -320h-61 q0 65 -18 112.5t-47 76t-74.5 45t-92 22t-108.5 5.5h-180v-543q180 -2 214 1q121 9 160 70q25 41 25 111h62q-40 -157 -40.5 -221.5t40.5 -241.5h-62q0 35 -5.5 63.5t-12.5 49.5t-23.5 36.5t-29.5 25.5t-39 16t-44 9.5t-53.5 4t-57 0t-65.5 -2t-69 -1.5v-549q11 -74 119 -74 h17q63 0 94.5 0.5t84 5.5t81 14.5t67 28.5t60.5 46.5t43.5 70t33.5 97.5z" />
<glyph unicode="&#xcb;" horiz-adv-x="1155" d="M432 1665q39 0 69.5 -30.5t30.5 -69.5q0 -40 -30 -70.5t-70 -30.5q-39 0 -69.5 31t-30.5 70q0 38 31 69t69 31zM772 1665q40 0 70 -30t30 -70t-29.5 -70.5t-70.5 -30.5q-38 0 -69 31.5t-31 69.5t31.5 69t68.5 31zM1063 322h61l-61 -322h-963v41q183 -4 183 100v1084 q0 28 -19.5 48.5t-43.5 30t-55.5 15t-44 6t-20.5 0.5v39h924l20 -320h-61q0 65 -18 112.5t-47 76t-74.5 45t-92 22t-108.5 5.5h-180v-543q180 -2 214 1q121 9 160 70q25 41 25 111h62q-40 -157 -40.5 -221.5t40.5 -241.5h-62q0 35 -5.5 63.5t-12.5 49.5t-23.5 36.5 t-29.5 25.5t-39 16t-44 9.5t-53.5 4t-57 0t-65.5 -2t-69 -1.5v-549q11 -74 119 -74h17q63 0 94.5 0.5t84 5.5t81 14.5t67 28.5t60.5 46.5t43.5 70t33.5 97.5z" />
<glyph unicode="&#xcc;" horiz-adv-x="743" d="M469 1507l-229 205q-26 23 -35.5 49t-4 46.5t20.5 33.5q25 19 58 6t55 -49l176 -291h-41zM100 1364h543v-39q-7 0 -19.5 -0.5t-44 -6t-55.5 -15t-43.5 -30t-19.5 -48.5v-1084q0 -24 8 -42.5t25 -29t31.5 -17t41 -8.5t38.5 -2.5t38 -0.5v-41h-543v41q181 -4 181 100v1084 q0 44 -45.5 69t-90.5 28l-45 3v39z" />
<glyph unicode="&#xcd;" horiz-adv-x="743" d="M225 1507l176 291q25 40 56.5 51.5t56.5 -8.5q70 -49 -18 -129l-230 -205h-41zM100 1364h543v-39q-7 0 -19.5 -0.5t-44 -6t-55.5 -15t-43.5 -30t-19.5 -48.5v-1084q0 -24 8 -42.5t25 -29t31.5 -17t41 -8.5t38.5 -2.5t38 -0.5v-41h-543v41q181 -4 181 100v1084 q0 44 -45.5 69t-90.5 28l-45 3v39z" />
<glyph unicode="&#xce;" horiz-adv-x="743" d="M129 1507l176 312q11 19 16.5 27.5t23.5 19t42 10.5t38 -7t19.5 -15t20.5 -35l176 -312h-41l-215 211l-215 -211h-41zM100 1364h543v-39q-7 0 -19.5 -0.5t-44 -6t-55.5 -15t-43.5 -30t-19.5 -48.5v-1084q0 -24 8 -42.5t25 -29t31.5 -17t41 -8.5t38.5 -2.5t38 -0.5v-41 h-543v41q181 -4 181 100v1084q0 44 -45.5 69t-90.5 28l-45 3v39z" />
<glyph unicode="&#xcf;" horiz-adv-x="743" d="M199 1823q47 0 77.5 -30.5t30.5 -80.5q0 -45 -31 -77.5t-77 -32.5q-45 0 -78 33.5t-33 76.5q0 49 32 80t79 31zM547 1823q47 0 77.5 -30.5t30.5 -80.5q0 -45 -31 -77.5t-77 -32.5q-45 0 -78 33.5t-33 76.5q0 49 32 80t79 31zM100 1364h543v-39q-7 0 -19.5 -0.5t-44 -6 t-55.5 -15t-43.5 -30t-19.5 -48.5v-1084q0 -24 8 -42.5t25 -29t31.5 -17t41 -8.5t38.5 -2.5t38 -0.5v-41h-543v41q181 -4 181 100v1084q0 44 -45.5 69t-90.5 28l-45 3v39z" />
<glyph unicode="&#xd1;" horiz-adv-x="1595" d="M670 1794l204 -82q86 -29 128.5 6t76.5 137l41 -40q0 -117 -61.5 -184.5t-143.5 -41.5l-225 82q-25 10 -46 11t-38 -7.5t-30.5 -21t-26.5 -34.5t-22 -41.5t-21 -49.5l-62 20q0 67 31 134.5t85 103.5t110 8zM1055 1364h481v-39q-81 -6 -120.5 -19t-49.5 -30.5t-10 -50.5 v-1245h-82l-922 1124v-963q0 -100 240 -100v-41h-522v41q182 -6 182 100v1084q0 44 -40.5 69t-81.5 28l-40 3v39h270l895 -1042v903q0 23 -10 40t-24.5 27t-43.5 16.5t-54 9.5t-68 7v39z" />
<glyph unicode="&#xd2;" horiz-adv-x="1605" d="M893 1507l-229 205q-26 23 -35.5 49t-4 46.5t20.5 33.5q25 19 58 6t55 -49l176 -291h-41zM813 1384q152 0 281 -47t223 -135t146.5 -221.5t52.5 -298.5q0 -152 -56.5 -284t-152 -223t-224 -143t-270.5 -52q-206 0 -369.5 84t-258.5 245t-95 373q0 201 98 363t263 250.5 t362 88.5zM793 1325q-137 0 -248.5 -78t-172.5 -206.5t-61 -278.5q0 -108 18 -209.5t59 -195.5t100.5 -163.5t148.5 -111t197 -41.5t198 52t145.5 136t86 186t30.5 208q0 111 -17 211.5t-55.5 191t-95.5 156.5t-142.5 104.5t-190.5 38.5z" />
<glyph unicode="&#xd3;" horiz-adv-x="1605" d="M649 1507l176 291q25 40 56.5 51.5t56.5 -8.5q70 -49 -18 -129l-230 -205h-41zM813 1384q152 0 281 -47t223 -135t146.5 -221.5t52.5 -298.5q0 -152 -56.5 -284t-152 -223t-224 -143t-270.5 -52q-206 0 -369.5 84t-258.5 245t-95 373q0 201 98 363t263 250.5t362 88.5z M793 1325q-137 0 -248.5 -78t-172.5 -206.5t-61 -278.5q0 -108 18 -209.5t59 -195.5t100.5 -163.5t148.5 -111t197 -41.5t198 52t145.5 136t86 186t30.5 208q0 111 -17 211.5t-55.5 191t-95.5 156.5t-142.5 104.5t-190.5 38.5z" />
<glyph unicode="&#xd4;" horiz-adv-x="1605" d="M553 1507l176 312q11 19 16.5 27.5t23.5 19t42 10.5t38 -7t19.5 -15t20.5 -35l176 -312h-41l-215 211l-215 -211h-41zM813 1384q152 0 281 -47t223 -135t146.5 -221.5t52.5 -298.5q0 -152 -56.5 -284t-152 -223t-224 -143t-270.5 -52q-206 0 -369.5 84t-258.5 245 t-95 373q0 201 98 363t263 250.5t362 88.5zM793 1325q-137 0 -248.5 -78t-172.5 -206.5t-61 -278.5q0 -108 18 -209.5t59 -195.5t100.5 -163.5t148.5 -111t197 -41.5t198 52t145.5 136t86 186t30.5 208q0 111 -17 211.5t-55.5 191t-95.5 156.5t-142.5 104.5t-190.5 38.5z " />
<glyph unicode="&#xd5;" horiz-adv-x="1605" d="M682 1794l205 -82q86 -29 128.5 6t76.5 137l41 -40q0 -117 -61.5 -184.5t-143.5 -41.5l-226 82q-25 10 -46 11t-38 -7.5t-30.5 -21t-26.5 -34.5t-22 -41.5t-21 -49.5l-61 20q0 67 30.5 134.5t84.5 103.5t110 8zM813 1384q152 0 281 -47t223 -135t146.5 -221.5 t52.5 -298.5q0 -152 -56.5 -284t-152 -223t-224 -143t-270.5 -52q-206 0 -369.5 84t-258.5 245t-95 373q0 201 98 363t263 250.5t362 88.5zM793 1325q-137 0 -248.5 -78t-172.5 -206.5t-61 -278.5q0 -108 18 -209.5t59 -195.5t100.5 -163.5t148.5 -111t197 -41.5t198 52 t145.5 136t86 186t30.5 208q0 111 -17 211.5t-55.5 191t-95.5 156.5t-142.5 104.5t-190.5 38.5z" />
<glyph unicode="&#xd6;" horiz-adv-x="1605" d="M623 1823q47 0 77.5 -30.5t30.5 -80.5q0 -45 -31 -77.5t-77 -32.5q-45 0 -78 33.5t-33 76.5q0 49 32 80t79 31zM971 1823q47 0 77.5 -30.5t30.5 -80.5q0 -45 -31 -77.5t-77 -32.5q-45 0 -78 33.5t-33 76.5q0 49 32 80t79 31zM813 1384q152 0 281 -47t223 -135 t146.5 -221.5t52.5 -298.5q0 -152 -56.5 -284t-152 -223t-224 -143t-270.5 -52q-206 0 -369.5 84t-258.5 245t-95 373q0 201 98 363t263 250.5t362 88.5zM793 1325q-137 0 -248.5 -78t-172.5 -206.5t-61 -278.5q0 -108 18 -209.5t59 -195.5t100.5 -163.5t148.5 -111 t197 -41.5t198 52t145.5 136t86 186t30.5 208q0 111 -17 211.5t-55.5 191t-95.5 156.5t-142.5 104.5t-190.5 38.5z" />
<glyph unicode="&#xd7;" horiz-adv-x="1044" d="M522 553l348 348l93 -90l-359 -360l369 -349l-103 -102l-366 354l-350 -354l-99 96l365 355l-352 344l106 106z" />
<glyph unicode="&#xd8;" horiz-adv-x="1626" d="M1135 1464l-45 -125q197 -69 311.5 -239t114.5 -418q0 -152 -56.5 -284t-152 -223t-224 -143t-270.5 -52q-118 0 -213 26l-47 -127h-100l53 158q-192 77 -304 244.5t-112 400.5q0 201 98 363t263 250.5t362 88.5q77 0 150 -12l30 92h142zM543 141l395 1164 q-72 20 -145 20q-137 0 -248.5 -78t-172.5 -206.5t-61 -278.5q0 -190 58 -357t174 -264zM1055 1245l-426 -1159q92 -45 205 -45q108 0 198 52t145.5 136t86 186t30.5 208q0 205 -59 370.5t-180 251.5z" />
<glyph unicode="&#xd9;" horiz-adv-x="1583" d="M870 1507l-229 205q-26 23 -35 49.5t-3.5 46.5t20.5 33q25 19 57.5 6t54.5 -49l176 -291h-41zM1055 1364h479v-39q-26 0 -56.5 -4.5t-64.5 -15t-56 -31.5t-22 -49v-641q0 -128 -38 -235.5t-101.5 -177.5t-146.5 -119.5t-174.5 -61.5t-183 -2.5t-174.5 58t-146.5 118 t-101.5 178.5t-38 240v643q0 28 -19.5 49t-49 31.5t-57.5 15t-54 4.5v39h541v-39q-26 0 -54 -4.5t-57.5 -15t-49 -31.5t-19.5 -49v-664q0 -245 139 -380q109 -106 260 -105q152 0 267 107q145 136 156 381q1 19 1 38v623q0 54 -53.5 77t-126.5 23v39z" />
<glyph unicode="&#xda;" horiz-adv-x="1583" d="M627 1507l176 291q25 40 56 51.5t56 -8.5q70 -49 -18 -129l-229 -205h-41zM1055 1364h479v-39q-26 0 -56.5 -4.5t-64.5 -15t-56 -31.5t-22 -49v-641q0 -128 -38 -235.5t-101.5 -177.5t-146.5 -119.5t-174.5 -61.5t-183 -2.5t-174.5 58t-146.5 118t-101.5 178.5t-38 240 v643q0 28 -19.5 49t-49 31.5t-57.5 15t-54 4.5v39h541v-39q-26 0 -54 -4.5t-57.5 -15t-49 -31.5t-19.5 -49v-664q0 -245 139 -380q109 -106 260 -105q152 0 267 107q145 136 156 381q1 19 1 38v623q0 54 -53.5 77t-126.5 23v39z" />
<glyph unicode="&#xdb;" horiz-adv-x="1583" d="M530 1507l177 312q20 35 35 45q18 12 46 12q24 0 38 -7t19.5 -15t20.5 -35l176 -312h-41l-215 211l-215 -211h-41zM1055 1364h479v-39q-26 0 -56.5 -4.5t-64.5 -15t-56 -31.5t-22 -49v-641q0 -128 -38 -235.5t-101.5 -177.5t-146.5 -119.5t-174.5 -61.5t-183 -2.5 t-174.5 58t-146.5 118t-101.5 178.5t-38 240v643q0 28 -19.5 49t-49 31.5t-57.5 15t-54 4.5v39h541v-39q-26 0 -54 -4.5t-57.5 -15t-49 -31.5t-19.5 -49v-664q0 -245 139 -380q109 -106 260 -105q152 0 267 107q145 136 156 381q1 19 1 38v623q0 54 -53.5 77t-126.5 23v39z " />
<glyph unicode="&#xdc;" horiz-adv-x="1583" d="M600 1823q47 0 78 -30.5t31 -80.5q0 -45 -31.5 -77.5t-77.5 -32.5q-45 0 -78 33.5t-33 76.5q0 49 32 80t79 31zM948 1823q47 0 78 -30.5t31 -80.5q0 -45 -31.5 -77.5t-77.5 -32.5q-45 0 -77.5 33.5t-32.5 76.5q0 49 31.5 80t78.5 31zM1055 1364h479v-39q-26 0 -56.5 -4.5 t-64.5 -15t-56 -31.5t-22 -49v-641q0 -128 -38 -235.5t-101.5 -177.5t-146.5 -119.5t-174.5 -61.5t-183 -2.5t-174.5 58t-146.5 118t-101.5 178.5t-38 240v643q0 28 -19.5 49t-49 31.5t-57.5 15t-54 4.5v39h541v-39q-26 0 -54 -4.5t-57.5 -15t-49 -31.5t-19.5 -49v-664 q0 -245 139 -380q109 -106 260 -105q152 0 267 107q145 136 156 381q1 19 1 38v623q0 54 -53.5 77t-126.5 23v39z" />
<glyph unicode="&#xdd;" horiz-adv-x="1425" d="M547 1507l176 291q25 40 56.5 51.5t56.5 -8.5q69 -48 -19 -129l-229 -205h-41zM993 1364h381v-39q-61 -4 -99.5 -17.5t-57 -30.5t-43.5 -52l-361 -523v-561q0 -24 8.5 -42t26.5 -28.5t34.5 -17t44.5 -9t43.5 -3t43.5 -0.5v-41h-582v41q32 -4 67 -1.5t65 10t49.5 31 t19.5 60.5v521l-381 563q-42 61 -92 80.5t-109 19.5v39h502v-39q-83 -7 -99.5 -31.5t17.5 -68.5l301 -443l301 443q26 28 32 47t-7.5 29.5t-38 16t-66.5 7.5v39z" />
<glyph unicode="&#xdf;" horiz-adv-x="1064" d="M195 883v39q0 24 2.5 54.5t11.5 82.5t24.5 99.5t45.5 99.5t69.5 89.5t100.5 62t135 24.5q144 0 235.5 -68t91.5 -199q0 -65 -22.5 -114.5t-57 -78t-74 -55.5t-74 -48.5t-57 -55.5t-22.5 -78q0 -40 27.5 -76.5t68.5 -62.5t88.5 -57t88.5 -61t68.5 -75t27.5 -98 q0 -139 -94 -233t-234 -94q-40 0 -84.5 11.5t-82.5 40.5t-38 70q0 25 18.5 43.5t43.5 18.5q33 0 55 -12.5t34 -31t22.5 -36.5t28.5 -30.5t44 -12.5q72 0 118 47.5t46 116.5q0 41 -29 78t-72 63.5t-93.5 59t-93.5 64.5t-72 80t-29 105q0 55 18 97t47 69t63.5 50t69.5 45.5 t64 49t47 67t18 93.5q0 116 -51.5 181t-152.5 65q-45 0 -80 -13t-58.5 -33t-40.5 -53.5t-26 -65t-14 -78t-6 -81.5t-1 -85v-963h-266v41q4 0 11 0.5t25 3.5t31.5 9t24.5 18.5t11 29.5v619q0 29 -9.5 48t-27 27t-32.5 10.5t-34 2.5v41z" />
<glyph unicode="&#xe0;" horiz-adv-x="958" d="M584 1044l-230 205q-26 23 -35 49.5t-3.5 46.5t20.5 33q25 19 58 6t55 -49l176 -291h-41zM606 508v129q-4 225 -170 225q-68 0 -123 -32t-55 -78q0 -15 18.5 -34.5t18.5 -49.5q0 -34 -25.5 -57t-58.5 -23q-41 0 -71.5 30.5t-30.5 71.5q0 34 29 76t75.5 78.5t112.5 61 t133 24.5q165 0 239 -73t74 -245v-428q0 -54 18 -83t46 -29q29 0 59 30l33 -41q-8 -9 -22 -22t-57 -35t-85 -22q-65 0 -108.5 42.5t-43.5 116.5q-51 -75 -127.5 -120.5t-152.5 -45.5q-63 0 -111.5 20t-75 52t-40 66.5t-13.5 68.5q0 29 5 54t18.5 46.5t26.5 39t40 35t47 30 t59.5 27t65.5 24t77 24t82.5 22.5t92.5 24zM608 207v239q-58 -15 -93 -25t-81.5 -26.5t-74 -33t-53.5 -39t-38 -51t-12 -62.5q0 -58 33.5 -97.5t103.5 -39.5q32 0 65.5 14t59 33t47 39.5t32.5 34t11 14.5z" />
<glyph unicode="&#xe1;" horiz-adv-x="958" d="M340 1044l176 291q25 40 56.5 51.5t56.5 -8.5q69 -48 -19 -129l-229 -205h-41zM606 508v129q-4 225 -170 225q-68 0 -123 -32t-55 -78q0 -15 18.5 -34.5t18.5 -49.5q0 -34 -25.5 -57t-58.5 -23q-41 0 -71.5 30.5t-30.5 71.5q0 34 29 76t75.5 78.5t112.5 61t133 24.5 q165 0 239 -73t74 -245v-428q0 -54 18 -83t46 -29q29 0 59 30l33 -41q-8 -9 -22 -22t-57 -35t-85 -22q-65 0 -108.5 42.5t-43.5 116.5q-51 -75 -127.5 -120.5t-152.5 -45.5q-63 0 -111.5 20t-75 52t-40 66.5t-13.5 68.5q0 29 5 54t18.5 46.5t26.5 39t40 35t47 30t59.5 27 t65.5 24t77 24t82.5 22.5t92.5 24zM608 207v239q-58 -15 -93 -25t-81.5 -26.5t-74 -33t-53.5 -39t-38 -51t-12 -62.5q0 -58 33.5 -97.5t103.5 -39.5q32 0 65.5 14t59 33t47 39.5t32.5 34t11 14.5z" />
<glyph unicode="&#xe2;" horiz-adv-x="958" d="M244 1044l176 312q11 19 16.5 27.5t23.5 19t42 10.5t38 -7t19.5 -15t20.5 -35l176 -312h-41l-215 211l-215 -211h-41zM606 508v129q-4 225 -170 225q-68 0 -123 -32t-55 -78q0 -15 18.5 -34.5t18.5 -49.5q0 -34 -25.5 -57t-58.5 -23q-41 0 -71.5 30.5t-30.5 71.5 q0 34 29 76t75.5 78.5t112.5 61t133 24.5q165 0 239 -73t74 -245v-428q0 -54 18 -83t46 -29q29 0 59 30l33 -41q-8 -9 -22 -22t-57 -35t-85 -22q-65 0 -108.5 42.5t-43.5 116.5q-51 -75 -127.5 -120.5t-152.5 -45.5q-63 0 -111.5 20t-75 52t-40 66.5t-13.5 68.5q0 29 5 54 t18.5 46.5t26.5 39t40 35t47 30t59.5 27t65.5 24t77 24t82.5 22.5t92.5 24zM608 207v239q-58 -15 -93 -25t-81.5 -26.5t-74 -33t-53.5 -39t-38 -51t-12 -62.5q0 -58 33.5 -97.5t103.5 -39.5q32 0 65.5 14t59 33t47 39.5t32.5 34t11 14.5z" />
<glyph unicode="&#xe3;" horiz-adv-x="958" d="M373 1331l205 -82q36 -12 64.5 -12t48.5 9t37 31.5t29 49t25 66.5l41 -41q0 -117 -61.5 -184.5t-143.5 -41.5l-225 82q-25 10 -46 11t-38 -7.5t-30.5 -21t-26.5 -34.5t-22 -41.5t-21 -49.5l-62 20q0 67 31 134.5t85 103.5t110 8zM606 508v129q-4 225 -170 225 q-68 0 -123 -32t-55 -78q0 -15 18.5 -34.5t18.5 -49.5q0 -34 -25.5 -57t-58.5 -23q-41 0 -71.5 30.5t-30.5 71.5q0 34 29 76t75.5 78.5t112.5 61t133 24.5q165 0 239 -73t74 -245v-428q0 -54 18 -83t46 -29q29 0 59 30l33 -41q-8 -9 -22 -22t-57 -35t-85 -22 q-65 0 -108.5 42.5t-43.5 116.5q-51 -75 -127.5 -120.5t-152.5 -45.5q-63 0 -111.5 20t-75 52t-40 66.5t-13.5 68.5q0 29 5 54t18.5 46.5t26.5 39t40 35t47 30t59.5 27t65.5 24t77 24t82.5 22.5t92.5 24zM608 207v239q-58 -15 -93 -25t-81.5 -26.5t-74 -33t-53.5 -39 t-38 -51t-12 -62.5q0 -58 33.5 -97.5t103.5 -39.5q32 0 65.5 14t59 33t47 39.5t32.5 34t11 14.5z" />
<glyph unicode="&#xe4;" horiz-adv-x="958" d="M313 1360q47 0 78 -30.5t31 -80.5q0 -45 -31.5 -77.5t-77.5 -32.5q-45 0 -77.5 33.5t-32.5 76.5q0 49 31.5 80t78.5 31zM662 1360q47 0 77.5 -30.5t30.5 -80.5q0 -45 -31 -77.5t-77 -32.5q-45 0 -78 33.5t-33 76.5q0 49 32 80t79 31zM606 508v129q-4 225 -170 225 q-68 0 -123 -32t-55 -78q0 -15 18.5 -34.5t18.5 -49.5q0 -34 -25.5 -57t-58.5 -23q-41 0 -71.5 30.5t-30.5 71.5q0 34 29 76t75.5 78.5t112.5 61t133 24.5q165 0 239 -73t74 -245v-428q0 -54 18 -83t46 -29q29 0 59 30l33 -41q-8 -9 -22 -22t-57 -35t-85 -22 q-65 0 -108.5 42.5t-43.5 116.5q-51 -75 -127.5 -120.5t-152.5 -45.5q-63 0 -111.5 20t-75 52t-40 66.5t-13.5 68.5q0 29 5 54t18.5 46.5t26.5 39t40 35t47 30t59.5 27t65.5 24t77 24t82.5 22.5t92.5 24zM608 207v239q-58 -15 -93 -25t-81.5 -26.5t-74 -33t-53.5 -39 t-38 -51t-12 -62.5q0 -58 33.5 -97.5t103.5 -39.5q32 0 65.5 14t59 33t47 39.5t32.5 34t11 14.5z" />
<glyph unicode="&#xe5;" horiz-adv-x="958" d="M485 1454q77 0 131 -54t54 -130t-54 -130.5t-131 -54.5q-76 0 -130 54t-54 131q0 76 53.5 130t130.5 54zM485 1384q-102 0 -102 -114q0 -115 102 -115q103 0 103 115q0 114 -103 114zM606 508v129q-4 225 -170 225q-68 0 -123 -32t-55 -78q0 -15 18.5 -34.5t18.5 -49.5 q0 -34 -25.5 -57t-58.5 -23q-41 0 -71.5 30.5t-30.5 71.5q0 34 29 76t75.5 78.5t112.5 61t133 24.5q165 0 239 -73t74 -245v-428q0 -54 18 -83t46 -29q29 0 59 30l33 -41q-8 -9 -22 -22t-57 -35t-85 -22q-65 0 -108.5 42.5t-43.5 116.5q-51 -75 -127.5 -120.5t-152.5 -45.5 q-63 0 -111.5 20t-75 52t-40 66.5t-13.5 68.5q0 29 5 54t18.5 46.5t26.5 39t40 35t47 30t59.5 27t65.5 24t77 24t82.5 22.5t92.5 24zM608 207v239q-58 -15 -93 -25t-81.5 -26.5t-74 -33t-53.5 -39t-38 -51t-12 -62.5q0 -58 33.5 -97.5t103.5 -39.5q32 0 65.5 14t59 33 t47 39.5t32.5 34t11 14.5z" />
<glyph unicode="&#xe6;" horiz-adv-x="1402" d="M592 518v135q0 87 -42 143t-122 56q-43 0 -77 -13.5t-53 -34.5t-28.5 -42.5t-9.5 -40.5q0 -8 6 -8q15 0 26 -12.5t11 -36.5q0 -28 -20 -53.5t-64 -24.5q-38 2 -63 26.5t-25 61.5q-1 52 45.5 110t125.5 99t161 41q90 0 151.5 -24t96.5 -83q54 48 129 76.5t143 28.5 q88 0 143.5 -13t94.5 -48t54.5 -94t14.5 -153l-530 -122q-1 -59 6.5 -114.5t28 -114.5t53.5 -102.5t89 -71.5t128 -28q102 0 225 123l41 -41q-85 -85 -153 -124t-154 -39q-255 0 -377 180q-27 -56 -68.5 -95t-87.5 -55.5t-80.5 -23t-66.5 -6.5q-107 0 -169 57t-62 149 q0 30 9.5 57.5t30.5 51.5t43 44t57.5 39.5t63 34t71 31.5t70 26.5t71 25t63.5 22.5zM758 553l348 82q39 22 43.5 72t-44 101.5t-122.5 51.5q-83 0 -137.5 -48.5t-75.5 -119.5q-8 -71 -12 -139zM592 184v269q-330 -124 -330 -244q0 -53 37 -97t109 -44q61 0 122.5 35.5 t61.5 80.5z" />
<glyph unicode="&#xe7;" horiz-adv-x="927" d="M369 -205l69 180q-152 18 -255 143t-103 324q0 95 29.5 180t84.5 152.5t143.5 108.5t197.5 45q74 2 133.5 -12t95 -36t59 -50t32.5 -52t9 -43q0 -30 -18.5 -46.5t-44.5 -16.5q-47 0 -60.5 37t11.5 75q-64 80 -174 80q-151 0 -240.5 -99.5t-89.5 -291.5 q0 -174 93.5 -277.5t223.5 -103.5q142 0 238 107l41 -41q-134 -171 -336 -185l-37 -116q41 20 61 20q64 0 114 -41.5t50 -101.5q0 -44 -20.5 -77t-54.5 -51.5t-71.5 -27t-78.5 -8.5q-123 0 -184 20l20 62q43 -21 144 -21q102 0 102 82q0 46 -18 64t-64 18h-102z" />
<glyph unicode="&#xe8;" horiz-adv-x="935" d="M573 1044l-229 205q-26 23 -35 49.5t-3.5 46.5t20.5 33q25 19 57.5 6t54.5 -49l176 -291h-41zM813 205l33 -35q-73 -96 -168.5 -145.5t-194.5 -49.5q-109 0 -195.5 52.5t-131.5 137t-66 186t1 203.5t69 186.5t138 137t208 52.5q160 0 250.5 -87.5t97.5 -256.5 q0 -14 -10 -23.5t-23 -9.5h-561q-15 -217 72 -340t233 -123q124 0 248 115zM260 614h389q41 0 41 62q0 80 -56.5 137t-131.5 57q-102 0 -164.5 -65t-77.5 -191z" />
<glyph unicode="&#xe9;" horiz-adv-x="935" d="M330 1044l176 291q25 40 56 51.5t56 -8.5q70 -49 -18 -129l-229 -205h-41zM813 205l33 -35q-73 -96 -168.5 -145.5t-194.5 -49.5q-109 0 -195.5 52.5t-131.5 137t-66 186t1 203.5t69 186.5t138 137t208 52.5q160 0 250.5 -87.5t97.5 -256.5q0 -14 -10 -23.5t-23 -9.5 h-561q-15 -217 72 -340t233 -123q124 0 248 115zM260 614h389q41 0 41 62q0 80 -56.5 137t-131.5 57q-102 0 -164.5 -65t-77.5 -191z" />
<glyph unicode="&#xea;" horiz-adv-x="935" d="M233 1044l177 312q11 19 16.5 27.5t23.5 19t42 10.5t38 -7.5t19 -14.5t20 -35l176 -312h-40l-216 211l-215 -211h-41zM813 205l33 -35q-73 -96 -168.5 -145.5t-194.5 -49.5q-109 0 -195.5 52.5t-131.5 137t-66 186t1 203.5t69 186.5t138 137t208 52.5q160 0 250.5 -87.5 t97.5 -256.5q0 -14 -10 -23.5t-23 -9.5h-561q-15 -217 72 -340t233 -123q124 0 248 115zM260 614h389q41 0 41 62q0 80 -56.5 137t-131.5 57q-102 0 -164.5 -65t-77.5 -191z" />
<glyph unicode="&#xeb;" horiz-adv-x="935" d="M303 1360q47 0 78 -30.5t31 -80.5q0 -45 -31.5 -77.5t-77.5 -32.5q-45 0 -77.5 33.5t-32.5 76.5q0 49 31.5 80t78.5 31zM651 1360q47 0 78 -30.5t31 -80.5q0 -45 -31.5 -77.5t-77.5 -32.5q-45 0 -77.5 33.5t-32.5 76.5q0 49 31.5 80t78.5 31zM813 205l33 -35 q-73 -96 -168.5 -145.5t-194.5 -49.5q-109 0 -195.5 52.5t-131.5 137t-66 186t1 203.5t69 186.5t138 137t208 52.5q160 0 250.5 -87.5t97.5 -256.5q0 -14 -10 -23.5t-23 -9.5h-561q-15 -217 72 -340t233 -123q124 0 248 115zM260 614h389q41 0 41 62q0 80 -56.5 137 t-131.5 57q-102 0 -164.5 -65t-77.5 -191z" />
<glyph unicode="&#xec;" d="M360 1044l-229 205q-26 23 -35 49.5t-3.5 46.5t20.5 33q25 19 57.5 6t54.5 -49l176 -291h-41zM358 901v-799q0 -27 26 -42.5t52 -17.5l25 -1v-41h-369v41q4 0 11 0.5t25 3.5t31.5 9t24.5 18.5t11 29.5v619q0 29 -9.5 48t-27 27t-32.5 10.5t-34 2.5v41l225 72q26 8 34.5 1 t6.5 -22z" />
<glyph unicode="&#xed;" d="M117 1044l176 291q25 40 56.5 51.5t56.5 -8.5q69 -48 -19 -129l-229 -205h-41zM358 901v-799q0 -27 26 -42.5t52 -17.5l25 -1v-41h-369v41q4 0 11 0.5t25 3.5t31.5 9t24.5 18.5t11 29.5v619q0 29 -9.5 48t-27 27t-32.5 10.5t-34 2.5v41l225 72q26 8 34.5 1t6.5 -22z" />
<glyph unicode="&#xee;" d="M20 1044l177 312q11 19 16.5 27.5t23.5 19t42 10.5t38 -7.5t19 -14.5t20 -35l176 -312h-40l-216 211l-215 -211h-41zM358 901v-799q0 -27 26 -42.5t52 -17.5l25 -1v-41h-369v41q4 0 11 0.5t25 3.5t31.5 9t24.5 18.5t11 29.5v619q0 29 -9.5 48t-27 27t-32.5 10.5t-34 2.5 v41l225 72q26 8 34.5 1t6.5 -22z" />
<glyph unicode="&#xef;" d="M74 1360q47 0 77.5 -30.5t30.5 -80.5q0 -45 -31 -77.5t-77 -32.5q-45 0 -78 33.5t-33 76.5q0 49 32 80t79 31zM422 1360q47 0 77.5 -30.5t30.5 -80.5q0 -45 -31 -77.5t-77 -32.5q-45 0 -78 33.5t-33 76.5q0 49 32 80t79 31zM358 901v-799q0 -27 26 -42.5t52 -17.5l25 -1 v-41h-369v41q4 0 11 0.5t25 3.5t31.5 9t24.5 18.5t11 29.5v619q0 29 -9.5 48t-27 27t-32.5 10.5t-34 2.5v41l225 72q26 8 34.5 1t6.5 -22z" />
<glyph unicode="&#xf1;" horiz-adv-x="1146" d="M469 1331l205 -82q36 -12 64.5 -12t49 9t37.5 31.5t29 49t25 66.5l41 -41q0 -117 -61.5 -184.5t-143.5 -41.5l-226 82q-25 10 -46 11t-38 -7.5t-30.5 -21t-26.5 -34.5t-22 -41.5t-21 -49.5l-61 20q0 67 30.5 134.5t84.5 103.5t110 8zM952 655v-553q0 -27 26 -42.5 t52 -17.5l25 -1v-41h-369v41q4 0 11 0.5t24.5 3.5t31 9t24.5 18.5t11 29.5v533q0 97 -45.5 143.5t-111 40.5t-140.5 -52.5t-133 -123.5v-541q0 -27 26 -42.5t52 -17.5l25 -1v-41h-369v41q4 0 11 0.5t25 3.5t31.5 9t24.5 18.5t11 29.5v619q0 29 -9.5 48t-27 27t-32.5 10.5 t-34 2.5v41l225 72q26 8 34.5 1t6.5 -22v-172q72 79 155.5 128.5t160 59.5t140 -12t101 -87t37.5 -163z" />
<glyph unicode="&#xf2;" horiz-adv-x="1105" d="M651 1044l-229 205q-26 23 -35.5 49t-4 46.5t20.5 33.5q25 19 58 6t55 -49l176 -291h-41zM553 928q207 0 339 -131.5t132 -345.5q0 -199 -137 -335t-334 -136q-209 0 -340 129t-131 342q0 214 131.5 345.5t339.5 131.5zM532 866q-58 0 -104.5 -23.5t-76 -61t-49.5 -87.5 t-28 -100t-8 -102q0 -58 10 -117.5t33 -120.5t57.5 -107.5t88 -76t118.5 -29.5q58 0 104 21t76 56t50 83t28.5 100t8.5 109q0 82 -16 158.5t-50 145.5t-96.5 110.5t-145.5 41.5z" />
<glyph unicode="&#xf3;" horiz-adv-x="1105" d="M408 1044l176 291q25 40 56 51.5t56 -8.5q70 -49 -18 -129l-229 -205h-41zM553 928q207 0 339 -131.5t132 -345.5q0 -199 -137 -335t-334 -136q-209 0 -340 129t-131 342q0 214 131.5 345.5t339.5 131.5zM532 866q-58 0 -104.5 -23.5t-76 -61t-49.5 -87.5t-28 -100 t-8 -102q0 -58 10 -117.5t33 -120.5t57.5 -107.5t88 -76t118.5 -29.5q58 0 104 21t76 56t50 83t28.5 100t8.5 109q0 82 -16 158.5t-50 145.5t-96.5 110.5t-145.5 41.5z" />
<glyph unicode="&#xf4;" horiz-adv-x="1105" d="M311 1044l176 312q11 19 16.5 27.5t23.5 19t42 10.5t38 -7t19.5 -15t20.5 -35l176 -312h-41l-215 211l-215 -211h-41zM553 928q207 0 339 -131.5t132 -345.5q0 -199 -137 -335t-334 -136q-209 0 -340 129t-131 342q0 214 131.5 345.5t339.5 131.5zM532 866 q-58 0 -104.5 -23.5t-76 -61t-49.5 -87.5t-28 -100t-8 -102q0 -58 10 -117.5t33 -120.5t57.5 -107.5t88 -76t118.5 -29.5q58 0 104 21t76 56t50 83t28.5 100t8.5 109q0 82 -16 158.5t-50 145.5t-96.5 110.5t-145.5 41.5z" />
<glyph unicode="&#xf5;" horiz-adv-x="1105" d="M553 928q207 0 339 -131.5t132 -345.5q0 -199 -137 -335t-334 -136q-209 0 -340 129t-131 342q0 214 131.5 345.5t339.5 131.5zM532 866q-58 0 -104.5 -23.5t-76 -61t-49.5 -87.5t-28 -100t-8 -102q0 -58 10 -117.5t33 -120.5t57.5 -107.5t88 -76t118.5 -29.5 q58 0 104 21t76 56t50 83t28.5 100t8.5 109q0 82 -16 158.5t-50 145.5t-96.5 110.5t-145.5 41.5z" />
<glyph unicode="&#xf6;" horiz-adv-x="1105" d="M381 1360q47 0 77.5 -30.5t30.5 -80.5q0 -45 -31 -77.5t-77 -32.5q-45 0 -78 33.5t-33 76.5q0 49 32 80t79 31zM729 1360q47 0 78 -30.5t31 -80.5q0 -45 -31.5 -77.5t-77.5 -32.5q-45 0 -78 33.5t-33 76.5q0 49 32 80t79 31zM553 928q207 0 339 -131.5t132 -345.5 q0 -199 -137 -335t-334 -136q-209 0 -340 129t-131 342q0 214 131.5 345.5t339.5 131.5zM532 866q-58 0 -104.5 -23.5t-76 -61t-49.5 -87.5t-28 -100t-8 -102q0 -58 10 -117.5t33 -120.5t57.5 -107.5t88 -76t118.5 -29.5q58 0 104 21t76 56t50 83t28.5 100t8.5 109 q0 82 -16 158.5t-50 145.5t-96.5 110.5t-145.5 41.5z" />
<glyph unicode="&#xf7;" horiz-adv-x="931" d="M444 901q45 0 84 -40t39 -83q0 -47 -38.5 -85t-84.5 -38q-45 0 -83.5 38t-38.5 85q0 43 39 83t83 40zM72 492h788v-121h-788v121zM444 225q45 0 84 -39t39 -84q0 -46 -38.5 -84t-84.5 -38q-45 0 -83.5 38.5t-38.5 83.5q0 44 39 83.5t83 39.5z" />
<glyph unicode="&#xf8;" horiz-adv-x="1064" d="M932 983l-86 -147q85 -62 131.5 -161.5t46.5 -223.5q0 -199 -137 -335t-334 -136q-100 0 -188 32l-68 -114h-102l88 155q-95 61 -148 163t-53 235q0 214 131.5 345.5t339.5 131.5q108 0 203 -39l53 94h123zM350 172l357 631q-73 63 -175 63q-58 0 -104.5 -23.5t-76 -61 t-49.5 -87.5t-28 -100t-8 -102q0 -81 21 -168t63 -152zM774 713l-360 -615q66 -57 159 -57q58 0 104 21t76 56t50 83t28.5 100t8.5 109q0 179 -66 303z" />
<glyph unicode="&#xf9;" horiz-adv-x="1103" d="M623 1044l-230 205q-26 23 -35 49.5t-3.5 46.5t20.5 33q25 19 57.5 6t54.5 -49l177 -291h-41zM643 846l225 72q26 10 34.5 2.5t6.5 -23.5v-774q0 -62 103 -62v-41q-183 -9 -267 -40v143q-15 -10 -53 -41.5t-64 -49.5t-72.5 -35t-96.5 -17q-146 0 -216.5 89.5t-70.5 237.5 v434q-11 64 -100 64v41l223 72q25 8 34 1t7 -22v-569q0 -62 13.5 -114t52 -92t98.5 -40q132 0 245 123v512q0 29 -9.5 48t-27 27t-32 10.5t-33.5 2.5v41z" />
<glyph unicode="&#xfa;" horiz-adv-x="1103" d="M379 1044l176 291q25 40 56.5 51.5t56.5 -8.5q69 -48 -19 -129l-229 -205h-41zM643 846l225 72q26 10 34.5 2.5t6.5 -23.5v-774q0 -62 103 -62v-41q-183 -9 -267 -40v143q-15 -10 -53 -41.5t-64 -49.5t-72.5 -35t-96.5 -17q-146 0 -216.5 89.5t-70.5 237.5v434 q-11 64 -100 64v41l223 72q25 8 34 1t7 -22v-569q0 -62 13.5 -114t52 -92t98.5 -40q132 0 245 123v512q0 29 -9.5 48t-27 27t-32 10.5t-33.5 2.5v41z" />
<glyph unicode="&#xfb;" horiz-adv-x="1103" d="M283 1044l176 312q11 19 16.5 27.5t23.5 19t42 10.5t38 -7.5t19 -14.5t20 -35l177 -312h-41l-215 211l-215 -211h-41zM643 846l225 72q26 10 34.5 2.5t6.5 -23.5v-774q0 -62 103 -62v-41q-183 -9 -267 -40v143q-15 -10 -53 -41.5t-64 -49.5t-72.5 -35t-96.5 -17 q-146 0 -216.5 89.5t-70.5 237.5v434q-11 64 -100 64v41l223 72q25 8 34 1t7 -22v-569q0 -62 13.5 -114t52 -92t98.5 -40q132 0 245 123v512q0 29 -9.5 48t-27 27t-32 10.5t-33.5 2.5v41z" />
<glyph unicode="&#xfc;" horiz-adv-x="1103" d="M352 1360q47 0 78 -30.5t31 -80.5q0 -45 -31.5 -77.5t-77.5 -32.5q-45 0 -77.5 33.5t-32.5 76.5q0 49 31.5 80t78.5 31zM700 1360q47 0 78 -30.5t31 -80.5q0 -45 -31.5 -77.5t-77.5 -32.5q-45 0 -77.5 33.5t-32.5 76.5q0 49 31.5 80t78.5 31zM643 846l225 72 q26 10 34.5 2.5t6.5 -23.5v-774q0 -62 103 -62v-41q-183 -9 -267 -40v143q-15 -10 -53 -41.5t-64 -49.5t-72.5 -35t-96.5 -17q-146 0 -216.5 89.5t-70.5 237.5v434q-11 64 -100 64v41l223 72q25 8 34 1t7 -22v-569q0 -62 13.5 -114t52 -92t98.5 -40q132 0 245 123v512 q0 29 -9.5 48t-27 27t-32 10.5t-33.5 2.5v41z" />
<glyph unicode="&#xfd;" horiz-adv-x="1054" d="M397 1044l176 291q25 40 56.5 51.5t56.5 -8.5q70 -49 -18 -129l-230 -205h-41zM676 901h348v-41q-44 0 -71.5 -19.5t-51.5 -62.5l-336 -819q-42 -119 -73.5 -195t-62.5 -131.5t-64 -83t-69 -39.5t-87 -12q-47 0 -92 34t-45 85t29.5 76.5t62.5 25.5q84 0 84 -65 q0 -70 33 -70q38 0 70.5 61.5t108.5 258.5q14 36 21 55l-325 819q-20 49 -51 65.5t-72 16.5v41h409v-41q-71 0 -100 -20.5t-14 -61.5l237 -606l234 606q18 49 -16 65.5t-107 16.5v41z" />
<glyph unicode="&#xff;" horiz-adv-x="1054" d="M371 1360q47 0 77.5 -30.5t30.5 -80.5q0 -45 -31 -77.5t-77 -32.5q-45 0 -78 33.5t-33 76.5q0 49 32 80t79 31zM719 1360q47 0 77.5 -30.5t30.5 -80.5q0 -45 -31 -77.5t-77 -32.5q-45 0 -78 33.5t-33 76.5q0 49 32 80t79 31zM676 901h348v-41q-44 0 -71.5 -19.5 t-51.5 -62.5l-336 -819q-42 -119 -73.5 -195t-62.5 -131.5t-64 -83t-69 -39.5t-87 -12q-47 0 -92 34t-45 85t29.5 76.5t62.5 25.5q84 0 84 -65q0 -70 33 -70q38 0 70.5 61.5t108.5 258.5q14 36 21 55l-325 819q-20 49 -51 65.5t-72 16.5v41h409v-41q-71 0 -100 -20.5 t-14 -61.5l237 -606l234 606q18 49 -16 65.5t-107 16.5v41z" />
<glyph unicode="&#x131;" d="M358 901v-799q0 -27 26 -42.5t52 -17.5l25 -1v-41h-369v41q4 0 11 0.5t25 3.5t31.5 9t24.5 18.5t11 29.5v619q0 29 -9.5 48t-27 27t-32.5 10.5t-34 2.5v41l225 72q26 8 34.5 1t6.5 -22z" />
<glyph unicode="&#x152;" horiz-adv-x="1976" d="M1004 1364h782l20 -320h-59q0 65 -18 112.5t-47.5 76t-75.5 45t-92.5 22t-108.5 5.5h-180v-543q27 0 71.5 -1t69 -1t61.5 1t57.5 5.5t47 12.5t41 21.5t28.5 33t19.5 47t5.5 63.5h60q-39 -157 -39 -221.5t39 -241.5h-60q0 46 -9 80.5t-22 57t-38 36.5t-47 21t-60.5 9 t-67 1t-77 -2.5t-80.5 -1.5v-522q0 -38 36 -69.5t85 -31.5q172 0 237 12q141 26 202 136q27 48 42 115h59l-59 -322h-983q-129 0 -260.5 51.5t-239.5 140.5t-176 223.5t-68 286.5q0 92 22.5 174.5t62.5 146.5t95.5 119.5t121.5 94t140 68.5t151.5 43.5t156.5 19.5t154 -4z M1044 180v1125h-120q-316 0 -459 -143t-143 -460q0 -138 31.5 -252.5t95 -203t169 -138t244.5 -49.5q86 0 134 26t48 95z" />
<glyph unicode="&#x153;" horiz-adv-x="1679" d="M1567 184l41 -41q-84 -84 -153 -123.5t-155 -39.5q-279 0 -395 182q-61 -86 -154.5 -134t-207.5 -48q-207 0 -329 128t-122 343t122 343t329 128q123 0 218.5 -49.5t153.5 -139.5q61 87 147 138t177 51q173 0 271.5 -93.5t97.5 -275.5h-594q0 -57 4.5 -106.5t16 -106 t35.5 -100.5t58.5 -81t89 -57t123.5 -20q60 0 119.5 27.5t106.5 74.5zM522 860q-58 0 -102.5 -21t-71 -54t-43.5 -80t-23 -93.5t-6 -99.5q0 -49 5.5 -99t18 -104.5t35 -101.5t53 -84.5t75.5 -59.5t100 -22q246 0 246 348q0 66 -7 127t-27 125.5t-51 111.5t-83 77t-119 30z M1014 614h389q41 0 41 62q0 65 -62.5 124.5t-142.5 59.5q-56 0 -100.5 -24t-71 -61.5t-40 -79t-13.5 -81.5z" />
<glyph unicode="&#x160;" horiz-adv-x="1024" d="M723 1855h41l-176 -311q-11 -19 -16.5 -27.5t-23.5 -19t-42 -10.5t-38 7t-19.5 15t-20.5 35l-176 311h41l215 -210zM555 592l-188 90q-100 48 -167 130.5t-67 199.5q0 93 35 166t92 116t131.5 67t153.5 25t157 -16t142 -51v-262h-74q-5 58 -24.5 106.5t-49 80.5t-66.5 54 t-76.5 27t-79 1t-74.5 -26t-62 -53t-43 -79.5t-16 -106.5q0 -42 16.5 -77t49 -61.5t58 -42t64.5 -34.5l168 -86q47 -23 81.5 -44.5t74 -54.5t64.5 -68.5t41.5 -85t16.5 -106.5q0 -86 -36.5 -164.5t-98.5 -136.5t-150.5 -92.5t-187.5 -34.5q-42 0 -84.5 7.5t-72 17t-64.5 26 t-51 25.5t-42 26l-26 17v291h68q4 -13 12 -45t14 -54t18.5 -56t26 -57.5t35.5 -50t48.5 -43t63.5 -27.5t81 -11q83 0 145 45t89.5 107t27.5 128q0 43 -4.5 72t-20 68t-53 72t-96.5 61z" />
<glyph unicode="&#x161;" horiz-adv-x="821" d="M602 1393h41l-176 -312q-11 -19 -16.5 -27.5t-23.5 -19t-42 -10.5t-38 7t-19.5 15t-20.5 35l-176 312h41l215 -211zM442 371l-129 61q-73 35 -132.5 97.5t-59.5 140.5q0 129 88.5 194.5t232.5 65.5q34 0 122 -16.5t114 -28.5v-178h-70q-22 165 -186 165q-48 0 -82 -14 t-49.5 -37.5t-21.5 -44.5t-7 -45q-1 -29 9 -52t32.5 -40.5t38 -26.5t43.5 -22l121 -58q36 -17 56.5 -28t52.5 -35.5t49.5 -50t31 -66.5t13.5 -90q0 -130 -101.5 -209.5t-245.5 -79.5q-54 0 -117 18t-97 33.5t-56 28.5v197h68q9 -32 15 -50.5t24 -52.5t39 -53t58.5 -35 t84.5 -16q83 0 128.5 52t43.5 116q-2 53 -25 91.5t-86 68.5z" />
<glyph unicode="&#x178;" horiz-adv-x="1425" d="M520 1823q47 0 78 -30.5t31 -80.5q0 -45 -31.5 -77.5t-77.5 -32.5q-45 0 -77.5 33.5t-32.5 76.5q0 49 31.5 80t78.5 31zM868 1823q47 0 78 -30.5t31 -80.5q0 -45 -31.5 -77.5t-77.5 -32.5q-45 0 -77.5 33.5t-32.5 76.5q0 49 31.5 80t78.5 31zM993 1364h381v-39 q-61 -4 -99.5 -17.5t-57 -30.5t-43.5 -52l-361 -523v-561q0 -24 8.5 -42t26.5 -28.5t34.5 -17t44.5 -9t43.5 -3t43.5 -0.5v-41h-582v41q32 -4 67 -1.5t65 10t49.5 31t19.5 60.5v521l-381 563q-42 61 -92 80.5t-109 19.5v39h502v-39q-83 -7 -99.5 -31.5t17.5 -68.5l301 -443 l301 443q26 28 32 47t-7.5 29.5t-38 16t-66.5 7.5v39z" />
<glyph unicode="&#x17d;" horiz-adv-x="1271" d="M846 1855h41l-176 -311q-11 -19 -16.5 -27.5t-23.5 -19t-42 -10.5t-38 7t-19.5 15t-20.5 35l-176 311h41l215 -210zM168 1044l61 320h908q45 0 26 -27l-733 -1116q-27 -41 -39.5 -69t-15 -42t8 -21t19.5 -8t30 -1h9h469q173 0 242 239h59l-59 -319h-1032q-19 0 -29 2 t-11 8t0.5 10t6.5 13l852 1251h-436q-38 0 -69.5 -4t-55.5 -13.5t-42 -18.5t-32 -26.5t-23.5 -29.5t-18 -35t-12.5 -36t-11 -39t-11 -38h-61z" />
<glyph unicode="&#x17e;" horiz-adv-x="880" d="M664 1393h41l-177 -312q-11 -19 -16.5 -27.5t-23.5 -19t-42 -10.5t-38 7.5t-19 14.5t-20 35l-176 312h40l216 -211zM92 696l41 246q20 0 31.5 -6.5t16 -14t21 -14t46.5 -6.5q569 -2 571 0v-41l-516 -708q-28 -38 -24.5 -64.5t38.5 -26.5h324q32 0 62.5 43.5t46.5 89.5 t18 72h61l-41 -266h-737v61l594 779h-409q-53 -73 -62 -144h-82z" />
<glyph unicode="&#x192;" horiz-adv-x="1208" d="M385 901h199q38 171 58 231q97 295 309 320q21 2 42 2q57 0 100.5 -23.5t43.5 -78.5q0 -38 -20.5 -71t-61.5 -32q-15 1 -30 20t-25.5 42t-28.5 42t-39 19q-46 0 -90.5 -100.5t-67 -205.5t-26.5 -165h204v-61h-217q-17 -78 -37.5 -177.5t-34 -169.5t-32 -155t-34 -144 t-38.5 -124.5t-46.5 -109t-56.5 -86t-70.5 -66.5t-85.5 -39t-105 -15q-46 0 -84.5 38.5t-38.5 84.5q0 17 13.5 39.5t27.5 22.5q34 0 60 -16t39.5 -35.5t35.5 -35.5t49 -16q35 0 79.5 129.5t86.5 336.5t62.5 319.5t37.5 218.5h-184z" />
<glyph unicode="&#x2c6;" horiz-adv-x="655" d="M86 1044l176 312q11 19 16.5 27.5t23.5 19t42 10.5t38 -7t19.5 -15t20.5 -35l176 -312h-41l-215 211l-215 -211h-41z" />
<glyph unicode="&#x2c7;" horiz-adv-x="655" d="M543 1393h41l-176 -312q-11 -19 -16.5 -27.5t-23.5 -19t-42 -10.5t-38 7t-19.5 15t-20.5 35l-176 312h41l215 -211z" />
<glyph unicode="&#x2d8;" horiz-adv-x="716" d="M584 1434h61q-8 -71 -28 -129t-53.5 -103.5t-86 -70.5t-119.5 -25q-130 0 -200 89.5t-86 238.5h61q15 -94 74.5 -149.5t150.5 -55.5q94 0 160 57.5t66 147.5z" />
<glyph unicode="&#x2d9;" horiz-adv-x="348" d="M182 1407q47 0 78 -30.5t31 -80.5q0 -45 -31.5 -77.5t-77.5 -32.5q-45 0 -77.5 33.5t-32.5 76.5q0 49 31.5 80t78.5 31z" />
<glyph unicode="&#x2da;" horiz-adv-x="512" d="M256 1454q76 0 130 -54t54 -130q0 -77 -54 -131t-130 -54t-130 54t-54 131q0 76 54 130t130 54zM256 1384q-102 0 -102 -114q0 -115 102 -115t102 115q0 114 -102 114z" />
<glyph unicode="&#x2db;" horiz-adv-x="512" d="M297 0h82q-184 -158 -184 -266q0 -42 23 -62t58 -20q93 0 123 61l41 -20q-29 -58 -81.5 -90.5t-102.5 -32.5q-184 0 -184 164q0 20 7 43t27.5 58t69.5 78.5t121 86.5z" />
<glyph unicode="&#x2dc;" horiz-adv-x="819" d="M297 1331l205 -82q36 -12 64.5 -12t49 9t37.5 31.5t29 49t25 66.5l41 -41q0 -117 -61.5 -184.5t-143.5 -41.5l-226 82q-25 10 -46 11t-38 -7.5t-30.5 -21t-26.5 -34.5t-22 -41.5t-21 -49.5l-61 20q0 67 30.5 134.5t84.5 103.5t110 8z" />
<glyph unicode="&#x2dd;" horiz-adv-x="792" d="M72 1044l176 291q16 27 50.5 43.5t61.5 -0.5q28 -20 31.5 -43t-9 -42t-40.5 -44l-229 -205h-41zM399 1044l176 291q15 27 50.5 43.5t62.5 -0.5q28 -20 31.5 -43t-9 -42t-40.5 -44l-230 -205h-41z" />
<glyph unicode="&#x2000;" horiz-adv-x="958" />
<glyph unicode="&#x2001;" horiz-adv-x="1917" />
<glyph unicode="&#x2002;" horiz-adv-x="958" />
<glyph unicode="&#x2003;" horiz-adv-x="1917" />
<glyph unicode="&#x2004;" horiz-adv-x="639" />
<glyph unicode="&#x2005;" horiz-adv-x="479" />
<glyph unicode="&#x2006;" horiz-adv-x="319" />
<glyph unicode="&#x2007;" horiz-adv-x="319" />
<glyph unicode="&#x2008;" horiz-adv-x="239" />
<glyph unicode="&#x2009;" horiz-adv-x="383" />
<glyph unicode="&#x200a;" horiz-adv-x="106" />
<glyph unicode="&#x2010;" horiz-adv-x="655" d="M72 471l491 61l21 -102l-492 -61z" />
<glyph unicode="&#x2011;" horiz-adv-x="655" d="M72 471l491 61l21 -102l-492 -61z" />
<glyph unicode="&#x2012;" horiz-adv-x="655" d="M72 471l491 61l21 -102l-492 -61z" />
<glyph unicode="&#x2013;" horiz-adv-x="1187" d="M72 492h1044v-101h-1044v101z" />
<glyph unicode="&#x2014;" horiz-adv-x="1679" d="M72 492h1536v-101h-1536v101z" />
<glyph unicode="&#x2018;" horiz-adv-x="430" d="M338 1393v-62q-59 -9 -111.5 -75t-52.5 -130q0 -13 3 -21.5t6.5 -13t12.5 -6t15.5 -1.5t21 0.5t23.5 0.5q34 0 68 -29.5t34 -72.5q0 -39 -33.5 -81t-88.5 -42q-72 0 -118 52.5t-46 111.5q0 81 23.5 148t63 111t85 71.5t94.5 38.5z" />
<glyph unicode="&#x2019;" horiz-adv-x="573" d="M164 860v62q59 9 111.5 74.5t52.5 129.5q0 13 -3 21.5t-6.5 13t-12.5 6t-15.5 1.5t-21 -0.5t-23.5 -0.5q-34 0 -68.5 30t-34.5 73q0 38 34 80.5t89 42.5q72 0 118 -52.5t46 -111.5q0 -81 -23.5 -148t-63 -111t-85 -71.5t-94.5 -38.5z" />
<glyph unicode="&#x201a;" horiz-adv-x="430" d="M92 -307v61q59 9 111.5 75t52.5 130q0 13 -3 21.5t-6.5 13t-12.5 6t-15.5 1.5t-21 -0.5t-23.5 -0.5q-34 0 -68 29.5t-34 72.5q0 38 34 80.5t89 42.5q72 0 117.5 -52t45.5 -112q0 -81 -23.5 -148t-63 -110.5t-85 -71t-94.5 -38.5z" />
<glyph unicode="&#x201c;" horiz-adv-x="798" d="M338 1393v-62q-59 -9 -111.5 -75t-52.5 -130q0 -13 3 -21.5t6.5 -13t12.5 -6t15.5 -1.5t21 0.5t23.5 0.5q34 0 68 -29.5t34 -72.5q0 -39 -33.5 -81t-88.5 -42q-72 0 -118 52.5t-46 111.5q0 81 23.5 148t63 111t85 71.5t94.5 38.5zM707 1393v-62q-59 -9 -111.5 -75 t-52.5 -130q0 -13 3 -21.5t6.5 -13t12.5 -6t15.5 -1.5t21 0.5t23.5 0.5q34 0 68 -29.5t34 -72.5q0 -38 -34 -80.5t-89 -42.5q-72 0 -118 52.5t-46 111.5q0 81 23.5 148t63.5 111t85.5 71.5t94.5 38.5z" />
<glyph unicode="&#x201d;" horiz-adv-x="798" d="M92 860v62q59 9 111.5 74.5t52.5 129.5q0 13 -3 21.5t-6.5 13t-12.5 6t-15.5 1.5t-21 -0.5t-23.5 -0.5q-34 0 -68 30t-34 73q0 38 34 80.5t89 42.5q72 0 117.5 -52t45.5 -112q0 -81 -23.5 -148t-63 -111t-85 -71.5t-94.5 -38.5zM461 860v62q59 9 111.5 74.5t52.5 129.5 q0 13 -3 21.5t-6.5 13t-12.5 6t-15.5 1.5t-21 -0.5t-23.5 -0.5q-34 0 -68.5 30t-34.5 73q0 38 34 80.5t89 42.5q72 0 118 -52.5t46 -111.5q0 -81 -23.5 -148t-63 -111t-85 -71.5t-94.5 -38.5z" />
<glyph unicode="&#x201e;" horiz-adv-x="798" d="M92 -307v61q59 9 111.5 75t52.5 130q0 13 -3 21.5t-6.5 13t-12.5 6t-15.5 1.5t-21 -0.5t-23.5 -0.5q-34 0 -68 29.5t-34 72.5q0 38 34 80.5t89 42.5q72 0 117.5 -52t45.5 -112q0 -81 -23.5 -148t-63 -110.5t-85 -71t-94.5 -38.5zM461 -307v61q59 9 111.5 75t52.5 130 q0 13 -3 21.5t-6.5 13t-12.5 6t-15.5 1.5t-21 -0.5t-23.5 -0.5q-34 0 -68.5 29.5t-34.5 72.5q0 38 34 80.5t89 42.5q72 0 118 -52.5t46 -111.5q0 -81 -23.5 -148t-63 -110.5t-85 -71t-94.5 -38.5z" />
<glyph unicode="&#x2020;" horiz-adv-x="921" d="M420 -266v286q0 175 -14.5 286t-47.5 226q45 61 63.5 145t18.5 224q-69 0 -156 -30.5t-110 -30.5q-44 0 -73 25t-29 57t29 57t73 25q23 0 110 -31t156 -31q0 77 -13 140.5t-28 96t-28 62.5t-13 49q0 34 30 68.5t73 34.5t72.5 -34.5t29.5 -68.5q0 -19 -9.5 -49t-21 -62.5 t-21 -96t-9.5 -140.5q53 0 101.5 15.5t84.5 31t60 15.5q44 0 73 -25t29 -57t-29 -57t-73 -25q-23 0 -100 30.5t-146 30.5q0 -114 2 -164.5t16 -108t43 -96.5q-33 -114 -47 -225t-14 -287v-286h-82z" />
<glyph unicode="&#x2021;" horiz-adv-x="921" d="M461 1393q43 0 72.5 -34.5t29.5 -68.5q0 -19 -9.5 -46t-21 -55.5t-21 -88.5t-9.5 -137q38 0 56.5 0.5t43 5.5t43.5 14q84 41 123 41q41 0 61.5 -32t20.5 -70q0 -35 -20 -58.5t-62 -23.5q-23 0 -110 30.5t-156 30.5q0 -143 9.5 -204t51.5 -103q-42 -42 -51.5 -113 t-9.5 -235q28 0 56.5 7t43 13.5t43.5 20.5q41 20 123 20q42 0 62 -23.5t20 -58.5t-20 -58.5t-62 -23.5q-23 0 -110 31t-156 31q0 -98 15 -176.5t30.5 -125t15.5 -67.5q0 -32 -29 -57t-73 -25q-42 0 -62 23.5t-20 58.5q0 21 15.5 67.5t30.5 125t15 176.5q-69 0 -156 -31 t-110 -31q-44 0 -73 25t-29 57t29 57t73 25q25 0 36.5 -0.5t28.5 -5t37 -14.5q84 -41 164 -41q0 141 -18.5 222t-63.5 126q46 46 64 114.5t18 192.5q-69 0 -156 -30.5t-110 -30.5q-44 0 -73 25t-29 57q0 34 29.5 68t72.5 34q19 0 33 -5t36 -18t33 -18q41 -20 164 -20 q0 77 -9.5 137t-21 88.5t-21 55.5t-9.5 46q0 38 20.5 70.5t61.5 32.5z" />
<glyph unicode="&#x2022;" horiz-adv-x="479" d="M236 758q55 0 102 -48t47 -102q0 -56 -46.5 -102.5t-102.5 -46.5q-54 0 -102 47t-48 102q0 54 48 102t102 48z" />
<glyph unicode="&#x2026;" horiz-adv-x="1249" d="M195 225q45 0 83.5 -39t38.5 -84q0 -46 -38 -84t-84 -38q-45 0 -84 38.5t-39 83.5q0 44 39.5 83.5t83.5 39.5zM625 225q45 0 84 -39t39 -84q0 -46 -38.5 -84t-84.5 -38q-45 0 -84 38.5t-39 83.5q0 44 39.5 83.5t83.5 39.5zM1055 225q45 0 84 -39t39 -84q0 -46 -38.5 -84 t-84.5 -38q-45 0 -84 38.5t-39 83.5q0 44 39.5 83.5t83.5 39.5z" />
<glyph unicode="&#x202f;" horiz-adv-x="383" />
<glyph unicode="&#x2030;" horiz-adv-x="2113" d="M1116 1434h103l-922 -1475h-143zM418 1415q141 0 237.5 -97t96.5 -241q0 -146 -96 -243t-238 -97q-143 0 -244.5 98t-101.5 242q0 143 101.5 240.5t244.5 97.5zM418 1370q-185 0 -185 -293q0 -55 8.5 -103t28.5 -92.5t58 -71t90 -26.5q48 0 83.5 24.5t55.5 67.5t29.5 93 t9.5 108t-9.5 108t-29.5 93t-55.5 67.5t-83.5 24.5zM991 657q141 0 237.5 -97t96.5 -241q0 -146 -96 -242.5t-238 -96.5q-143 0 -244.5 97.5t-101.5 241.5q0 143 101.5 240.5t244.5 97.5zM1708 657q141 0 237.5 -97t96.5 -241q0 -146 -96 -242.5t-238 -96.5 q-143 0 -244.5 97.5t-101.5 241.5q0 143 101.5 240.5t244.5 97.5zM991 612q-184 0 -184 -293q0 -55 8.5 -102.5t28 -92.5t57 -71t90.5 -26q48 0 83.5 24.5t55.5 67t29.5 92.5t9.5 108t-9.5 108t-29.5 93t-55.5 67.5t-83.5 24.5zM1708 612q-184 0 -184 -293q0 -55 8.5 -102.5 t28 -92.5t57 -71t90.5 -26q48 0 83.5 24.5t55.5 67t29.5 92.5t9.5 108t-9.5 108t-29.5 93t-55.5 67.5t-83.5 24.5z" />
<glyph unicode="&#x2039;" horiz-adv-x="532" d="M420 778q5 -3 13 -7t19.5 -15t8.5 -19q-6 -18 -105.5 -151t-99.5 -156t99.5 -156t105.5 -151q3 -8 -7.5 -18t-21.5 -17l-12 -6q-5 5 -102 97.5t-171.5 167t-74.5 83.5t74.5 83.5t171.5 167t102 97.5z" />
<glyph unicode="&#x203a;" horiz-adv-x="532" d="M113 778q5 -5 102 -97.5t171.5 -167t74.5 -83.5t-74.5 -83.5t-171.5 -167t-102 -97.5q-5 3 -13 7t-19.5 15t-8.5 19q6 18 105 151t99 156t-99 156t-105 151q-3 8 7.5 18.5t22.5 16.5z" />
<glyph unicode="&#x2044;" horiz-adv-x="1126" d="M911 1413h144l-881 -1433h-102z" />
<glyph unicode="&#x205f;" horiz-adv-x="479" />
<glyph unicode="&#x20ac;" horiz-adv-x="1372" d="M72 799h157q47 225 225.5 368.5t415.5 143.5q44 0 106.5 -12.5t127.5 -36t110.5 -65t45.5 -91.5q0 -44 -39 -73t-84 -29q-46 0 -74.5 33t-28.5 79q0 42 21 72q-55 28 -86 34.5t-99 6.5q-196 0 -307.5 -115t-142.5 -315h348v-82h-348v-103h348v-82h-348q17 -198 145 -314 t326 -116q128 0 213 29t156 115l40 -82q-81 -81 -199 -132.5t-231 -51.5q-276 0 -442 144.5t-205 407.5h-151v82h143q0 83 2 103h-145v82z" />
<glyph unicode="&#x2122;" horiz-adv-x="1064" d="M72 1393h387v-103h-13q0 33 -14 52.5t-26 19.5h-107v-322q0 -22 72 -22v-19h-211v19q29 0 45.5 5.5t18.5 10.5l1 6v322h-98q-5 0 -13.5 -6.5t-17 -24t-8.5 -41.5h-16v103zM852 1393h129v-19q-24 0 -38 -9t-15 -17l-2 -9v-299q0 -1 0.5 -2.5t4 -5t9.5 -6.5t20 -5.5 t33 -2.5v-19h-200v19q24 0 38 5.5t15 10.5l2 6v271l-150 -258l-4 -11q-4 0 -5.5 1.5t-4.5 9.5l-139 250v-263q0 -1 0.5 -2.5t4 -5t9 -6.5t18.5 -5.5t31 -2.5v-19h-180v19q22 0 38 2.5t23.5 5.5t11.5 6t5 6l2 2v299q0 16 -8 24.5t-16 9.5l-7 1v19h92l138 -252z" />
<glyph unicode="&#x2212;" horiz-adv-x="931" d="M72 492h788v-101h-788v101z" />
<glyph unicode="&#x221a;" horiz-adv-x="1320" d="M590 193l567 1091l92 -10l-655 -1352l-293 680l-197 -96l-32 67l309 152z" />
<glyph unicode="&#x221e;" horiz-adv-x="1007" d="M295 856q71 0 129.5 -59.5t91.5 -137.5q45 80 93.5 119t129.5 39q92 0 144.5 -70t52.5 -165q0 -98 -51 -161t-146 -63q-32 0 -57 8t-45.5 27t-32 33t-32 45.5t-29.5 44.5q-22 -37 -35 -57t-36.5 -48.5t-44.5 -42.5t-52.5 -25t-67.5 -11q-114 0 -174.5 67.5t-60.5 182.5 q0 274 223 274zM295 752q-84 0 -134 -39t-50 -119q0 -72 48 -114t122 -42q70 0 127 60t84 137q-28 54 -81.5 85.5t-115.5 31.5zM739 725q-29 0 -56 -15t-51 -44.5t-37.5 -50t-31.5 -52.5q25 -52 72 -82t104 -30q65 0 112.5 34.5t47.5 96.5q0 69 -44.5 106t-115.5 37z" />
<glyph unicode="&#x2248;" horiz-adv-x="815" d="M281 860l213 -82q69 -27 113.5 8.5t88.5 124.5l47 -28q-63 -159 -102.5 -205.5t-105.5 -22.5l-234 82q-15 5 -28.5 6.5t-24 1t-21.5 -6.5t-18.5 -10t-17 -16.5t-15 -19t-15 -24t-13.5 -25.5t-14.5 -29.5t-14.5 -29.5l-47 28q9 22 19.5 52.5t17.5 52.5t17 47.5t19.5 43 t23.5 33t29.5 22t36.5 6.5t46 -9zM281 532l213 -81q69 -27 113.5 8.5t88.5 124.5l47 -29q-60 -152 -104 -200.5t-104 -26.5l-234 82q-16 6 -30.5 8t-27.5 -2t-22 -7t-20.5 -16t-17.5 -19t-17 -25.5t-15 -27t-16 -32.5t-16 -33l-47 29q9 22 19.5 52.5t17.5 52.5t17 47.5 t19.5 42.5t23.5 32.5t29.5 22t36.5 6.5t46 -9z" />
<glyph unicode="&#x2260;" horiz-adv-x="921" d="M522 922h144l-88 -287h272v-82h-297l-68 -225h365v-82h-389l-82 -266h-103l70 266h-274v82h295l59 225h-354v82h374z" />
<glyph unicode="&#x2264;" horiz-adv-x="946" d="M76 737l798 369v-123l-655 -297l655 -297v-123l-798 369v102zM72 102h788v-100h-788v100z" />
<glyph unicode="&#x2265;" horiz-adv-x="946" d="M72 983v123l798 -369v-102l-798 -369v123l655 297zM86 102h788v-100h-788v100z" />
<glyph unicode="&#x25ca;" horiz-adv-x="1167" d="M522 1085h123l451 -573l-451 -573h-123l-450 573zM911 512l-327 451l-328 -451l328 -471z" />
<glyph unicode="&#xe000;" horiz-adv-x="901" d="M0 901h901v-901h-901v901z" />
<glyph unicode="&#xf8ff;" horiz-adv-x="1982" d="M74 1495h303v-250h-303v250zM1012 1495h338l561 -1495h-342l-119 332h-555l-119 -332h-332zM1370 580l-192 557l-197 -557h389zM72 1085h305v-1085h-305v1085z" />
<glyph horiz-adv-x="696" d="M174 1700q40 0 71 -31.5t31 -71.5q0 -41 -30.5 -71.5t-71.5 -30.5q-40 0 -71 31t-31 71q0 38 32 70.5t70 32.5zM522 1700q40 0 71.5 -31.5t31.5 -71.5q0 -41 -31 -71.5t-72 -30.5q-40 0 -71 31t-31 71q0 38 32 70.5t70 32.5z" />
<glyph d="M195 102h163q0 -27 26 -42.5t52 -17.5l25 -1v-41h-369v41q4 0 11 0.5t25 3.5t31.5 9t24.5 18.5t11 29.5z" />
<glyph horiz-adv-x="348" d="M-10 850l225 72q26 8 34.5 1t6.5 -22v-901h-164v721q0 29 -9.5 48t-27 27t-32 10.5t-33.5 2.5v41z" />
<glyph horiz-adv-x="450" d="M92 850l225 72q26 8 34.5 1t6.5 -22l-163 -180q0 29 -9.5 48t-27 27t-32.5 10.5t-34 2.5v41z" />
<glyph horiz-adv-x="1204" d="M70 1364h362v-1364h-362v41q182 -4 182 100v1084q0 28 -19.5 48.5t-43.5 30t-55 15t-43.5 6t-20.5 0.5v39z" />
<glyph horiz-adv-x="860" d="M72 643v86q72 79 155.5 128.5t160 59.5t140 -12t101 -87t37.5 -163v-553q0 -27 25.5 -42.5t50.5 -17.5l26 -1v-41h-369v41q4 0 11 0.5t25 3.5t31.5 9t24.5 18.5t11 29.5v533q0 97 -45.5 143.5t-111 40.5t-140.5 -52.5t-133 -123.5z" />
<glyph horiz-adv-x="1228" />
</font>
</defs>
</svg>
