<?xml version="1.0" encoding="UTF-8"?>
<svg id="Layer_1" xmlns="http://www.w3.org/2000/svg" version="1.1" viewBox="0 0 512 512">
  <!-- Generator: Adobe Illustrator 29.5.1, SVG Export Plug-In . SVG Version: 2.1.0 Build 141)  -->
  <defs>
    <style>
      .st0 {
        fill: #d9d9d9;
      }
    </style>
  </defs>
  <path class="st0" d="M512,0v512H0V0h512ZM324.4,82.15c-26.38,2.7-42.64,30.23-32.64,54.84,11.43,28.14,50.04,34.11,68.73,9.75,21.87-28.5-.32-68.26-36.09-64.59ZM204.75,102h-63.75v323h63.5v-190l91.25,190h64.25v-242h-64v109l-91.25-190Z"/>
  <polygon points="204.75 102 296 292 296 183 360 183 360 425 295.75 425 204.5 235 204.5 425 141 425 141 102 204.75 102"/>
  <path d="M324.4,82.15c35.77-3.67,57.96,36.09,36.09,64.59-18.69,24.36-57.3,18.39-68.73-9.75-10-24.62,6.25-52.14,32.64-54.84Z"/>
</svg>
